<?xml version="1.0" encoding="utf-8"?>
<!-- Generator: Adobe Illustrator 21.1.0, SVG Export Plug-In . SVG Version: 6.00 Build 0)  -->
<svg version="1.1" id="Ebene_1" xmlns="http://www.w3.org/2000/svg" xmlns:xlink="http://www.w3.org/1999/xlink" x="0px" y="0px"
	 width="1040px" height="600px" viewBox="0 0 1040 600" style="enable-background:new 0 0 1040 600;" xml:space="preserve">
<style type="text/css">
	.st0{fill:#FFFFFF;}
	.st1{fill:url(#Rectangle-3_3_);}
	.st2{enable-background:new    ;}
	.st3{fill:#B5DDFF;}
	.st4{fill:#818F96;}
	.st5{fill:url(#Rectangle-3_4_);}
	.st6{fill:#E6D1FF;}
	.st7{fill:url(#Rectangle-3_5_);}
	.st8{fill:#A4F3F8;}
	.st9{fill:#1F2429;}
	.st10{fill:#DCE1E6;}
	.st11{filter:url(#filter-5);}
	.st12{fill:#9543F5;}
	.st13{filter:url(#filter-7);}
	.st14{filter:url(#filter-9);}
</style>
<filter  filterUnits="objectBoundingBox" height="102.2%" id="filter-9" width="293.1%" x="-96.6%" y="-1.1%">
	<feGaussianBlur  in="SourceAlpha" result="shadowBlurInner1" stdDeviation="0.5"></feGaussianBlur>
	<feOffset  dx="0" dy="1" in="shadowBlurInner1" result="shadowOffsetInner1"></feOffset>
	<feComposite  in="shadowOffsetInner1" in2="SourceAlpha" k2="-1" k3="1" operator="arithmetic" result="shadowInnerInner1">
		</feComposite>
	
		<feColorMatrix  in="shadowInnerInner1" type="matrix" values="0 0 0 0 0.862745098   0 0 0 0 0.882352941   0 0 0 0 0.901960784  0 0 0 1 0">
		</feColorMatrix>
</filter>
<filter  filterUnits="objectBoundingBox" height="102.2%" id="filter-7" width="293.1%" x="-96.6%" y="-1.1%">
	<feGaussianBlur  in="SourceAlpha" result="shadowBlurInner1" stdDeviation="0.5"></feGaussianBlur>
	<feOffset  dx="0" dy="1" in="shadowBlurInner1" result="shadowOffsetInner1"></feOffset>
	<feComposite  in="shadowOffsetInner1" in2="SourceAlpha" k2="-1" k3="1" operator="arithmetic" result="shadowInnerInner1">
		</feComposite>
	
		<feColorMatrix  in="shadowInnerInner1" type="matrix" values="0 0 0 0 0.862745098   0 0 0 0 0.882352941   0 0 0 0 0.901960784  0 0 0 1 0">
		</feColorMatrix>
</filter>
<filter  filterUnits="objectBoundingBox" height="293.1%" id="filter-5" width="100.3%" x="-0.2%" y="-96.6%">
	<feGaussianBlur  in="SourceAlpha" result="shadowBlurInner1" stdDeviation="0.5"></feGaussianBlur>
	<feOffset  dx="0" dy="1" in="shadowBlurInner1" result="shadowOffsetInner1"></feOffset>
	<feComposite  in="shadowOffsetInner1" in2="SourceAlpha" k2="-1" k3="1" operator="arithmetic" result="shadowInnerInner1">
		</feComposite>
	
		<feColorMatrix  in="shadowInnerInner1" type="matrix" values="0 0 0 0 0.862745098   0 0 0 0 0.882352941   0 0 0 0 0.901960784  0 0 0 1 0">
		</feColorMatrix>
</filter>
<title>Weekly Report</title>
<desc>Created with Sketch.</desc>
<g id="Page-1">
	<g id="Weekly-Report">
		<rect id="Background" class="st0" width="1040" height="600"/>
		<g id="Group" transform="translate(220.000000, 50.000000)">
			
				<linearGradient id="Rectangle-3_3_" gradientUnits="userSpaceOnUse" x1="233.6581" y1="319.1966" x2="234.6581" y2="319.1966" gradientTransform="matrix(194.7143 0 0 -41.4286 -45364 13635.3174)">
				<stop  offset="0" style="stop-color:#449CF8"/>
				<stop  offset="1" style="stop-color:#196DEE"/>
			</linearGradient>
			<path id="Rectangle-3" class="st1" d="M132.6,390.8h174.7l0,0c11,0,20,9,20,20v1.4l0,0c0,11-9,20-20,20H132.6V390.8z"/>
			<g class="st2">
				<path class="st0" d="M241.9,418.1v-8.7h-3.1v-1.9c1.9,0,3.2-1.1,3.5-2.4h2.4v13H241.9z"/>
				<path class="st0" d="M256.3,407.4c-1,0.8-4.6,4.1-5.2,10.7h-2.9c0.5-7,4.9-10.6,4.9-10.6h-6.7v-2.4h9.9V407.4z"/>
				<path class="st0" d="M266.1,407.7c-0.6-0.2-1.3-0.5-2.1-0.5c-2.2,0-4,1.3-4.3,3.7c0.5-0.7,1.6-1.4,3.1-1.4
					c2.7,0,4.5,1.7,4.5,4.4c0,2.7-2.2,4.6-5,4.6c-2.8,0-5.3-2-5.3-6c0-4.7,2.9-7.6,7.2-7.6c1.2,0,2.2,0.3,2.7,0.6L266.1,407.7z
					 M262.2,416.1c1.3,0,2.3-0.8,2.3-2.2c0-1.3-1-2.2-2.3-2.2c-1.2,0-2.3,0.8-2.3,2.2C259.9,415.2,261,416.1,262.2,416.1z"/>
			</g>
			<g class="st2">
				<path class="st3" d="M277.7,412.3v-3.9h1.6v3.9h3.8v1.6h-3.8v3.9h-1.6v-3.9H274v-1.6H277.7z"/>
				<path class="st3" d="M284.9,410.3c0-0.2,0-0.4,0-0.5c0-2.2,1.6-4.2,4.5-4.2c2.8,0,4.4,1.8,4.4,4c0,1.7-1,3.1-2.4,4l-2.6,1.6
					c-0.7,0.5-1.4,1-1.6,1.8h6.7v1.8h-9.1c0-2.1,0.9-3.7,3.1-5.2l2.2-1.4c1.2-0.8,1.8-1.7,1.8-2.7c0-1.2-0.8-2.3-2.4-2.3
					c-1.7,0-2.5,1.2-2.5,2.7c0,0.2,0,0.4,0,0.6L284.9,410.3z"/>
				<path class="st3" d="M298.1,411.2l3.8-3.5h-6.2v-1.8h8.8v1.8l-3.7,3.4c1.9,0,4,1.3,4,3.9c0,2.2-1.7,4.2-4.7,4.2
					c-3,0-4.7-2-4.8-4.1l1.9-0.4c0.1,1.7,1.3,2.8,2.9,2.8c1.8,0,2.7-1.1,2.7-2.4c0-1.7-1.4-2.4-2.6-2.4c-0.4,0-0.8,0.1-1.1,0.2
					L298.1,411.2z"/>
			</g>
			<g class="st2">
				<path class="st4" d="M76.3,411.4c0-3.7,2.8-5.9,5.7-5.9c2.9,0,4.6,1.7,5.1,3.7l-1.8,0.6c-0.3-1.4-1.4-2.5-3.3-2.5
					c-1.9,0-3.7,1.4-3.7,4.1c0,2.7,1.8,4.1,3.8,4.1c1.9,0,3-1.2,3.4-2.5l1.8,0.6c-0.5,1.9-2.2,3.8-5.1,3.8
					C79,417.3,76.3,415.1,76.3,411.4z"/>
				<path class="st4" d="M90.6,412.6l2-0.3c0.4-0.1,0.6-0.3,0.6-0.6c0-0.7-0.4-1.2-1.5-1.2c-1,0-1.5,0.6-1.6,1.4l-1.7-0.4
					c0.1-1.3,1.4-2.5,3.3-2.5c2.4,0,3.3,1.4,3.3,2.9v3.9c0,0.7,0.1,1.2,0.1,1.2h-1.7c0,0-0.1-0.4-0.1-1c-0.4,0.6-1.1,1.2-2.4,1.2
					c-1.6,0-2.6-1.1-2.6-2.4C88.2,413.6,89.3,412.8,90.6,412.6z M93.2,413.9v-0.4l-2,0.3c-0.6,0.1-1,0.4-1,1.1c0,0.5,0.4,1,1.1,1
					C92.3,415.9,93.2,415.4,93.2,413.9z"/>
				<path class="st4" d="M97.2,417.1v-11.6h1.9v11.6H97.2z"/>
				<path class="st4" d="M101.5,417.1v-11.6h1.9v11.6H101.5z"/>
				<path class="st4" d="M106.7,414.5c0.1,0.7,0.6,1.3,1.6,1.3c0.8,0,1.2-0.4,1.2-0.9c0-0.4-0.3-0.7-0.9-0.9l-1.2-0.3
					c-1.4-0.3-2.1-1.2-2.1-2.3c0-1.4,1.2-2.5,2.9-2.5c2.2,0,2.9,1.4,3,2.2l-1.6,0.4c-0.1-0.4-0.4-1.2-1.4-1.2
					c-0.7,0-1.1,0.4-1.1,0.9c0,0.4,0.3,0.7,0.8,0.8l1.2,0.2c1.5,0.3,2.2,1.2,2.2,2.4c0,1.2-1,2.5-2.9,2.5c-2.3,0-3.1-1.5-3.2-2.4
					L106.7,414.5z"/>
			</g>
			<g class="st2">
				<path class="st4" d="M64.7,483.4V472h7v1.8h-5.1v3h4.6v1.7h-4.6v3h5.1v1.8H64.7z"/>
				<path class="st4" d="M77.6,483.4h-1.9l-3.2-7.8h2l2.1,5.6l2-5.6h2L77.6,483.4z"/>
				<path class="st4" d="M88.7,481.2c-0.4,1.4-1.6,2.5-3.5,2.5c-2.1,0-4-1.5-4-4.2c0-2.5,1.8-4.1,3.8-4.1c2.4,0,3.8,1.6,3.8,4
					c0,0.3,0,0.6,0,0.6H83c0,1.2,1,2,2.1,2c1.1,0,1.7-0.6,2-1.4L88.7,481.2z M86.9,478.6c0-0.9-0.6-1.7-1.9-1.7
					c-1.2,0-1.8,0.9-1.9,1.7H86.9z"/>
				<path class="st4" d="M92.4,483.4h-1.9v-7.8h1.8v1c0.5-0.9,1.4-1.3,2.3-1.3c1.9,0,2.8,1.4,2.8,3.1v4.9h-1.9v-4.6
					c0-1-0.4-1.7-1.6-1.7c-1.1,0-1.6,0.8-1.6,1.8V483.4z"/>
				<path class="st4" d="M102.1,475.6h1.6v1.6h-1.6v3.6c0,0.7,0.3,1,1,1c0.3,0,0.6,0,0.6-0.1v1.5c-0.1,0-0.5,0.2-1.1,0.2
					c-1.4,0-2.3-0.9-2.3-2.3v-3.9h-1.4v-1.6h0.4c0.8,0,1.2-0.5,1.2-1.2v-1.2h1.7V475.6z"/>
				<path class="st4" d="M106.7,480.8c0.1,0.7,0.6,1.3,1.6,1.3c0.8,0,1.2-0.4,1.2-0.9c0-0.4-0.3-0.7-0.9-0.9l-1.2-0.3
					c-1.4-0.3-2.1-1.2-2.1-2.3c0-1.4,1.2-2.5,2.9-2.5c2.2,0,2.9,1.4,3,2.2l-1.6,0.4c-0.1-0.4-0.4-1.2-1.4-1.2
					c-0.7,0-1.1,0.4-1.1,0.9c0,0.4,0.3,0.7,0.8,0.8l1.2,0.2c1.5,0.3,2.2,1.2,2.2,2.4c0,1.2-1,2.5-2.9,2.5c-2.3,0-3.1-1.5-3.2-2.4
					L106.7,480.8z"/>
			</g>
			
				<linearGradient id="Rectangle-3_4_" gradientUnits="userSpaceOnUse" x1="234.5517" y1="319.1966" x2="235.5517" y2="319.1966" gradientTransform="matrix(314.8571 0 0 -41.4286 -73717.7109 13701.6123)">
				<stop  offset="0" style="stop-color:#B975FD"/>
				<stop  offset="1" style="stop-color:#9543F5"/>
			</linearGradient>
			<path id="Rectangle-3_1_" class="st5" d="M132.6,457h294.9l0,0c11,0,20,9,20,20v1.4l0,0c0,11-9,20-20,20H132.6V457z"/>
			<g class="st2">
				<path class="st0" d="M369.9,478.7l5.5-7.3h3.4v7.8h2.1v2.4h-2.1v2.8H376v-2.8h-6.1V478.7z M376,474.3l-3.7,5h3.7V474.3z"/>
				<path class="st0" d="M384.3,476.7l3.4-2.9H382v-2.4h9.2v2.2l-3.4,2.8c2,0.1,3.8,1.6,3.8,4c0,2.2-1.8,4.3-5,4.3c-3,0-4.9-2-5-4.1
					l2.7-0.5c0.1,1.3,1,2.3,2.4,2.3c1.4,0,2.2-0.9,2.2-2c0-1.2-0.9-1.9-2.1-1.9c-0.6,0-0.9,0.1-1.2,0.2L384.3,476.7z"/>
			</g>
			<g class="st2">
				<path class="st6" d="M402.2,478.6v-3.9h1.6v3.9h3.8v1.6h-3.8v3.9h-1.6v-3.9h-3.7v-1.6H402.2z"/>
				<path class="st6" d="M411.7,485.2V476h-3.1v-1.4c1.8,0,3-1,3.3-2.4h1.7v13H411.7z"/>
				<path class="st6" d="M416.1,476.6c0-0.2,0-0.4,0-0.5c0-2.2,1.6-4.2,4.5-4.2c2.8,0,4.4,1.8,4.4,4c0,1.7-1,3.1-2.4,4l-2.6,1.6
					c-0.7,0.5-1.4,1-1.6,1.8h6.7v1.8h-9.1c0-2.1,0.9-3.7,3.1-5.2l2.2-1.4c1.2-0.8,1.8-1.7,1.8-2.7c0-1.2-0.8-2.3-2.4-2.3
					c-1.7,0-2.5,1.2-2.5,2.7c0,0.2,0,0.4,0,0.6L416.1,476.6z"/>
			</g>
			<g class="st2">
				<path class="st4" d="M65.8,350.8v-11.3h7v1.8h-5.1v3h4.6v1.7h-4.6v3h5.1v1.8H65.8z"/>
				<path class="st4" d="M74.8,350.8V343h1.8v1c0.4-0.8,1.4-1.2,2.3-1.2c1,0,1.9,0.5,2.3,1.4c0.6-1,1.5-1.4,2.5-1.4
					c1.4,0,2.8,0.9,2.8,3v5.1h-1.8v-4.8c0-0.9-0.5-1.6-1.5-1.6c-1,0-1.6,0.8-1.6,1.7v4.6h-1.8v-4.8c0-0.9-0.4-1.6-1.5-1.6
					c-1,0-1.6,0.7-1.6,1.7v4.6H74.8z"/>
				<path class="st4" d="M90.6,346.4l2-0.3c0.4-0.1,0.6-0.3,0.6-0.6c0-0.7-0.4-1.2-1.5-1.2c-1,0-1.5,0.6-1.6,1.4l-1.7-0.4
					c0.1-1.3,1.4-2.5,3.3-2.5c2.4,0,3.3,1.4,3.3,2.9v3.9c0,0.7,0.1,1.2,0.1,1.2h-1.7c0,0-0.1-0.4-0.1-1c-0.4,0.6-1.1,1.2-2.4,1.2
					c-1.6,0-2.6-1.1-2.6-2.4C88.3,347.3,89.3,346.5,90.6,346.4z M93.2,347.6v-0.4l-2,0.3c-0.6,0.1-1,0.4-1,1.1c0,0.5,0.4,1,1.1,1
					C92.3,349.6,93.2,349.1,93.2,347.6z"/>
				<path class="st4" d="M98.2,339.1c0.7,0,1.2,0.5,1.2,1.2s-0.5,1.2-1.2,1.2c-0.7,0-1.2-0.5-1.2-1.2S97.5,339.1,98.2,339.1z
					 M97.2,350.8V343h1.8v7.8H97.2z"/>
				<path class="st4" d="M101.5,350.8v-11.6h1.9v11.6H101.5z"/>
				<path class="st4" d="M106.7,348.3c0.1,0.7,0.6,1.3,1.6,1.3c0.8,0,1.2-0.4,1.2-0.9c0-0.4-0.3-0.7-0.9-0.9l-1.2-0.3
					c-1.4-0.3-2.1-1.2-2.1-2.3c0-1.4,1.2-2.5,2.9-2.5c2.2,0,2.9,1.4,3,2.2l-1.6,0.4c-0.1-0.4-0.4-1.2-1.4-1.2
					c-0.7,0-1.1,0.4-1.1,0.9c0,0.4,0.3,0.7,0.8,0.8l1.2,0.2c1.5,0.3,2.2,1.2,2.2,2.4c0,1.2-1,2.5-2.9,2.5c-2.3,0-3.1-1.5-3.2-2.4
					L106.7,348.3z"/>
			</g>
			
				<linearGradient id="Rectangle-3_5_" gradientUnits="userSpaceOnUse" x1="234.9102" y1="319.1966" x2="235.9102" y2="319.1966" gradientTransform="matrix(418.4286 0 0 -41.4286 -98160.5781 13569.0312)">
				<stop  offset="0" style="stop-color:#2BD8E8"/>
				<stop  offset="1" style="stop-color:#0FB9CF"/>
			</linearGradient>
			<path id="Rectangle-3_2_" class="st7" d="M132.6,324.5H531l0,0c11,0,20,9,20,20v1.4l0,0c0,11-9,20-20,20H132.6V324.5z"/>
			<g class="st2">
				<path class="st0" d="M472.6,341.1c-1,0.8-4.6,4.1-5.2,10.7h-2.9c0.5-7,4.9-10.6,4.9-10.6h-6.7v-2.4h9.9V341.1z"/>
				<path class="st0" d="M472.4,346.1l5.5-7.3h3.4v7.8h2.1v2.4h-2.1v2.8h-2.7V349h-6.1V346.1z M478.6,341.7l-3.7,5h3.7V341.7z"/>
				<path class="st0" d="M486.8,344.1l3.4-2.9h-5.7v-2.4h9.2v2.2l-3.4,2.8c2,0.1,3.8,1.6,3.8,4c0,2.2-1.8,4.3-5,4.3
					c-3,0-4.9-2-5-4.1l2.7-0.5c0.1,1.3,1,2.3,2.4,2.3c1.4,0,2.2-0.9,2.2-2c0-1.2-0.9-1.9-2.1-1.9c-0.6,0-0.9,0.1-1.2,0.2
					L486.8,344.1z"/>
			</g>
			<g class="st2">
				<path class="st8" d="M504.7,346v-3.9h1.6v3.9h3.8v1.6h-3.8v3.9h-1.6v-3.9H501V346H504.7z"/>
				<path class="st8" d="M514.2,352.6v-9.1h-3.1v-1.4c1.8,0,3-1,3.3-2.4h1.7v13H514.2z"/>
				<path class="st8" d="M527.7,341.6c-0.5-0.3-1.3-0.6-2.3-0.6c-2.7,0-4.4,2-4.6,4.6c0.5-0.9,1.7-1.7,3.4-1.7
					c2.6,0,4.4,1.6,4.4,4.4c0,2.8-2.3,4.4-4.8,4.4c-2.5,0-5.1-1.7-5.1-6c0-4.8,2.9-7.6,6.7-7.6c1.2,0,2.2,0.3,2.8,0.7L527.7,341.6z
					 M523.9,351.2c1.5,0,2.8-1,2.8-2.7c0-1.7-1.3-2.7-2.8-2.7c-1.5,0-2.8,1-2.8,2.7C521.1,350.2,522.4,351.2,523.9,351.2z"/>
			</g>
			<g class="st2">
				<path class="st9" d="M230.4,263.1h3.2l3.2,5.6l3.2-5.6h3.1l-5,8.2v6h-2.8v-6L230.4,263.1z"/>
				<path class="st9" d="M252.4,272.3c0,3-2.2,5.2-5.2,5.2c-2.9,0-5.2-2.2-5.2-5.2c0-3,2.2-5.2,5.2-5.2
					C250.1,267.1,252.4,269.3,252.4,272.3z M249.7,272.3c0-1.9-1.2-2.8-2.5-2.8s-2.5,0.9-2.5,2.8c0,1.8,1.2,2.8,2.5,2.8
					S249.7,274.2,249.7,272.3z"/>
				<path class="st9" d="M260.8,276.2c-0.5,0.9-1.7,1.3-2.7,1.3c-2.4,0-3.7-1.7-3.7-3.9v-6.2h2.7v5.7c0,1.1,0.6,2,1.8,2
					c1.2,0,1.9-0.8,1.9-1.9v-5.7h2.7v8.1c0,0.8,0.1,1.4,0.1,1.8h-2.5C260.8,277,260.8,276.6,260.8,276.2z"/>
				<path class="st9" d="M272.1,270c-0.3-0.1-0.6-0.1-0.8-0.1c-1.4,0-2.5,0.7-2.5,2.8v4.5h-2.7v-9.8h2.6v1.5c0.6-1.3,2-1.5,2.8-1.5
					c0.2,0,0.4,0,0.6,0V270z"/>
				<path class="st9" d="M281.2,271.6l2.4-0.4c0.6-0.1,0.7-0.4,0.7-0.7c0-0.7-0.5-1.3-1.7-1.3c-1.2,0-1.8,0.7-1.9,1.6l-2.4-0.5
					c0.2-1.5,1.6-3.2,4.2-3.2c3.1,0,4.3,1.8,4.3,3.7v4.8c0,0.5,0.1,1.2,0.1,1.6h-2.4c-0.1-0.3-0.1-0.8-0.1-1.2
					c-0.5,0.8-1.4,1.5-2.9,1.5c-2.1,0-3.4-1.4-3.4-3C278.3,272.8,279.6,271.8,281.2,271.6z M284.4,273.3v-0.4l-2.2,0.3
					c-0.7,0.1-1.2,0.5-1.2,1.2c0,0.6,0.4,1.1,1.3,1.1C283.4,275.5,284.4,275,284.4,273.3z"/>
				<path class="st9" d="M291.6,272.3c0,1.8,1.2,2.8,2.5,2.8s2-0.9,2.3-1.7l2.3,0.8c-0.4,1.6-2,3.3-4.6,3.3c-2.9,0-5.2-2.2-5.2-5.2
					c0-3,2.2-5.2,5.1-5.2c2.7,0,4.2,1.7,4.6,3.3l-2.4,0.8c-0.2-0.8-0.9-1.7-2.2-1.7C292.7,269.6,291.6,270.5,291.6,272.3z"/>
				<path class="st9" d="M303.9,267.4h2v2.4h-2v4.1c0,0.9,0.4,1.1,1.2,1.1c0.3,0,0.7,0,0.8-0.1v2.2c-0.2,0.1-0.7,0.2-1.5,0.2
					c-1.9,0-3.1-1.1-3.1-3v-4.6h-1.8v-2.4h0.5c1,0,1.5-0.7,1.5-1.6v-1.4h2.4V267.4z"/>
				<path class="st9" d="M309.5,262.5c0.9,0,1.6,0.7,1.6,1.7c0,0.9-0.7,1.6-1.6,1.6c-0.9,0-1.6-0.7-1.6-1.6
					C307.8,263.3,308.6,262.5,309.5,262.5z M308.1,277.2v-9.8h2.7v9.8H308.1z"/>
				<path class="st9" d="M319.1,277.2h-2.7l-4-9.8h2.9l2.4,6.6l2.3-6.6h2.8L319.1,277.2z"/>
				<path class="st9" d="M325.9,262.5c0.9,0,1.6,0.7,1.6,1.7c0,0.9-0.7,1.6-1.6,1.6c-0.9,0-1.6-0.7-1.6-1.6
					C324.2,263.3,325,262.5,325.9,262.5z M324.5,277.2v-9.8h2.7v9.8H324.5z"/>
				<path class="st9" d="M333.3,267.4h2v2.4h-2v4.1c0,0.9,0.4,1.1,1.2,1.1c0.3,0,0.7,0,0.8-0.1v2.2c-0.2,0.1-0.7,0.2-1.5,0.2
					c-1.9,0-3.1-1.1-3.1-3v-4.6h-1.8v-2.4h0.5c1,0,1.5-0.7,1.5-1.6v-1.4h2.4V267.4z"/>
				<path class="st9" d="M338.4,281.1l2.3-5.1l-4.2-8.6h3l2.6,5.8l2.4-5.8h2.8l-6.2,13.7H338.4z"/>
			</g>
			<g id="Rectangle-2" transform="translate(290.000000, 191.375000) scale(-1, 1) translate(-290.000000, -191.375000) ">
				<g>
					<rect id="path-4" y="191.9" class="st10" width="580" height="-1"/>
				</g>
				<g class="st11">
					<rect id="path-4_2_" y="191.9" width="580" height="-1"/>
				</g>
			</g>
			<g class="st2">
				<path class="st9" d="M460.1,122.6c0-4.1,2.9-7.6,6.7-8.9c-3.5-1.3-5.9-4.7-5.9-8.3c0-6,5.3-10.2,12.6-10.2
					c7.3,0,12.7,4.2,12.7,10.2c0,3.5-2.4,7-5.9,8.3c3.8,1.3,6.7,4.8,6.7,8.9c0,6-5.2,10.5-13.5,10.5
					C465.3,133.2,460.1,128.7,460.1,122.6z M480.4,122c0-3-2.4-5.6-6.8-5.6c-4.4,0-6.8,2.6-6.8,5.6c0,3,2.4,5.5,6.8,5.5
					C478,127.5,480.4,124.9,480.4,122z M479.5,105.8c0-2.7-2.3-5.2-6-5.2c-3.7,0-5.9,2.4-5.9,5.2c0,3,2.4,5.3,5.9,5.3
					C477.2,111.1,479.5,108.9,479.5,105.8z"/>
			</g>
			<g class="st2">
				<path class="st12" d="M415.6,161.3l-5.2-8.1v8.1h-2.2v-11.3h2.8l4.7,7.5v-7.5h2.2v11.3H415.6z"/>
				<path class="st12" d="M427.4,159c-0.4,1.4-1.6,2.5-3.6,2.5c-2.2,0-4.1-1.6-4.1-4.2c0-2.5,1.9-4.1,3.9-4.1c2.4,0,3.9,1.6,3.9,4.1
					c0,0.3,0,0.6,0,0.7h-5.6c0,1,0.9,1.8,2,1.8c1,0,1.5-0.5,1.8-1.2L427.4,159z M425.4,156.5c0-0.8-0.5-1.6-1.8-1.6
					c-1.1,0-1.7,0.8-1.8,1.6H425.4z"/>
				<path class="st12" d="M435.8,153.4l1.7,5.1l1.5-5.1h2.1l-2.5,7.9h-2.1l-1.8-5.4l-1.8,5.4h-2.2l-2.5-7.9h2.2l1.5,5.1l1.7-5.1
					H435.8z"/>
			</g>
			<g class="st2">
				<path class="st4" d="M447.6,149.7c2.8,0,5.7,2.1,5.7,5.9c0,3.8-2.8,5.9-5.7,5.9c-2.8,0-5.7-2.1-5.7-5.9
					C441.9,151.8,444.8,149.7,447.6,149.7z M447.6,160.1c2.1,0,4.1-1.5,4.1-4.5c0-3-2-4.5-4.1-4.5c-2.1,0-4.1,1.5-4.1,4.5
					C443.5,158.6,445.5,160.1,447.6,160.1z"/>
				<path class="st4" d="M455.3,164.3v-10.7h1.5v1.2c0.4-0.8,1.3-1.4,2.6-1.4c2.3,0,3.5,1.8,3.5,4c0,2.3-1.3,4.1-3.6,4.1
					c-1.2,0-2.1-0.6-2.5-1.2v4.1H455.3z M459.1,154.7c-1.4,0-2.3,1.2-2.3,2.7c0,1.6,0.9,2.7,2.3,2.7c1.4,0,2.3-1.1,2.3-2.7
					C461.4,155.9,460.5,154.7,459.1,154.7z"/>
				<path class="st4" d="M464.8,164.3v-10.7h1.5v1.2c0.4-0.8,1.3-1.4,2.6-1.4c2.3,0,3.5,1.8,3.5,4c0,2.3-1.3,4.1-3.6,4.1
					c-1.2,0-2.1-0.6-2.5-1.2v4.1H464.8z M468.6,154.7c-1.4,0-2.3,1.2-2.3,2.7c0,1.6,0.9,2.7,2.3,2.7c1.4,0,2.3-1.1,2.3-2.7
					C470.9,155.9,470,154.7,468.6,154.7z"/>
				<path class="st4" d="M481.6,157.4c0,2.4-1.6,4.1-3.9,4.1s-3.9-1.7-3.9-4.1c0-2.3,1.6-4.1,3.9-4.1S481.6,155.1,481.6,157.4z
					 M480,157.4c0-1.8-1.1-2.7-2.4-2.7s-2.4,1-2.4,2.7c0,1.8,1.1,2.8,2.4,2.8S480,159.2,480,157.4z"/>
				<path class="st4" d="M487.7,155.1c-0.2,0-0.4,0-0.7,0c-1.3,0-2.1,0.7-2.1,2.4v3.9h-1.5v-7.7h1.5v1.3c0.6-1.2,1.5-1.5,2.3-1.5
					c0.2,0,0.4,0,0.5,0V155.1z"/>
				<path class="st4" d="M491.8,153.6h1.7v1.4h-1.7v4c0,0.7,0.3,1.1,1.1,1.1c0.2,0,0.5,0,0.6-0.1v1.3c-0.1,0-0.5,0.1-1,0.1
					c-1.3,0-2.1-0.8-2.1-2.2v-4.2h-1.5v-1.4h0.4c0.8,0,1.2-0.5,1.2-1.2v-1.2h1.4V153.6z"/>
				<path class="st4" d="M498.2,161.5c-1.8,0-2.9-1.3-2.9-3.1v-4.8h1.5v4.6c0,1.1,0.5,2,1.7,2c1.2,0,1.8-0.8,1.8-2v-4.6h1.5v6.3
					c0,0.6,0,1.2,0.1,1.4h-1.4c0-0.2-0.1-0.6-0.1-0.9C500.1,161.2,499.1,161.5,498.2,161.5z"/>
				<path class="st4" d="M506,161.3h-1.5v-7.7h1.5v1.1c0.6-1,1.5-1.3,2.4-1.3c1.8,0,2.8,1.3,2.8,3v4.9h-1.5v-4.6
					c0-1.1-0.4-1.9-1.8-1.9c-1.2,0-1.8,0.9-1.8,2.1V161.3z"/>
				<path class="st4" d="M514.2,149.6c0.6,0,1.1,0.5,1.1,1.1c0,0.6-0.5,1.1-1.1,1.1c-0.6,0-1.1-0.5-1.1-1.1
					C513.1,150.1,513.6,149.6,514.2,149.6z M513.5,161.3v-7.7h1.5v7.7H513.5z"/>
				<path class="st4" d="M519.5,153.6h1.7v1.4h-1.7v4c0,0.7,0.3,1.1,1.1,1.1c0.2,0,0.5,0,0.6-0.1v1.3c-0.1,0-0.5,0.1-1,0.1
					c-1.3,0-2.1-0.8-2.1-2.2v-4.2h-1.5v-1.4h0.4c0.8,0,1.2-0.5,1.2-1.2v-1.2h1.4V153.6z"/>
				<path class="st4" d="M523.9,149.6c0.6,0,1.1,0.5,1.1,1.1c0,0.6-0.5,1.1-1.1,1.1c-0.6,0-1.1-0.5-1.1-1.1
					C522.9,150.1,523.3,149.6,523.9,149.6z M523.2,161.3v-7.7h1.5v7.7H523.2z"/>
				<path class="st4" d="M534,159.1c-0.4,1.4-1.7,2.4-3.5,2.4c-2.1,0-3.9-1.5-3.9-4.1c0-2.4,1.7-4.1,3.7-4.1c2.4,0,3.7,1.6,3.7,4
					c0,0.2,0,0.4,0,0.5h-5.8c0,1.4,1,2.3,2.3,2.3c1.2,0,1.9-0.7,2.2-1.6L534,159.1z M532.4,156.6c0-1.1-0.8-2-2.1-2
					c-1.3,0-2,1-2.1,2H532.4z"/>
				<path class="st4" d="M536.6,158.8c0.1,0.8,0.7,1.4,1.8,1.4c0.8,0,1.3-0.5,1.3-1c0-0.5-0.4-0.8-1-1l-1.3-0.3
					c-1.2-0.3-1.9-1.1-1.9-2.2c0-1.3,1.2-2.4,2.7-2.4c2.1,0,2.8,1.4,2.9,2.1l-1.3,0.5c-0.1-0.4-0.4-1.3-1.6-1.3
					c-0.8,0-1.3,0.5-1.3,1c0,0.5,0.3,0.8,0.9,0.9l1.2,0.3c1.4,0.3,2.1,1.2,2.1,2.3c0,1.1-0.9,2.4-2.8,2.4c-2.1,0-3-1.4-3.1-2.2
					L536.6,158.8z"/>
			</g>
			<g id="Rectangle-2_1_">
				<g>
					<rect id="path-6" x="383.2" y="79" class="st10" width="1" height="91.1"/>
				</g>
				<g class="st13">
					<rect id="path-6_2_" x="383.2" y="79" width="1" height="91.1"/>
				</g>
			</g>
			<g class="st2">
				<path class="st9" d="M271.7,132.3v-24.9h-8.8v-4.6c5.2-0.1,8.8-3,9.6-6.8h5.8v36.3H271.7z"/>
				<path class="st9" d="M285.3,109.2c-0.1-0.5-0.2-1.3-0.2-2.1c0-6.3,4.7-11.9,12.9-11.9c8,0,12.8,5.2,12.8,11.4
					c0,4.7-2.6,8.6-7,11.3l-7.1,4.4c-1.7,1.1-3.2,2.4-3.7,4.1h18v5.9h-26.3c0.1-6.2,2.3-11.1,8.6-15l6-3.8c3.2-2,4.6-4.2,4.6-6.8
					c0-3-2-5.7-6.1-5.7c-4.3,0-6.3,3-6.3,6.7c0,0.6,0.1,1.2,0.2,1.8L285.3,109.2z"/>
			</g>
			<g class="st2">
				<path class="st12" d="M246.9,161.3l-5.2-8.1v8.1h-2.2v-11.3h2.8l4.7,7.5v-7.5h2.2v11.3H246.9z"/>
				<path class="st12" d="M258.6,159c-0.4,1.4-1.6,2.5-3.6,2.5c-2.2,0-4.1-1.6-4.1-4.2c0-2.5,1.9-4.1,3.9-4.1c2.4,0,3.9,1.6,3.9,4.1
					c0,0.3,0,0.6,0,0.7h-5.6c0,1,0.9,1.8,2,1.8c1,0,1.5-0.5,1.8-1.2L258.6,159z M256.6,156.5c0-0.8-0.5-1.6-1.8-1.6
					c-1.1,0-1.7,0.8-1.8,1.6H256.6z"/>
				<path class="st12" d="M267,153.4l1.7,5.1l1.5-5.1h2.1l-2.5,7.9h-2.1l-1.8-5.4l-1.8,5.4h-2.2l-2.5-7.9h2.2l1.5,5.1l1.7-5.1H267z"
					/>
			</g>
			<g class="st2">
				<path class="st4" d="M273.2,155.6c0-3.8,2.8-5.9,5.6-5.9c2.6,0,4.4,1.4,5,3.6l-1.5,0.5c-0.4-1.7-1.7-2.7-3.5-2.7
					c-2.1,0-4,1.5-4,4.5c0,3,2,4.5,4,4.5c1.9,0,3.2-1.2,3.6-2.7l1.4,0.5c-0.6,2.1-2.4,3.6-5,3.6
					C275.9,161.5,273.2,159.4,273.2,155.6z"/>
				<path class="st4" d="M292.6,157.4c0,2.4-1.6,4.1-3.9,4.1s-3.9-1.7-3.9-4.1c0-2.3,1.6-4.1,3.9-4.1S292.6,155.1,292.6,157.4z
					 M291.1,157.4c0-1.8-1.1-2.7-2.4-2.7s-2.4,1-2.4,2.7c0,1.8,1.1,2.8,2.4,2.8S291.1,159.2,291.1,157.4z"/>
				<path class="st4" d="M296.1,161.3h-1.5v-7.7h1.5v1.1c0.6-1,1.5-1.3,2.4-1.3c1.8,0,2.8,1.3,2.8,3v4.9h-1.5v-4.6
					c0-1.1-0.4-1.9-1.8-1.9c-1.2,0-1.8,0.9-1.8,2.1V161.3z"/>
				<path class="st4" d="M305.6,153.6h1.7v1.4h-1.7v4c0,0.7,0.3,1.1,1.1,1.1c0.2,0,0.5,0,0.6-0.1v1.3c-0.1,0-0.5,0.1-1,0.1
					c-1.3,0-2.1-0.8-2.1-2.2v-4.2h-1.5v-1.4h0.4c0.8,0,1.2-0.5,1.2-1.2v-1.2h1.4V153.6z"/>
				<path class="st4" d="M311.1,156.9l2.1-0.3c0.5-0.1,0.6-0.3,0.6-0.6c0-0.8-0.5-1.4-1.7-1.4c-1.1,0-1.6,0.7-1.7,1.6l-1.4-0.3
					c0.2-1.5,1.5-2.5,3.2-2.5c2.3,0,3.2,1.3,3.2,2.8v3.9c0,0.7,0.1,1.1,0.1,1.3h-1.5c0-0.2-0.1-0.5-0.1-1c-0.3,0.5-1.1,1.3-2.5,1.3
					c-1.6,0-2.6-1.1-2.6-2.3C308.8,157.8,309.8,157.1,311.1,156.9z M313.8,158v-0.4l-2.4,0.4c-0.6,0.1-1.1,0.5-1.1,1.2
					c0,0.6,0.5,1.1,1.2,1.1C312.8,160.3,313.8,159.7,313.8,158z"/>
				<path class="st4" d="M318.5,157.4c0,1.8,1.1,2.7,2.4,2.7c1.4,0,2-1,2.1-1.6l1.3,0.6c-0.4,1.1-1.5,2.4-3.5,2.4
					c-2.2,0-3.9-1.8-3.9-4.1c0-2.4,1.7-4.1,3.9-4.1c2,0,3.1,1.3,3.4,2.4l-1.4,0.6c-0.2-0.8-0.8-1.6-2.1-1.6
					C319.6,154.7,318.5,155.6,318.5,157.4z"/>
				<path class="st4" d="M328.1,153.6h1.7v1.4h-1.7v4c0,0.7,0.3,1.1,1.1,1.1c0.2,0,0.5,0,0.6-0.1v1.3c-0.1,0-0.5,0.1-1,0.1
					c-1.3,0-2.1-0.8-2.1-2.2v-4.2h-1.5v-1.4h0.4c0.8,0,1.2-0.5,1.2-1.2v-1.2h1.4V153.6z"/>
				<path class="st4" d="M332.5,158.8c0.1,0.8,0.7,1.4,1.8,1.4c0.8,0,1.3-0.5,1.3-1c0-0.5-0.4-0.8-1-1l-1.3-0.3
					c-1.2-0.3-1.9-1.1-1.9-2.2c0-1.3,1.2-2.4,2.7-2.4c2.1,0,2.8,1.4,2.9,2.1l-1.3,0.5c-0.1-0.4-0.4-1.3-1.6-1.3
					c-0.8,0-1.3,0.5-1.3,1c0,0.5,0.3,0.8,0.9,0.9l1.2,0.3c1.4,0.3,2.1,1.2,2.1,2.3c0,1.1-0.9,2.4-2.8,2.4c-2.1,0-3-1.4-3.1-2.2
					L332.5,158.8z"/>
			</g>
			<g id="Rectangle-2_2_">
				<g>
					<rect id="path-8" x="196.8" y="79" class="st10" width="1" height="91.1"/>
				</g>
				<g class="st14">
					<rect id="path-8_2_" x="196.8" y="79" width="1" height="91.1"/>
				</g>
			</g>
			<g class="st2">
				<path class="st9" d="M72,109.2c-0.1-0.5-0.2-1.3-0.2-2.1c0-6.3,4.7-11.9,12.9-11.9c8,0,12.8,5.2,12.8,11.4c0,4.7-2.6,8.6-7,11.3
					l-7.1,4.4c-1.7,1.1-3.2,2.4-3.7,4.1h18v5.9H71.5c0.1-6.2,2.3-11.1,8.6-15l6-3.8c3.2-2,4.6-4.2,4.6-6.8c0-3-2-5.7-6.1-5.7
					c-4.3,0-6.3,3-6.3,6.7c0,0.6,0.1,1.2,0.2,1.8L72,109.2z"/>
				<path class="st9" d="M100.8,117.1L116.3,96h8.6v22.4h6.1v5.9h-6.1v8h-6.6v-8h-17.5V117.1z M118.3,102.8l-11.4,15.6h11.4V102.8z"
					/>
			</g>
			<g class="st2">
				<path class="st12" d="M71.9,161.3l-5.2-8.1v8.1h-2.2v-11.3h2.8l4.7,7.5v-7.5h2.2v11.3H71.9z"/>
				<path class="st12" d="M83.7,159c-0.4,1.4-1.6,2.5-3.6,2.5c-2.2,0-4.1-1.6-4.1-4.2c0-2.5,1.9-4.1,3.9-4.1c2.4,0,3.9,1.6,3.9,4.1
					c0,0.3,0,0.6,0,0.7h-5.6c0,1,0.9,1.8,2,1.8c1,0,1.5-0.5,1.8-1.2L83.7,159z M81.7,156.5c0-0.8-0.5-1.6-1.8-1.6
					c-1.1,0-1.7,0.8-1.8,1.6H81.7z"/>
				<path class="st12" d="M92.1,153.4l1.7,5.1l1.5-5.1h2.1l-2.5,7.9h-2.1l-1.8-5.4l-1.8,5.4h-2.2l-2.5-7.9h2.2l1.5,5.1l1.7-5.1H92.1
					z"/>
			</g>
			<g class="st2">
				<path class="st4" d="M98.9,161.3v-11.3h1.6v9.9h5.4v1.5H98.9z"/>
				<path class="st4" d="M114.2,159.1c-0.4,1.4-1.7,2.4-3.5,2.4c-2.1,0-3.9-1.5-3.9-4.1c0-2.4,1.7-4.1,3.7-4.1c2.4,0,3.7,1.6,3.7,4
					c0,0.2,0,0.4,0,0.5h-5.8c0,1.4,1,2.3,2.3,2.3c1.2,0,1.9-0.7,2.2-1.6L114.2,159.1z M112.7,156.6c0-1.1-0.8-2-2.1-2
					c-1.3,0-2,1-2.1,2H112.7z"/>
				<path class="st4" d="M118,156.9l2.1-0.3c0.5-0.1,0.6-0.3,0.6-0.6c0-0.8-0.5-1.4-1.7-1.4c-1.1,0-1.6,0.7-1.7,1.6l-1.4-0.3
					c0.2-1.5,1.5-2.5,3.2-2.5c2.3,0,3.2,1.3,3.2,2.8v3.9c0,0.7,0.1,1.1,0.1,1.3h-1.5c0-0.2-0.1-0.5-0.1-1c-0.3,0.5-1.1,1.3-2.5,1.3
					c-1.6,0-2.6-1.1-2.6-2.3C115.7,157.8,116.7,157.1,118,156.9z M120.7,158v-0.4l-2.4,0.4c-0.6,0.1-1.1,0.5-1.1,1.2
					c0,0.6,0.5,1.1,1.2,1.1C119.7,160.3,120.7,159.7,120.7,158z"/>
				<path class="st4" d="M129.9,160.1c-0.4,0.7-1.2,1.4-2.4,1.4c-2.3,0-3.6-1.8-3.6-4.1c0-2.2,1.5-4,3.6-4c1.4,0,2.1,0.7,2.4,1.3v-5
					h1.5v10.2c0,0.7,0.1,1.3,0.1,1.4H130c0-0.2-0.1-0.6-0.1-1V160.1z M127.7,160.2c1.4,0,2.2-1.2,2.2-2.8c0-1.6-0.8-2.7-2.2-2.7
					s-2.3,1.1-2.3,2.7C125.4,159,126.2,160.2,127.7,160.2z"/>
				<path class="st4" d="M134.6,158.8c0.1,0.8,0.7,1.4,1.8,1.4c0.8,0,1.3-0.5,1.3-1c0-0.5-0.4-0.8-1-1l-1.3-0.3
					c-1.2-0.3-1.9-1.1-1.9-2.2c0-1.3,1.2-2.4,2.7-2.4c2.1,0,2.8,1.4,2.9,2.1l-1.3,0.5c-0.1-0.4-0.4-1.3-1.6-1.3
					c-0.8,0-1.3,0.5-1.3,1c0,0.5,0.3,0.8,0.9,0.9l1.2,0.3c1.4,0.3,2.1,1.2,2.1,2.3c0,1.1-0.9,2.4-2.8,2.4c-2.1,0-3-1.4-3.1-2.2
					L134.6,158.8z"/>
			</g>
			<g class="st2">
				<path class="st9" d="M120.5,20.9l3.7-0.7v1.8c0,2,1.2,3,2.7,3c1.6,0,2.6-1.1,2.6-2.9V8.4h3.9v13.7c0,3.6-2.6,6.6-6.5,6.6
					c-3.9,0-6.5-2.6-6.5-6.5V20.9z"/>
				<path class="st9" d="M150.8,21.4c0,4.2-3.1,7.3-7.2,7.3c-4.1,0-7.2-3.1-7.2-7.3c0-4.3,3.1-7.3,7.2-7.3
					C147.7,14.1,150.8,17.1,150.8,21.4z M147.1,21.4c0-2.6-1.7-3.9-3.5-3.9c-1.8,0-3.5,1.3-3.5,3.9c0,2.6,1.7,3.9,3.5,3.9
					C145.4,25.3,147.1,24,147.1,21.4z"/>
				<path class="st9" d="M157.5,28.3h-3.7V8h3.7v7.6c0.9-1.1,2.4-1.5,3.7-1.5c3.5,0,5.1,2.4,5.1,5.5v8.7h-3.7v-8
					c0-1.5-0.8-2.7-2.5-2.7c-1.6,0-2.5,1.2-2.6,2.7V28.3z"/>
				<path class="st9" d="M173.8,28.3h-3.7V14.5h3.6v1.7c0.8-1.4,2.5-2.1,4-2.1c3.4,0,5,2.4,5,5.5v8.7h-3.7v-8c0-1.5-0.8-2.7-2.5-2.7
					c-1.6,0-2.6,1.3-2.6,2.9V28.3z"/>
				<path class="st9" d="M188.7,23.7c1.7,0,2.8,1.4,2.8,3.2c0,4.1-2.9,5.9-4.9,6.1v-1.8c1.3-0.3,2.6-1.5,2.7-3
					c-0.1,0.1-0.4,0.2-0.7,0.2c-1.4,0-2.3-1-2.3-2.3S187.3,23.7,188.7,23.7z"/>
				<path class="st9" d="M202.1,28.3V8h3.7v20.3H202.1z"/>
				<path class="st9" d="M213,20.4l3.4-0.5c0.8-0.1,1-0.5,1-1c0-1-0.8-1.8-2.3-1.8c-1.6,0-2.5,1-2.6,2.2l-3.3-0.7
					c0.2-2.2,2.2-4.5,5.9-4.5c4.4,0,6,2.5,6,5.2v6.8c0,0.7,0.1,1.7,0.2,2.2h-3.4c-0.1-0.4-0.1-1.1-0.1-1.7c-0.7,1.1-2,2-4.1,2
					c-2.9,0-4.7-2-4.7-4.1C208.9,22.1,210.7,20.7,213,20.4z M217.4,22.7v-0.6l-3.1,0.5c-1,0.1-1.7,0.7-1.7,1.7
					c0,0.8,0.6,1.6,1.8,1.6C216,25.9,217.4,25.1,217.4,22.7z"/>
				<path class="st9" d="M226.8,23.7c0.1,1.1,0.9,2.1,2.5,2.1c1.2,0,1.8-0.6,1.8-1.4c0-0.6-0.4-1.1-1.5-1.3l-1.8-0.4
					c-2.7-0.6-3.9-2.2-3.9-4.1c0-2.5,2.2-4.5,5.2-4.5c3.9,0,5.2,2.5,5.4,4l-3.1,0.7c-0.1-0.8-0.7-1.8-2.3-1.8c-1,0-1.8,0.6-1.8,1.4
					c0,0.7,0.5,1.1,1.3,1.2l2,0.4c2.7,0.6,4.1,2.2,4.1,4.2c0,2.2-1.7,4.5-5.3,4.5c-4.1,0-5.6-2.7-5.7-4.3L226.8,23.7z"/>
				<path class="st9" d="M242.3,14.5h2.8v3.3h-2.8v5.8c0,1.2,0.6,1.6,1.6,1.6c0.4,0,1-0.1,1.1-0.1v3.1c-0.3,0.1-1,0.3-2.1,0.3
					c-2.7,0-4.4-1.6-4.4-4.3v-6.4h-2.5v-3.3h0.7c1.5,0,2.1-1,2.1-2.2v-1.9h3.4V14.5z"/>
				<path class="st9" d="M266.8,14.5l3,8.9l2.5-8.9h3.7l-4.3,13.8H268l-3.2-9.4l-3.2,9.4h-3.8l-4.4-13.8h3.9l2.5,8.8l3-8.8H266.8z"
					/>
				<path class="st9" d="M290.3,24.3c-0.7,2.4-2.9,4.4-6.3,4.4c-3.8,0-7.1-2.7-7.1-7.4c0-4.4,3.2-7.3,6.8-7.3c4.3,0,6.8,2.7,6.8,7.1
					c0,0.5-0.1,1.1-0.1,1.1h-9.9c0.1,1.8,1.6,3.1,3.5,3.1c1.7,0,2.7-0.9,3.1-2.1L290.3,24.3z M286.8,19.8c-0.1-1.4-1-2.7-3.1-2.7
					c-1.9,0-3,1.5-3.1,2.7H286.8z"/>
				<path class="st9" d="M305.8,24.3c-0.7,2.4-2.9,4.4-6.3,4.4c-3.8,0-7.1-2.7-7.1-7.4c0-4.4,3.2-7.3,6.8-7.3c4.3,0,6.8,2.7,6.8,7.1
					c0,0.5-0.1,1.1-0.1,1.1h-9.9c0.1,1.8,1.6,3.1,3.5,3.1c1.7,0,2.7-0.9,3.1-2.1L305.8,24.3z M302.3,19.8c-0.1-1.4-1-2.7-3.1-2.7
					c-1.9,0-3,1.5-3.1,2.7H302.3z"/>
				<path class="st9" d="M316.8,20.3l5.6,8h-4.6l-3.6-5.3l-1.5,1.6v3.6h-3.7V8h3.7v11.6l4.8-5.1h4.9L316.8,20.3z"/>
				<path class="st9" d="M332.3,33.7l3.2-7.2l-5.9-12h4.2l3.7,8.1l3.4-8.1h4l-8.7,19.2H332.3z"/>
				<path class="st9" d="M360,21.4c0,4.2-3.1,7.3-7.2,7.3s-7.2-3.1-7.2-7.3c0-4.3,3.1-7.3,7.2-7.3S360,17.1,360,21.4z M356.2,21.4
					c0-2.6-1.7-3.9-3.5-3.9c-1.8,0-3.5,1.3-3.5,3.9c0,2.6,1.7,3.9,3.5,3.9C354.6,25.3,356.2,24,356.2,21.4z"/>
				<path class="st9" d="M371.7,26.8c-0.8,1.3-2.4,1.8-3.8,1.8c-3.3,0-5.2-2.4-5.2-5.4v-8.7h3.7v8c0,1.5,0.8,2.8,2.5,2.8
					c1.7,0,2.6-1.1,2.6-2.7v-8h3.7v11.3c0,1.1,0.1,2,0.1,2.5h-3.6C371.8,28,371.7,27.4,371.7,26.8z"/>
				<path class="st9" d="M390.6,13v1.5h3.1v3.2h-3.1v10.6h-3.8V17.7h-2.3v-3.2h2.3v-1.6c0-3.1,2-5.1,5-5.1c0.8,0,1.5,0.1,1.8,0.3
					v3.1c-0.2-0.1-0.6-0.1-1.2-0.1C391.7,11.1,390.6,11.5,390.6,13z"/>
				<path class="st9" d="M409.2,21.4c0,4.2-3.1,7.3-7.2,7.3s-7.2-3.1-7.2-7.3c0-4.3,3.1-7.3,7.2-7.3S409.2,17.1,409.2,21.4z
					 M405.5,21.4c0-2.6-1.7-3.9-3.5-3.9c-1.8,0-3.5,1.3-3.5,3.9c0,2.6,1.7,3.9,3.5,3.9C403.8,25.3,405.5,24,405.5,21.4z"/>
				<path class="st9" d="M421,26.8c-0.8,1.3-2.4,1.8-3.8,1.8c-3.3,0-5.2-2.4-5.2-5.4v-8.7h3.7v8c0,1.5,0.8,2.8,2.5,2.8
					c1.7,0,2.6-1.1,2.6-2.7v-8h3.7v11.3c0,1.1,0.1,2,0.1,2.5h-3.6C421.1,28,421,27.4,421,26.8z"/>
				<path class="st9" d="M432.3,28.3h-3.7V14.5h3.6v1.7c0.8-1.4,2.5-2.1,4-2.1c3.4,0,5,2.4,5,5.5v8.7h-3.7v-8c0-1.5-0.8-2.7-2.5-2.7
					c-1.6,0-2.6,1.3-2.6,2.9V28.3z"/>
				<path class="st9" d="M458,25.8c0,0.9,0.1,1.9,0.1,2.5h-3.6c-0.1-0.3-0.1-1-0.1-1.6c-0.6,1.1-2,1.9-3.9,1.9
					c-3.9,0-6.7-3.1-6.7-7.3c0-4,2.7-7.2,6.6-7.2c2.4,0,3.5,1,3.9,1.7V8h3.7V25.8z M451,25.3c1.9,0,3.4-1.5,3.4-3.9
					c0-2.5-1.5-3.8-3.4-3.8s-3.4,1.4-3.4,3.9S449.1,25.3,451,25.3z"/>
			</g>
		</g>
	</g>
</g>
</svg>
