<?xml version="1.0" encoding="utf-8"?>
<!-- Generator: Adobe Illustrator 21.1.0, SVG Export Plug-In . SVG Version: 6.00 Build 0)  -->
<svg version="1.1" id="Ebene_1" xmlns="http://www.w3.org/2000/svg" xmlns:xlink="http://www.w3.org/1999/xlink" x="0px" y="0px"
	 width="50px" height="75px" viewBox="0 0 50 75" style="enable-background:new 0 0 50 75;" xml:space="preserve">
<style type="text/css">
	.st0{fill:url(#SVGID_1_);}
	.st1{fill:#1F2429;}
	.st2{fill:url(#SVGID_2_);}
	.st3{fill:url(#SVGID_3_);}
</style>
<linearGradient id="SVGID_1_" gradientUnits="userSpaceOnUse" x1="-142.6667" y1="1149" x2="-67.6667" y2="1149" gradientTransform="matrix(6.123234e-17 -1 1 6.123234e-17 -1124 -67.6667)">
	<stop  offset="0" style="stop-color:#FFE637"/>
	<stop  offset="1" style="stop-color:#FECA00"/>
</linearGradient>
<polygon class="st0" points="50,0 50,75 25,62.5 0,75 0,0 "/>
<g>
	<path class="st1" d="M13.119,24.693c2.312,0,3.672,1.359,3.672,3.247c0,1.274-0.748,2.227-1.785,2.601
		c1.275,0.34,2.159,1.444,2.159,2.872c0,1.938-1.496,3.332-3.74,3.332H8.972V24.693H13.119z M12.847,29.793
		c1.19,0,1.904-0.68,1.904-1.683c0-1.021-0.714-1.684-1.955-1.684h-1.802v3.366H12.847z M13.068,35.012
		c1.224,0,2.023-0.663,2.023-1.734c0-1.037-0.697-1.768-1.955-1.768h-2.142v3.502H13.068z"/>
	<path class="st1" d="M26.506,34.383C26.064,35.827,24.755,37,22.767,37c-2.244,0-4.232-1.632-4.232-4.437
		c0-2.618,1.938-4.352,4.029-4.352c2.549,0,4.045,1.683,4.045,4.301c0,0.323-0.034,0.595-0.051,0.629h-6.052
		c0.051,1.258,1.037,2.158,2.261,2.158c1.19,0,1.802-0.629,2.074-1.444L26.506,34.383z M24.62,31.696
		c-0.034-0.969-0.68-1.836-2.04-1.836c-1.241,0-1.955,0.952-2.022,1.836H24.62z"/>
	<path class="st1" d="M30.969,28.467h1.717v1.751h-1.717v3.842c0,0.73,0.323,1.037,1.054,1.037c0.272,0,0.595-0.052,0.68-0.068
		v1.632c-0.119,0.051-0.493,0.187-1.207,0.187c-1.53,0-2.482-0.917-2.482-2.464v-4.165h-1.53v-1.751h0.425
		c0.884,0,1.275-0.561,1.275-1.292v-1.24h1.785V28.467z"/>
	<path class="st1" d="M36.526,32.003l2.125-0.323c0.476-0.068,0.612-0.306,0.612-0.595c0-0.697-0.476-1.258-1.564-1.258
		c-1.037,0-1.615,0.663-1.7,1.495l-1.802-0.407c0.153-1.428,1.445-2.703,3.484-2.703c2.55,0,3.519,1.445,3.519,3.094v4.113
		c0,0.748,0.085,1.241,0.102,1.326h-1.835c-0.017-0.051-0.085-0.391-0.085-1.054C38.991,36.32,38.175,37,36.833,37
		c-1.734,0-2.805-1.189-2.805-2.499C34.028,33.022,35.116,32.207,36.526,32.003z M39.263,33.312v-0.374l-2.159,0.323
		C36.492,33.362,36,33.702,36,34.383c0,0.561,0.425,1.07,1.207,1.07C38.311,35.453,39.263,34.927,39.263,33.312z"/>
</g>
</svg>
