<?xml version="1.0" encoding="utf-8"?>
<!-- Generator: Adobe Illustrator 21.1.0, SVG Export Plug-In . SVG Version: 6.00 Build 0)  -->
<svg version="1.1" id="Ebene_1" xmlns="http://www.w3.org/2000/svg" xmlns:xlink="http://www.w3.org/1999/xlink" x="0px" y="0px"
	 width="40px" height="60px" viewBox="0 0 40 60" style="enable-background:new 0 0 40 60;" xml:space="preserve">
<style type="text/css">
	.st0{fill:url(#SVGID_1_);}
	.st1{fill:#1F2429;}
	.st2{fill:url(#SVGID_2_);}
	.st3{fill:url(#SVGID_3_);}
</style>
<linearGradient id="SVGID_1_" gradientUnits="userSpaceOnUse" x1="-27.6667" y1="1044" x2="32.3333" y2="1044" gradientTransform="matrix(6.123234e-17 -1 1 6.123234e-17 -1024 32.3333)">
	<stop  offset="0" style="stop-color:#FFE637"/>
	<stop  offset="1" style="stop-color:#FECA00"/>
</linearGradient>
<polygon class="st0" points="40,0 40,60 20,50 0,60 0,0 "/>
<g>
	<path class="st1" d="M10.205,19.858c1.905,0,3.026,1.121,3.026,2.676c0,1.051-0.617,1.835-1.471,2.144
		c1.05,0.279,1.779,1.19,1.779,2.367c0,1.597-1.233,2.745-3.082,2.745h-3.67v-9.932H10.205z M9.98,24.061
		c0.98,0,1.569-0.56,1.569-1.387c0-0.84-0.588-1.387-1.611-1.387H8.454v2.773H9.98z M10.163,28.361c1.009,0,1.667-0.546,1.667-1.429
		c0-0.854-0.574-1.457-1.611-1.457H8.454v2.886H10.163z"/>
	<path class="st1" d="M21.241,27.843C20.876,29.033,19.798,30,18.159,30c-1.849,0-3.488-1.345-3.488-3.656
		c0-2.157,1.597-3.586,3.32-3.586c2.101,0,3.334,1.387,3.334,3.544c0,0.267-0.028,0.49-0.042,0.519h-4.987
		c0.042,1.037,0.854,1.779,1.863,1.779c0.98,0,1.484-0.519,1.709-1.19L21.241,27.843z M19.686,25.63
		c-0.028-0.799-0.561-1.513-1.681-1.513c-1.022,0-1.611,0.784-1.667,1.513H19.686z"/>
	<path class="st1" d="M24.925,22.969h1.415v1.442h-1.415v3.166c0,0.602,0.266,0.854,0.868,0.854c0.224,0,0.49-0.042,0.561-0.057
		v1.345c-0.098,0.042-0.406,0.154-0.995,0.154c-1.261,0-2.045-0.756-2.045-2.031v-3.432h-1.261v-1.442h0.35
		c0.729,0,1.05-0.463,1.05-1.065v-1.022h1.471V22.969z"/>
	<path class="st1" d="M29.512,25.882l1.751-0.266c0.392-0.057,0.504-0.253,0.504-0.49c0-0.575-0.393-1.037-1.289-1.037
		c-0.854,0-1.331,0.547-1.4,1.232l-1.485-0.336c0.126-1.177,1.19-2.228,2.872-2.228c2.101,0,2.899,1.191,2.899,2.55v3.39
		c0,0.616,0.07,1.022,0.084,1.093h-1.513c-0.014-0.042-0.07-0.322-0.07-0.868C31.543,29.439,30.871,30,29.764,30
		c-1.429,0-2.311-0.98-2.311-2.059C27.453,26.723,28.35,26.05,29.512,25.882z M31.768,26.961v-0.309l-1.779,0.267
		c-0.504,0.084-0.91,0.363-0.91,0.924c0,0.463,0.35,0.883,0.994,0.883C30.983,28.726,31.768,28.291,31.768,26.961z"/>
</g>
</svg>
