<?xml version="1.0" encoding="utf-8"?>
<!-- Generator: Adobe Illustrator 21.1.0, SVG Export Plug-In . SVG Version: 6.00 Build 0)  -->
<svg version="1.1" id="Ebene_1" xmlns="http://www.w3.org/2000/svg" xmlns:xlink="http://www.w3.org/1999/xlink" x="0px" y="0px"
	 width="30px" height="45px" viewBox="0 0 30 45" style="enable-background:new 0 0 30 45;" xml:space="preserve">
<style type="text/css">
	.st0{fill:url(#SVGID_1_);}
	.st1{fill:#1F2429;}
	.st2{fill:url(#SVGID_2_);}
	.st3{fill:url(#SVGID_3_);}
</style>
<linearGradient id="SVGID_1_" gradientUnits="userSpaceOnUse" x1="87.3333" y1="939" x2="132.3333" y2="939" gradientTransform="matrix(6.123234e-17 -1 1 6.123234e-17 -924 132.3333)">
	<stop  offset="0" style="stop-color:#FFE637"/>
	<stop  offset="1" style="stop-color:#FECA00"/>
</linearGradient>
<polygon class="st0" points="30,0 30,45 15,37.5 0,45 0,0 "/>
<g>
	<path class="st1" d="M6.594,13.317c1.631,0,2.591,0.959,2.591,2.29c0,0.899-0.528,1.571-1.259,1.835
		c0.899,0.24,1.523,1.02,1.523,2.027c0,1.367-1.056,2.351-2.639,2.351H3.668v-8.503H6.594z M6.402,16.915
		c0.839,0,1.343-0.479,1.343-1.188c0-0.72-0.504-1.188-1.379-1.188H5.095v2.375H6.402z M6.558,20.597
		c0.864,0,1.427-0.468,1.427-1.223c0-0.732-0.492-1.248-1.379-1.248H5.095v2.471H6.558z"/>
	<path class="st1" d="M16.061,20.153C15.749,21.173,14.826,22,13.422,22c-1.583,0-2.986-1.151-2.986-3.13
		c0-1.848,1.367-3.07,2.842-3.07c1.799,0,2.854,1.188,2.854,3.034c0,0.228-0.024,0.42-0.036,0.443h-4.27
		c0.036,0.888,0.731,1.523,1.595,1.523c0.839,0,1.271-0.443,1.463-1.02L16.061,20.153z M14.729,18.258
		c-0.024-0.684-0.479-1.295-1.439-1.295c-0.875,0-1.379,0.672-1.427,1.295H14.729z"/>
	<path class="st1" d="M19.231,15.979h1.211v1.235h-1.211v2.711c0,0.516,0.228,0.731,0.744,0.731c0.192,0,0.419-0.036,0.479-0.048
		v1.151c-0.084,0.035-0.348,0.132-0.852,0.132c-1.079,0-1.751-0.647-1.751-1.739v-2.938h-1.079v-1.235h0.3
		c0.624,0,0.899-0.396,0.899-0.911v-0.876h1.259V15.979z"/>
	<path class="st1" d="M23.173,18.475l1.499-0.229c0.336-0.048,0.432-0.216,0.432-0.42c0-0.491-0.336-0.887-1.104-0.887
		c-0.732,0-1.14,0.468-1.199,1.055l-1.271-0.287c0.108-1.008,1.02-1.907,2.458-1.907c1.799,0,2.483,1.02,2.483,2.183v2.902
		c0,0.527,0.06,0.876,0.072,0.936h-1.295c-0.012-0.036-0.06-0.275-0.06-0.743C24.912,21.521,24.336,22,23.389,22
		c-1.223,0-1.979-0.839-1.979-1.763C21.41,19.193,22.177,18.618,23.173,18.475z M25.104,19.397v-0.264l-1.523,0.228
		c-0.432,0.072-0.779,0.312-0.779,0.792c0,0.396,0.3,0.756,0.851,0.756C24.432,20.909,25.104,20.537,25.104,19.397z"/>
</g>
</svg>
