<?xml version="1.0" encoding="UTF-8"?>
<svg width="21px" height="20px" viewBox="0 0 21 20" version="1.1" xmlns="http://www.w3.org/2000/svg" xmlns:xlink="http://www.w3.org/1999/xlink">
    <!-- Generator: Sketch 46.2 (44496) - http://www.bohemiancoding.com/sketch -->
    <g id="Page---Skills" stroke="none" stroke-width="1" fill-rule="evenodd">
        <g id="Tablet-Landscape---996-Skills-Page-_V2" transform="translate(-895.000000, -4452.000000)" fill="#464E57">
            <g id="Footer" transform="translate(0.000000, 4392.000000)">
                <g id="Top">
                    <g id="Navi" transform="translate(585.000000, 60.000000)">
                        <path d="M330.571,12.054 L330.571,19.661 L326.165,19.661 L326.165,12.563 C326.165,11.625 325.984,10.891 325.622,10.36 C325.261,9.828 324.696,9.563 323.928,9.563 C323.366,9.563 322.895,9.717 322.515,10.025 C322.136,10.333 321.852,10.715 321.665,11.17 C321.567,11.438 321.518,11.8 321.518,12.255 L321.518,19.661 L317.112,19.661 C317.129,16.098 317.138,13.21 317.138,10.996 C317.138,8.782 317.133,7.46 317.125,7.032 L317.112,6.389 L321.518,6.389 L321.518,8.317 L321.491,8.317 C321.669,8.032 321.852,7.782 322.04,7.567 C322.227,7.353 322.48,7.121 322.797,6.871 C323.113,6.621 323.502,6.427 323.962,6.288 C324.422,6.15 324.933,6.081 325.495,6.081 C327.022,6.081 328.25,6.588 329.178,7.601 C330.107,8.614 330.571,10.098 330.571,12.054 L330.571,12.054 Z M310.254,19.661 L314.674,19.661 L314.674,6.389 L310.254,6.389 L310.254,19.661 Z M314.955,2.29 C314.964,2.942 314.738,3.487 314.279,3.925 C313.819,4.362 313.214,4.581 312.464,4.581 L312.437,4.581 C311.705,4.581 311.116,4.362 310.669,3.925 C310.223,3.487 310,2.942 310,2.29 C310,1.63 310.23,1.083 310.69,0.65 C311.149,0.217 311.75,0 312.491,0 C313.232,0 313.825,0.217 314.272,0.65 C314.718,1.083 314.946,1.63 314.955,2.29 L314.955,2.29 Z" id="Fill-14"></path>
                    </g>
                </g>
            </g>
        </g>
    </g>
</svg>