    <svg xmlns="http://www.w3.org/2000/svg" height="18px" viewBox="0 0 158 22">
        <style type="text/css"></style>
        <path d="M10.7 6.3C10.5 5.4 9.8 3.9 7.6 3.9c-1.6 0-2.7 1-2.7 2.2 0 0.9 0.6 1.7 1.8 1.9l2.4 0.5c3.1 0.6 4.8 2.6 4.8 5 0 2.6-2.2 5.3-6.1 5.3 -4.5 0-6.5-2.9-6.8-5.3l3.1-0.8c0.1 1.7 1.3 3.2 3.7 3.2 1.8 0 2.8-0.9 2.8-2.1 0-1-0.7-1.8-2.1-2l-2.4-0.5c-2.7-0.6-4.5-2.3-4.5-4.9C1.6 3.3 4.4 1 7.6 1c4.1 0 5.7 2.5 6.1 4.4L10.7 6.3z" /><path d="M27.1 14.5h-6.9l-1.4 3.9h-3.5l6.5-17h3.8l6.5 17h-3.6L27.1 14.5zM21.3 11.5h4.7l-2.4-6.4L21.3 11.5z" /><path d="M34.7 18.4V1.4h3.3v13.9h7.6v3.2H34.7z" /><path d="M48.3 18.4V1.4h10.7v3.1h-7.3v3.9h6.7v3h-6.6v3.9h7.3v3.1H48.3z" /><path d="M71.2 6.3C71 5.4 70.3 3.9 68.1 3.9c-1.6 0-2.7 1-2.7 2.2 0 0.9 0.6 1.7 1.8 1.9l2.4 0.5c3.1 0.6 4.8 2.6 4.8 5 0 2.6-2.2 5.3-6.1 5.3 -4.5 0-6.5-2.9-6.8-5.3l3.1-0.8c0.1 1.7 1.3 3.2 3.7 3.2 1.8 0 2.8-0.9 2.8-2.1 0-1-0.7-1.8-2.1-2l-2.4-0.5c-2.7-0.6-4.5-2.3-4.5-4.9C62.2 3.3 64.9 1 68.1 1c4.1 0 5.7 2.5 6.1 4.4L71.2 6.3z" /><path d="M88.6 18.4v-7.1h-7.4v7.1h-3.3V1.4h3.3v6.8h7.4V1.4h3.3v17H88.6z" /><path d="M96.3 18.4V1.4h10.7v3.1h-7.3v3.9h6.7v3h-6.6v3.9h7.3v3.1H96.3z" /><path d="M115.9 11.8h-1.7v6.6h-3.3V1.4h6.6c3.3 0 5.4 2.3 5.4 5.2 0 2.4-1.4 4.2-3.6 4.8l3.6 7h-3.7L115.9 11.8zM116.8 9c1.7 0 2.7-1 2.7-2.4 0-1.4-1-2.4-2.7-2.4h-2.7v4.7H116.8z" /><path d="M133.9 1c4.6 0 8.8 3.4 8.8 8.9 0 5.5-4.1 8.9-8.8 8.9 -4.6 0-8.7-3.4-8.7-8.9C125.2 4.4 129.3 1 133.9 1zM133.9 15.5c2.6 0 5.3-1.8 5.3-5.7s-2.7-5.7-5.3-5.7c-2.6 0-5.3 1.8-5.3 5.7S131.3 15.5 133.9 15.5z" /><path d="M144.2 21v-2.6h12.3V21H144.2z" />
    </svg>