<?xml version="1.0" encoding="utf-8"?>
<!-- Generator: Adobe Illustrator 21.1.0, SVG Export Plug-In . SVG Version: 6.00 Build 0)  -->
<svg version="1.1" id="Ebene_1" xmlns="http://www.w3.org/2000/svg" xmlns:xlink="http://www.w3.org/1999/xlink" x="0px" y="0px"
	 width="1040px" height="793px" viewBox="0 0 1040 793" style="enable-background:new 0 0 1040 793;" xml:space="preserve">
<style type="text/css">
	.st0{fill:#FFFFFF;}
	.st1{enable-background:new    ;}
	.st2{fill:#818F96;}
	.st3{fill:#1F2429;}
	.st4{fill:none;}
	.st5{fill:#0FB9CF;}
	.st6{fill:#CCD3DA;}
	.st7{fill:none;stroke:#CCD3DA;stroke-linecap:square;}
	.st8{fill:#196DEE;}
	.st9{fill:none;stroke:#196DEE;stroke-width:2;}
	.st10{fill:#464E57;}
	.st11{fill:#F5ECFF;}
</style>
<title>Closing Date</title>
<desc>Created with Sketch.</desc>
<g id="Page-1">
	<g id="Closing-Date">
		<g id="Group-6">
			<rect id="Rectangle" class="st0" width="1040" height="793"/>
			<g id="Group-4" transform="translate(130.000000, 50.000000)">
				<g class="st1">
					<path class="st2" d="M46,180h-2.5v7h-2.4v-17h6.4c3.2,0,5.2,2.3,5.2,5.1c0,2.4-1.6,4.3-4.1,4.8l4.1,7.1h-2.7L46,180z
						 M47.1,177.9c1.9,0,3.2-1.1,3.2-2.9c0-1.8-1.3-3-3.2-3h-3.6v5.8H47.1z"/>
					<path class="st2" d="M66.1,181.2c0,3.5-2.4,6.1-5.9,6.1c-3.5,0-5.9-2.6-5.9-6.1c0-3.5,2.4-6.1,5.9-6.1
						C63.6,175.1,66.1,177.7,66.1,181.2z M63.8,181.2c0-2.7-1.7-4.1-3.6-4.1c-1.9,0-3.6,1.4-3.6,4.1c0,2.7,1.7,4.1,3.6,4.1
						C62.1,185.3,63.8,183.9,63.8,181.2z"/>
					<path class="st2" d="M69,187v-17.4h2.2v7.5c0.6-1,1.9-2,3.8-2c3.5,0,5.3,2.7,5.3,6c0,3.4-1.9,6.1-5.4,6.1c-1.7,0-3-0.7-3.7-2
						v1.7H69z M74.6,177.1c-2,0-3.4,1.6-3.4,4.1c0,2.5,1.4,4.1,3.4,4.1c2.1,0,3.4-1.6,3.4-4.1C78,178.7,76.7,177.1,74.6,177.1z"/>
					<path class="st2" d="M84.3,169.5c0.9,0,1.6,0.7,1.6,1.6c0,0.9-0.7,1.6-1.6,1.6c-0.9,0-1.6-0.7-1.6-1.6
						C82.7,170.2,83.4,169.5,84.3,169.5z M83.2,187v-11.5h2.2V187H83.2z"/>
					<path class="st2" d="M91.5,187h-2.3v-11.5h2.2v1.7c0.8-1.4,2.2-2,3.6-2c2.8,0,4.1,2,4.1,4.6v7.3h-2.3v-6.9
						c0-1.6-0.7-2.9-2.7-2.9c-1.8,0-2.7,1.4-2.7,3.2V187z"/>
					<path class="st2" d="M111.8,177.5v9.5h-2.3v-9.5h-2.1v-2h2.1v-1.9c0-2.6,1.7-4,3.8-4c0.8,0,1.2,0.2,1.3,0.2v2
						c-0.1,0-0.4-0.1-1-0.1c-0.8,0-1.8,0.4-1.8,2v1.8h2.8v2H111.8z"/>
					<path class="st2" d="M127.4,181.2c0,3.5-2.4,6.1-5.9,6.1c-3.5,0-5.9-2.6-5.9-6.1c0-3.5,2.4-6.1,5.9-6.1
						C124.9,175.1,127.4,177.7,127.4,181.2z M125.1,181.2c0-2.7-1.7-4.1-3.6-4.1c-1.9,0-3.6,1.4-3.6,4.1c0,2.7,1.7,4.1,3.6,4.1
						C123.4,185.3,125.1,183.9,125.1,181.2z"/>
					<path class="st2" d="M134.3,187.4c-2.7,0-4.3-2-4.3-4.6v-7.3h2.3v6.9c0,1.6,0.7,3,2.6,3c1.8,0,2.7-1.2,2.7-3v-7h2.3v9.4
						c0,0.9,0.1,1.7,0.1,2.1h-2.2c0-0.3-0.1-0.9-0.1-1.4C137.1,186.8,135.7,187.4,134.3,187.4z"/>
					<path class="st2" d="M146,187h-2.3v-11.5h2.2v1.7c0.8-1.4,2.2-2,3.6-2c2.8,0,4.1,2,4.1,4.6v7.3h-2.3v-6.9
						c0-1.6-0.7-2.9-2.7-2.9c-1.8,0-2.7,1.4-2.7,3.2V187z"/>
					<path class="st2" d="M165.3,185.2c-0.6,1.1-1.8,2.1-3.6,2.1c-3.4,0-5.5-2.7-5.5-6.1c0-3.3,2.2-6,5.5-6c2,0,3.1,1,3.5,1.9v-7.5
						h2.2v15.2c0,1.1,0.1,1.9,0.1,2.1h-2.2c0-0.3-0.1-0.9-0.1-1.6V185.2z M161.9,185.3c2.1,0,3.3-1.8,3.3-4.2s-1.2-4-3.3-4
						c-2.1,0-3.4,1.7-3.4,4.1S159.8,185.3,161.9,185.3z"/>
					<path class="st2" d="M176.2,180.8l6.7-9.3h3.2v9.9h2.7v2.2h-2.7v3.5h-2.3v-3.5h-7.6V180.8z M183.9,173.7l-5.5,7.6h5.5V173.7z"
						/>
					<path class="st2" d="M207.9,181.2c0,3.5-2.4,6.1-5.9,6.1c-3.5,0-5.9-2.6-5.9-6.1c0-3.5,2.4-6.1,5.9-6.1
						C205.5,175.1,207.9,177.7,207.9,181.2z M205.6,181.2c0-2.7-1.7-4.1-3.6-4.1c-1.9,0-3.6,1.4-3.6,4.1c0,2.7,1.7,4.1,3.6,4.1
						C204,185.3,205.6,183.9,205.6,181.2z"/>
					<path class="st2" d="M210.8,191.6v-16.1h2.2v1.8c0.6-1.2,2-2.1,3.9-2.1c3.5,0,5.3,2.7,5.3,6c0,3.4-2,6.1-5.4,6.1
						c-1.8,0-3.1-0.8-3.7-1.9v6.1H210.8z M216.5,177.2c-2.1,0-3.4,1.7-3.4,4c0,2.4,1.4,4.1,3.4,4.1c2.1,0,3.4-1.7,3.4-4.1
						C219.9,178.9,218.6,177.2,216.5,177.2z"/>
					<path class="st2" d="M225,191.6v-16.1h2.2v1.8c0.6-1.2,2-2.1,3.9-2.1c3.5,0,5.3,2.7,5.3,6c0,3.4-2,6.1-5.4,6.1
						c-1.8,0-3.1-0.8-3.7-1.9v6.1H225z M230.7,177.2c-2.1,0-3.4,1.7-3.4,4c0,2.4,1.4,4.1,3.4,4.1c2.1,0,3.4-1.7,3.4-4.1
						C234.1,178.9,232.8,177.2,230.7,177.2z"/>
					<path class="st2" d="M250.1,181.2c0,3.5-2.4,6.1-5.9,6.1c-3.5,0-5.9-2.6-5.9-6.1c0-3.5,2.4-6.1,5.9-6.1
						C247.7,175.1,250.1,177.7,250.1,181.2z M247.8,181.2c0-2.7-1.7-4.1-3.6-4.1c-1.9,0-3.6,1.4-3.6,4.1c0,2.7,1.7,4.1,3.6,4.1
						C246.1,185.3,247.8,183.9,247.8,181.2z"/>
					<path class="st2" d="M259.4,177.7c-0.3,0-0.7-0.1-1-0.1c-1.9,0-3.2,1-3.2,3.6v5.8H253v-11.5h2.2v2c0.8-1.8,2.3-2.2,3.5-2.2
						c0.3,0,0.6,0,0.7,0.1V177.7z"/>
					<path class="st2" d="M265.4,175.5h2.5v2h-2.5v6c0,1.1,0.4,1.6,1.6,1.6c0.3,0,0.7,0,0.9-0.1v1.9c-0.2,0.1-0.8,0.2-1.5,0.2
						c-2,0-3.2-1.2-3.2-3.3v-6.3H261v-2h0.6c1.2,0,1.8-0.8,1.8-1.8v-1.9h2.1V175.5z"/>
					<path class="st2" d="M275.1,187.4c-2.7,0-4.3-2-4.3-4.6v-7.3h2.3v6.9c0,1.6,0.7,3,2.6,3c1.8,0,2.7-1.2,2.7-3v-7h2.3v9.4
						c0,0.9,0.1,1.7,0.1,2.1h-2.2c0-0.3-0.1-0.9-0.1-1.4C277.9,186.8,276.5,187.4,275.1,187.4z"/>
					<path class="st2" d="M286.8,187h-2.3v-11.5h2.2v1.7c0.8-1.4,2.2-2,3.6-2c2.8,0,4.1,2,4.1,4.6v7.3h-2.3v-6.9
						c0-1.6-0.7-2.9-2.7-2.9c-1.8,0-2.7,1.4-2.7,3.2V187z"/>
					<path class="st2" d="M299.1,169.5c0.9,0,1.6,0.7,1.6,1.6c0,0.9-0.7,1.6-1.6,1.6c-0.9,0-1.6-0.7-1.6-1.6
						C297.5,170.2,298.2,169.5,299.1,169.5z M298,187v-11.5h2.2V187H298z"/>
					<path class="st2" d="M307.1,175.5h2.5v2h-2.5v6c0,1.1,0.4,1.6,1.6,1.6c0.3,0,0.7,0,0.9-0.1v1.9c-0.2,0.1-0.8,0.2-1.5,0.2
						c-2,0-3.2-1.2-3.2-3.3v-6.3h-2.2v-2h0.6c1.2,0,1.8-0.8,1.8-1.8v-1.9h2.1V175.5z"/>
					<path class="st2" d="M313.7,169.5c0.9,0,1.6,0.7,1.6,1.6c0,0.9-0.7,1.6-1.6,1.6c-0.9,0-1.6-0.7-1.6-1.6
						C312.1,170.2,312.8,169.5,313.7,169.5z M312.6,187v-11.5h2.2V187H312.6z"/>
					<path class="st2" d="M328.7,183.7c-0.6,2-2.5,3.6-5.2,3.6c-3.1,0-5.8-2.3-5.8-6.2c0-3.6,2.6-6.1,5.5-6.1c3.6,0,5.5,2.4,5.5,6
						c0,0.3,0,0.6,0,0.7h-8.7c0,2.1,1.5,3.5,3.5,3.5c1.9,0,2.8-1,3.2-2.3L328.7,183.7z M326.4,180c0-1.7-1.1-3-3.2-3
						c-1.9,0-3,1.5-3.1,3H326.4z"/>
					<path class="st2" d="M332.6,183.3c0.1,1.2,1.1,2.2,2.7,2.2c1.3,0,2-0.7,2-1.5c0-0.7-0.5-1.3-1.5-1.5l-2-0.4
						c-1.8-0.4-2.9-1.6-2.9-3.2c0-2,1.8-3.6,4.1-3.6c3.2,0,4.2,2.1,4.4,3.1l-2,0.7c-0.1-0.6-0.6-1.9-2.4-1.9c-1.2,0-1.9,0.7-1.9,1.5
						c0,0.7,0.4,1.2,1.3,1.4l1.9,0.4c2.1,0.5,3.2,1.7,3.2,3.4c0,1.6-1.4,3.6-4.2,3.6c-3.2,0-4.5-2-4.7-3.4L332.6,183.3z"/>
					<path class="st2" d="M357.4,175.5l3,8.7l2.5-8.7h2.4l-3.7,11.5h-2.3l-3.1-8.8l-3,8.8h-2.4l-3.8-11.5h2.5l2.6,8.7l3-8.7H357.4z"
						/>
					<path class="st2" d="M368.7,169.5c0.9,0,1.6,0.7,1.6,1.6c0,0.9-0.7,1.6-1.6,1.6c-0.9,0-1.6-0.7-1.6-1.6
						C367.1,170.2,367.8,169.5,368.7,169.5z M367.6,187v-11.5h2.2V187H367.6z"/>
					<path class="st2" d="M376.7,175.5h2.5v2h-2.5v6c0,1.1,0.4,1.6,1.6,1.6c0.3,0,0.7,0,0.9-0.1v1.9c-0.2,0.1-0.8,0.2-1.5,0.2
						c-2,0-3.2-1.2-3.2-3.3v-6.3h-2.2v-2h0.6c1.2,0,1.8-0.8,1.8-1.8v-1.9h2.1V175.5z"/>
					<path class="st2" d="M384.4,187h-2.3v-17.4h2.3v7.2c0.8-1.2,2.2-1.7,3.5-1.7c2.8,0,4.1,2,4.1,4.6v7.3h-2.3v-6.9
						c0-1.6-0.7-2.9-2.7-2.9c-1.7,0-2.6,1.3-2.7,3V187z"/>
					<path class="st2" d="M412.5,181.2c0,3.5-2.4,6.1-5.9,6.1c-3.5,0-5.9-2.6-5.9-6.1c0-3.5,2.4-6.1,5.9-6.1
						C410,175.1,412.5,177.7,412.5,181.2z M410.2,181.2c0-2.7-1.7-4.1-3.6-4.1c-1.9,0-3.6,1.4-3.6,4.1c0,2.7,1.7,4.1,3.6,4.1
						C408.5,185.3,410.2,183.9,410.2,181.2z"/>
					<path class="st2" d="M419.4,187.4c-2.7,0-4.3-2-4.3-4.6v-7.3h2.3v6.9c0,1.6,0.7,3,2.6,3c1.8,0,2.7-1.2,2.7-3v-7h2.3v9.4
						c0,0.9,0.1,1.7,0.1,2.1h-2.2c0-0.3-0.1-0.9-0.1-1.4C422.2,186.8,420.8,187.4,419.4,187.4z"/>
					<path class="st2" d="M431.9,175.5h2.5v2h-2.5v6c0,1.1,0.4,1.6,1.6,1.6c0.3,0,0.7,0,0.9-0.1v1.9c-0.2,0.1-0.8,0.2-1.5,0.2
						c-2,0-3.2-1.2-3.2-3.3v-6.3h-2.2v-2h0.6c1.2,0,1.8-0.8,1.8-1.8v-1.9h2.1V175.5z"/>
					<path class="st2" d="M445.3,185.2c-0.6,1.1-1.8,2.1-3.6,2.1c-3.4,0-5.5-2.7-5.5-6.1c0-3.3,2.2-6,5.5-6c2,0,3.1,1,3.5,1.9v-7.5
						h2.2v15.2c0,1.1,0.1,1.9,0.1,2.1h-2.2c0-0.3-0.1-0.9-0.1-1.6V185.2z M442,185.3c2.1,0,3.3-1.8,3.3-4.2s-1.2-4-3.3-4
						c-2.1,0-3.4,1.7-3.4,4.1S439.8,185.3,442,185.3z"/>
					<path class="st2" d="M454.1,180.4l3.1-0.5c0.7-0.1,0.9-0.5,0.9-0.9c0-1.1-0.7-2.1-2.5-2.1c-1.6,0-2.5,1-2.6,2.3l-2.2-0.5
						c0.2-2.2,2.2-3.7,4.7-3.7c3.5,0,4.8,2,4.8,4.2v5.8c0,1,0.1,1.6,0.1,1.9h-2.2c0-0.3-0.1-0.7-0.1-1.6c-0.5,0.8-1.7,1.9-3.7,1.9
						c-2.4,0-3.9-1.6-3.9-3.5C450.6,181.8,452.1,180.7,454.1,180.4z M458.1,182.1v-0.5l-3.5,0.5c-1,0.1-1.7,0.7-1.7,1.7
						c0,0.9,0.7,1.7,1.9,1.7C456.6,185.5,458.1,184.6,458.1,182.1z"/>
					<path class="st2" d="M466.9,175.5h2.5v2h-2.5v6c0,1.1,0.4,1.6,1.6,1.6c0.3,0,0.7,0,0.9-0.1v1.9c-0.2,0.1-0.8,0.2-1.5,0.2
						c-2,0-3.2-1.2-3.2-3.3v-6.3h-2.2v-2h0.6c1.2,0,1.8-0.8,1.8-1.8v-1.9h2.1V175.5z"/>
					<path class="st2" d="M482.3,183.7c-0.6,2-2.5,3.6-5.2,3.6c-3.1,0-5.8-2.3-5.8-6.2c0-3.6,2.6-6.1,5.5-6.1c3.6,0,5.5,2.4,5.5,6
						c0,0.3,0,0.6,0,0.7h-8.7c0,2.1,1.5,3.5,3.5,3.5c1.9,0,2.8-1,3.2-2.3L482.3,183.7z M480.1,180c0-1.7-1.1-3-3.2-3
						c-1.9,0-3,1.5-3.1,3H480.1z"/>
					<path class="st2" d="M493.4,185.2c-0.6,1.1-1.8,2.1-3.6,2.1c-3.4,0-5.5-2.7-5.5-6.1c0-3.3,2.2-6,5.5-6c2,0,3.1,1,3.5,1.9v-7.5
						h2.2v15.2c0,1.1,0.1,1.9,0.1,2.1h-2.2c0-0.3-0.1-0.9-0.1-1.6V185.2z M490,185.3c2.1,0,3.3-1.8,3.3-4.2s-1.2-4-3.3-4
						c-2.1,0-3.4,1.7-3.4,4.1S487.9,185.3,490,185.3z"/>
					<path class="st2" d="M506.8,181.2c0,2.6,1.7,4.1,3.5,4.1c2.2,0,3-1.5,3.2-2.4l2,0.9c-0.6,1.7-2.2,3.6-5.2,3.6
						c-3.4,0-5.8-2.6-5.8-6.1c0-3.6,2.5-6.1,5.8-6.1c3.1,0,4.7,1.9,5.1,3.7l-2,0.9c-0.3-1.1-1.1-2.4-3.1-2.4
						C508.4,177.2,506.8,178.5,506.8,181.2z"/>
					<path class="st2" d="M518.1,187v-17.4h2.3V187H518.1z"/>
					<path class="st2" d="M535.1,181.2c0,3.5-2.4,6.1-5.9,6.1c-3.5,0-5.9-2.6-5.9-6.1c0-3.5,2.4-6.1,5.9-6.1
						C532.6,175.1,535.1,177.7,535.1,181.2z M532.8,181.2c0-2.7-1.7-4.1-3.6-4.1c-1.9,0-3.6,1.4-3.6,4.1c0,2.7,1.7,4.1,3.6,4.1
						C531.1,185.3,532.8,183.9,532.8,181.2z"/>
					<path class="st2" d="M538.9,183.3c0.1,1.2,1.1,2.2,2.7,2.2c1.3,0,2-0.7,2-1.5c0-0.7-0.5-1.3-1.5-1.5l-2-0.4
						c-1.8-0.4-2.9-1.6-2.9-3.2c0-2,1.8-3.6,4.1-3.6c3.2,0,4.2,2.1,4.4,3.1l-2,0.7c-0.1-0.6-0.6-1.9-2.4-1.9c-1.2,0-1.9,0.7-1.9,1.5
						c0,0.7,0.4,1.2,1.3,1.4l1.9,0.4c2.1,0.5,3.2,1.7,3.2,3.4c0,1.6-1.4,3.6-4.2,3.6c-3.2,0-4.5-2-4.7-3.4L538.9,183.3z"/>
					<path class="st2" d="M558.7,183.7c-0.6,2-2.5,3.6-5.2,3.6c-3.1,0-5.8-2.3-5.8-6.2c0-3.6,2.6-6.1,5.5-6.1c3.6,0,5.5,2.4,5.5,6
						c0,0.3,0,0.6,0,0.7h-8.7c0,2.1,1.5,3.5,3.5,3.5c1.9,0,2.8-1,3.2-2.3L558.7,183.7z M556.5,180c0-1.7-1.1-3-3.2-3
						c-1.9,0-3,1.5-3.1,3H556.5z"/>
					<path class="st2" d="M575.8,185.2c-0.6,1.1-1.8,2.1-3.6,2.1c-3.4,0-5.5-2.7-5.5-6.1c0-3.3,2.2-6,5.5-6c2,0,3.1,1,3.5,1.9v-7.5
						h2.2v15.2c0,1.1,0.1,1.9,0.1,2.1h-2.2c0-0.3-0.1-0.9-0.1-1.6V185.2z M572.4,185.3c2.1,0,3.3-1.8,3.3-4.2s-1.2-4-3.3-4
						c-2.1,0-3.4,1.7-3.4,4.1S570.3,185.3,572.4,185.3z"/>
					<path class="st2" d="M584.6,180.4l3.1-0.5c0.7-0.1,0.9-0.5,0.9-0.9c0-1.1-0.7-2.1-2.5-2.1c-1.6,0-2.5,1-2.6,2.3l-2.2-0.5
						c0.2-2.2,2.2-3.7,4.7-3.7c3.5,0,4.8,2,4.8,4.2v5.8c0,1,0.1,1.6,0.1,1.9h-2.2c0-0.3-0.1-0.7-0.1-1.6c-0.5,0.8-1.7,1.9-3.7,1.9
						c-2.4,0-3.9-1.6-3.9-3.5C581.1,181.8,582.6,180.7,584.6,180.4z M588.6,182.1v-0.5l-3.5,0.5c-1,0.1-1.7,0.7-1.7,1.7
						c0,0.9,0.7,1.7,1.9,1.7C587.1,185.5,588.6,184.6,588.6,182.1z"/>
					<path class="st2" d="M597.4,175.5h2.5v2h-2.5v6c0,1.1,0.4,1.6,1.6,1.6c0.3,0,0.7,0,0.9-0.1v1.9c-0.2,0.1-0.8,0.2-1.5,0.2
						c-2,0-3.2-1.2-3.2-3.3v-6.3h-2.2v-2h0.6c1.2,0,1.8-0.8,1.8-1.8v-1.9h2.1V175.5z"/>
					<path class="st2" d="M612.8,183.7c-0.6,2-2.5,3.6-5.2,3.6c-3.1,0-5.8-2.3-5.8-6.2c0-3.6,2.6-6.1,5.5-6.1c3.6,0,5.5,2.4,5.5,6
						c0,0.3,0,0.6,0,0.7h-8.7c0,2.1,1.5,3.5,3.5,3.5c1.9,0,2.8-1,3.2-2.3L612.8,183.7z M610.5,180c0-1.7-1.1-3-3.2-3
						c-1.9,0-3,1.5-3.1,3H610.5z"/>
					<path class="st2" d="M616.7,183.3c0.1,1.2,1.1,2.2,2.7,2.2c1.3,0,2-0.7,2-1.5c0-0.7-0.5-1.3-1.5-1.5l-2-0.4
						c-1.8-0.4-2.9-1.6-2.9-3.2c0-2,1.8-3.6,4.1-3.6c3.2,0,4.2,2.1,4.4,3.1l-2,0.7c-0.1-0.6-0.6-1.9-2.4-1.9c-1.2,0-1.9,0.7-1.9,1.5
						c0,0.7,0.4,1.2,1.3,1.4l1.9,0.4c2.1,0.5,3.2,1.7,3.2,3.4c0,1.6-1.4,3.6-4.2,3.6c-3.2,0-4.5-2-4.7-3.4L616.7,183.3z"/>
					<path class="st2" d="M635.6,175.5h2.5v2h-2.5v6c0,1.1,0.4,1.6,1.6,1.6c0.3,0,0.7,0,0.9-0.1v1.9c-0.2,0.1-0.8,0.2-1.5,0.2
						c-2,0-3.2-1.2-3.2-3.3v-6.3h-2.2v-2h0.6c1.2,0,1.8-0.8,1.8-1.8v-1.9h2.1V175.5z"/>
					<path class="st2" d="M651.9,181.2c0,3.5-2.4,6.1-5.9,6.1c-3.5,0-5.9-2.6-5.9-6.1c0-3.5,2.4-6.1,5.9-6.1
						C649.4,175.1,651.9,177.7,651.9,181.2z M649.6,181.2c0-2.7-1.7-4.1-3.6-4.1c-1.9,0-3.6,1.4-3.6,4.1c0,2.7,1.7,4.1,3.6,4.1
						C647.9,185.3,649.6,183.9,649.6,181.2z"/>
					<path class="st2" d="M664.9,187.4c-2.7,0-4.3-2-4.3-4.6v-7.3h2.3v6.9c0,1.6,0.7,3,2.6,3c1.8,0,2.7-1.2,2.7-3v-7h2.3v9.4
						c0,0.9,0.1,1.7,0.1,2.1h-2.2c0-0.3-0.1-0.9-0.1-1.4C667.7,186.8,666.3,187.4,664.9,187.4z"/>
					<path class="st2" d="M674.3,191.6v-16.1h2.2v1.8c0.6-1.2,2-2.1,3.9-2.1c3.5,0,5.3,2.7,5.3,6c0,3.4-2,6.1-5.4,6.1
						c-1.8,0-3.1-0.8-3.7-1.9v6.1H674.3z M680,177.2c-2.1,0-3.4,1.7-3.4,4c0,2.4,1.4,4.1,3.4,4.1c2.1,0,3.4-1.7,3.4-4.1
						C683.4,178.9,682.1,177.2,680,177.2z"/>
					<path class="st2" d="M696.6,185.2c-0.6,1.1-1.8,2.1-3.6,2.1c-3.4,0-5.5-2.7-5.5-6.1c0-3.3,2.2-6,5.5-6c2,0,3.1,1,3.5,1.9v-7.5
						h2.2v15.2c0,1.1,0.1,1.9,0.1,2.1h-2.2c0-0.3-0.1-0.9-0.1-1.6V185.2z M693.3,185.3c2.1,0,3.3-1.8,3.3-4.2s-1.2-4-3.3-4
						c-2.1,0-3.4,1.7-3.4,4.1S691.1,185.3,693.3,185.3z"/>
					<path class="st2" d="M705.5,180.4l3.1-0.5c0.7-0.1,0.9-0.5,0.9-0.9c0-1.1-0.7-2.1-2.5-2.1c-1.6,0-2.5,1-2.6,2.3l-2.2-0.5
						c0.2-2.2,2.2-3.7,4.7-3.7c3.5,0,4.8,2,4.8,4.2v5.8c0,1,0.1,1.6,0.1,1.9h-2.2c0-0.3-0.1-0.7-0.1-1.6c-0.5,0.8-1.7,1.9-3.7,1.9
						c-2.4,0-3.9-1.6-3.9-3.5C701.9,181.8,703.5,180.7,705.5,180.4z M709.5,182.1v-0.5l-3.5,0.5c-1,0.1-1.7,0.7-1.7,1.7
						c0,0.9,0.7,1.7,1.9,1.7C708,185.5,709.5,184.6,709.5,182.1z"/>
					<path class="st2" d="M718.2,175.5h2.5v2h-2.5v6c0,1.1,0.4,1.6,1.6,1.6c0.3,0,0.7,0,0.9-0.1v1.9c-0.2,0.1-0.8,0.2-1.5,0.2
						c-2,0-3.2-1.2-3.2-3.3v-6.3h-2.2v-2h0.6c1.2,0,1.8-0.8,1.8-1.8v-1.9h2.1V175.5z"/>
					<path class="st2" d="M733.7,183.7c-0.6,2-2.5,3.6-5.2,3.6c-3.1,0-5.8-2.3-5.8-6.2c0-3.6,2.6-6.1,5.5-6.1c3.6,0,5.5,2.4,5.5,6
						c0,0.3,0,0.6,0,0.7H725c0,2.1,1.5,3.5,3.5,3.5c1.9,0,2.8-1,3.2-2.3L733.7,183.7z M731.4,180c0-1.7-1.1-3-3.2-3
						c-1.9,0-3,1.5-3.1,3H731.4z"/>
					<path class="st2" d="M737.7,183.8c0.9,0,1.7,0.7,1.7,1.7s-0.7,1.7-1.7,1.7c-0.9,0-1.7-0.7-1.7-1.7S736.7,183.8,737.7,183.8z"/>
				</g>
				<g class="st1">
					<path class="st3" d="M192.2,118V99.6h5.5v17.9c0,3.7,2.1,5.7,5.4,5.7c3.4,0,5.4-2,5.4-5.7V99.6h5.5V118c0,7-4.8,10.7-10.9,10.7
						C197,128.6,192.2,124.9,192.2,118z"/>
					<path class="st3" d="M219.6,135.6v-27.3h5.2v2.4c0.9-1.5,3.1-2.8,6-2.8c5.8,0,9.1,4.4,9.1,10.2c0,6-3.7,10.4-9.3,10.4
						c-2.7,0-4.7-1.1-5.7-2.4v9.5H219.6z M229.7,112.6c-2.7,0-4.9,2-4.9,5.5c0,3.5,2.2,5.6,4.9,5.6c2.7,0,4.9-2,4.9-5.6
						C234.6,114.7,232.5,112.6,229.7,112.6z"/>
					<path class="st3" d="M262.8,124.4c0,1.3,0.1,2.8,0.2,3.6h-5.1c-0.1-0.4-0.2-1.4-0.2-2.3c-0.9,1.6-2.9,2.8-5.5,2.8
						c-5.6,0-9.6-4.4-9.6-10.4c0-5.8,3.9-10.3,9.4-10.3c3.4,0,5,1.4,5.6,2.4V99h5.2V124.4z M252.8,123.7c2.7,0,4.8-2.1,4.8-5.6
						c0-3.5-2.1-5.5-4.8-5.5c-2.7,0-4.9,2-4.9,5.5C247.9,121.6,250,123.7,252.8,123.7z"/>
					<path class="st3" d="M273.1,116.7l4.8-0.7c1.1-0.2,1.5-0.7,1.5-1.4c0-1.4-1.1-2.6-3.3-2.6c-2.3,0-3.6,1.5-3.8,3.2l-4.7-1
						c0.3-3.1,3.2-6.5,8.4-6.5c6.2,0,8.6,3.5,8.6,7.5v9.7c0,1,0.1,2.4,0.2,3.1H280c-0.1-0.5-0.2-1.6-0.2-2.4c-1,1.6-2.9,2.9-5.8,2.9
						c-4.2,0-6.8-2.8-6.8-5.9C267.3,119.1,269.9,117.2,273.1,116.7z M279.5,120v-0.9l-4.4,0.7c-1.4,0.2-2.4,1-2.4,2.5
						c0,1.2,0.8,2.3,2.6,2.3C277.4,124.6,279.5,123.5,279.5,120z"/>
					<path class="st3" d="M296.5,108.3h4v4.7h-4v8.2c0,1.7,0.8,2.3,2.3,2.3c0.6,0,1.4-0.1,1.6-0.2v4.4c-0.5,0.2-1.4,0.5-3,0.5
						c-3.8,0-6.2-2.3-6.2-6.1V113h-3.6v-4.7h1c2.1,0,3-1.4,3-3.1v-2.8h4.8V108.3z"/>
					<path class="st3" d="M322.4,122.4c-1,3.4-4.1,6.2-9,6.2c-5.4,0-10.2-3.9-10.2-10.5c0-6.3,4.6-10.4,9.7-10.4
						c6.1,0,9.7,3.9,9.7,10.2c0,0.8-0.1,1.6-0.1,1.6h-14.1c0.1,2.6,2.3,4.5,5,4.5c2.5,0,3.8-1.2,4.5-3L322.4,122.4z M317.4,115.9
						c-0.1-2-1.4-3.9-4.4-3.9c-2.8,0-4.3,2.1-4.4,3.9H317.4z"/>
					<path class="st3" d="M335.5,113.8c0-9,6.8-14.8,14.4-14.8c7.8,0,11.9,4.8,13,9.4l-5.2,1.6c-0.7-2.7-2.9-5.7-7.8-5.7
						c-4.2,0-8.7,3-8.7,9.5c0,6,4.2,9.4,8.8,9.4c4.8,0,7.2-3.2,8-5.8l5.2,1.6c-1.1,4.4-5.2,9.6-13.1,9.6
						C342.1,128.6,335.5,122.9,335.5,113.8z"/>
					<path class="st3" d="M366.9,128V99h5.3v29H366.9z"/>
					<path class="st3" d="M397.1,118.2c0,6-4.4,10.4-10.3,10.4c-5.9,0-10.3-4.4-10.3-10.4c0-6.1,4.4-10.4,10.3-10.4
						C392.6,107.7,397.1,112.1,397.1,118.2z M391.7,118.2c0-3.7-2.4-5.6-5-5.6s-5,1.9-5,5.6c0,3.7,2.4,5.6,5,5.6
						S391.7,121.9,391.7,118.2z"/>
					<path class="st3" d="M404.1,121.5c0.1,1.6,1.3,3,3.6,3c1.8,0,2.6-0.9,2.6-2c0-0.9-0.6-1.6-2.1-1.9l-2.6-0.6
						c-3.8-0.8-5.5-3.1-5.5-5.9c0-3.5,3.1-6.4,7.4-6.4c5.6,0,7.5,3.6,7.7,5.7l-4.4,1c-0.2-1.2-1-2.6-3.2-2.6c-1.4,0-2.5,0.8-2.5,2
						c0,1,0.7,1.6,1.8,1.8l2.8,0.6c3.9,0.8,5.8,3.2,5.8,6c0,3.2-2.5,6.5-7.6,6.5c-5.9,0-8-3.8-8.2-6.1L404.1,121.5z"/>
					<path class="st3" d="M422.3,98.6c1.8,0,3.3,1.5,3.3,3.3c0,1.8-1.4,3.2-3.3,3.2c-1.8,0-3.3-1.5-3.3-3.2
						C419.1,100,420.5,98.6,422.3,98.6z M419.7,128v-19.7h5.3V128H419.7z"/>
					<path class="st3" d="M436,128h-5.3v-19.7h5.2v2.4c1.2-2,3.6-3,5.7-3c4.9,0,7.1,3.5,7.1,7.8V128h-5.3v-11.5
						c0-2.2-1.1-3.9-3.6-3.9c-2.3,0-3.7,1.8-3.7,4.1V128z"/>
					<path class="st3" d="M457.5,127.8c0.4,2.2,2.1,3.7,4.6,3.7c3.4,0,5.2-1.7,5.2-5.5v-1.4c-0.8,1.3-2.6,2.5-5.5,2.5
						c-5.2,0-9.2-4-9.2-9.6c0-5.2,3.8-9.6,9.2-9.6c3.1,0,4.9,1.4,5.6,2.7v-2.3h5.1v17.6c0,5.4-2.9,10.3-10.3,10.3
						c-5.4,0-9-3.4-9.6-7.1L457.5,127.8z M467.4,117.6c0-3-2.1-5-4.6-5c-2.6,0-4.7,1.9-4.7,5c0,3.1,2,5,4.7,5
						C465.5,122.6,467.4,120.6,467.4,117.6z"/>
					<path class="st3" d="M488.2,128V99.6h10.2c8.1,0,14,5.2,14,14.2c0,9-6,14.2-14,14.2H488.2z M498.1,122.9c4.6,0,8.5-2.9,8.5-9
						c0-6.2-3.8-9.1-8.5-9.1h-4.4v18.1H498.1z"/>
					<path class="st3" d="M521.5,116.7l4.8-0.7c1.1-0.2,1.5-0.7,1.5-1.4c0-1.4-1.1-2.6-3.3-2.6c-2.3,0-3.6,1.5-3.8,3.2l-4.7-1
						c0.3-3.1,3.2-6.5,8.4-6.5c6.2,0,8.6,3.5,8.6,7.5v9.7c0,1,0.1,2.4,0.2,3.1h-4.9c-0.1-0.5-0.2-1.6-0.2-2.4
						c-1,1.6-2.9,2.9-5.8,2.9c-4.2,0-6.8-2.8-6.8-5.9C515.6,119.1,518.2,117.2,521.5,116.7z M527.8,120v-0.9l-4.4,0.7
						c-1.4,0.2-2.4,1-2.4,2.5c0,1.2,0.8,2.3,2.6,2.3C525.7,124.6,527.8,123.5,527.8,120z"/>
					<path class="st3" d="M544.8,108.3h4v4.7h-4v8.2c0,1.7,0.8,2.3,2.3,2.3c0.6,0,1.4-0.1,1.6-0.2v4.4c-0.5,0.2-1.4,0.5-3,0.5
						c-3.8,0-6.2-2.3-6.2-6.1V113h-3.6v-4.7h1c2.1,0,3-1.4,3-3.1v-2.8h4.8V108.3z"/>
					<path class="st3" d="M570.7,122.4c-1,3.4-4.1,6.2-9,6.2c-5.4,0-10.2-3.9-10.2-10.5c0-6.3,4.6-10.4,9.7-10.4
						c6.1,0,9.7,3.9,9.7,10.2c0,0.8-0.1,1.6-0.1,1.6h-14.1c0.1,2.6,2.3,4.5,5,4.5c2.5,0,3.8-1.2,4.5-3L570.7,122.4z M565.7,115.9
						c-0.1-2-1.4-3.9-4.4-3.9c-2.8,0-4.3,2.1-4.4,3.9H565.7z"/>
					<path class="st3" d="M578.1,121.5c0.1,1.6,1.3,3,3.6,3c1.8,0,2.6-0.9,2.6-2c0-0.9-0.6-1.6-2.1-1.9l-2.6-0.6
						c-3.8-0.8-5.5-3.1-5.5-5.9c0-3.5,3.1-6.4,7.4-6.4c5.6,0,7.5,3.6,7.7,5.7l-4.4,1c-0.2-1.2-1-2.6-3.2-2.6c-1.4,0-2.5,0.8-2.5,2
						c0,1,0.7,1.6,1.8,1.8l2.8,0.6c3.9,0.8,5.8,3.2,5.8,6c0,3.2-2.5,6.5-7.6,6.5c-5.9,0-8-3.8-8.2-6.1L578.1,121.5z"/>
				</g>
				<g id="ic_cached" transform="translate(428.000000, 0.000000)">
					<polygon id="Bounds" class="st4" points="0,0 40,0 40,40 0,40 					"/>
					<path id="Icon" class="st5" d="M31.7,13.3L25,20h5c0,5.5-4.5,10-10,10c-1.7,0-3.3-0.4-4.7-1.2l-2.4,2.4
						c2.1,1.3,4.5,2.1,7.1,2.1c7.4,0,13.3-6,13.3-13.3h5L31.7,13.3L31.7,13.3z M10,20c0-5.5,4.5-10,10-10c1.7,0,3.3,0.4,4.7,1.2
						l2.4-2.4C25,7.4,22.6,6.7,20,6.7c-7.4,0-13.3,6-13.3,13.3h-5l6.7,6.7L15,20H10L10,20z"/>
				</g>
				<g class="st1">
					<path class="st3" d="M245,318l-0.2-1.9c-0.8,1.2-2.4,2.3-5,2.3c-4.6,0-8.5-3.4-8.5-8.9c0-5.5,4.1-8.9,8.7-8.9
						c4.5,0,6.9,2.6,7.8,5.2l-3.2,1.1c-0.4-1.5-1.8-3.3-4.6-3.3c-2.6,0-5.4,1.8-5.4,5.8c0,3.8,2.5,5.8,5.4,5.8
						c3.1,0,4.4-2.1,4.6-3.3h-5.4v-2.9h8.5v8.9H245z"/>
					<path class="st3" d="M262.3,312.1c0,3.6-2.7,6.3-6.2,6.3s-6.2-2.6-6.2-6.3c0-3.6,2.7-6.3,6.2-6.3S262.3,308.4,262.3,312.1z
						 M259.1,312.1c0-2.2-1.4-3.4-3-3.4c-1.6,0-3,1.1-3,3.4c0,2.2,1.4,3.4,3,3.4C257.6,315.5,259.1,314.3,259.1,312.1z"/>
					<path class="st3" d="M264.8,318v-17.4h3.2V318H264.8z"/>
					<path class="st3" d="M282.6,315.9c0,0.8,0,1.7,0.1,2.1h-3c0-0.2-0.1-0.8-0.1-1.4c-0.5,0.9-1.7,1.7-3.3,1.7
						c-3.4,0-5.8-2.6-5.8-6.2c0-3.5,2.3-6.2,5.7-6.2c2,0,3,0.8,3.3,1.5v-6.7h3.1V315.9z M276.6,315.4c1.6,0,2.9-1.2,2.9-3.4
						c0-2.1-1.3-3.3-2.9-3.3c-1.6,0-2.9,1.2-2.9,3.3S275,315.4,276.6,315.4z"/>
					<path class="st3" d="M292.3,318v-17h3.3v13.8h7.6v3.2H292.3z"/>
					<path class="st3" d="M307.1,300.3c1.1,0,2,0.9,2,2c0,1.1-0.9,1.9-2,1.9c-1.1,0-2-0.9-2-1.9C305.1,301.2,306,300.3,307.1,300.3z
						 M305.5,318v-11.8h3.2V318H305.5z"/>
					<path class="st3" d="M314.4,312.1c0,2.1,1.4,3.3,3,3.3c1.6,0,2.4-1.1,2.7-2l2.8,0.9c-0.5,2-2.4,4-5.5,4c-3.5,0-6.2-2.6-6.2-6.3
						c0-3.6,2.7-6.3,6.1-6.3c3.2,0,5,2,5.5,4l-2.9,1c-0.3-1-1-2-2.6-2C315.7,308.8,314.4,310,314.4,312.1z"/>
					<path class="st3" d="M335.7,314.6c-0.6,2-2.5,3.7-5.4,3.7c-3.2,0-6.1-2.3-6.1-6.3c0-3.8,2.8-6.2,5.8-6.2c3.6,0,5.8,2.3,5.8,6.1
						c0,0.5,0,0.9,0,1h-8.4c0.1,1.6,1.4,2.7,3,2.7c1.5,0,2.3-0.7,2.7-1.8L335.7,314.6z M332.8,310.8c0-1.2-0.8-2.3-2.6-2.3
						c-1.7,0-2.6,1.2-2.6,2.3H332.8z"/>
					<path class="st3" d="M341.6,318h-3.2v-11.8h3.1v1.5c0.7-1.2,2.1-1.8,3.4-1.8c2.9,0,4.3,2.1,4.3,4.7v7.4H346v-6.9
						c0-1.3-0.6-2.4-2.2-2.4c-1.4,0-2.2,1.1-2.2,2.4V318z"/>
					<path class="st3" d="M354.2,314.1c0.1,0.9,0.8,1.8,2.2,1.8c1.1,0,1.6-0.6,1.6-1.2c0-0.5-0.4-1-1.3-1.2l-1.6-0.4
						c-2.3-0.5-3.3-1.9-3.3-3.5c0-2.1,1.9-3.9,4.4-3.9c3.4,0,4.5,2.1,4.6,3.4l-2.7,0.6c-0.1-0.7-0.6-1.6-1.9-1.6
						c-0.8,0-1.5,0.5-1.5,1.2c0,0.6,0.4,0.9,1.1,1.1l1.7,0.4c2.3,0.5,3.5,1.9,3.5,3.6c0,1.9-1.5,3.9-4.6,3.9c-3.6,0-4.8-2.3-4.9-3.6
						L354.2,314.1z"/>
					<path class="st3" d="M374,314.6c-0.6,2-2.5,3.7-5.4,3.7c-3.2,0-6.1-2.3-6.1-6.3c0-3.8,2.8-6.2,5.8-6.2c3.6,0,5.8,2.3,5.8,6.1
						c0,0.5,0,0.9,0,1h-8.4c0.1,1.6,1.4,2.7,3,2.7c1.5,0,2.3-0.7,2.7-1.8L374,314.6z M371.1,310.8c0-1.2-0.8-2.3-2.6-2.3
						c-1.7,0-2.6,1.2-2.6,2.3H371.1z"/>
					<path class="st3" d="M386.5,304.9v1.3h2.7v2.7h-2.7v9.1h-3.2v-9.1h-2v-2.7h2v-1.3c0-2.7,1.7-4.4,4.3-4.4c0.7,0,1.3,0.1,1.6,0.2
						v2.7c-0.2,0-0.5-0.1-1-0.1C387.4,303.3,386.5,303.6,386.5,304.9z"/>
					<path class="st3" d="M402.4,312.1c0,3.6-2.7,6.3-6.2,6.3s-6.2-2.6-6.2-6.3c0-3.6,2.7-6.3,6.2-6.3S402.4,308.4,402.4,312.1z
						 M399.2,312.1c0-2.2-1.4-3.4-3-3.4c-1.6,0-3,1.1-3,3.4c0,2.2,1.4,3.4,3,3.4C397.8,315.5,399.2,314.3,399.2,312.1z"/>
					<path class="st3" d="M412.2,309.4c-0.4-0.1-0.7-0.1-1-0.1c-1.6,0-3,0.8-3,3.3v5.4H405v-11.8h3.1v1.8c0.7-1.6,2.4-1.8,3.4-1.8
						c0.3,0,0.5,0,0.7,0V309.4z"/>
					<path class="st3" d="M436.2,318v-11.9l-4.9,11.9h-2.8l-4.9-11.8V318h-3.2v-17h4.4l5.1,12.3l5-12.3h4.5v17H436.2z"/>
					<path class="st3" d="M445.4,312.1c0,2.1,1.4,3.3,3,3.3c1.6,0,2.4-1.1,2.7-2l2.8,0.9c-0.5,2-2.4,4-5.5,4c-3.5,0-6.2-2.6-6.2-6.3
						c0-3.6,2.7-6.3,6.1-6.3c3.2,0,5,2,5.5,4l-2.9,1c-0.3-1-1-2-2.6-2C446.7,308.8,445.4,310,445.4,312.1z"/>
					<path class="st3" d="M456.5,318v-17h6.1c4.8,0,8.4,3.1,8.4,8.5c0,5.4-3.6,8.5-8.4,8.5H456.5z M462.5,314.9
						c2.8,0,5.1-1.7,5.1-5.4s-2.3-5.4-5.1-5.4h-2.7v10.9H462.5z"/>
					<path class="st3" d="M485.2,312.1c0,3.6-2.7,6.3-6.2,6.3s-6.2-2.6-6.2-6.3c0-3.6,2.7-6.3,6.2-6.3S485.2,308.4,485.2,312.1z
						 M482,312.1c0-2.2-1.4-3.4-3-3.4c-1.6,0-3,1.1-3,3.4c0,2.2,1.4,3.4,3,3.4C480.6,315.5,482,314.3,482,312.1z"/>
					<path class="st3" d="M490.9,318h-3.2v-11.8h3.1v1.5c0.7-1.2,2.1-1.8,3.4-1.8c2.9,0,4.3,2.1,4.3,4.7v7.4h-3.2v-6.9
						c0-1.3-0.6-2.4-2.2-2.4c-1.4,0-2.2,1.1-2.2,2.4V318z"/>
					<path class="st3" d="M504.6,311.2l2.9-0.4c0.7-0.1,0.9-0.4,0.9-0.8c0-0.8-0.6-1.5-2-1.5c-1.4,0-2.2,0.9-2.3,1.9l-2.8-0.6
						c0.2-1.8,1.9-3.9,5.1-3.9c3.7,0,5.1,2.1,5.1,4.5v5.8c0,0.6,0.1,1.5,0.1,1.9h-2.9c-0.1-0.3-0.1-1-0.1-1.4
						c-0.6,0.9-1.7,1.8-3.5,1.8c-2.5,0-4.1-1.7-4.1-3.6C501,312.7,502.6,311.5,504.6,311.2z M508.3,313.2v-0.5l-2.7,0.4
						c-0.8,0.1-1.5,0.6-1.5,1.5c0,0.7,0.5,1.4,1.5,1.4C507.1,316,508.3,315.3,508.3,313.2z"/>
					<path class="st3" d="M514.7,318v-17.4h3.2V318H514.7z"/>
					<path class="st3" d="M532.5,315.9c0,0.8,0,1.7,0.1,2.1h-3c0-0.2-0.1-0.8-0.1-1.4c-0.5,0.9-1.7,1.7-3.3,1.7
						c-3.4,0-5.8-2.6-5.8-6.2c0-3.5,2.3-6.2,5.7-6.2c2,0,3,0.8,3.3,1.5v-6.7h3.1V315.9z M526.5,315.4c1.6,0,2.9-1.2,2.9-3.4
						c0-2.1-1.3-3.3-2.9-3.3c-1.6,0-2.9,1.2-2.9,3.3S524.9,315.4,526.5,315.4z"/>
					<path class="st3" d="M537,300.8c1.3,0,2.1,1.1,2.1,2.3c0,3.2-2.2,4.4-3.7,4.5v-1.5c0.9-0.1,1.9-0.9,2-2
						c-0.1,0.1-0.3,0.1-0.5,0.1c-1.1,0-1.8-0.7-1.8-1.7C535.1,301.6,535.9,300.8,537,300.8z"/>
					<path class="st3" d="M542,314.1c0.1,0.9,0.8,1.8,2.2,1.8c1.1,0,1.6-0.6,1.6-1.2c0-0.5-0.4-1-1.3-1.2l-1.6-0.4
						c-2.3-0.5-3.3-1.9-3.3-3.5c0-2.1,1.9-3.9,4.4-3.9c3.4,0,4.5,2.1,4.6,3.4l-2.7,0.6c-0.1-0.7-0.6-1.6-1.9-1.6
						c-0.8,0-1.5,0.5-1.5,1.2c0,0.6,0.4,0.9,1.1,1.1l1.7,0.4c2.3,0.5,3.5,1.9,3.5,3.6c0,1.9-1.5,3.9-4.6,3.9c-3.6,0-4.8-2.3-4.9-3.6
						L542,314.1z"/>
				</g>
				<g class="st1">
					<path class="st6" d="M373.9,602v-13.9h-5v-3c3,0,5.2-1.7,5.6-3.9h3.8V602H373.9z"/>
					<path class="st6" d="M384.4,602.3h-3.8l11.3-23.3h3.9L384.4,602.3z"/>
					<path class="st6" d="M394,592.9l8.7-11.7h5.4v12.5h3.4v3.8h-3.4v4.4h-4.4v-4.4H394V592.9z M403.9,585.8l-5.9,7.9h5.9V585.8z"/>
				</g>
				<path id="Line" class="st7" d="M0,258.5h780"/>
				<path id="Line_1_" class="st7" d="M0,624.5h780"/>
				<g id="Group-9" transform="translate(226.000000, 657.000000)">
					<g id="Group-5" transform="translate(113.000000, 0.000000)">
						<path id="Rectangle-2" class="st8" d="M8,0h200c4.4,0,8,3.6,8,8v20c0,4.4-3.6,8-8,8H8c-4.4,0-8-3.6-8-8V8C0,3.6,3.6,0,8,0z"/>
						<g class="st1">
							<path class="st0" d="M33.2,20v-7.4h1.9v7.3c0,1.6,0.9,2.5,2.3,2.5c1.5,0,2.3-0.9,2.3-2.5v-7.3h1.9V20c0,2.7-1.9,4.2-4.2,4.2
								C35.1,24.2,33.2,22.8,33.2,20z"/>
							<path class="st0" d="M44,27V16.2h1.8v1.1c0.4-0.7,1.3-1.2,2.5-1.2c2.3,0,3.6,1.8,3.6,4.1c0,2.3-1.4,4.1-3.7,4.1
								c-1.1,0-2-0.5-2.4-1.1V27H44z M48,17.7c-1.2,0-2.1,1-2.1,2.4c0,1.5,0.9,2.4,2.1,2.4c1.2,0,2.1-1,2.1-2.4
								C50.1,18.6,49.2,17.7,48,17.7z"/>
							<path class="st0" d="M60.9,22.6c0,0.7,0.1,1.3,0.1,1.4h-1.8c0-0.2-0.1-0.7-0.1-1c-0.4,0.7-1.2,1.2-2.3,1.2
								c-2.2,0-3.7-1.8-3.7-4.1c0-2.2,1.5-4.1,3.7-4.1c1.4,0,2,0.6,2.3,1.1v-4.7h1.8V22.6z M57.1,22.6c1.2,0,2.1-1,2.1-2.5
								s-0.8-2.4-2-2.4c-1.2,0-2.1,0.9-2.1,2.4C55,21.6,55.8,22.6,57.1,22.6z"/>
							<path class="st0" d="M65.2,19.5l2-0.3c0.4-0.1,0.6-0.3,0.6-0.6c0-0.7-0.4-1.2-1.5-1.2c-1,0-1.5,0.6-1.6,1.4L63,18.5
								c0.1-1.3,1.4-2.5,3.3-2.5c2.4,0,3.3,1.4,3.3,2.9v3.9c0,0.7,0.1,1.2,0.1,1.2H68c0,0-0.1-0.4-0.1-1c-0.4,0.6-1.1,1.2-2.4,1.2
								c-1.6,0-2.6-1.1-2.6-2.4C62.8,20.5,63.9,19.7,65.2,19.5z M67.8,20.8v-0.4l-2,0.3c-0.6,0.1-1,0.4-1,1.1c0,0.5,0.4,1,1.1,1
								C66.9,22.8,67.8,22.3,67.8,20.8z"/>
							<path class="st0" d="M74.1,16.2h1.6v1.6h-1.6v3.6c0,0.7,0.3,1,1,1c0.3,0,0.6,0,0.6-0.1v1.5c-0.1,0-0.5,0.2-1.1,0.2
								c-1.4,0-2.3-0.9-2.3-2.3v-3.9h-1.4v-1.6h0.4c0.8,0,1.2-0.5,1.2-1.2v-1.2h1.7V16.2z"/>
							<path class="st0" d="M84.5,21.8c-0.4,1.4-1.6,2.5-3.5,2.5c-2.1,0-4-1.5-4-4.2c0-2.5,1.8-4.1,3.8-4.1c2.4,0,3.8,1.6,3.8,4
								c0,0.3,0,0.6,0,0.6h-5.7c0,1.2,1,2,2.1,2c1.1,0,1.7-0.6,2-1.4L84.5,21.8z M82.7,19.2c0-0.9-0.6-1.7-1.9-1.7
								c-1.2,0-1.8,0.9-1.9,1.7H82.7z"/>
							<path class="st0" d="M89.8,18.3c0-3.7,2.8-5.9,5.7-5.9c2.9,0,4.6,1.7,5.1,3.7l-1.8,0.6c-0.3-1.4-1.4-2.5-3.3-2.5
								c-1.9,0-3.7,1.4-3.7,4.1c0,2.7,1.8,4.1,3.8,4.1c1.9,0,3-1.2,3.4-2.5l1.8,0.6c-0.5,1.9-2.2,3.8-5.1,3.8
								C92.5,24.2,89.8,22,89.8,18.3z"/>
							<path class="st0" d="M102.3,24V12.4h1.9V24H102.3z"/>
							<path class="st0" d="M114,20.1c0,2.4-1.7,4.1-4,4.1c-2.3,0-4-1.7-4-4.1c0-2.4,1.7-4.1,4-4.1C112.3,16,114,17.7,114,20.1z
								 M112.1,20.1c0-1.6-1-2.4-2.2-2.4c-1.1,0-2.2,0.8-2.2,2.4c0,1.6,1,2.5,2.2,2.5C111.1,22.6,112.1,21.7,112.1,20.1z"/>
							<path class="st0" d="M116.7,21.4c0.1,0.7,0.6,1.3,1.6,1.3c0.8,0,1.2-0.4,1.2-0.9c0-0.4-0.3-0.7-0.9-0.9l-1.2-0.3
								c-1.4-0.3-2.1-1.2-2.1-2.3c0-1.4,1.2-2.5,2.9-2.5c2.2,0,2.9,1.4,3,2.2l-1.6,0.4c-0.1-0.4-0.4-1.2-1.4-1.2
								c-0.7,0-1.1,0.4-1.1,0.9c0,0.4,0.3,0.7,0.8,0.8l1.2,0.2c1.5,0.3,2.2,1.2,2.2,2.4c0,1.2-1,2.5-2.9,2.5c-2.3,0-3.1-1.5-3.2-2.4
								L116.7,21.4z"/>
							<path class="st0" d="M124,12.3c0.7,0,1.2,0.5,1.2,1.2s-0.5,1.2-1.2,1.2c-0.7,0-1.2-0.5-1.2-1.2S123.4,12.3,124,12.3z
								 M123.1,24v-7.8h1.8V24H123.1z"/>
							<path class="st0" d="M129.2,24h-1.9v-7.8h1.8v1c0.5-0.9,1.4-1.3,2.3-1.3c1.9,0,2.8,1.4,2.8,3.1V24h-1.9v-4.6
								c0-1-0.4-1.7-1.6-1.7c-1.1,0-1.6,0.8-1.6,1.8V24z"/>
							<path class="st0" d="M137.7,24c0.1,1,0.9,1.7,2,1.7c1.5,0,2.2-0.8,2.2-2.3v-0.8c-0.3,0.6-1.1,1.1-2.3,1.1
								c-2.1,0-3.6-1.6-3.6-3.8c0-2.1,1.5-3.8,3.6-3.8c1.2,0,2,0.5,2.3,1.1v-1h1.8v7.1c0,2.1-1.1,4-4,4c-2.1,0-3.5-1.3-3.7-2.8
								L137.7,24z M141.9,19.9c0-1.3-0.8-2.2-2-2.2c-1.2,0-2,0.9-2,2.2c0,1.4,0.8,2.2,2,2.2C141.1,22.1,141.9,21.2,141.9,19.9z"/>
							<path class="st0" d="M150.1,24V12.7h4c3.1,0,5.5,2,5.5,5.7c0,3.6-2.5,5.7-5.5,5.7H150.1z M154,22.2c2,0,3.6-1.3,3.6-3.9
								c0-2.7-1.6-3.9-3.6-3.9h-2v7.8H154z"/>
							<path class="st0" d="M163.4,19.5l2-0.3c0.4-0.1,0.6-0.3,0.6-0.6c0-0.7-0.4-1.2-1.5-1.2c-1,0-1.5,0.6-1.6,1.4l-1.7-0.4
								c0.1-1.3,1.4-2.5,3.3-2.5c2.4,0,3.3,1.4,3.3,2.9v3.9c0,0.7,0.1,1.2,0.1,1.2h-1.7c0,0-0.1-0.4-0.1-1c-0.4,0.6-1.1,1.2-2.4,1.2
								c-1.6,0-2.6-1.1-2.6-2.4C161,20.5,162,19.7,163.4,19.5z M165.9,20.8v-0.4l-2,0.3c-0.6,0.1-1,0.4-1,1.1c0,0.5,0.4,1,1.1,1
								C165,22.8,165.9,22.3,165.9,20.8z"/>
							<path class="st0" d="M172.3,16.2h1.6v1.6h-1.6v3.6c0,0.7,0.3,1,1,1c0.3,0,0.6,0,0.6-0.1v1.5c-0.1,0-0.5,0.2-1.1,0.2
								c-1.4,0-2.3-0.9-2.3-2.3v-3.9H169v-1.6h0.4c0.8,0,1.2-0.5,1.2-1.2v-1.2h1.7V16.2z"/>
							<path class="st0" d="M182.7,21.8c-0.4,1.4-1.6,2.5-3.5,2.5c-2.1,0-4-1.5-4-4.2c0-2.5,1.8-4.1,3.8-4.1c2.4,0,3.8,1.6,3.8,4
								c0,0.3,0,0.6,0,0.6H177c0,1.2,1,2,2.1,2c1.1,0,1.7-0.6,2-1.4L182.7,21.8z M180.9,19.2c0-0.9-0.6-1.7-1.9-1.7
								c-1.2,0-1.8,0.9-1.9,1.7H180.9z"/>
						</g>
					</g>
					<g id="Group-5_1_">
						<path id="Rectangle-2_1_" class="st9" d="M9,1h79c4.4,0,8,3.6,8,8v18c0,4.4-3.6,8-8,8H9c-4.4,0-8-3.6-8-8V9C1,4.6,4.6,1,9,1z"
							/>
						<g class="st1">
							<path class="st8" d="M39.5,15.9c-0.1-0.7-0.7-1.7-2.2-1.7c-1.2,0-2,0.8-2,1.6c0,0.7,0.4,1.3,1.3,1.5l1.6,0.3
								c2,0.4,3.1,1.7,3.1,3.3c0,1.8-1.4,3.4-4,3.4c-2.9,0-4.2-1.9-4.4-3.5l1.8-0.5c0.1,1.2,1,2.3,2.6,2.3c1.4,0,2.1-0.7,2.1-1.6
								c0-0.7-0.5-1.3-1.5-1.5l-1.6-0.3c-1.7-0.4-2.9-1.5-2.9-3.2c0-1.9,1.7-3.5,3.9-3.5c2.7,0,3.7,1.6,4,2.9L39.5,15.9z"/>
							<path class="st8" d="M47.2,19.5l3.3,4.5h-2.3l-2.3-3.2l-1,1V24h-1.8V12.4H45v6.9l3-3.2h2.5L47.2,19.5z"/>
							<path class="st8" d="M52.8,12.3c0.7,0,1.2,0.5,1.2,1.2s-0.5,1.2-1.2,1.2c-0.7,0-1.2-0.5-1.2-1.2S52.1,12.3,52.8,12.3z
								 M51.9,24v-7.8h1.8V24H51.9z"/>
							<path class="st8" d="M56.1,27V16.2h1.8v1.1c0.4-0.7,1.3-1.2,2.5-1.2c2.3,0,3.6,1.8,3.6,4.1c0,2.3-1.4,4.1-3.7,4.1
								c-1.1,0-2-0.5-2.4-1.1V27H56.1z M60,17.7c-1.2,0-2.1,1-2.1,2.4c0,1.5,0.9,2.4,2.1,2.4c1.2,0,2.1-1,2.1-2.4
								C62.1,18.6,61.3,17.7,60,17.7z"/>
						</g>
					</g>
				</g>
				<g id="Group" transform="translate(80.000000, 362.000000)">
					<g class="st1">
						<path class="st2" d="M6.4,6.8C6.2,6,5.6,5.1,4.3,5.1c-1.1,0-1.9,0.7-1.9,1.7c0,0.7,0.4,1.3,1.3,1.4l1.5,0.3
							c1.7,0.4,2.6,1.4,2.6,2.8c0,1.5-1.3,2.9-3.4,2.9c-2.4,0-3.5-1.5-3.7-3l1.3-0.4C1.9,11.9,2.7,13,4.2,13c1.4,0,2-0.7,2-1.6
							c0-0.7-0.5-1.3-1.5-1.5L3.4,9.5C2,9.2,1,8.3,1,6.8c0-1.6,1.4-3,3.3-3c2.2,0,3.1,1.4,3.4,2.5L6.4,6.8z"/>
						<path class="st2" d="M11,7.3h1.5v1.2H11V12c0,0.6,0.3,0.9,0.9,0.9c0.2,0,0.4,0,0.5-0.1v1.1c-0.1,0-0.4,0.1-0.9,0.1
							c-1.1,0-1.9-0.7-1.9-1.9V8.5H8.4V7.3h0.4c0.7,0,1-0.4,1-1V5.1H11V7.3z"/>
						<path class="st2" d="M15.9,10.1l1.8-0.3c0.4-0.1,0.5-0.3,0.5-0.5c0-0.7-0.4-1.2-1.5-1.2c-0.9,0-1.4,0.6-1.5,1.4L14,9.2
							c0.1-1.3,1.3-2.2,2.8-2.2c2,0,2.8,1.1,2.8,2.5v3.4c0,0.6,0.1,0.9,0.1,1.1h-1.3c0-0.2-0.1-0.4-0.1-0.9c-0.3,0.5-1,1.1-2.2,1.1
							c-1.4,0-2.3-1-2.3-2C13.8,11,14.7,10.3,15.9,10.1z M18.2,11.1v-0.3l-2.1,0.3c-0.6,0.1-1,0.4-1,1c0,0.5,0.4,1,1.1,1
							C17.3,13.1,18.2,12.6,18.2,11.1z"/>
						<path class="st2" d="M22.4,14.1c0.1,0.9,0.8,1.7,1.8,1.7c1.4,0,2.1-0.7,2.1-2.2v-1c-0.3,0.6-1.1,1.1-2.1,1.1
							c-1.8,0-3.1-1.4-3.1-3.3c0-1.8,1.2-3.3,3.1-3.3c1,0,1.7,0.4,2.1,1.1V7.3h1.3v6.2c0,1.7-0.8,3.4-3.4,3.4
							c-1.7,0-2.9-1.1-3.1-2.5L22.4,14.1z M26.3,10.4c0-1.3-0.8-2.2-1.9-2.2c-1.2,0-1.9,0.9-1.9,2.2c0,1.3,0.8,2.2,1.9,2.2
							C25.5,12.6,26.3,11.7,26.3,10.4z"/>
						<path class="st2" d="M35.5,12.1c-0.4,1.2-1.5,2.1-3,2.1c-1.8,0-3.4-1.3-3.4-3.6c0-2.1,1.5-3.6,3.2-3.6c2.1,0,3.2,1.4,3.2,3.5
							c0,0.2,0,0.3,0,0.4h-5.1c0,1.2,0.9,2,2,2c1.1,0,1.6-0.6,1.9-1.4L35.5,12.1z M34.2,9.9c0-1-0.7-1.7-1.8-1.7
							c-1.1,0-1.8,0.9-1.8,1.7H34.2z"/>
					</g>
					<path id="Rectangle-3" class="st4" d="M4,26h292c2.2,0,4,1.8,4,4v28c0,2.2-1.8,4-4,4H4c-2.2,0-4-1.8-4-4V30C0,27.8,1.8,26,4,26
						z"/>
					<g class="st1">
						<path class="st10" d="M11.4,51L3.8,39.4V51h-2V36.8h2.6l7.1,10.9V36.8h2V51H11.4z"/>
						<path class="st10" d="M25.2,48.3c-0.5,1.7-2.1,3-4.3,3c-2.6,0-4.8-1.9-4.8-5.1c0-3,2.2-5.1,4.6-5.1c3,0,4.6,2,4.6,5
							c0,0.2,0,0.5,0,0.6H18c0,1.7,1.3,2.9,2.9,2.9c1.6,0,2.3-0.9,2.7-1.9L25.2,48.3z M23.3,45.2c0-1.4-0.9-2.5-2.6-2.5
							c-1.6,0-2.5,1.2-2.6,2.5H23.3z"/>
						<path class="st10" d="M28.8,51.1c0.1,1.3,1.2,2.4,2.6,2.4c2,0,2.9-1,2.9-3.1V49c-0.5,0.9-1.5,1.6-2.9,1.6
							c-2.6,0-4.4-1.9-4.4-4.7c0-2.6,1.8-4.7,4.4-4.7c1.5,0,2.5,0.6,3,1.5v-1.3h1.9v8.9c0,2.4-1.2,4.8-4.8,4.8
							c-2.4,0-4.2-1.5-4.4-3.6L28.8,51.1z M34.5,45.9c0-1.9-1.1-3.1-2.7-3.1c-1.7,0-2.8,1.2-2.8,3.1c0,1.9,1.1,3.1,2.8,3.1
							C33.3,49,34.5,47.7,34.5,45.9z"/>
						<path class="st10" d="M48.3,46.2c0,2.9-2,5.1-4.9,5.1c-2.9,0-4.9-2.2-4.9-5.1c0-2.9,2-5.1,4.9-5.1
							C46.3,41.1,48.3,43.3,48.3,46.2z M46.4,46.2c0-2.2-1.4-3.4-3-3.4c-1.6,0-3,1.2-3,3.4c0,2.2,1.4,3.4,3,3.4
							C45,49.6,46.4,48.4,46.4,46.2z"/>
						<path class="st10" d="M53.1,41.4h2.1v1.7h-2.1v5c0,0.9,0.4,1.3,1.3,1.3c0.2,0,0.6,0,0.7-0.1v1.6c-0.2,0.1-0.6,0.2-1.3,0.2
							c-1.6,0-2.7-1-2.7-2.7v-5.3h-1.8v-1.7h0.5c1,0,1.5-0.6,1.5-1.5v-1.6h1.7V41.4z"/>
						<path class="st10" d="M58.6,36.4c0.8,0,1.4,0.6,1.4,1.4c0,0.7-0.6,1.3-1.4,1.3c-0.7,0-1.3-0.6-1.3-1.3
							C57.3,37,57.9,36.4,58.6,36.4z M57.7,51v-9.6h1.9V51H57.7z"/>
						<path class="st10" d="M65.1,45.5l2.6-0.4c0.6-0.1,0.7-0.4,0.7-0.7c0-0.9-0.6-1.7-2.1-1.7c-1.3,0-2.1,0.8-2.2,1.9l-1.8-0.4
							c0.2-1.8,1.9-3.1,3.9-3.1c2.9,0,4,1.6,4,3.5v4.8c0,0.8,0.1,1.3,0.1,1.6h-1.8c0-0.2-0.1-0.6-0.1-1.3c-0.4,0.7-1.4,1.6-3.1,1.6
							c-2,0-3.2-1.4-3.2-2.9C62.2,46.7,63.4,45.7,65.1,45.5z M68.4,46.9v-0.4l-2.9,0.4c-0.8,0.1-1.4,0.6-1.4,1.4
							c0,0.7,0.6,1.4,1.6,1.4C67.2,49.7,68.4,49,68.4,46.9z"/>
						<path class="st10" d="M75.7,41.4h2.1v1.7h-2.1v5c0,0.9,0.4,1.3,1.3,1.3c0.2,0,0.6,0,0.7-0.1v1.6c-0.2,0.1-0.6,0.2-1.3,0.2
							c-1.6,0-2.7-1-2.7-2.7v-5.3H72v-1.7h0.5c1,0,1.5-0.6,1.5-1.5v-1.6h1.7V41.4z"/>
						<path class="st10" d="M81.2,36.4c0.8,0,1.4,0.6,1.4,1.4c0,0.7-0.6,1.3-1.4,1.3c-0.7,0-1.3-0.6-1.3-1.3
							C79.9,37,80.5,36.4,81.2,36.4z M80.3,51v-9.6h1.9V51H80.3z"/>
						<path class="st10" d="M94.4,46.2c0,2.9-2,5.1-4.9,5.1c-2.9,0-4.9-2.2-4.9-5.1c0-2.9,2-5.1,4.9-5.1
							C92.4,41.1,94.4,43.3,94.4,46.2z M92.5,46.2c0-2.2-1.4-3.4-3-3.4c-1.6,0-3,1.2-3,3.4c0,2.2,1.4,3.4,3,3.4
							C91.1,49.6,92.5,48.4,92.5,46.2z"/>
						<path class="st10" d="M98.7,51h-1.9v-9.6h1.8v1.4c0.7-1.2,1.8-1.7,3-1.7c2.3,0,3.4,1.7,3.4,3.8V51h-1.9v-5.8
							c0-1.3-0.6-2.4-2.2-2.4c-1.5,0-2.2,1.2-2.2,2.6V51z"/>
						<path class="st10" d="M108.3,51h-1.8l6.9-14.2h1.8L108.3,51z"/>
						<path class="st10" d="M121,45.2h-2.1V51h-2V36.8h5.3c2.7,0,4.3,1.9,4.3,4.2c0,2-1.3,3.6-3.4,4l3.4,5.9h-2.3L121,45.2z
							 M121.9,43.4c1.6,0,2.7-0.9,2.7-2.4c0-1.5-1.1-2.5-2.7-2.5h-3v4.9H121.9z"/>
						<path class="st10" d="M137.1,48.3c-0.5,1.7-2.1,3-4.3,3c-2.6,0-4.8-1.9-4.8-5.1c0-3,2.2-5.1,4.6-5.1c3,0,4.6,2,4.6,5
							c0,0.2,0,0.5,0,0.6h-7.2c0,1.7,1.3,2.9,2.9,2.9c1.6,0,2.3-0.9,2.7-1.9L137.1,48.3z M135.2,45.2c0-1.4-0.9-2.5-2.6-2.5
							c-1.6,0-2.5,1.2-2.6,2.5H135.2z"/>
						<path class="st10" d="M143.8,51h-1.9l-3.9-9.6h2.1l2.7,7.4l2.8-7.4h2L143.8,51z"/>
						<path class="st10" d="M150.3,36.4c0.8,0,1.4,0.6,1.4,1.4c0,0.7-0.6,1.3-1.4,1.3c-0.7,0-1.3-0.6-1.3-1.3
							C149,37,149.6,36.4,150.3,36.4z M149.4,51v-9.6h1.9V51H149.4z"/>
						<path class="st10" d="M162.8,48.3c-0.5,1.7-2.1,3-4.3,3c-2.6,0-4.8-1.9-4.8-5.1c0-3,2.2-5.1,4.6-5.1c3,0,4.6,2,4.6,5
							c0,0.2,0,0.5,0,0.6h-7.2c0,1.7,1.3,2.9,2.9,2.9c1.6,0,2.3-0.9,2.7-1.9L162.8,48.3z M160.9,45.2c0-1.4-0.9-2.5-2.6-2.5
							c-1.6,0-2.5,1.2-2.6,2.5H160.9z"/>
						<path class="st10" d="M172.6,41.4l2.5,7.2l2.1-7.2h2L176,51h-1.9l-2.6-7.3L169,51h-2l-3.2-9.6h2.1l2.2,7.2l2.5-7.2H172.6z"/>
					</g>
				</g>
				<g id="Group-2" transform="translate(80.000000, 440.000000)">
					<g class="st1">
						<path class="st2" d="M7.1,11.2H2.7L1.6,14H0.1l4-9.9h1.6l4,9.9H8.1L7.1,11.2z M3.2,10h3.4L4.8,5.5L3.2,10z"/>
						<path class="st2" d="M10.8,14V7.3h1.3v0.9c0.4-0.7,1.3-1.1,2-1.1c0.8,0,1.7,0.4,2,1.3c0.5-1,1.4-1.3,2.3-1.3
							c1.2,0,2.3,0.8,2.3,2.6V14h-1.3V9.8c0-0.9-0.4-1.5-1.4-1.5c-0.9,0-1.6,0.7-1.6,1.7V14h-1.3V9.8c0-0.9-0.4-1.5-1.4-1.5
							c-0.9,0-1.6,0.7-1.6,1.7V14H10.8z"/>
						<path class="st2" d="M29.1,10.6c0,2.1-1.4,3.6-3.4,3.6s-3.4-1.5-3.4-3.6c0-2,1.4-3.6,3.4-3.6S29.1,8.6,29.1,10.6z M27.8,10.6
							c0-1.6-1-2.4-2.1-2.4s-2.1,0.8-2.1,2.4c0,1.6,1,2.4,2.1,2.4S27.8,12.2,27.8,10.6z"/>
						<path class="st2" d="M33.2,14.2c-1.6,0-2.5-1.2-2.5-2.7V7.3H32v4c0,0.9,0.4,1.7,1.5,1.7c1.1,0,1.6-0.7,1.6-1.7V7.3h1.3v5.5
							c0,0.5,0,1,0.1,1.2h-1.3c0-0.2-0.1-0.5-0.1-0.8C34.8,13.9,34,14.2,33.2,14.2z"/>
						<path class="st2" d="M40,14h-1.3V7.3H40v1c0.5-0.8,1.3-1.2,2.1-1.2c1.6,0,2.4,1.2,2.4,2.7V14h-1.3v-4c0-0.9-0.4-1.7-1.6-1.7
							c-1,0-1.6,0.8-1.6,1.8V14z"/>
						<path class="st2" d="M48.3,7.3h1.5v1.2h-1.5V12c0,0.6,0.3,0.9,0.9,0.9c0.2,0,0.4,0,0.5-0.1v1.1c-0.1,0-0.4,0.1-0.9,0.1
							c-1.1,0-1.9-0.7-1.9-1.9V8.5h-1.3V7.3h0.4c0.7,0,1-0.4,1-1V5.1h1.2V7.3z"/>
					</g>
					<path id="Rectangle-3_1_" class="st4" d="M4,26h292c2.2,0,4,1.8,4,4v28c0,2.2-1.8,4-4,4H4c-2.2,0-4-1.8-4-4V30
						C0,27.8,1.8,26,4,26z"/>
					<g class="st1">
						<path class="st10" d="M3.5,43.4l3.8-3.5H1.2V38H10v1.8l-3.7,3.4c1.9,0,4,1.3,4,3.9c0,2.2-1.7,4.2-4.7,4.2c-3,0-4.7-2-4.8-4.1
							l1.9-0.4c0.1,1.7,1.3,2.8,2.9,2.8c1.8,0,2.7-1.1,2.7-2.4c0-1.7-1.4-2.4-2.6-2.4c-0.4,0-0.8,0.1-1.1,0.2L3.5,43.4z"/>
						<path class="st10" d="M13.2,39.8c0.8-1.3,2.1-2.1,4-2.1c1.8,0,3.1,0.8,4,2.1c0.9,1.3,1.2,2.9,1.2,4.7s-0.3,3.4-1.2,4.7
							c-0.8,1.3-2.1,2.1-4,2.1c-1.8,0-3.1-0.8-4-2.1c-0.9-1.3-1.2-2.9-1.2-4.7S12.4,41.1,13.2,39.8z M15.1,48.7
							c0.5,0.5,1.1,0.8,2.1,0.8c0.9,0,1.6-0.3,2.1-0.8c0.8-0.8,1.1-2.2,1.1-4.2s-0.4-3.4-1.1-4.2c-0.5-0.5-1.1-0.8-2.1-0.8
							c-0.9,0-1.6,0.3-2.1,0.8c-0.8,0.8-1.1,2.2-1.1,4.2S14.4,47.9,15.1,48.7z"/>
						<path class="st10" d="M25.4,39.8c0.8-1.3,2.1-2.1,4-2.1c1.8,0,3.1,0.8,4,2.1c0.9,1.3,1.2,2.9,1.2,4.7s-0.3,3.4-1.2,4.7
							c-0.8,1.3-2.1,2.1-4,2.1c-1.8,0-3.1-0.8-4-2.1c-0.9-1.3-1.2-2.9-1.2-4.7S24.5,41.1,25.4,39.8z M27.3,48.7
							c0.5,0.5,1.1,0.8,2.1,0.8c0.9,0,1.6-0.3,2.1-0.8c0.8-0.8,1.1-2.2,1.1-4.2s-0.4-3.4-1.1-4.2c-0.5-0.5-1.1-0.8-2.1-0.8
							c-0.9,0-1.6,0.3-2.1,0.8c-0.8,0.8-1.1,2.2-1.1,4.2S26.5,47.9,27.3,48.7z"/>
						<path class="st10" d="M37.6,48.4c0.9,0,1.6,0.6,1.6,1.9c0,2.6-1.7,3.7-3,3.9v-1c1-0.2,1.6-1.2,1.7-2.2c-0.1,0-0.2,0.1-0.4,0.1
							c-0.7,0-1.3-0.5-1.3-1.4C36.1,49,36.7,48.4,37.6,48.4z"/>
						<path class="st10" d="M42.4,39.8c0.8-1.3,2.1-2.1,4-2.1c1.8,0,3.1,0.8,4,2.1c0.9,1.3,1.2,2.9,1.2,4.7s-0.3,3.4-1.2,4.7
							c-0.8,1.3-2.1,2.1-4,2.1c-1.8,0-3.1-0.8-4-2.1c-0.9-1.3-1.2-2.9-1.2-4.7S41.5,41.1,42.4,39.8z M44.3,48.7
							c0.5,0.5,1.1,0.8,2.1,0.8c0.9,0,1.6-0.3,2.1-0.8c0.8-0.8,1.1-2.2,1.1-4.2s-0.4-3.4-1.1-4.2c-0.5-0.5-1.1-0.8-2.1-0.8
							c-0.9,0-1.6,0.3-2.1,0.8c-0.8,0.8-1.1,2.2-1.1,4.2S43.5,47.9,44.3,48.7z"/>
						<path class="st10" d="M54.5,39.8c0.8-1.3,2.1-2.1,4-2.1c1.8,0,3.1,0.8,4,2.1c0.9,1.3,1.2,2.9,1.2,4.7s-0.3,3.4-1.2,4.7
							c-0.8,1.3-2.1,2.1-4,2.1c-1.8,0-3.1-0.8-4-2.1c-0.9-1.3-1.2-2.9-1.2-4.7S53.7,41.1,54.5,39.8z M56.5,48.7
							c0.5,0.5,1.1,0.8,2.1,0.8c0.9,0,1.6-0.3,2.1-0.8c0.8-0.8,1.1-2.2,1.1-4.2s-0.4-3.4-1.1-4.2c-0.5-0.5-1.1-0.8-2.1-0.8
							c-0.9,0-1.6,0.3-2.1,0.8c-0.8,0.8-1.1,2.2-1.1,4.2S55.7,47.9,56.5,48.7z"/>
						<path class="st10" d="M66.7,39.8c0.8-1.3,2.1-2.1,4-2.1c1.8,0,3.1,0.8,4,2.1c0.9,1.3,1.2,2.9,1.2,4.7s-0.3,3.4-1.2,4.7
							c-0.8,1.3-2.1,2.1-4,2.1c-1.8,0-3.1-0.8-4-2.1c-0.9-1.3-1.2-2.9-1.2-4.7S65.9,41.1,66.7,39.8z M68.6,48.7
							c0.5,0.5,1.1,0.8,2.1,0.8c0.9,0,1.6-0.3,2.1-0.8c0.8-0.8,1.1-2.2,1.1-4.2s-0.4-3.4-1.1-4.2c-0.5-0.5-1.1-0.8-2.1-0.8
							c-0.9,0-1.6,0.3-2.1,0.8c-0.8,0.8-1.1,2.2-1.1,4.2S67.9,47.9,68.6,48.7z"/>
					</g>
				</g>
				<g id="Group-7" transform="translate(400.000000, 440.000000)">
					<g class="st1">
						<path class="st2" d="M8,14L2.6,5.9V14H1.3V4.1h1.8l5,7.6V4.1h1.4V14H8z"/>
						<path class="st2" d="M11.9,14V4.1h6v1.3h-4.7v3.1h4.2v1.3h-4.2v3H18V14H11.9z"/>
						<path class="st2" d="M31.3,4.1h1.4L29.8,14h-1.4l-2.6-8.1L23.3,14h-1.4L19,4.1h1.4l2.2,7.8l2.5-7.8h1.4l2.5,7.9L31.3,4.1z"/>
						<path class="st2" d="M37,9c0-3.3,2.5-5.2,4.9-5.2c2.3,0,3.9,1.2,4.4,3.2L45,7.5c-0.4-1.5-1.5-2.3-3.1-2.3
							c-1.8,0-3.5,1.3-3.5,3.9s1.7,3.9,3.5,3.9c1.7,0,2.8-1,3.2-2.4l1.2,0.4c-0.5,1.9-2.1,3.2-4.4,3.2C39.4,14.2,37,12.3,37,9z"/>
						<path class="st2" d="M47.9,14V3.9h1.3V14H47.9z"/>
						<path class="st2" d="M57.7,10.6c0,2.1-1.4,3.6-3.4,3.6s-3.4-1.5-3.4-3.6c0-2,1.4-3.6,3.4-3.6S57.7,8.6,57.7,10.6z M56.4,10.6
							c0-1.6-1-2.4-2.1-2.4s-2.1,0.8-2.1,2.4c0,1.6,1,2.4,2.1,2.4S56.4,12.2,56.4,10.6z"/>
						<path class="st2" d="M60,11.8c0.1,0.7,0.6,1.3,1.6,1.3c0.7,0,1.1-0.4,1.1-0.9c0-0.4-0.3-0.7-0.9-0.9l-1.1-0.3
							c-1.1-0.2-1.7-0.9-1.7-1.9c0-1.1,1.1-2.1,2.4-2.1c1.8,0,2.4,1.2,2.6,1.8l-1.2,0.4c-0.1-0.3-0.3-1.1-1.4-1.1
							c-0.7,0-1.1,0.4-1.1,0.9c0,0.4,0.3,0.7,0.8,0.8l1.1,0.2c1.2,0.3,1.9,1,1.9,2c0,1-0.8,2.1-2.5,2.1c-1.8,0-2.6-1.2-2.7-2
							L60,11.8z"/>
						<path class="st2" d="M71.5,12.1c-0.4,1.2-1.5,2.1-3,2.1c-1.8,0-3.4-1.3-3.4-3.6c0-2.1,1.5-3.6,3.2-3.6c2.1,0,3.2,1.4,3.2,3.5
							c0,0.2,0,0.3,0,0.4h-5.1c0,1.2,0.9,2,2,2c1.1,0,1.6-0.6,1.9-1.4L71.5,12.1z M70.2,9.9c0-1-0.7-1.7-1.8-1.7
							c-1.1,0-1.8,0.9-1.8,1.7H70.2z"/>
						<path class="st2" d="M76.9,14V4.1h3.5c2.5,0,4.7,1.7,4.7,5c0,3.2-2.2,4.9-4.7,4.9H76.9z M80.3,12.8c1.8,0,3.4-1.2,3.4-3.7
							c0-2.5-1.5-3.8-3.3-3.8h-2.1v7.5H80.3z"/>
						<path class="st2" d="M88.5,10.1l1.8-0.3c0.4-0.1,0.5-0.3,0.5-0.5c0-0.7-0.4-1.2-1.5-1.2c-0.9,0-1.4,0.6-1.5,1.4l-1.3-0.3
							c0.1-1.3,1.3-2.2,2.8-2.2c2,0,2.8,1.1,2.8,2.5v3.4c0,0.6,0.1,0.9,0.1,1.1h-1.3c0-0.2-0.1-0.4-0.1-0.9c-0.3,0.5-1,1.1-2.2,1.1
							c-1.4,0-2.3-1-2.3-2C86.4,11,87.3,10.3,88.5,10.1z M90.8,11.1v-0.3l-2.1,0.3c-0.6,0.1-1,0.4-1,1c0,0.5,0.4,1,1.1,1
							C89.9,13.1,90.8,12.6,90.8,11.1z"/>
						<path class="st2" d="M95.9,7.3h1.5v1.2h-1.5V12c0,0.6,0.3,0.9,0.9,0.9c0.2,0,0.4,0,0.5-0.1v1.1c-0.1,0-0.4,0.1-0.9,0.1
							c-1.1,0-1.9-0.7-1.9-1.9V8.5h-1.3V7.3h0.4c0.7,0,1-0.4,1-1V5.1h1.2V7.3z"/>
						<path class="st2" d="M104.9,12.1c-0.4,1.2-1.5,2.1-3,2.1c-1.8,0-3.4-1.3-3.4-3.6c0-2.1,1.5-3.6,3.2-3.6c2.1,0,3.2,1.4,3.2,3.5
							c0,0.2,0,0.3,0,0.4h-5.1c0,1.2,0.9,2,2,2c1.1,0,1.6-0.6,1.9-1.4L104.9,12.1z M103.6,9.9c0-1-0.7-1.7-1.8-1.7
							c-1.1,0-1.8,0.9-1.8,1.7H103.6z"/>
					</g>
					<g class="st1">
						<path class="st10" d="M6.4,76.8c-0.1-0.7-0.7-1.7-2.1-1.7c-1.1,0-1.9,0.7-1.9,1.7c0,0.7,0.4,1.3,1.3,1.4l1.5,0.3
							c1.7,0.4,2.6,1.4,2.6,2.8c0,1.5-1.3,2.9-3.4,2.9c-2.4,0-3.5-1.5-3.7-3l1.3-0.4C1.9,81.9,2.7,83,4.2,83c1.4,0,2-0.7,2-1.6
							c0-0.7-0.5-1.3-1.5-1.5l-1.4-0.3C2,79.2,1,78.3,1,76.8c0-1.6,1.4-3,3.3-3c2.2,0,3.1,1.4,3.4,2.5L6.4,76.8z"/>
						<path class="st10" d="M11.5,84.2C10,84.2,9,83,9,81.5v-4.2h1.3v4c0,0.9,0.4,1.7,1.5,1.7c1.1,0,1.6-0.7,1.6-1.7v-4.1h1.3v5.5
							c0,0.5,0,1,0.1,1.2h-1.3c0-0.2-0.1-0.5-0.1-0.8C13.1,83.9,12.3,84.2,11.5,84.2z"/>
						<path class="st10" d="M17.7,84.1c0.1,0.9,0.8,1.7,1.8,1.7c1.4,0,2.1-0.7,2.1-2.2v-1c-0.3,0.6-1.1,1.1-2.1,1.1
							c-1.8,0-3.1-1.4-3.1-3.3c0-1.8,1.2-3.3,3.1-3.3c1,0,1.7,0.4,2.1,1.1v-0.9h1.3v6.2c0,1.7-0.8,3.4-3.4,3.4
							c-1.7,0-2.9-1.1-3.1-2.5L17.7,84.1z M21.7,80.4c0-1.3-0.8-2.2-1.9-2.2c-1.2,0-1.9,0.9-1.9,2.2c0,1.3,0.8,2.2,1.9,2.2
							C20.9,82.6,21.7,81.7,21.7,80.4z"/>
						<path class="st10" d="M25.8,84.1c0.1,0.9,0.8,1.7,1.8,1.7c1.4,0,2.1-0.7,2.1-2.2v-1c-0.3,0.6-1.1,1.1-2.1,1.1
							c-1.8,0-3.1-1.4-3.1-3.3c0-1.8,1.2-3.3,3.1-3.3c1,0,1.7,0.4,2.1,1.1v-0.9H31v6.2c0,1.7-0.8,3.4-3.4,3.4
							c-1.7,0-2.9-1.1-3.1-2.5L25.8,84.1z M29.8,80.4c0-1.3-0.8-2.2-1.9-2.2c-1.2,0-1.9,0.9-1.9,2.2c0,1.3,0.8,2.2,1.9,2.2
							C29,82.6,29.8,81.7,29.8,80.4z"/>
						<path class="st10" d="M39,82.1c-0.4,1.2-1.5,2.1-3,2.1c-1.8,0-3.4-1.3-3.4-3.6c0-2.1,1.5-3.6,3.2-3.6c2.1,0,3.2,1.4,3.2,3.5
							c0,0.2,0,0.3,0,0.4h-5.1c0,1.2,0.9,2,2,2c1.1,0,1.6-0.6,1.9-1.4L39,82.1z M37.6,79.9c0-1-0.7-1.7-1.8-1.7
							c-1.1,0-1.8,0.9-1.8,1.7H37.6z"/>
						<path class="st10" d="M41.3,81.8c0.1,0.7,0.6,1.3,1.6,1.3c0.7,0,1.1-0.4,1.1-0.9c0-0.4-0.3-0.7-0.9-0.9L42,81.1
							c-1.1-0.2-1.7-0.9-1.7-1.9c0-1.1,1.1-2.1,2.4-2.1c1.8,0,2.4,1.2,2.6,1.8l-1.2,0.4c-0.1-0.3-0.3-1.1-1.4-1.1
							c-0.7,0-1.1,0.4-1.1,0.9c0,0.4,0.3,0.7,0.8,0.8l1.1,0.2c1.2,0.3,1.9,1,1.9,2c0,1-0.8,2.1-2.5,2.1c-1.8,0-2.6-1.2-2.7-2
							L41.3,81.8z"/>
						<path class="st10" d="M48.8,77.3h1.5v1.2h-1.5V82c0,0.6,0.3,0.9,0.9,0.9c0.2,0,0.4,0,0.5-0.1v1.1c-0.1,0-0.4,0.1-0.9,0.1
							c-1.1,0-1.9-0.7-1.9-1.9v-3.7h-1.3v-1.2h0.4c0.7,0,1-0.4,1-1v-1.1h1.2V77.3z"/>
						<path class="st10" d="M57.8,82.1c-0.4,1.2-1.5,2.1-3,2.1c-1.8,0-3.4-1.3-3.4-3.6c0-2.1,1.5-3.6,3.2-3.6c2.1,0,3.2,1.4,3.2,3.5
							c0,0.2,0,0.3,0,0.4h-5.1c0,1.2,0.9,2,2,2c1.1,0,1.6-0.6,1.9-1.4L57.8,82.1z M56.5,79.9c0-1-0.7-1.7-1.8-1.7
							c-1.1,0-1.8,0.9-1.8,1.7H56.5z"/>
						<path class="st10" d="M64.2,83c-0.3,0.6-1,1.2-2.1,1.2c-2,0-3.2-1.6-3.2-3.6c0-1.9,1.3-3.5,3.2-3.5c1.2,0,1.8,0.6,2.1,1.1
							v-4.4h1.3v8.9c0,0.6,0.1,1.1,0.1,1.2h-1.3c0-0.2-0.1-0.5-0.1-0.9V83z M62.3,83c1.2,0,1.9-1.1,1.9-2.4s-0.7-2.3-1.9-2.3
							c-1.2,0-2,1-2,2.4S61,83,62.3,83z"/>
						<path class="st10" d="M76,83c-0.3,0.6-1,1.2-2.1,1.2c-2,0-3.2-1.6-3.2-3.6c0-1.9,1.3-3.5,3.2-3.5c1.2,0,1.8,0.6,2.1,1.1v-4.4
							h1.3v8.9c0,0.6,0.1,1.1,0.1,1.2H76c0-0.2-0.1-0.5-0.1-0.9V83z M74,83c1.2,0,1.9-1.1,1.9-2.4s-0.7-2.3-1.9-2.3
							c-1.2,0-2,1-2,2.4S72.7,83,74,83z"/>
						<path class="st10" d="M81.1,80.1l1.8-0.3c0.4-0.1,0.5-0.3,0.5-0.5c0-0.7-0.4-1.2-1.5-1.2c-0.9,0-1.4,0.6-1.5,1.4l-1.3-0.3
							c0.1-1.3,1.3-2.2,2.8-2.2c2,0,2.8,1.1,2.8,2.5v3.4c0,0.6,0.1,0.9,0.1,1.1h-1.3c0-0.2-0.1-0.4-0.1-0.9c-0.3,0.5-1,1.1-2.2,1.1
							c-1.4,0-2.3-1-2.3-2C79.1,81,79.9,80.3,81.1,80.1z M83.4,81.1v-0.3l-2.1,0.3c-0.6,0.1-1,0.4-1,1c0,0.5,0.4,1,1.1,1
							C82.6,83.1,83.4,82.6,83.4,81.1z"/>
						<path class="st10" d="M88.6,77.3H90v1.2h-1.5V82c0,0.6,0.3,0.9,0.9,0.9c0.2,0,0.4,0,0.5-0.1v1.1c-0.1,0-0.4,0.1-0.9,0.1
							c-1.1,0-1.9-0.7-1.9-1.9v-3.7H86v-1.2h0.4c0.7,0,1-0.4,1-1v-1.1h1.2V77.3z"/>
						<path class="st10" d="M97.6,82.1c-0.4,1.2-1.5,2.1-3,2.1c-1.8,0-3.4-1.3-3.4-3.6c0-2.1,1.5-3.6,3.2-3.6c2.1,0,3.2,1.4,3.2,3.5
							c0,0.2,0,0.3,0,0.4h-5.1c0,1.2,0.9,2,2,2c1.1,0,1.6-0.6,1.9-1.4L97.6,82.1z M96.2,79.9c0-1-0.7-1.7-1.8-1.7
							c-1.1,0-1.8,0.9-1.8,1.7H96.2z"/>
						<path class="st10" d="M99.8,81.8c0.1,0.7,0.6,1.3,1.6,1.3c0.7,0,1.1-0.4,1.1-0.9c0-0.4-0.3-0.7-0.9-0.9l-1.1-0.3
							c-1-0.2-1.7-0.9-1.7-1.9c0-1.1,1.1-2.1,2.4-2.1c1.8,0,2.4,1.2,2.6,1.8l-1.2,0.4c-0.1-0.3-0.3-1.1-1.4-1.1
							c-0.7,0-1.1,0.4-1.1,0.9c0,0.4,0.3,0.7,0.8,0.8l1.1,0.2c1.2,0.3,1.9,1,1.9,2c0,1-0.8,2.1-2.5,2.1c-1.8,0-2.6-1.2-2.7-2
							L99.8,81.8z"/>
						<path class="st10" d="M110.7,80.1l1.8-0.3c0.4-0.1,0.5-0.3,0.5-0.5c0-0.7-0.4-1.2-1.5-1.2c-0.9,0-1.4,0.6-1.5,1.4l-1.3-0.3
							c0.1-1.3,1.3-2.2,2.8-2.2c2,0,2.8,1.1,2.8,2.5v3.4c0,0.6,0.1,0.9,0.1,1.1h-1.3c0-0.2-0.1-0.4-0.1-0.9c-0.3,0.5-1,1.1-2.2,1.1
							c-1.4,0-2.3-1-2.3-2C108.7,81,109.6,80.3,110.7,80.1z M113.1,81.1v-0.3l-2.1,0.3c-0.6,0.1-1,0.4-1,1c0,0.5,0.4,1,1.1,1
							C112.2,83.1,113.1,82.6,113.1,81.1z"/>
						<path class="st10" d="M120.2,78.6c-0.2,0-0.4,0-0.6,0c-1.1,0-1.8,0.6-1.8,2.1V84h-1.3v-6.7h1.3v1.2c0.5-1,1.3-1.3,2-1.3
							c0.2,0,0.4,0,0.4,0V78.6z"/>
						<path class="st10" d="M127.4,82.1c-0.4,1.2-1.5,2.1-3,2.1c-1.8,0-3.4-1.3-3.4-3.6c0-2.1,1.5-3.6,3.2-3.6
							c2.1,0,3.2,1.4,3.2,3.5c0,0.2,0,0.3,0,0.4h-5.1c0,1.2,0.9,2,2,2c1.1,0,1.6-0.6,1.9-1.4L127.4,82.1z M126,79.9
							c0-1-0.7-1.7-1.8-1.7c-1.1,0-1.8,0.9-1.8,1.7H126z"/>
						<path class="st10" d="M132.6,84V73.9h1.3v4.4c0.3-0.6,1.1-1.1,2.2-1.1c2,0,3.1,1.6,3.1,3.5c0,2-1.1,3.6-3.1,3.6
							c-1,0-1.8-0.4-2.2-1.2v1H132.6z M135.9,78.2c-1.2,0-2,0.9-2,2.4c0,1.5,0.8,2.4,2,2.4c1.2,0,2-1,2-2.4
							C137.9,79.1,137.1,78.2,135.9,78.2z"/>
						<path class="st10" d="M142.5,80.1l1.8-0.3c0.4-0.1,0.5-0.3,0.5-0.5c0-0.7-0.4-1.2-1.5-1.2c-0.9,0-1.4,0.6-1.5,1.4l-1.3-0.3
							c0.1-1.3,1.3-2.2,2.8-2.2c2,0,2.8,1.1,2.8,2.5v3.4c0,0.6,0.1,0.9,0.1,1.1H145c0-0.2-0.1-0.4-0.1-0.9c-0.3,0.5-1,1.1-2.2,1.1
							c-1.4,0-2.3-1-2.3-2C140.5,81,141.4,80.3,142.5,80.1z M144.9,81.1v-0.3l-2.1,0.3c-0.6,0.1-1,0.4-1,1c0,0.5,0.4,1,1.1,1
							C144,83.1,144.9,82.6,144.9,81.1z"/>
						<path class="st10" d="M148.8,81.8c0.1,0.7,0.6,1.3,1.6,1.3c0.7,0,1.1-0.4,1.1-0.9c0-0.4-0.3-0.7-0.9-0.9l-1.1-0.3
							c-1-0.2-1.7-0.9-1.7-1.9c0-1.1,1.1-2.1,2.4-2.1c1.8,0,2.4,1.2,2.6,1.8l-1.2,0.4c-0.1-0.3-0.3-1.1-1.4-1.1
							c-0.7,0-1.1,0.4-1.1,0.9c0,0.4,0.3,0.7,0.8,0.8l1.1,0.2c1.2,0.3,1.9,1,1.9,2c0,1-0.8,2.1-2.5,2.1c-1.8,0-2.6-1.2-2.7-2
							L148.8,81.8z"/>
						<path class="st10" d="M160.3,82.1c-0.4,1.2-1.5,2.1-3,2.1c-1.8,0-3.4-1.3-3.4-3.6c0-2.1,1.5-3.6,3.2-3.6
							c2.1,0,3.2,1.4,3.2,3.5c0,0.2,0,0.3,0,0.4h-5.1c0,1.2,0.9,2,2,2c1.1,0,1.6-0.6,1.9-1.4L160.3,82.1z M159,79.9
							c0-1-0.7-1.7-1.8-1.7c-1.1,0-1.8,0.9-1.8,1.7H159z"/>
						<path class="st10" d="M166.8,83c-0.3,0.6-1,1.2-2.1,1.2c-2,0-3.2-1.6-3.2-3.6c0-1.9,1.3-3.5,3.2-3.5c1.2,0,1.8,0.6,2.1,1.1
							v-4.4h1.3v8.9c0,0.6,0.1,1.1,0.1,1.2h-1.3c0-0.2-0.1-0.5-0.1-0.9V83z M164.8,83c1.2,0,1.9-1.1,1.9-2.4s-0.7-2.3-1.9-2.3
							c-1.2,0-2,1-2,2.4S163.6,83,164.8,83z"/>
						<path class="st10" d="M180.1,80.6c0,2.1-1.4,3.6-3.4,3.6c-2,0-3.4-1.5-3.4-3.6c0-2,1.4-3.6,3.4-3.6
							C178.7,77.1,180.1,78.6,180.1,80.6z M178.8,80.6c0-1.6-1-2.4-2.1-2.4c-1.1,0-2.1,0.8-2.1,2.4c0,1.6,1,2.4,2.1,2.4
							C177.8,83,178.8,82.2,178.8,80.6z"/>
						<path class="st10" d="M183.1,84h-1.3v-6.7h1.3v1c0.5-0.8,1.3-1.2,2.1-1.2c1.6,0,2.4,1.2,2.4,2.7V84h-1.3v-4
							c0-0.9-0.4-1.7-1.6-1.7c-1,0-1.6,0.8-1.6,1.8V84z"/>
						<path class="st10" d="M194.8,80.1l1.8-0.3c0.4-0.1,0.5-0.3,0.5-0.5c0-0.7-0.4-1.2-1.5-1.2c-0.9,0-1.4,0.6-1.5,1.4l-1.3-0.3
							c0.1-1.3,1.3-2.2,2.8-2.2c2,0,2.8,1.1,2.8,2.5v3.4c0,0.6,0.1,0.9,0.1,1.1h-1.3c0-0.2-0.1-0.4-0.1-0.9c-0.3,0.5-1,1.1-2.2,1.1
							c-1.4,0-2.3-1-2.3-2C192.8,81,193.6,80.3,194.8,80.1z M197.1,81.1v-0.3l-2.1,0.3c-0.6,0.1-1,0.4-1,1c0,0.5,0.4,1,1.1,1
							C196.3,83.1,197.1,82.6,197.1,81.1z"/>
						<path class="st10" d="M203.6,84h-1.3l-2.7-6.7h1.5l1.9,5.2l1.9-5.2h1.4L203.6,84z"/>
						<path class="st10" d="M209.1,80.1l1.8-0.3c0.4-0.1,0.5-0.3,0.5-0.5c0-0.7-0.4-1.2-1.5-1.2c-0.9,0-1.4,0.6-1.5,1.4l-1.3-0.3
							c0.1-1.3,1.3-2.2,2.8-2.2c2,0,2.8,1.1,2.8,2.5v3.4c0,0.6,0.1,0.9,0.1,1.1h-1.3c0-0.2-0.1-0.4-0.1-0.9c-0.3,0.5-1,1.1-2.2,1.1
							c-1.4,0-2.3-1-2.3-2C207,81,207.9,80.3,209.1,80.1z M211.4,81.1v-0.3l-2.1,0.3c-0.6,0.1-1,0.4-1,1c0,0.5,0.4,1,1.1,1
							C210.5,83.1,211.4,82.6,211.4,81.1z"/>
						<path class="st10" d="M218.5,78.6c-0.2,0-0.4,0-0.6,0c-1.1,0-1.8,0.6-1.8,2.1V84h-1.3v-6.7h1.3v1.2c0.5-1,1.3-1.3,2-1.3
							c0.2,0,0.4,0,0.4,0V78.6z"/>
						<path class="st10" d="M221.5,80.1l1.8-0.3c0.4-0.1,0.5-0.3,0.5-0.5c0-0.7-0.4-1.2-1.5-1.2c-0.9,0-1.4,0.6-1.5,1.4l-1.3-0.3
							c0.1-1.3,1.3-2.2,2.8-2.2c2,0,2.8,1.1,2.8,2.5v3.4c0,0.6,0.1,0.9,0.1,1.1H224c0-0.2-0.1-0.4-0.1-0.9c-0.3,0.5-1,1.1-2.2,1.1
							c-1.4,0-2.3-1-2.3-2C219.5,81,220.4,80.3,221.5,80.1z M223.9,81.1v-0.3l-2.1,0.3c-0.6,0.1-1,0.4-1,1c0,0.5,0.4,1,1.1,1
							C223,83.1,223.9,82.6,223.9,81.1z"/>
						<path class="st10" d="M228,84.1c0.1,0.9,0.8,1.7,1.8,1.7c1.4,0,2.1-0.7,2.1-2.2v-1c-0.3,0.6-1,1.1-2.1,1.1
							c-1.8,0-3.1-1.4-3.1-3.3c0-1.8,1.2-3.3,3.1-3.3c1,0,1.7,0.4,2.1,1.1v-0.9h1.3v6.2c0,1.7-0.8,3.4-3.4,3.4
							c-1.7,0-2.9-1.1-3.1-2.5L228,84.1z M232,80.4c0-1.3-0.8-2.2-1.9-2.2c-1.2,0-1.9,0.9-1.9,2.2c0,1.3,0.8,2.2,1.9,2.2
							C231.2,82.6,232,81.7,232,80.4z"/>
						<path class="st10" d="M241.2,82.1c-0.4,1.2-1.5,2.1-3,2.1c-1.8,0-3.4-1.3-3.4-3.6c0-2.1,1.5-3.6,3.2-3.6
							c2.1,0,3.2,1.4,3.2,3.5c0,0.2,0,0.3,0,0.4h-5.1c0,1.2,0.9,2,2,2c1.1,0,1.6-0.6,1.9-1.4L241.2,82.1z M239.9,79.9
							c0-1-0.7-1.7-1.8-1.7c-1.1,0-1.8,0.9-1.8,1.7H239.9z"/>
						<path class="st10" d="M248.2,77.3h1.5v1.2h-1.5V82c0,0.6,0.3,0.9,0.9,0.9c0.2,0,0.4,0,0.5-0.1v1.1c-0.1,0-0.4,0.1-0.9,0.1
							c-1.1,0-1.9-0.7-1.9-1.9v-3.7h-1.3v-1.2h0.4c0.7,0,1-0.4,1-1v-1.1h1.2V77.3z"/>
						<path class="st10" d="M252,73.8c0.5,0,1,0.4,1,1c0,0.5-0.4,0.9-1,0.9c-0.5,0-0.9-0.4-0.9-0.9C251.1,74.2,251.5,73.8,252,73.8z
							 M251.4,84v-6.7h1.3V84H251.4z"/>
						<path class="st10" d="M254.9,84v-6.7h1.3v0.9c0.4-0.7,1.3-1.1,2-1.1c0.8,0,1.7,0.4,2,1.3c0.5-1,1.4-1.3,2.3-1.3
							c1.2,0,2.3,0.8,2.3,2.6V84h-1.3v-4.2c0-0.9-0.4-1.5-1.4-1.5c-0.9,0-1.6,0.7-1.6,1.7V84h-1.3v-4.2c0-0.9-0.4-1.5-1.4-1.5
							c-0.9,0-1.6,0.7-1.6,1.7V84H254.9z"/>
						<path class="st10" d="M272.8,82.1c-0.4,1.2-1.5,2.1-3,2.1c-1.8,0-3.4-1.3-3.4-3.6c0-2.1,1.5-3.6,3.2-3.6
							c2.1,0,3.2,1.4,3.2,3.5c0,0.2,0,0.3,0,0.4h-5.1c0,1.2,0.9,2,2,2c1.1,0,1.6-0.6,1.9-1.4L272.8,82.1z M271.5,79.9
							c0-1-0.7-1.7-1.8-1.7c-1.1,0-1.8,0.9-1.8,1.7H271.5z"/>
					</g>
					<g class="st1">
						<path class="st10" d="M2.9,96.5v5.5H1.5v-5.5H0.3v-1.2h1.2v-1.1c0-1.5,1-2.3,2.2-2.3c0.4,0,0.7,0.1,0.8,0.1v1.2
							C4.5,93.1,4.3,93,4,93c-0.5,0-1.1,0.2-1.1,1.1v1.1h1.6v1.2H2.9z"/>
						<path class="st10" d="M12,98.6c0,2.1-1.4,3.6-3.4,3.6s-3.4-1.5-3.4-3.6c0-2,1.4-3.6,3.4-3.6S12,96.6,12,98.6z M10.6,98.6
							c0-1.6-1-2.4-2.1-2.4s-2.1,0.8-2.1,2.4c0,1.6,1,2.4,2.1,2.4S10.6,100.2,10.6,98.6z"/>
						<path class="st10" d="M17.4,96.6c-0.2,0-0.4,0-0.6,0c-1.1,0-1.8,0.6-1.8,2.1v3.4h-1.3v-6.7h1.3v1.2c0.5-1,1.3-1.3,2-1.3
							c0.2,0,0.4,0,0.4,0V96.6z"/>
						<path class="st10" d="M22.5,104.8l1.7-3.6l-2.9-6h1.5l2.1,4.7l2-4.7h1.4l-4.4,9.6H22.5z"/>
						<path class="st10" d="M35.7,98.6c0,2.1-1.4,3.6-3.4,3.6c-2,0-3.4-1.5-3.4-3.6c0-2,1.4-3.6,3.4-3.6
							C34.2,95.1,35.7,96.6,35.7,98.6z M34.3,98.6c0-1.6-1-2.4-2.1-2.4c-1.1,0-2.1,0.8-2.1,2.4c0,1.6,1,2.4,2.1,2.4
							C33.3,101,34.3,100.2,34.3,98.6z"/>
						<path class="st10" d="M39.7,102.2c-1.6,0-2.5-1.2-2.5-2.7v-4.2h1.3v4c0,0.9,0.4,1.7,1.5,1.7c1.1,0,1.6-0.7,1.6-1.7v-4.1H43
							v5.5c0,0.5,0,1,0.1,1.2h-1.3c0-0.2-0.1-0.5-0.1-0.8C41.3,101.9,40.5,102.2,39.7,102.2z"/>
						<path class="st10" d="M48.9,96.6c-0.2,0-0.4,0-0.6,0c-1.1,0-1.8,0.6-1.8,2.1v3.4h-1.3v-6.7h1.3v1.2c0.5-1,1.3-1.3,2-1.3
							c0.2,0,0.4,0,0.4,0V96.6z"/>
						<path class="st10" d="M54.4,99.8c0.1,0.7,0.6,1.3,1.6,1.3c0.7,0,1.1-0.4,1.1-0.9c0-0.4-0.3-0.7-0.9-0.9l-1.1-0.3
							c-1.1-0.2-1.7-0.9-1.7-1.9c0-1.1,1.1-2.1,2.4-2.1c1.8,0,2.4,1.2,2.6,1.8l-1.2,0.4c-0.1-0.3-0.3-1.1-1.4-1.1
							c-0.7,0-1.1,0.4-1.1,0.9c0,0.4,0.3,0.7,0.8,0.8l1.1,0.2c1.2,0.3,1.9,1,1.9,2c0,1-0.8,2.1-2.5,2.1c-1.8,0-2.6-1.2-2.7-2
							L54.4,99.8z"/>
						<path class="st10" d="M60.8,91.8c0.5,0,1,0.4,1,1c0,0.5-0.4,0.9-1,0.9c-0.5,0-0.9-0.4-0.9-0.9C59.9,92.2,60.3,91.8,60.8,91.8z
							 M60.2,102v-6.7h1.3v6.7H60.2z"/>
						<path class="st10" d="M63.7,102v-6.7H65v0.9c0.4-0.7,1.3-1.1,2-1.1c0.8,0,1.7,0.4,2,1.3c0.5-1,1.4-1.3,2.3-1.3
							c1.2,0,2.3,0.8,2.3,2.6v4.4h-1.3v-4.2c0-0.9-0.4-1.5-1.4-1.5c-0.9,0-1.6,0.7-1.6,1.7v4.1H68v-4.2c0-0.9-0.4-1.5-1.4-1.5
							c-0.9,0-1.6,0.7-1.6,1.7v4.1H63.7z"/>
						<path class="st10" d="M76.3,91.8c0.5,0,1,0.4,1,1c0,0.5-0.4,0.9-1,0.9c-0.5,0-0.9-0.4-0.9-0.9C75.4,92.2,75.8,91.8,76.3,91.8z
							 M75.7,102v-6.7H77v6.7H75.7z"/>
						<path class="st10" d="M79.2,102V91.9h1.3V102H79.2z"/>
						<path class="st10" d="M84.4,98.1l1.8-0.3c0.4-0.1,0.5-0.3,0.5-0.5c0-0.7-0.4-1.2-1.5-1.2c-0.9,0-1.4,0.6-1.5,1.4l-1.3-0.3
							c0.1-1.3,1.3-2.2,2.8-2.2c2,0,2.8,1.1,2.8,2.5v3.4c0,0.6,0.1,0.9,0.1,1.1h-1.3c0-0.2-0.1-0.4-0.1-0.9c-0.3,0.5-1,1.1-2.2,1.1
							c-1.4,0-2.3-1-2.3-2C82.4,99,83.3,98.3,84.4,98.1z M86.8,99.1v-0.3l-2.1,0.3c-0.6,0.1-1,0.4-1,1c0,0.5,0.4,1,1.1,1
							C85.9,101.1,86.8,100.6,86.8,99.1z"/>
						<path class="st10" d="M93.9,96.6c-0.2,0-0.4,0-0.6,0c-1.1,0-1.8,0.6-1.8,2.1v3.4h-1.3v-6.7h1.3v1.2c0.5-1,1.3-1.3,2-1.3
							c0.2,0,0.4,0,0.4,0V96.6z"/>
						<path class="st10" d="M105.1,98.6c0,2.1-1.4,3.6-3.4,3.6c-2,0-3.4-1.5-3.4-3.6c0-2,1.4-3.6,3.4-3.6
							C103.7,95.1,105.1,96.6,105.1,98.6z M103.7,98.6c0-1.6-1-2.4-2.1-2.4c-1.1,0-2.1,0.8-2.1,2.4c0,1.6,1,2.4,2.1,2.4
							C102.8,101,103.7,100.2,103.7,98.6z"/>
						<path class="st10" d="M106.8,104.7v-9.4h1.3v1c0.4-0.7,1.2-1.2,2.3-1.2c2,0,3.1,1.6,3.1,3.5c0,2-1.2,3.6-3.1,3.6
							c-1,0-1.8-0.5-2.2-1.1v3.6H106.8z M110.1,96.3c-1.2,0-2,1-2,2.4c0,1.4,0.8,2.4,2,2.4c1.2,0,2-1,2-2.4
							C112,97.3,111.3,96.3,110.1,96.3z"/>
						<path class="st10" d="M115.1,104.7v-9.4h1.3v1c0.4-0.7,1.2-1.2,2.3-1.2c2,0,3.1,1.6,3.1,3.5c0,2-1.2,3.6-3.1,3.6
							c-1,0-1.8-0.5-2.2-1.1v3.6H115.1z M118.4,96.3c-1.2,0-2,1-2,2.4c0,1.4,0.8,2.4,2,2.4c1.2,0,2-1,2-2.4
							C120.3,97.3,119.6,96.3,118.4,96.3z"/>
						<path class="st10" d="M129.7,98.6c0,2.1-1.4,3.6-3.4,3.6c-2,0-3.4-1.5-3.4-3.6c0-2,1.4-3.6,3.4-3.6
							C128.3,95.1,129.7,96.6,129.7,98.6z M128.4,98.6c0-1.6-1-2.4-2.1-2.4c-1.1,0-2.1,0.8-2.1,2.4c0,1.6,1,2.4,2.1,2.4
							C127.4,101,128.4,100.2,128.4,98.6z"/>
						<path class="st10" d="M135.1,96.6c-0.2,0-0.4,0-0.6,0c-1.1,0-1.8,0.6-1.8,2.1v3.4h-1.3v-6.7h1.3v1.2c0.5-1,1.3-1.3,2-1.3
							c0.2,0,0.4,0,0.4,0V96.6z"/>
						<path class="st10" d="M138.6,95.3h1.5v1.2h-1.5v3.5c0,0.6,0.3,0.9,0.9,0.9c0.2,0,0.4,0,0.5-0.1v1.1c-0.1,0-0.4,0.1-0.9,0.1
							c-1.1,0-1.9-0.7-1.9-1.9v-3.7H136v-1.2h0.4c0.7,0,1-0.4,1-1v-1.1h1.2V95.3z"/>
						<path class="st10" d="M144.3,102.2c-1.6,0-2.5-1.2-2.5-2.7v-4.2h1.3v4c0,0.9,0.4,1.7,1.5,1.7c1.1,0,1.6-0.7,1.6-1.7v-4.1h1.3
							v5.5c0,0.5,0,1,0.1,1.2h-1.3c0-0.2-0.1-0.5-0.1-0.8C145.9,101.9,145.1,102.2,144.3,102.2z"/>
						<path class="st10" d="M151.1,102h-1.3v-6.7h1.3v1c0.5-0.8,1.3-1.2,2.1-1.2c1.6,0,2.4,1.2,2.4,2.7v4.3h-1.3v-4
							c0-0.9-0.4-1.7-1.6-1.7c-1,0-1.6,0.8-1.6,1.8V102z"/>
						<path class="st10" d="M158.3,91.8c0.5,0,1,0.4,1,1c0,0.5-0.4,0.9-1,0.9c-0.5,0-0.9-0.4-0.9-0.9
							C157.3,92.2,157.8,91.8,158.3,91.8z M157.6,102v-6.7h1.3v6.7H157.6z"/>
						<path class="st10" d="M162.9,95.3h1.5v1.2h-1.5v3.5c0,0.6,0.3,0.9,0.9,0.9c0.2,0,0.4,0,0.5-0.1v1.1c-0.1,0-0.4,0.1-0.9,0.1
							c-1.1,0-1.9-0.7-1.9-1.9v-3.7h-1.3v-1.2h0.4c0.7,0,1-0.4,1-1v-1.1h1.2V95.3z"/>
						<path class="st10" d="M166.8,91.8c0.5,0,1,0.4,1,1c0,0.5-0.4,0.9-1,0.9c-0.5,0-0.9-0.4-0.9-0.9
							C165.8,92.2,166.3,91.8,166.8,91.8z M166.1,102v-6.7h1.3v6.7H166.1z"/>
						<path class="st10" d="M175.5,100.1c-0.4,1.2-1.5,2.1-3,2.1c-1.8,0-3.4-1.3-3.4-3.6c0-2.1,1.5-3.6,3.2-3.6
							c2.1,0,3.2,1.4,3.2,3.5c0,0.2,0,0.3,0,0.4h-5.1c0,1.2,0.9,2,2,2c1.1,0,1.6-0.6,1.9-1.4L175.5,100.1z M174.2,97.9
							c0-1-0.7-1.7-1.8-1.7c-1.1,0-1.8,0.9-1.8,1.7H174.2z"/>
						<path class="st10" d="M177.8,99.8c0.1,0.7,0.6,1.3,1.6,1.3c0.7,0,1.1-0.4,1.1-0.9c0-0.4-0.3-0.7-0.9-0.9l-1.1-0.3
							c-1-0.2-1.7-0.9-1.7-1.9c0-1.1,1.1-2.1,2.4-2.1c1.8,0,2.4,1.2,2.6,1.8l-1.2,0.4c-0.1-0.3-0.3-1.1-1.4-1.1
							c-0.7,0-1.1,0.4-1.1,0.9c0,0.4,0.3,0.7,0.8,0.8l1.1,0.2c1.2,0.3,1.9,1,1.9,2c0,1-0.8,2.1-2.5,2.1c-1.8,0-2.6-1.2-2.7-2
							L177.8,99.8z"/>
						<path class="st10" d="M184.4,100.1c0.5,0,1,0.4,1,1s-0.4,1-1,1c-0.5,0-1-0.4-1-1S183.9,100.1,184.4,100.1z"/>
					</g>
					<path id="Rectangle-3_2_" class="st11" d="M4,26h292c2.2,0,4,1.8,4,4v28c0,2.2-1.8,4-4,4H4c-2.2,0-4-1.8-4-4V30
						C0,27.8,1.8,26,4,26z"/>
					<g class="st1">
						<path class="st10" d="M8.9,45.5c0-0.2,0-0.4,0-0.5c0-2.2,1.6-4.2,4.5-4.2c2.8,0,4.4,1.8,4.4,4c0,1.7-1,3.1-2.4,4l-2.6,1.6
							c-0.7,0.5-1.4,1-1.6,1.8h6.7V54H8.7c0-2.1,0.9-3.7,3.1-5.2l2.2-1.4c1.2-0.8,1.8-1.7,1.8-2.7c0-1.2-0.8-2.3-2.4-2.3
							c-1.7,0-2.5,1.2-2.5,2.7c0,0.2,0,0.4,0,0.6L8.9,45.5z"/>
						<path class="st10" d="M20.7,42.8c0.8-1.3,2.1-2.1,4-2.1c1.8,0,3.1,0.8,4,2.1c0.9,1.3,1.2,2.9,1.2,4.7s-0.3,3.4-1.2,4.7
							c-0.8,1.3-2.1,2.1-4,2.1c-1.8,0-3.1-0.8-4-2.1c-0.9-1.3-1.2-2.9-1.2-4.7S19.9,44.1,20.7,42.8z M22.7,51.7
							c0.5,0.5,1.1,0.8,2.1,0.8c0.9,0,1.6-0.3,2.1-0.8c0.8-0.8,1.1-2.2,1.1-4.2s-0.4-3.4-1.1-4.2c-0.5-0.5-1.1-0.8-2.1-0.8
							c-0.9,0-1.6,0.3-2.1,0.8c-0.8,0.8-1.1,2.2-1.1,4.2S21.9,50.9,22.7,51.7z"/>
						<path class="st10" d="M34.4,54v-9.1h-3.1v-1.4c1.8,0,3-1,3.3-2.4h1.7v13H34.4z"/>
						<path class="st10" d="M47.5,42.9c-1.2,1-4.9,4.2-5.5,11.1h-2c0.6-7.5,5.3-11.2,5.3-11.2H38V41h9.5V42.9z"/>
						<path class="st10" d="M47.5,49.1v-1.6h5.4v1.6H47.5z"/>
						<path class="st10" d="M57,54v-9.1h-3.1v-1.4c1.8,0,3-1,3.3-2.4H59v13H57z"/>
						<path class="st10" d="M64.1,54v-9.1H61v-1.4c1.8,0,3-1,3.3-2.4H66v13H64.1z"/>
						<path class="st10" d="M68.4,49.1v-1.6h5.4v1.6H68.4z"/>
						<path class="st10" d="M75.6,45.5c0-0.2,0-0.4,0-0.5c0-2.2,1.6-4.2,4.5-4.2c2.8,0,4.4,1.8,4.4,4c0,1.7-1,3.1-2.4,4l-2.6,1.6
							c-0.7,0.5-1.4,1-1.6,1.8h6.7V54h-9.1c0-2.1,0.9-3.7,3.1-5.2l2.2-1.4c1.2-0.8,1.8-1.7,1.8-2.7c0-1.2-0.8-2.3-2.4-2.3
							c-1.7,0-2.5,1.2-2.5,2.7c0,0.2,0,0.4,0,0.6L75.6,45.5z"/>
						<path class="st10" d="M87.9,49.9c0.1,1.6,1.3,2.7,2.9,2.7c1.5,0,2.8-1,2.8-2.6c0-1.8-1.3-2.7-2.8-2.7c-0.9,0-1.8,0.4-2.4,0.9
							c-0.7-0.3-1.3-0.5-1.9-0.8l1.7-6.4H95v1.8h-5.5l-1,3.7c0.6-0.6,1.6-1,2.6-1c2.5,0,4.4,1.6,4.4,4.3c0,2.4-1.9,4.4-4.8,4.4
							c-2.8,0-4.6-1.8-4.8-3.8L87.9,49.9z"/>
					</g>
				</g>
				<g id="Group-3" transform="translate(400.000000, 362.000000)">
					<g class="st1">
						<path class="st2" d="M5.6,3.9c2.5,0,5,1.8,5,5.2c0,3.3-2.5,5.2-5,5.2c-2.5,0-5-1.9-5-5.2C0.6,5.7,3.1,3.9,5.6,3.9z M5.6,12.9
							c1.8,0,3.6-1.3,3.6-3.9S7.5,5.1,5.6,5.1C3.8,5.1,2,6.4,2,9S3.8,12.9,5.6,12.9z"/>
						<path class="st2" d="M12.3,14V3.9h1.3V14H12.3z"/>
						<path class="st2" d="M20.6,13c-0.3,0.6-1,1.2-2.1,1.2c-2,0-3.2-1.6-3.2-3.6c0-1.9,1.3-3.5,3.2-3.5c1.2,0,1.8,0.6,2.1,1.1V3.9
							h1.3v8.9c0,0.6,0.1,1.1,0.1,1.2h-1.3c0-0.2-0.1-0.5-0.1-0.9V13z M18.7,13c1.2,0,1.9-1.1,1.9-2.4s-0.7-2.3-1.9-2.3s-2,1-2,2.4
							S17.4,13,18.7,13z"/>
						<path class="st2" d="M27.1,9c0-3.3,2.5-5.2,4.9-5.2c2.3,0,3.9,1.2,4.4,3.2l-1.3,0.4c-0.4-1.5-1.5-2.3-3.1-2.3
							c-1.8,0-3.5,1.3-3.5,3.9s1.7,3.9,3.5,3.9c1.7,0,2.8-1,3.2-2.4l1.2,0.4c-0.5,1.9-2.1,3.2-4.4,3.2C29.5,14.2,27.1,12.3,27.1,9z"
							/>
						<path class="st2" d="M38,14V3.9h1.3V14H38z"/>
						<path class="st2" d="M47.9,10.6c0,2.1-1.4,3.6-3.4,3.6c-2,0-3.4-1.5-3.4-3.6c0-2,1.4-3.6,3.4-3.6C46.5,7.1,47.9,8.6,47.9,10.6
							z M46.5,10.6c0-1.6-1-2.4-2.1-2.4c-1.1,0-2.1,0.8-2.1,2.4c0,1.6,1,2.4,2.1,2.4C45.6,13,46.5,12.2,46.5,10.6z"/>
						<path class="st2" d="M50.1,11.8c0.1,0.7,0.6,1.3,1.6,1.3c0.7,0,1.1-0.4,1.1-0.9c0-0.4-0.3-0.7-0.9-0.9l-1.1-0.3
							c-1.1-0.2-1.7-0.9-1.7-1.9c0-1.1,1.1-2.1,2.4-2.1c1.8,0,2.4,1.2,2.6,1.8l-1.2,0.4c-0.1-0.3-0.3-1.1-1.4-1.1
							c-0.7,0-1.1,0.4-1.1,0.9c0,0.4,0.3,0.7,0.8,0.8l1.1,0.2c1.2,0.3,1.9,1,1.9,2c0,1-0.8,2.1-2.5,2.1c-1.8,0-2.6-1.2-2.7-2
							L50.1,11.8z"/>
						<path class="st2" d="M61.7,12.1c-0.4,1.2-1.5,2.1-3,2.1c-1.8,0-3.4-1.3-3.4-3.6c0-2.1,1.5-3.6,3.2-3.6c2.1,0,3.2,1.4,3.2,3.5
							c0,0.2,0,0.3,0,0.4h-5.1c0,1.2,0.9,2,2,2c1.1,0,1.6-0.6,1.9-1.4L61.7,12.1z M60.4,9.9c0-1-0.7-1.7-1.8-1.7
							c-1.1,0-1.8,0.9-1.8,1.7H60.4z"/>
						<path class="st2" d="M67,14V4.1h3.5c2.5,0,4.7,1.7,4.7,5c0,3.2-2.2,4.9-4.7,4.9H67z M70.4,12.8c1.8,0,3.4-1.2,3.4-3.7
							c0-2.5-1.5-3.8-3.3-3.8h-2.1v7.5H70.4z"/>
						<path class="st2" d="M78.6,10.1l1.8-0.3C80.8,9.8,81,9.6,81,9.4c0-0.7-0.4-1.2-1.5-1.2c-0.9,0-1.4,0.6-1.5,1.4l-1.3-0.3
							c0.1-1.3,1.3-2.2,2.8-2.2c2,0,2.8,1.1,2.8,2.5v3.4c0,0.6,0.1,0.9,0.1,1.1h-1.3c0-0.2-0.1-0.4-0.1-0.9c-0.3,0.5-1,1.1-2.2,1.1
							c-1.4,0-2.3-1-2.3-2C76.6,11,77.4,10.3,78.6,10.1z M81,11.1v-0.3l-2.1,0.3c-0.6,0.1-1,0.4-1,1c0,0.5,0.4,1,1.1,1
							C80.1,13.1,81,12.6,81,11.1z"/>
						<path class="st2" d="M86.1,7.3h1.5v1.2h-1.5V12c0,0.6,0.3,0.9,0.9,0.9c0.2,0,0.4,0,0.5-0.1v1.1c-0.1,0-0.4,0.1-0.9,0.1
							c-1.1,0-1.9-0.7-1.9-1.9V8.5h-1.3V7.3h0.4c0.7,0,1-0.4,1-1V5.1h1.2V7.3z"/>
						<path class="st2" d="M95.1,12.1c-0.4,1.2-1.5,2.1-3,2.1c-1.8,0-3.4-1.3-3.4-3.6c0-2.1,1.5-3.6,3.2-3.6c2.1,0,3.2,1.4,3.2,3.5
							c0,0.2,0,0.3,0,0.4H90c0,1.2,0.9,2,2,2c1.1,0,1.6-0.6,1.9-1.4L95.1,12.1z M93.7,9.9c0-1-0.7-1.7-1.8-1.7
							c-1.1,0-1.8,0.9-1.8,1.7H93.7z"/>
					</g>
					<path id="Rectangle-3_3_" class="st4" d="M4,26h292c2.2,0,4,1.8,4,4v28c0,2.2-1.8,4-4,4H4c-2.2,0-4-1.8-4-4V30
						C0,27.8,1.8,26,4,26z"/>
					<g class="st1">
						<path class="st10" d="M0.9,45.5c0-0.2,0-0.4,0-0.5c0-2.2,1.6-4.2,4.5-4.2c2.8,0,4.4,1.8,4.4,4c0,1.7-1,3.1-2.4,4l-2.6,1.6
							c-0.7,0.5-1.4,1-1.6,1.8h6.7V54H0.7c0-2.1,0.9-3.7,3.1-5.2l2.2-1.4c1.2-0.8,1.8-1.7,1.8-2.7c0-1.2-0.8-2.3-2.4-2.3
							c-1.7,0-2.5,1.2-2.5,2.7c0,0.2,0,0.4,0,0.6L0.9,45.5z"/>
						<path class="st10" d="M12.7,42.8c0.8-1.3,2.1-2.1,4-2.1c1.8,0,3.1,0.8,4,2.1c0.9,1.3,1.2,2.9,1.2,4.7s-0.3,3.4-1.2,4.7
							c-0.8,1.3-2.1,2.1-4,2.1c-1.8,0-3.1-0.8-4-2.1c-0.9-1.3-1.2-2.9-1.2-4.7S11.9,44.1,12.7,42.8z M14.7,51.7
							c0.5,0.5,1.1,0.8,2.1,0.8c0.9,0,1.6-0.3,2.1-0.8c0.8-0.8,1.1-2.2,1.1-4.2s-0.4-3.4-1.1-4.2c-0.5-0.5-1.1-0.8-2.1-0.8
							c-0.9,0-1.6,0.3-2.1,0.8c-0.8,0.8-1.1,2.2-1.1,4.2S13.9,50.9,14.7,51.7z"/>
						<path class="st10" d="M26.4,54v-9.1h-3.1v-1.4c1.8,0,3-1,3.3-2.4h1.7v13H26.4z"/>
						<path class="st10" d="M39.5,42.9c-1.2,1-4.9,4.2-5.5,11.1h-2c0.6-7.5,5.3-11.2,5.3-11.2H30V41h9.5V42.9z"/>
						<path class="st10" d="M39.5,49.1v-1.6h5.4v1.6H39.5z"/>
						<path class="st10" d="M49,54v-9.1h-3.1v-1.4c1.8,0,3-1,3.3-2.4H51v13H49z"/>
						<path class="st10" d="M54.7,42.8c0.8-1.3,2.1-2.1,4-2.1c1.8,0,3.1,0.8,4,2.1c0.9,1.3,1.2,2.9,1.2,4.7s-0.3,3.4-1.2,4.7
							c-0.8,1.3-2.1,2.1-4,2.1c-1.8,0-3.1-0.8-4-2.1c-0.9-1.3-1.2-2.9-1.2-4.7S53.9,44.1,54.7,42.8z M56.6,51.7
							c0.5,0.5,1.1,0.8,2.1,0.8s1.6-0.3,2.1-0.8c0.8-0.8,1.1-2.2,1.1-4.2s-0.4-3.4-1.1-4.2c-0.5-0.5-1.1-0.8-2.1-0.8
							s-1.6,0.3-2.1,0.8c-0.8,0.8-1.1,2.2-1.1,4.2S55.9,50.9,56.6,51.7z"/>
						<path class="st10" d="M65.7,49.1v-1.6h5.4v1.6H65.7z"/>
						<path class="st10" d="M72.9,45.5c0-0.2,0-0.4,0-0.5c0-2.2,1.6-4.2,4.5-4.2c2.8,0,4.4,1.8,4.4,4c0,1.7-1,3.1-2.4,4l-2.6,1.6
							c-0.7,0.5-1.4,1-1.6,1.8h6.7V54h-9.1c0-2.1,0.9-3.7,3.1-5.2l2.2-1.4c1.2-0.8,1.8-1.7,1.8-2.7c0-1.2-0.8-2.3-2.4-2.3
							c-1.7,0-2.5,1.2-2.5,2.7c0,0.2,0,0.4,0,0.6L72.9,45.5z"/>
						<path class="st10" d="M85.2,49.9c0.1,1.6,1.3,2.7,2.9,2.7c1.5,0,2.8-1,2.8-2.6c0-1.8-1.3-2.7-2.8-2.7c-0.9,0-1.8,0.4-2.4,0.9
							c-0.7-0.3-1.3-0.5-1.9-0.8l1.7-6.4h6.8v1.8h-5.5l-1,3.7c0.6-0.6,1.6-1,2.6-1c2.5,0,4.4,1.6,4.4,4.3c0,2.4-1.9,4.4-4.8,4.4
							c-2.8,0-4.6-1.8-4.8-3.8L85.2,49.9z"/>
					</g>
				</g>
				<g class="st1">
					<path class="st5" d="M404.6,10.1h4.4v4.4h2.1c1.2,0,2.2,0.4,3,1.3c0.9,0.9,1.3,1.9,1.3,3v30.3c0,1.2-0.4,2.2-1.3,3
						c-0.9,0.9-1.9,1.3-3,1.3h-30.3c-1.2,0-2.3-0.4-3.1-1.3c-0.8-0.9-1.3-1.9-1.3-3V18.9c0-1.2,0.4-2.2,1.3-3
						c0.8-0.9,1.9-1.3,3.1-1.3h2.1v-4.4h4.4v4.4h17.3V10.1z M411.1,49.1V25.4h-30.3v23.8H411.1z M406.9,34v10.9H396V34H406.9z"/>
				</g>
			</g>
		</g>
	</g>
</g>
</svg>
