<?xml version="1.0" encoding="utf-8"?>
<!-- Generator: Adobe Illustrator 21.1.0, SVG Export Plug-In . SVG Version: 6.00 Build 0)  -->
<svg version="1.1" id="Ebene_1" xmlns="http://www.w3.org/2000/svg" xmlns:xlink="http://www.w3.org/1999/xlink" x="0px" y="0px"
	 width="1040px" height="769px" viewBox="0 0 1040 769" style="enable-background:new 0 0 1040 769;" xml:space="preserve">
<style type="text/css">
	.st0{fill:#FFFFFF;}
	.st1{enable-background:new    ;}
	.st2{fill:#818F96;}
	.st3{fill:#1F2429;}
	.st4{fill:none;}
	.st5{fill:#0FB9CF;}
	.st6{fill:#CCD3DA;}
	.st7{fill:none;stroke:#CCD3DA;stroke-linecap:square;}
	.st8{fill:#196DEE;}
	.st9{fill:none;stroke:#196DEE;stroke-width:2;}
	.st10{fill:#F5ECFF;}
	.st11{fill:#818F96;fill-opacity:0.5;}
	.st12{fill:#464E57;}
</style>
<title>Account</title>
<desc>Created with Sketch.</desc>
<g id="Page-1">
	<g id="Account">
		<g id="Group-6">
			<rect id="Rectangle" class="st0" width="1040" height="769"/>
			<g id="Group-4" transform="translate(130.000000, 50.000000)">
				<g class="st1">
					<path class="st2" d="M93.6,180h-2.5v7h-2.4v-17h6.4c3.2,0,5.2,2.3,5.2,5.1c0,2.4-1.6,4.3-4.1,4.8l4.1,7.1h-2.7L93.6,180z
						 M94.7,177.9c1.9,0,3.2-1.1,3.2-2.9c0-1.8-1.3-3-3.2-3h-3.6v5.8H94.7z"/>
					<path class="st2" d="M113.7,181.2c0,3.5-2.4,6.1-5.9,6.1c-3.5,0-5.9-2.6-5.9-6.1c0-3.5,2.4-6.1,5.9-6.1
						C111.3,175.1,113.7,177.7,113.7,181.2z M111.4,181.2c0-2.7-1.7-4.1-3.6-4.1c-1.9,0-3.6,1.4-3.6,4.1c0,2.7,1.7,4.1,3.6,4.1
						C109.7,185.3,111.4,183.9,111.4,181.2z"/>
					<path class="st2" d="M116.6,187v-17.4h2.2v7.5c0.6-1,1.9-2,3.8-2c3.5,0,5.3,2.7,5.3,6c0,3.4-1.9,6.1-5.4,6.1
						c-1.7,0-3-0.7-3.7-2v1.7H116.6z M122.2,177.1c-2,0-3.4,1.6-3.4,4.1c0,2.5,1.4,4.1,3.4,4.1c2.1,0,3.4-1.6,3.4-4.1
						C125.6,178.7,124.3,177.1,122.2,177.1z"/>
					<path class="st2" d="M131.9,169.5c0.9,0,1.6,0.7,1.6,1.6c0,0.9-0.7,1.6-1.6,1.6c-0.9,0-1.6-0.7-1.6-1.6
						C130.3,170.2,131,169.5,131.9,169.5z M130.8,187v-11.5h2.2V187H130.8z"/>
					<path class="st2" d="M139.2,187h-2.3v-11.5h2.2v1.7c0.8-1.4,2.2-2,3.6-2c2.8,0,4.1,2,4.1,4.6v7.3h-2.3v-6.9
						c0-1.6-0.7-2.9-2.7-2.9c-1.8,0-2.7,1.4-2.7,3.2V187z"/>
					<path class="st2" d="M159.4,177.5v9.5h-2.3v-9.5h-2.1v-2h2.1v-1.9c0-2.6,1.7-4,3.8-4c0.8,0,1.2,0.2,1.3,0.2v2
						c-0.1,0-0.4-0.1-1-0.1c-0.8,0-1.8,0.4-1.8,2v1.8h2.8v2H159.4z"/>
					<path class="st2" d="M175,181.2c0,3.5-2.4,6.1-5.9,6.1c-3.5,0-5.9-2.6-5.9-6.1c0-3.5,2.4-6.1,5.9-6.1
						C172.5,175.1,175,177.7,175,181.2z M172.7,181.2c0-2.7-1.7-4.1-3.6-4.1c-1.9,0-3.6,1.4-3.6,4.1c0,2.7,1.7,4.1,3.6,4.1
						C171,185.3,172.7,183.9,172.7,181.2z"/>
					<path class="st2" d="M181.9,187.4c-2.7,0-4.3-2-4.3-4.6v-7.3h2.3v6.9c0,1.6,0.7,3,2.6,3c1.8,0,2.7-1.2,2.7-3v-7h2.3v9.4
						c0,0.9,0.1,1.7,0.1,2.1h-2.2c0-0.3-0.1-0.9-0.1-1.4C184.7,186.8,183.3,187.4,181.9,187.4z"/>
					<path class="st2" d="M193.6,187h-2.3v-11.5h2.2v1.7c0.8-1.4,2.2-2,3.6-2c2.8,0,4.1,2,4.1,4.6v7.3H199v-6.9
						c0-1.6-0.7-2.9-2.7-2.9c-1.8,0-2.7,1.4-2.7,3.2V187z"/>
					<path class="st2" d="M212.9,185.2c-0.6,1.1-1.8,2.1-3.6,2.1c-3.4,0-5.5-2.7-5.5-6.1c0-3.3,2.2-6,5.5-6c2,0,3.1,1,3.5,1.9v-7.5
						h2.2v15.2c0,1.1,0.1,1.9,0.1,2.1H213c0-0.3-0.1-0.9-0.1-1.6V185.2z M209.5,185.3c2.1,0,3.3-1.8,3.3-4.2s-1.2-4-3.3-4
						c-2.1,0-3.4,1.7-3.4,4.1S207.4,185.3,209.5,185.3z"/>
					<path class="st2" d="M227.7,180.4l3.1-0.5c0.7-0.1,0.9-0.5,0.9-0.9c0-1.1-0.7-2.1-2.5-2.1c-1.6,0-2.5,1-2.6,2.3l-2.2-0.5
						c0.2-2.2,2.2-3.7,4.7-3.7c3.5,0,4.8,2,4.8,4.2v5.8c0,1,0.1,1.6,0.1,1.9h-2.2c0-0.3-0.1-0.7-0.1-1.6c-0.5,0.8-1.7,1.9-3.7,1.9
						c-2.4,0-3.9-1.6-3.9-3.5C224.2,181.8,225.7,180.7,227.7,180.4z M231.7,182.1v-0.5l-3.5,0.5c-1,0.1-1.7,0.7-1.7,1.7
						c0,0.9,0.7,1.7,1.9,1.7C230.2,185.5,231.7,184.6,231.7,182.1z"/>
					<path class="st2" d="M245.6,185.2c-0.6,1.1-1.8,2.1-3.6,2.1c-3.4,0-5.5-2.7-5.5-6.1c0-3.3,2.2-6,5.5-6c2,0,3.1,1,3.5,1.9v-7.5
						h2.2v15.2c0,1.1,0.1,1.9,0.1,2.1h-2.2c0-0.3-0.1-0.9-0.1-1.6V185.2z M242.2,185.3c2.1,0,3.3-1.8,3.3-4.2s-1.2-4-3.3-4
						c-2.1,0-3.4,1.7-3.4,4.1S240,185.3,242.2,185.3z"/>
					<path class="st2" d="M259.7,185.2c-0.6,1.1-1.8,2.1-3.6,2.1c-3.4,0-5.5-2.7-5.5-6.1c0-3.3,2.2-6,5.5-6c2,0,3.1,1,3.5,1.9v-7.5
						h2.2v15.2c0,1.1,0.1,1.9,0.1,2.1h-2.2c0-0.3-0.1-0.9-0.1-1.6V185.2z M256.3,185.3c2.1,0,3.3-1.8,3.3-4.2s-1.2-4-3.3-4
						c-2.1,0-3.4,1.7-3.4,4.1S254.2,185.3,256.3,185.3z"/>
					<path class="st2" d="M266.8,169.5c0.9,0,1.6,0.7,1.6,1.6c0,0.9-0.7,1.6-1.6,1.6c-0.9,0-1.6-0.7-1.6-1.6
						C265.2,170.2,265.9,169.5,266.8,169.5z M265.7,187v-11.5h2.2V187H265.7z"/>
					<path class="st2" d="M274.8,175.5h2.5v2h-2.5v6c0,1.1,0.4,1.6,1.6,1.6c0.3,0,0.7,0,0.9-0.1v1.9c-0.2,0.1-0.8,0.2-1.5,0.2
						c-2,0-3.2-1.2-3.2-3.3v-6.3h-2.2v-2h0.6c1.2,0,1.8-0.8,1.8-1.8v-1.9h2.1V175.5z"/>
					<path class="st2" d="M281.4,169.5c0.9,0,1.6,0.7,1.6,1.6c0,0.9-0.7,1.6-1.6,1.6c-0.9,0-1.6-0.7-1.6-1.6
						C279.8,170.2,280.5,169.5,281.4,169.5z M280.3,187v-11.5h2.2V187H280.3z"/>
					<path class="st2" d="M297.2,181.2c0,3.5-2.4,6.1-5.9,6.1c-3.5,0-5.9-2.6-5.9-6.1c0-3.5,2.4-6.1,5.9-6.1
						C294.8,175.1,297.2,177.7,297.2,181.2z M294.9,181.2c0-2.7-1.7-4.1-3.6-4.1c-1.9,0-3.6,1.4-3.6,4.1c0,2.7,1.7,4.1,3.6,4.1
						C293.2,185.3,294.9,183.9,294.9,181.2z"/>
					<path class="st2" d="M302.4,187h-2.3v-11.5h2.2v1.7c0.8-1.4,2.2-2,3.6-2c2.8,0,4.1,2,4.1,4.6v7.3h-2.3v-6.9
						c0-1.6-0.7-2.9-2.7-2.9c-1.8,0-2.7,1.4-2.7,3.2V187z"/>
					<path class="st2" d="M316.4,180.4l3.1-0.5c0.7-0.1,0.9-0.5,0.9-0.9c0-1.1-0.7-2.1-2.5-2.1c-1.6,0-2.5,1-2.6,2.3l-2.2-0.5
						c0.2-2.2,2.2-3.7,4.7-3.7c3.5,0,4.8,2,4.8,4.2v5.8c0,1,0.1,1.6,0.1,1.9h-2.2c0-0.3-0.1-0.7-0.1-1.6c-0.5,0.8-1.7,1.9-3.7,1.9
						c-2.4,0-3.9-1.6-3.9-3.5C312.9,181.8,314.4,180.7,316.4,180.4z M320.4,182.1v-0.5l-3.5,0.5c-1,0.1-1.7,0.7-1.7,1.7
						c0,0.9,0.7,1.7,1.9,1.7C318.9,185.5,320.4,184.6,320.4,182.1z"/>
					<path class="st2" d="M326.1,187v-17.4h2.3V187H326.1z"/>
					<path class="st2" d="M339.3,169.5c0.9,0,1.6,0.7,1.6,1.6c0,0.9-0.7,1.6-1.6,1.6c-0.9,0-1.6-0.7-1.6-1.6
						C337.7,170.2,338.4,169.5,339.3,169.5z M338.2,187v-11.5h2.2V187H338.2z"/>
					<path class="st2" d="M346.6,187h-2.3v-11.5h2.2v1.7c0.8-1.4,2.2-2,3.6-2c2.8,0,4.1,2,4.1,4.6v7.3h-2.3v-6.9
						c0-1.6-0.7-2.9-2.7-2.9c-1.8,0-2.7,1.4-2.7,3.2V187z"/>
					<path class="st2" d="M360.8,177.5v9.5h-2.3v-9.5h-2.1v-2h2.1v-1.9c0-2.6,1.7-4,3.8-4c0.8,0,1.2,0.2,1.3,0.2v2
						c-0.1,0-0.4-0.1-1-0.1c-0.8,0-1.8,0.4-1.8,2v1.8h2.8v2H360.8z"/>
					<path class="st2" d="M376.4,181.2c0,3.5-2.4,6.1-5.9,6.1c-3.5,0-5.9-2.6-5.9-6.1c0-3.5,2.4-6.1,5.9-6.1
						C373.9,175.1,376.4,177.7,376.4,181.2z M374.1,181.2c0-2.7-1.7-4.1-3.6-4.1c-1.9,0-3.6,1.4-3.6,4.1c0,2.7,1.7,4.1,3.6,4.1
						C372.4,185.3,374.1,183.9,374.1,181.2z"/>
					<path class="st2" d="M385.7,177.7c-0.3,0-0.7-0.1-1-0.1c-1.9,0-3.2,1-3.2,3.6v5.8h-2.3v-11.5h2.2v2c0.8-1.8,2.3-2.2,3.5-2.2
						c0.3,0,0.6,0,0.7,0.1V177.7z"/>
					<path class="st2" d="M388.1,187v-11.5h2.2v1.5c0.7-1.3,2.2-1.9,3.5-1.9c1.4,0,2.8,0.7,3.5,2.2c0.9-1.7,2.4-2.2,3.9-2.2
						c2,0,4,1.4,4,4.4v7.5h-2.2v-7.2c0-1.5-0.7-2.6-2.4-2.6c-1.6,0-2.7,1.2-2.7,2.9v7h-2.3v-7.2c0-1.5-0.7-2.6-2.4-2.6
						c-1.6,0-2.7,1.2-2.7,2.9v7H388.1z"/>
					<path class="st2" d="M411.4,180.4l3.1-0.5c0.7-0.1,0.9-0.5,0.9-0.9c0-1.1-0.7-2.1-2.5-2.1c-1.6,0-2.5,1-2.6,2.3l-2.2-0.5
						c0.2-2.2,2.2-3.7,4.7-3.7c3.5,0,4.8,2,4.8,4.2v5.8c0,1,0.1,1.6,0.1,1.9h-2.2c0-0.3-0.1-0.7-0.1-1.6c-0.5,0.8-1.7,1.9-3.7,1.9
						c-2.4,0-3.9-1.6-3.9-3.5C407.9,181.8,409.4,180.7,411.4,180.4z M415.4,182.1v-0.5l-3.5,0.5c-1,0.1-1.7,0.7-1.7,1.7
						c0,0.9,0.7,1.7,1.9,1.7C413.9,185.5,415.4,184.6,415.4,182.1z"/>
					<path class="st2" d="M424.2,175.5h2.5v2h-2.5v6c0,1.1,0.4,1.6,1.6,1.6c0.3,0,0.7,0,0.9-0.1v1.9c-0.2,0.1-0.8,0.2-1.5,0.2
						c-2,0-3.2-1.2-3.2-3.3v-6.3h-2.2v-2h0.6c1.2,0,1.8-0.8,1.8-1.8v-1.9h2.1V175.5z"/>
					<path class="st2" d="M430.8,169.5c0.9,0,1.6,0.7,1.6,1.6c0,0.9-0.7,1.6-1.6,1.6c-0.9,0-1.6-0.7-1.6-1.6
						C429.2,170.2,429.9,169.5,430.8,169.5z M429.7,187v-11.5h2.2V187H429.7z"/>
					<path class="st2" d="M446.6,181.2c0,3.5-2.4,6.1-5.9,6.1c-3.5,0-5.9-2.6-5.9-6.1c0-3.5,2.4-6.1,5.9-6.1
						C444.2,175.1,446.6,177.7,446.6,181.2z M444.3,181.2c0-2.7-1.7-4.1-3.6-4.1c-1.9,0-3.6,1.4-3.6,4.1c0,2.7,1.7,4.1,3.6,4.1
						C442.7,185.3,444.3,183.9,444.3,181.2z"/>
					<path class="st2" d="M451.8,187h-2.3v-11.5h2.2v1.7c0.8-1.4,2.2-2,3.6-2c2.8,0,4.1,2,4.1,4.6v7.3h-2.3v-6.9
						c0-1.6-0.7-2.9-2.7-2.9c-1.8,0-2.7,1.4-2.7,3.2V187z"/>
					<path class="st2" d="M472,175.5h2.5v2H472v6c0,1.1,0.4,1.6,1.6,1.6c0.3,0,0.7,0,0.9-0.1v1.9c-0.2,0.1-0.8,0.2-1.5,0.2
						c-2,0-3.2-1.2-3.2-3.3v-6.3h-2.2v-2h0.6c1.2,0,1.8-0.8,1.8-1.8v-1.9h2.1V175.5z"/>
					<path class="st2" d="M488.3,181.2c0,3.5-2.4,6.1-5.9,6.1c-3.5,0-5.9-2.6-5.9-6.1c0-3.5,2.4-6.1,5.9-6.1
						C485.8,175.1,488.3,177.7,488.3,181.2z M485.9,181.2c0-2.7-1.7-4.1-3.6-4.1c-1.9,0-3.6,1.4-3.6,4.1c0,2.7,1.7,4.1,3.6,4.1
						C484.3,185.3,485.9,183.9,485.9,181.2z"/>
					<path class="st2" d="M499.9,180.4l3.1-0.5c0.7-0.1,0.9-0.5,0.9-0.9c0-1.1-0.7-2.1-2.5-2.1c-1.6,0-2.5,1-2.6,2.3l-2.2-0.5
						c0.2-2.2,2.2-3.7,4.7-3.7c3.5,0,4.8,2,4.8,4.2v5.8c0,1,0.1,1.6,0.1,1.9h-2.2c0-0.3-0.1-0.7-0.1-1.6c-0.5,0.8-1.7,1.9-3.7,1.9
						c-2.4,0-3.9-1.6-3.9-3.5C496.4,181.8,497.9,180.7,499.9,180.4z M503.9,182.1v-0.5l-3.5,0.5c-1,0.1-1.7,0.7-1.7,1.7
						c0,0.9,0.7,1.7,1.9,1.7C502.4,185.5,503.9,184.6,503.9,182.1z"/>
					<path class="st2" d="M517.8,185.2c-0.6,1.1-1.8,2.1-3.6,2.1c-3.4,0-5.5-2.7-5.5-6.1c0-3.3,2.2-6,5.5-6c2,0,3.1,1,3.5,1.9v-7.5
						h2.2v15.2c0,1.1,0.1,1.9,0.1,2.1h-2.2c0-0.3-0.1-0.9-0.1-1.6V185.2z M514.4,185.3c2.1,0,3.3-1.8,3.3-4.2s-1.2-4-3.3-4
						c-2.1,0-3.4,1.7-3.4,4.1S512.3,185.3,514.4,185.3z"/>
					<path class="st2" d="M531.9,185.2c-0.6,1.1-1.8,2.1-3.6,2.1c-3.4,0-5.5-2.7-5.5-6.1c0-3.3,2.2-6,5.5-6c2,0,3.1,1,3.5,1.9v-7.5
						h2.2v15.2c0,1.1,0.1,1.9,0.1,2.1H532c0-0.3-0.1-0.9-0.1-1.6V185.2z M528.5,185.3c2.1,0,3.3-1.8,3.3-4.2s-1.2-4-3.3-4
						c-2.1,0-3.4,1.7-3.4,4.1S526.4,185.3,528.5,185.3z"/>
					<path class="st2" d="M546.9,175.5h2.5v2h-2.5v6c0,1.1,0.4,1.6,1.6,1.6c0.3,0,0.7,0,0.9-0.1v1.9c-0.2,0.1-0.8,0.2-1.5,0.2
						c-2,0-3.2-1.2-3.2-3.3v-6.3h-2.2v-2h0.6c1.2,0,1.8-0.8,1.8-1.8v-1.9h2.1V175.5z"/>
					<path class="st2" d="M563.2,181.2c0,3.5-2.4,6.1-5.9,6.1c-3.5,0-5.9-2.6-5.9-6.1c0-3.5,2.4-6.1,5.9-6.1
						C560.7,175.1,563.2,177.7,563.2,181.2z M560.9,181.2c0-2.7-1.7-4.1-3.6-4.1c-1.9,0-3.6,1.4-3.6,4.1c0,2.7,1.7,4.1,3.6,4.1
						C559.2,185.3,560.9,183.9,560.9,181.2z"/>
					<path class="st2" d="M571.1,176.8c0-0.2,0-0.4,0-0.6c0-2.7,2-5,5.4-5c3.3,0,5.3,2.2,5.3,4.8c0,2-1.2,3.7-2.9,4.8l-3.1,2
						c-0.9,0.6-1.7,1.2-1.9,2.2h8v2.2H571c0-2.5,1.1-4.5,3.7-6.2l2.6-1.7c1.5-0.9,2.1-2,2.1-3.2c0-1.4-1-2.7-2.9-2.7
						c-2,0-3,1.4-3,3.2c0,0.2,0,0.5,0,0.7L571.1,176.8z"/>
					<path class="st2" d="M593.5,180.4l3.1-0.5c0.7-0.1,0.9-0.5,0.9-0.9c0-1.1-0.7-2.1-2.5-2.1c-1.6,0-2.5,1-2.6,2.3l-2.2-0.5
						c0.2-2.2,2.2-3.7,4.7-3.7c3.5,0,4.8,2,4.8,4.2v5.8c0,1,0.1,1.6,0.1,1.9h-2.2c0-0.3-0.1-0.7-0.1-1.6c-0.5,0.8-1.7,1.9-3.7,1.9
						c-2.4,0-3.9-1.6-3.9-3.5C590,181.8,591.5,180.7,593.5,180.4z M597.5,182.1v-0.5l-3.5,0.5c-1,0.1-1.7,0.7-1.7,1.7
						c0,0.9,0.7,1.7,1.9,1.7C596,185.5,597.5,184.6,597.5,182.1z"/>
					<path class="st2" d="M604.6,181.2c0,2.6,1.7,4.1,3.5,4.1c2.2,0,3-1.5,3.2-2.4l2,0.9c-0.6,1.7-2.2,3.6-5.2,3.6
						c-3.4,0-5.8-2.6-5.8-6.1c0-3.6,2.5-6.1,5.8-6.1c3.1,0,4.7,1.9,5.1,3.7l-2,0.9c-0.3-1.1-1.1-2.4-3.1-2.4
						C606.3,177.2,604.6,178.5,604.6,181.2z"/>
					<path class="st2" d="M617.2,181.2c0,2.6,1.7,4.1,3.5,4.1c2.2,0,3-1.5,3.2-2.4l2,0.9c-0.6,1.7-2.2,3.6-5.2,3.6
						c-3.4,0-5.8-2.6-5.8-6.1c0-3.6,2.5-6.1,5.8-6.1c3.1,0,4.7,1.9,5.1,3.7l-2,0.9c-0.3-1.1-1.1-2.4-3.1-2.4
						C618.9,177.2,617.2,178.5,617.2,181.2z"/>
					<path class="st2" d="M639.3,181.2c0,3.5-2.4,6.1-5.9,6.1c-3.5,0-5.9-2.6-5.9-6.1c0-3.5,2.4-6.1,5.9-6.1
						C636.9,175.1,639.3,177.7,639.3,181.2z M637,181.2c0-2.7-1.7-4.1-3.6-4.1c-1.9,0-3.6,1.4-3.6,4.1c0,2.7,1.7,4.1,3.6,4.1
						C635.3,185.3,637,183.9,637,181.2z"/>
					<path class="st2" d="M646.3,187.4c-2.7,0-4.3-2-4.3-4.6v-7.3h2.3v6.9c0,1.6,0.7,3,2.6,3c1.8,0,2.7-1.2,2.7-3v-7h2.3v9.4
						c0,0.9,0.1,1.7,0.1,2.1h-2.2c0-0.3-0.1-0.9-0.1-1.4C649.1,186.8,647.6,187.4,646.3,187.4z"/>
					<path class="st2" d="M657.9,187h-2.3v-11.5h2.2v1.7c0.8-1.4,2.2-2,3.6-2c2.8,0,4.1,2,4.1,4.6v7.3h-2.3v-6.9
						c0-1.6-0.7-2.9-2.7-2.9c-1.8,0-2.7,1.4-2.7,3.2V187z"/>
					<path class="st2" d="M672.2,175.5h2.5v2h-2.5v6c0,1.1,0.4,1.6,1.6,1.6c0.3,0,0.7,0,0.9-0.1v1.9c-0.2,0.1-0.8,0.2-1.5,0.2
						c-2,0-3.2-1.2-3.2-3.3v-6.3h-2.2v-2h0.6c1.2,0,1.8-0.8,1.8-1.8v-1.9h2.1V175.5z"/>
					<path class="st2" d="M678.8,183.3c0.1,1.2,1.1,2.2,2.7,2.2c1.3,0,2-0.7,2-1.5c0-0.7-0.5-1.3-1.5-1.5l-2-0.4
						c-1.8-0.4-2.9-1.6-2.9-3.2c0-2,1.8-3.6,4.1-3.6c3.2,0,4.2,2.1,4.4,3.1l-2,0.7c-0.1-0.6-0.6-1.9-2.4-1.9c-1.2,0-1.9,0.7-1.9,1.5
						c0,0.7,0.4,1.2,1.3,1.4l1.9,0.4c2.1,0.5,3.2,1.7,3.2,3.4c0,1.6-1.4,3.6-4.2,3.6c-3.2,0-4.5-2-4.7-3.4L678.8,183.3z"/>
					<path class="st2" d="M690.1,183.8c0.9,0,1.7,0.7,1.7,1.7s-0.7,1.7-1.7,1.7c-0.9,0-1.7-0.7-1.7-1.7S689.1,183.8,690.1,183.8z"/>
				</g>
				<g class="st1">
					<path class="st3" d="M232.6,118V99.6h5.5v17.9c0,3.7,2.1,5.7,5.4,5.7c3.4,0,5.4-2,5.4-5.7V99.6h5.5V118c0,7-4.8,10.7-10.9,10.7
						C237.4,128.6,232.6,124.9,232.6,118z"/>
					<path class="st3" d="M260,135.6v-27.3h5.2v2.4c0.9-1.5,3.1-2.8,6-2.8c5.8,0,9.1,4.4,9.1,10.2c0,6-3.7,10.4-9.3,10.4
						c-2.7,0-4.7-1.1-5.7-2.4v9.5H260z M270.1,112.6c-2.7,0-4.9,2-4.9,5.5c0,3.5,2.2,5.6,4.9,5.6c2.7,0,4.9-2,4.9-5.6
						C275,114.7,272.9,112.6,270.1,112.6z"/>
					<path class="st3" d="M303.2,124.4c0,1.3,0.1,2.8,0.2,3.6h-5.1c-0.1-0.4-0.2-1.4-0.2-2.3c-0.9,1.6-2.9,2.8-5.5,2.8
						c-5.6,0-9.6-4.4-9.6-10.4c0-5.8,3.9-10.3,9.4-10.3c3.4,0,5,1.4,5.6,2.4V99h5.2V124.4z M293.2,123.7c2.7,0,4.8-2.1,4.8-5.6
						c0-3.5-2.1-5.5-4.8-5.5c-2.7,0-4.9,2-4.9,5.5C288.3,121.6,290.4,123.7,293.2,123.7z"/>
					<path class="st3" d="M313.5,116.7l4.8-0.7c1.1-0.2,1.5-0.7,1.5-1.4c0-1.4-1.1-2.6-3.3-2.6c-2.3,0-3.6,1.5-3.8,3.2l-4.7-1
						c0.3-3.1,3.2-6.5,8.4-6.5c6.2,0,8.6,3.5,8.6,7.5v9.7c0,1,0.1,2.4,0.2,3.1h-4.9c-0.1-0.5-0.2-1.6-0.2-2.4
						c-1,1.6-2.9,2.9-5.8,2.9c-4.2,0-6.8-2.8-6.8-5.9C307.7,119.1,310.3,117.2,313.5,116.7z M319.9,120v-0.9l-4.4,0.7
						c-1.4,0.2-2.4,1-2.4,2.5c0,1.2,0.8,2.3,2.6,2.3C317.8,124.6,319.9,123.5,319.9,120z"/>
					<path class="st3" d="M336.9,108.3h4v4.7h-4v8.2c0,1.7,0.8,2.3,2.3,2.3c0.6,0,1.4-0.1,1.6-0.2v4.4c-0.5,0.2-1.4,0.5-3,0.5
						c-3.8,0-6.2-2.3-6.2-6.1V113H328v-4.7h1c2.1,0,3-1.4,3-3.1v-2.8h4.8V108.3z"/>
					<path class="st3" d="M362.8,122.4c-1,3.4-4.1,6.2-9,6.2c-5.4,0-10.2-3.9-10.2-10.5c0-6.3,4.6-10.4,9.7-10.4
						c6.1,0,9.7,3.9,9.7,10.2c0,0.8-0.1,1.6-0.1,1.6h-14.1c0.1,2.6,2.3,4.5,5,4.5c2.5,0,3.8-1.2,4.5-3L362.8,122.4z M357.8,115.9
						c-0.1-2-1.4-3.9-4.4-3.9c-2.8,0-4.3,2.1-4.4,3.9H357.8z"/>
					<path class="st3" d="M394.4,121.5h-11.5l-2.4,6.5h-5.8l10.9-28.4h6.4l10.8,28.4h-6L394.4,121.5z M384.7,116.5h7.8l-3.9-10.7
						L384.7,116.5z"/>
					<path class="st3" d="M409.5,118.2c0,3.6,2.3,5.6,5,5.6s4.1-1.8,4.5-3.3l4.7,1.6c-0.9,3.3-4,6.6-9.2,6.6
						c-5.8,0-10.4-4.4-10.4-10.4c0-6.1,4.5-10.4,10.2-10.4c5.4,0,8.4,3.3,9.2,6.6l-4.8,1.6c-0.5-1.6-1.7-3.3-4.4-3.3
						C411.7,112.6,409.5,114.6,409.5,118.2z"/>
					<path class="st3" d="M431.3,118.2c0,3.6,2.3,5.6,5,5.6s4.1-1.8,4.5-3.3l4.7,1.6c-0.9,3.3-4,6.6-9.2,6.6
						c-5.8,0-10.4-4.4-10.4-10.4c0-6.1,4.5-10.4,10.2-10.4c5.4,0,8.4,3.3,9.2,6.6l-4.8,1.6c-0.5-1.6-1.7-3.3-4.4-3.3
						C433.5,112.6,431.3,114.6,431.3,118.2z"/>
					<path class="st3" d="M468.4,118.2c0,6-4.4,10.4-10.3,10.4s-10.3-4.4-10.3-10.4c0-6.1,4.4-10.4,10.3-10.4
						S468.4,112.1,468.4,118.2z M463.1,118.2c0-3.7-2.4-5.6-5-5.6s-5,1.9-5,5.6c0,3.7,2.4,5.6,5,5.6S463.1,121.9,463.1,118.2z"/>
					<path class="st3" d="M485.2,125.9c-1.1,1.8-3.4,2.6-5.4,2.6c-4.8,0-7.5-3.5-7.5-7.8v-12.4h5.3v11.4c0,2.2,1.1,4,3.6,4
						c2.4,0,3.7-1.6,3.7-3.9v-11.4h5.3v16.1c0,1.5,0.1,2.9,0.2,3.6h-5.1C485.3,127.6,485.2,126.7,485.2,125.9z"/>
					<path class="st3" d="M501.3,128h-5.3v-19.7h5.2v2.4c1.2-2,3.6-3,5.7-3c4.9,0,7.1,3.5,7.1,7.8V128h-5.3v-11.5
						c0-2.2-1.1-3.9-3.6-3.9c-2.3,0-3.7,1.8-3.7,4.1V128z"/>
					<path class="st3" d="M525.9,108.3h4v4.7h-4v8.2c0,1.7,0.8,2.3,2.3,2.3c0.6,0,1.4-0.1,1.6-0.2v4.4c-0.5,0.2-1.4,0.5-3,0.5
						c-3.8,0-6.2-2.3-6.2-6.1V113H517v-4.7h1c2.1,0,3-1.4,3-3.1v-2.8h4.8V108.3z"/>
					<path class="st3" d="M537.7,121.5c0.1,1.6,1.3,3,3.6,3c1.8,0,2.6-0.9,2.6-2c0-0.9-0.6-1.6-2.1-1.9l-2.6-0.6
						c-3.8-0.8-5.5-3.1-5.5-5.9c0-3.5,3.1-6.4,7.4-6.4c5.6,0,7.5,3.6,7.7,5.7l-4.4,1c-0.2-1.2-1-2.6-3.2-2.6c-1.4,0-2.5,0.8-2.5,2
						c0,1,0.7,1.6,1.8,1.8l2.8,0.6c3.9,0.8,5.8,3.2,5.8,6c0,3.2-2.5,6.5-7.6,6.5c-5.9,0-8-3.8-8.2-6.1L537.7,121.5z"/>
				</g>
				<g id="ic_cached" transform="translate(428.000000, 0.000000)">
					<polygon id="Bounds" class="st4" points="0,0 40,0 40,40 0,40 					"/>
					<path id="Icon" class="st5" d="M31.7,13.3L25,20h5c0,5.5-4.5,10-10,10c-1.7,0-3.3-0.4-4.7-1.2l-2.4,2.4
						c2.1,1.3,4.5,2.1,7.1,2.1c7.4,0,13.3-6,13.3-13.3h5L31.7,13.3L31.7,13.3z M10,20c0-5.5,4.5-10,10-10c1.7,0,3.3,0.4,4.7,1.2
						l2.4-2.4C25,7.4,22.6,6.7,20,6.7c-7.4,0-13.3,6-13.3,13.3h-5l6.7,6.7L15,20H10L10,20z"/>
				</g>
				<g id="ic_perm_identity" transform="translate(364.000000, 0.000000)">
					<polygon id="Bounds_1_" class="st4" points="0,0 64,0 64,64 0,64 					"/>
					<path id="Icon_1_" class="st5" d="M32,15.7c3.1,0,5.6,2.5,5.6,5.6s-2.5,5.6-5.6,5.6s-5.6-2.5-5.6-5.6S28.9,15.7,32,15.7
						L32,15.7z M32,39.7c7.9,0,16.3,3.9,16.3,5.6v2.9H15.7v-2.9C15.7,43.6,24.1,39.7,32,39.7L32,39.7z M32,10.7
						c-5.9,0-10.7,4.8-10.7,10.7S26.1,32,32,32s10.7-4.8,10.7-10.7S37.9,10.7,32,10.7L32,10.7z M32,34.7c-7.1,0-21.3,3.6-21.3,10.7
						v8h42.7v-8C53.3,38.2,39.1,34.7,32,34.7L32,34.7z"/>
				</g>
				<g class="st1">
					<path class="st3" d="M339.1,318v-11.9l-4.9,11.9h-2.8l-4.9-11.8V318h-3.2v-17h4.4l5.1,12.3l5-12.3h4.5v17H339.1z"/>
					<path class="st3" d="M348.3,312.1c0,2.1,1.4,3.3,3,3.3c1.6,0,2.4-1.1,2.7-2l2.8,0.9c-0.5,2-2.4,4-5.5,4c-3.5,0-6.2-2.6-6.2-6.3
						c0-3.6,2.7-6.3,6.1-6.3c3.2,0,5,2,5.5,4l-2.9,1c-0.3-1-1-2-2.6-2C349.7,308.8,348.3,310,348.3,312.1z"/>
					<path class="st3" d="M365.4,318v-17h6.1c4.8,0,8.4,3.1,8.4,8.5c0,5.4-3.6,8.5-8.4,8.5H365.4z M371.3,314.9
						c2.8,0,5.1-1.7,5.1-5.4s-2.3-5.4-5.1-5.4h-2.7v10.9H371.3z"/>
					<path class="st3" d="M394.1,312.1c0,3.6-2.7,6.3-6.2,6.3c-3.5,0-6.2-2.6-6.2-6.3c0-3.6,2.7-6.3,6.2-6.3
						C391.4,305.8,394.1,308.4,394.1,312.1z M390.9,312.1c0-2.2-1.4-3.4-3-3.4c-1.6,0-3,1.1-3,3.4c0,2.2,1.4,3.4,3,3.4
						C389.4,315.5,390.9,314.3,390.9,312.1z"/>
					<path class="st3" d="M399.8,318h-3.2v-11.8h3.1v1.5c0.7-1.2,2.1-1.8,3.4-1.8c2.9,0,4.3,2.1,4.3,4.7v7.4h-3.2v-6.9
						c0-1.3-0.6-2.4-2.2-2.4c-1.4,0-2.2,1.1-2.2,2.4V318z"/>
					<path class="st3" d="M413.4,311.2l2.9-0.4c0.7-0.1,0.9-0.4,0.9-0.8c0-0.8-0.6-1.5-2-1.5c-1.4,0-2.2,0.9-2.3,1.9l-2.8-0.6
						c0.2-1.8,1.9-3.9,5.1-3.9c3.7,0,5.1,2.1,5.1,4.5v5.8c0,0.6,0.1,1.5,0.1,1.9h-2.9c-0.1-0.3-0.1-1-0.1-1.4
						c-0.6,0.9-1.7,1.8-3.5,1.8c-2.5,0-4.1-1.7-4.1-3.6C409.9,312.7,411.4,311.5,413.4,311.2z M417.2,313.2v-0.5l-2.7,0.4
						c-0.8,0.1-1.5,0.6-1.5,1.5c0,0.7,0.5,1.4,1.5,1.4C415.9,316,417.2,315.3,417.2,313.2z"/>
					<path class="st3" d="M423.5,318v-17.4h3.2V318H423.5z"/>
					<path class="st3" d="M441.4,315.9c0,0.8,0,1.7,0.1,2.1h-3c0-0.2-0.1-0.8-0.1-1.4c-0.5,0.9-1.7,1.7-3.3,1.7
						c-3.4,0-5.8-2.6-5.8-6.2c0-3.5,2.3-6.2,5.7-6.2c2,0,3,0.8,3.3,1.5v-6.7h3.1V315.9z M435.4,315.4c1.6,0,2.9-1.2,2.9-3.4
						c0-2.1-1.3-3.3-2.9-3.3c-1.6,0-2.9,1.2-2.9,3.3S433.7,315.4,435.4,315.4z"/>
					<path class="st3" d="M445.9,300.8c1.3,0,2.1,1.1,2.1,2.3c0,3.2-2.2,4.4-3.7,4.5v-1.5c0.9-0.1,1.9-0.9,2-2
						c-0.1,0.1-0.3,0.1-0.5,0.1c-1.1,0-1.8-0.7-1.8-1.7C444,301.6,444.7,300.8,445.9,300.8z"/>
					<path class="st3" d="M450.9,314.1c0.1,0.9,0.8,1.8,2.2,1.8c1.1,0,1.6-0.6,1.6-1.2c0-0.5-0.4-1-1.3-1.2l-1.6-0.4
						c-2.3-0.5-3.3-1.9-3.3-3.5c0-2.1,1.9-3.9,4.4-3.9c3.4,0,4.5,2.1,4.6,3.4l-2.7,0.6c-0.1-0.7-0.6-1.6-1.9-1.6
						c-0.8,0-1.5,0.5-1.5,1.2c0,0.6,0.4,0.9,1.1,1.1l1.7,0.4c2.3,0.5,3.5,1.9,3.5,3.6c0,1.9-1.5,3.9-4.6,3.9c-3.6,0-4.8-2.3-4.9-3.6
						L450.9,314.1z"/>
				</g>
				<g class="st1">
					<path class="st6" d="M373.9,578v-13.9h-5v-3c3,0,5.2-1.7,5.6-3.9h3.8V578H373.9z"/>
					<path class="st6" d="M384.4,578.3h-3.8l11.3-23.3h3.9L384.4,578.3z"/>
					<path class="st6" d="M396,565.1c-0.1-0.3-0.2-0.9-0.2-1.4c0-3.6,2.8-6.9,7.6-6.9c4.6,0,7.5,3.1,7.5,6.7c0,2.7-1.5,4.9-4,6.4
						l-4,2.4c-0.8,0.5-1.5,1.1-1.8,1.9h10v3.8h-15.4c0-3.6,1.2-6.6,4.9-8.9l3.4-2c1.8-1.1,2.5-2.1,2.5-3.6c0-1.5-1.1-2.8-3.1-2.8
						c-2.2,0-3.3,1.5-3.3,3.5c0,0.4,0.1,0.8,0.2,1.2L396,565.1z"/>
				</g>
				<path id="Line" class="st7" d="M0,258.5h780"/>
				<path id="Line_1_" class="st7" d="M0,600.5h780"/>
				<g id="Group-9" transform="translate(236.000000, 633.000000)">
					<g id="Group-5" transform="translate(113.000000, 0.000000)">
						<path id="Rectangle-2" class="st8" d="M8,0h171c4.4,0,8,3.6,8,8v20c0,4.4-3.6,8-8,8H8c-4.4,0-8-3.6-8-8V8C0,3.6,3.6,0,8,0z"/>
						<g class="st1">
							<path class="st0" d="M33.2,20v-7.4h1.9v7.3c0,1.6,0.9,2.5,2.3,2.5c1.5,0,2.3-0.9,2.3-2.5v-7.3h1.9V20c0,2.7-1.9,4.2-4.2,4.2
								C35.1,24.2,33.2,22.8,33.2,20z"/>
							<path class="st0" d="M44,27V16.2h1.8v1.1c0.4-0.7,1.3-1.2,2.5-1.2c2.3,0,3.6,1.8,3.6,4.1c0,2.3-1.4,4.1-3.7,4.1
								c-1.1,0-2-0.5-2.4-1.1V27H44z M48,17.7c-1.2,0-2.1,1-2.1,2.4c0,1.5,0.9,2.4,2.1,2.4c1.2,0,2.1-1,2.1-2.4
								C50.1,18.6,49.2,17.7,48,17.7z"/>
							<path class="st0" d="M60.9,22.6c0,0.7,0.1,1.3,0.1,1.4h-1.8c0-0.2-0.1-0.7-0.1-1c-0.4,0.7-1.2,1.2-2.3,1.2
								c-2.2,0-3.7-1.8-3.7-4.1c0-2.2,1.5-4.1,3.7-4.1c1.4,0,2,0.6,2.3,1.1v-4.7h1.8V22.6z M57.1,22.6c1.2,0,2.1-1,2.1-2.5
								s-0.8-2.4-2-2.4c-1.2,0-2.1,0.9-2.1,2.4C55,21.6,55.8,22.6,57.1,22.6z"/>
							<path class="st0" d="M65.2,19.5l2-0.3c0.4-0.1,0.6-0.3,0.6-0.6c0-0.7-0.4-1.2-1.5-1.2c-1,0-1.5,0.6-1.6,1.4L63,18.5
								c0.1-1.3,1.4-2.5,3.3-2.5c2.4,0,3.3,1.4,3.3,2.9v3.9c0,0.7,0.1,1.2,0.1,1.2H68c0,0-0.1-0.4-0.1-1c-0.4,0.6-1.1,1.2-2.4,1.2
								c-1.6,0-2.6-1.1-2.6-2.4C62.8,20.5,63.9,19.7,65.2,19.5z M67.8,20.8v-0.4l-2,0.3c-0.6,0.1-1,0.4-1,1.1c0,0.5,0.4,1,1.1,1
								C66.9,22.8,67.8,22.3,67.8,20.8z"/>
							<path class="st0" d="M74.1,16.2h1.6v1.6h-1.6v3.6c0,0.7,0.3,1,1,1c0.3,0,0.6,0,0.6-0.1v1.5c-0.1,0-0.5,0.2-1.1,0.2
								c-1.4,0-2.3-0.9-2.3-2.3v-3.9h-1.4v-1.6h0.4c0.8,0,1.2-0.5,1.2-1.2v-1.2h1.7V16.2z"/>
							<path class="st0" d="M84.5,21.8c-0.4,1.4-1.6,2.5-3.5,2.5c-2.1,0-4-1.5-4-4.2c0-2.5,1.8-4.1,3.8-4.1c2.4,0,3.8,1.6,3.8,4
								c0,0.3,0,0.6,0,0.6h-5.7c0,1.2,1,2,2.1,2c1.1,0,1.7-0.6,2-1.4L84.5,21.8z M82.7,19.2c0-0.9-0.6-1.7-1.9-1.7
								c-1.2,0-1.8,0.9-1.9,1.7H82.7z"/>
							<path class="st0" d="M97.2,21.2h-4.8L91.3,24h-2l4.4-11.3h2.2l4.4,11.3h-2.1L97.2,21.2z M93,19.4h3.5l-1.7-4.6L93,19.4z"/>
							<path class="st0" d="M102.8,20.1c0,1.6,1,2.4,2.2,2.4c1.2,0,1.8-0.8,2-1.4l1.6,0.6c-0.4,1.2-1.5,2.5-3.6,2.5
								c-2.3,0-4-1.8-4-4.1c0-2.4,1.7-4.1,4-4.1c2.1,0,3.2,1.3,3.6,2.6l-1.7,0.6c-0.2-0.7-0.7-1.5-1.9-1.5
								C103.8,17.7,102.8,18.5,102.8,20.1z"/>
							<path class="st0" d="M111.4,20.1c0,1.6,1,2.4,2.2,2.4c1.2,0,1.8-0.8,2-1.4l1.6,0.6c-0.4,1.2-1.5,2.5-3.6,2.5
								c-2.3,0-4-1.8-4-4.1c0-2.4,1.7-4.1,4-4.1c2.1,0,3.2,1.3,3.6,2.6l-1.7,0.6c-0.2-0.7-0.7-1.5-1.9-1.5
								C112.4,17.7,111.4,18.5,111.4,20.1z"/>
							<path class="st0" d="M126.2,20.1c0,2.4-1.7,4.1-4,4.1c-2.3,0-4-1.7-4-4.1c0-2.4,1.7-4.1,4-4.1
								C124.5,16,126.2,17.7,126.2,20.1z M124.3,20.1c0-1.6-1-2.4-2.2-2.4c-1.1,0-2.2,0.8-2.2,2.4c0,1.6,1,2.5,2.2,2.5
								C123.3,22.6,124.3,21.7,124.3,20.1z"/>
							<path class="st0" d="M130.8,24.2c-1.9,0-2.9-1.4-2.9-3.1v-4.9h1.9v4.6c0,1,0.4,1.8,1.6,1.8c1.1,0,1.6-0.7,1.6-1.7v-4.6h1.9
								v6.4c0,0.6,0,1.1,0.1,1.4H133c0-0.2-0.1-0.5-0.1-0.9C132.6,23.8,131.7,24.2,130.8,24.2z"/>
							<path class="st0" d="M139,24h-1.9v-7.8h1.8v1c0.5-0.9,1.4-1.3,2.3-1.3c1.9,0,2.8,1.4,2.8,3.1V24h-1.9v-4.6
								c0-1-0.4-1.7-1.6-1.7c-1.1,0-1.6,0.8-1.6,1.8V24z"/>
							<path class="st0" d="M148.7,16.2h1.6v1.6h-1.6v3.6c0,0.7,0.3,1,1,1c0.3,0,0.6,0,0.6-0.1v1.5c-0.1,0-0.5,0.2-1.1,0.2
								c-1.4,0-2.3-0.9-2.3-2.3v-3.9h-1.4v-1.6h0.4c0.8,0,1.2-0.5,1.2-1.2v-1.2h1.7V16.2z"/>
						</g>
					</g>
					<g id="Group-5_1_">
						<path id="Rectangle-2_1_" class="st9" d="M9,1h79c4.4,0,8,3.6,8,8v18c0,4.4-3.6,8-8,8H9c-4.4,0-8-3.6-8-8V9C1,4.6,4.6,1,9,1z"
							/>
						<g class="st1">
							<path class="st8" d="M39.5,15.9c-0.1-0.7-0.7-1.7-2.2-1.7c-1.2,0-2,0.8-2,1.6c0,0.7,0.4,1.3,1.3,1.5l1.6,0.3
								c2,0.4,3.1,1.7,3.1,3.3c0,1.8-1.4,3.4-4,3.4c-2.9,0-4.2-1.9-4.4-3.5l1.8-0.5c0.1,1.2,1,2.3,2.6,2.3c1.4,0,2.1-0.7,2.1-1.6
								c0-0.7-0.5-1.3-1.5-1.5l-1.6-0.3c-1.7-0.4-2.9-1.5-2.9-3.2c0-1.9,1.7-3.5,3.9-3.5c2.7,0,3.7,1.6,4,2.9L39.5,15.9z"/>
							<path class="st8" d="M47.2,19.5l3.3,4.5h-2.3l-2.3-3.2l-1,1V24h-1.8V12.4H45v6.9l3-3.2h2.5L47.2,19.5z"/>
							<path class="st8" d="M52.8,12.3c0.7,0,1.2,0.5,1.2,1.2s-0.5,1.2-1.2,1.2c-0.7,0-1.2-0.5-1.2-1.2S52.1,12.3,52.8,12.3z
								 M51.9,24v-7.8h1.8V24H51.9z"/>
							<path class="st8" d="M56.1,27V16.2h1.8v1.1c0.4-0.7,1.3-1.2,2.5-1.2c2.3,0,3.6,1.8,3.6,4.1c0,2.3-1.4,4.1-3.7,4.1
								c-1.1,0-2-0.5-2.4-1.1V27H56.1z M60,17.7c-1.2,0-2.1,1-2.1,2.4c0,1.5,0.9,2.4,2.1,2.4c1.2,0,2.1-1,2.1-2.4
								C62.1,18.6,61.3,17.7,60,17.7z"/>
						</g>
					</g>
				</g>
				<g id="Group" transform="translate(79.000000, 362.000000)">
					<g class="st1">
						<path class="st2" d="M1.6,9c0-3.3,2.5-5.2,4.9-5.2c2.3,0,3.9,1.2,4.4,3.2L9.7,7.5C9.3,6,8.2,5.1,6.6,5.1C4.8,5.1,3,6.4,3,9
							s1.7,3.9,3.5,3.9c1.7,0,2.8-1,3.2-2.4l1.2,0.4c-0.5,1.9-2.1,3.2-4.4,3.2C4,14.2,1.6,12.3,1.6,9z"/>
						<path class="st2" d="M18.7,10.6c0,2.1-1.4,3.6-3.4,3.6s-3.4-1.5-3.4-3.6c0-2,1.4-3.6,3.4-3.6S18.7,8.6,18.7,10.6z M17.3,10.6
							c0-1.6-1-2.4-2.1-2.4s-2.1,0.8-2.1,2.4c0,1.6,1,2.4,2.1,2.4S17.3,12.2,17.3,10.6z"/>
						<path class="st2" d="M20.3,14V7.3h1.3v0.9c0.4-0.7,1.3-1.1,2-1.1c0.8,0,1.7,0.4,2,1.3c0.5-1,1.4-1.3,2.3-1.3
							c1.2,0,2.3,0.8,2.3,2.6V14h-1.3V9.8c0-0.9-0.4-1.5-1.4-1.5C26.6,8.2,26,9,26,9.9V14h-1.3V9.8c0-0.9-0.4-1.5-1.4-1.5
							c-0.9,0-1.6,0.7-1.6,1.7V14H20.3z"/>
						<path class="st2" d="M32.3,16.7V7.3h1.3v1c0.4-0.7,1.2-1.2,2.3-1.2c2,0,3.1,1.6,3.1,3.5c0,2-1.2,3.6-3.1,3.6
							c-1,0-1.8-0.5-2.2-1.1v3.6H32.3z M35.6,8.3c-1.2,0-2,1-2,2.4c0,1.4,0.8,2.4,2,2.4c1.2,0,2-1,2-2.4C37.6,9.3,36.9,8.3,35.6,8.3
							z"/>
						<path class="st2" d="M42.3,10.1l1.8-0.3c0.4-0.1,0.5-0.3,0.5-0.5c0-0.7-0.4-1.2-1.5-1.2c-0.9,0-1.4,0.6-1.5,1.4l-1.3-0.3
							c0.1-1.3,1.3-2.2,2.8-2.2c2,0,2.8,1.1,2.8,2.5v3.4c0,0.6,0.1,0.9,0.1,1.1h-1.3c0-0.2-0.1-0.4-0.1-0.9c-0.3,0.5-1,1.1-2.2,1.1
							c-1.4,0-2.3-1-2.3-2C40.2,11,41.1,10.3,42.3,10.1z M44.6,11.1v-0.3l-2.1,0.3c-0.6,0.1-1,0.4-1,1c0,0.5,0.4,1,1.1,1
							C43.7,13.1,44.6,12.6,44.6,11.1z"/>
						<path class="st2" d="M49.3,14H48V7.3h1.3v1c0.5-0.8,1.3-1.2,2.1-1.2c1.6,0,2.4,1.2,2.4,2.7V14h-1.3v-4c0-0.9-0.4-1.7-1.6-1.7
							c-1,0-1.6,0.8-1.6,1.8V14z"/>
						<path class="st2" d="M56.1,16.8l1.7-3.6l-2.9-6h1.5l2.1,4.7l2-4.7h1.4l-4.4,9.6H56.1z"/>
						<path class="st2" d="M66.8,14V4.1h3.5c2.5,0,4.7,1.7,4.7,5c0,3.2-2.2,4.9-4.7,4.9H66.8z M70.2,12.8c1.8,0,3.4-1.2,3.4-3.7
							c0-2.5-1.5-3.8-3.3-3.8h-2.1v7.5H70.2z"/>
						<path class="st2" d="M82.6,12.1c-0.4,1.2-1.5,2.1-3,2.1c-1.8,0-3.4-1.3-3.4-3.6c0-2.1,1.5-3.6,3.2-3.6c2.1,0,3.2,1.4,3.2,3.5
							c0,0.2,0,0.3,0,0.4h-5.1c0,1.2,0.9,2,2,2c1.1,0,1.6-0.6,1.9-1.4L82.6,12.1z M81.3,9.9c0-1-0.7-1.7-1.8-1.7
							c-1.1,0-1.8,0.9-1.8,1.7H81.3z"/>
						<path class="st2" d="M84.9,11.8c0.1,0.7,0.6,1.3,1.6,1.3c0.7,0,1.1-0.4,1.1-0.9c0-0.4-0.3-0.7-0.9-0.9l-1.1-0.3
							c-1-0.2-1.7-0.9-1.7-1.9c0-1.1,1.1-2.1,2.4-2.1c1.8,0,2.4,1.2,2.6,1.8l-1.2,0.4c-0.1-0.3-0.3-1.1-1.4-1.1
							c-0.7,0-1.1,0.4-1.1,0.9c0,0.4,0.3,0.7,0.8,0.8l1.1,0.2c1.2,0.3,1.9,1,1.9,2c0,1-0.8,2.1-2.5,2.1c-1.8,0-2.6-1.2-2.7-2
							L84.9,11.8z"/>
						<path class="st2" d="M91.4,10.6c0,1.5,1,2.4,2.1,2.4c1.3,0,1.7-0.9,1.9-1.4l1.2,0.5c-0.3,1-1.3,2.1-3,2.1
							c-2,0-3.4-1.5-3.4-3.6c0-2.1,1.5-3.6,3.4-3.6c1.8,0,2.7,1.1,3,2.1l-1.2,0.5c-0.2-0.7-0.7-1.4-1.8-1.4
							C92.4,8.3,91.4,9.1,91.4,10.6z"/>
						<path class="st2" d="M101.7,8.6c-0.2,0-0.4,0-0.6,0c-1.1,0-1.8,0.6-1.8,2.1V14H98V7.3h1.3v1.2c0.5-1,1.3-1.3,2-1.3
							c0.2,0,0.4,0,0.4,0V8.6z"/>
						<path class="st2" d="M103.8,3.8c0.5,0,1,0.4,1,1c0,0.5-0.4,0.9-1,0.9c-0.5,0-0.9-0.4-0.9-0.9C102.8,4.2,103.3,3.8,103.8,3.8z
							 M103.1,14V7.3h1.3V14H103.1z"/>
						<path class="st2" d="M106.7,16.7V7.3h1.3v1c0.4-0.7,1.2-1.2,2.3-1.2c2,0,3.1,1.6,3.1,3.5c0,2-1.2,3.6-3.1,3.6
							c-1,0-1.8-0.5-2.2-1.1v3.6H106.7z M110,8.3c-1.2,0-2,1-2,2.4c0,1.4,0.8,2.4,2,2.4c1.2,0,2-1,2-2.4C112,9.3,111.2,8.3,110,8.3z
							"/>
						<path class="st2" d="M116.7,7.3h1.5v1.2h-1.5V12c0,0.6,0.3,0.9,0.9,0.9c0.2,0,0.4,0,0.5-0.1v1.1c-0.1,0-0.4,0.1-0.9,0.1
							c-1.1,0-1.9-0.7-1.9-1.9V8.5h-1.3V7.3h0.4c0.7,0,1-0.4,1-1V5.1h1.2V7.3z"/>
						<path class="st2" d="M120.5,3.8c0.5,0,1,0.4,1,1c0,0.5-0.4,0.9-1,0.9c-0.5,0-0.9-0.4-0.9-0.9C119.6,4.2,120,3.8,120.5,3.8z
							 M119.9,14V7.3h1.3V14H119.9z"/>
						<path class="st2" d="M129.8,10.6c0,2.1-1.4,3.6-3.4,3.6c-2,0-3.4-1.5-3.4-3.6c0-2,1.4-3.6,3.4-3.6
							C128.3,7.1,129.8,8.6,129.8,10.6z M128.4,10.6c0-1.6-1-2.4-2.1-2.4c-1.1,0-2.1,0.8-2.1,2.4c0,1.6,1,2.4,2.1,2.4
							C127.4,13,128.4,12.2,128.4,10.6z"/>
						<path class="st2" d="M132.8,14h-1.3V7.3h1.3v1c0.5-0.8,1.3-1.2,2.1-1.2c1.6,0,2.4,1.2,2.4,2.7V14h-1.3v-4
							c0-0.9-0.4-1.7-1.6-1.7c-1,0-1.6,0.8-1.6,1.8V14z"/>
					</g>
					<path id="Rectangle-3" class="st10" d="M5,26h292c2.2,0,4,1.8,4,4v106c0,2.2-1.8,4-4,4H5c-2.2,0-4-1.8-4-4V30
						C1,27.8,2.8,26,5,26z"/>
					<path id="Rectangle-3_1_" class="st10" d="M5,26h292c2.2,0,4,1.8,4,4v102c0,2.2-1.8,4-4,4H5c-2.2,0-4-1.8-4-4V30
						C1,27.8,2.8,26,5,26z"/>
					<path id="Rectangle-3_2_" class="st11" d="M295,30L295,30c1.1,0,2,0.9,2,2v56c0,1.1-0.9,2-2,2l0,0c-1.1,0-2-0.9-2-2V32
						C293,30.9,293.9,30,295,30z"/>
					<g class="st1">
						<path class="st12" d="M24.2,51V40l-4.8,11h-1.8l-4.8-11v11h-1.9V36.8h2.7l5,11.5l5-11.5h2.6V51H24.2z"/>
						<path class="st12" d="M30.6,46.2c0,2.2,1.4,3.4,2.9,3.4c1.8,0,2.5-1.2,2.7-2l1.7,0.7c-0.5,1.4-1.8,3-4.3,3
							c-2.8,0-4.9-2.2-4.9-5.1c0-3,2.1-5.1,4.8-5.1c2.6,0,3.9,1.6,4.3,3.1l-1.7,0.7c-0.2-0.9-0.9-2-2.6-2
							C32,42.8,30.6,43.9,30.6,46.2z"/>
						<path class="st12" d="M40.3,51V36.8h5c3.6,0,6.7,2.5,6.7,7.1c0,4.6-3.2,7.1-6.8,7.1H40.3z M45.2,49.3c2.6,0,4.8-1.8,4.8-5.3
							c0-3.6-2.2-5.4-4.8-5.4h-2.9v10.7H45.2z"/>
						<path class="st12" d="M63.6,46.2c0,2.9-2,5.1-4.9,5.1c-2.9,0-4.9-2.2-4.9-5.1c0-2.9,2-5.1,4.9-5.1
							C61.5,41.1,63.6,43.3,63.6,46.2z M61.6,46.2c0-2.2-1.4-3.4-3-3.4c-1.6,0-3,1.2-3,3.4c0,2.2,1.4,3.4,3,3.4
							C60.2,49.6,61.6,48.4,61.6,46.2z"/>
						<path class="st12" d="M67.8,51H66v-9.6h1.8v1.4c0.7-1.2,1.8-1.7,3-1.7c2.3,0,3.4,1.7,3.4,3.8V51h-1.9v-5.8
							c0-1.3-0.6-2.4-2.2-2.4c-1.5,0-2.2,1.2-2.2,2.6V51z"/>
						<path class="st12" d="M79.5,45.5l2.6-0.4c0.6-0.1,0.7-0.4,0.7-0.7c0-0.9-0.6-1.7-2.1-1.7c-1.3,0-2.1,0.8-2.2,1.9l-1.8-0.4
							c0.2-1.8,1.9-3.1,3.9-3.1c2.9,0,4,1.6,4,3.5v4.8c0,0.8,0.1,1.3,0.1,1.6H83c0-0.2-0.1-0.6-0.1-1.3c-0.4,0.7-1.4,1.6-3.1,1.6
							c-2,0-3.2-1.4-3.2-2.9C76.6,46.7,77.9,45.7,79.5,45.5z M82.9,46.9v-0.4l-2.9,0.4c-0.8,0.1-1.4,0.6-1.4,1.4
							c0,0.7,0.6,1.4,1.6,1.4C81.6,49.7,82.9,49,82.9,46.9z"/>
						<path class="st12" d="M87.7,51V36.5h1.9V51H87.7z"/>
						<path class="st12" d="M99.5,49.5c-0.5,0.9-1.5,1.7-3,1.7c-2.8,0-4.6-2.2-4.6-5.1c0-2.7,1.8-5,4.6-5c1.7,0,2.6,0.8,2.9,1.6
							v-6.2h1.9v12.7c0,0.9,0.1,1.6,0.1,1.8h-1.8c0-0.2-0.1-0.7-0.1-1.3V49.5z M96.7,49.6c1.7,0,2.8-1.5,2.8-3.5s-1-3.3-2.8-3.3
							c-1.7,0-2.8,1.4-2.8,3.4S94.9,49.6,96.7,49.6z"/>
						<path class="st12" d="M105.1,36.6c0.8,0,1.5,0.6,1.5,1.8c0,2.5-1.6,3.5-2.8,3.6v-1c0.9-0.2,1.5-1.1,1.5-2
							c-0.1,0-0.2,0.1-0.4,0.1c-0.7,0-1.3-0.5-1.3-1.3C103.7,37.2,104.3,36.6,105.1,36.6z"/>
						<path class="st12" d="M108.7,47.9c0.1,1,0.9,1.8,2.2,1.8c1.1,0,1.6-0.6,1.6-1.3c0-0.6-0.4-1.1-1.2-1.2l-1.6-0.4
							c-1.5-0.3-2.4-1.3-2.4-2.7c0-1.6,1.5-3,3.4-3c2.6,0,3.5,1.7,3.7,2.6l-1.7,0.6c-0.1-0.5-0.5-1.6-2-1.6c-1,0-1.6,0.6-1.6,1.3
							c0,0.6,0.4,1,1.1,1.2l1.6,0.3c1.7,0.4,2.7,1.4,2.7,2.9c0,1.4-1.1,3-3.5,3c-2.6,0-3.8-1.7-3.9-2.8L108.7,47.9z"/>
						<path class="st12" d="M122.8,36.4c0.8,0,1.4,0.6,1.4,1.4c0,0.7-0.6,1.3-1.4,1.3c-0.7,0-1.3-0.6-1.3-1.3
							C121.5,37,122.1,36.4,122.8,36.4z M121.9,51v-9.6h1.9V51H121.9z"/>
						<path class="st12" d="M127.8,47.9c0.1,1,0.9,1.8,2.2,1.8c1.1,0,1.6-0.6,1.6-1.3c0-0.6-0.4-1.1-1.2-1.2l-1.6-0.4
							c-1.5-0.3-2.4-1.3-2.4-2.7c0-1.6,1.5-3,3.4-3c2.6,0,3.5,1.7,3.7,2.6l-1.7,0.6c-0.1-0.5-0.5-1.6-2-1.6c-1,0-1.6,0.6-1.6,1.3
							c0,0.6,0.4,1,1.1,1.2l1.6,0.3c1.7,0.4,2.7,1.4,2.7,2.9c0,1.4-1.1,3-3.5,3c-2.6,0-3.8-1.7-3.9-2.8L127.8,47.9z"/>
						<path class="st12" d="M143.3,45.5l2.6-0.4c0.6-0.1,0.7-0.4,0.7-0.7c0-0.9-0.6-1.7-2.1-1.7c-1.3,0-2.1,0.8-2.2,1.9l-1.8-0.4
							c0.2-1.8,1.9-3.1,3.9-3.1c2.9,0,4,1.6,4,3.5v4.8c0,0.8,0.1,1.3,0.1,1.6h-1.8c0-0.2-0.1-0.6-0.1-1.3c-0.4,0.7-1.4,1.6-3.1,1.6
							c-2,0-3.2-1.4-3.2-2.9C140.4,46.7,141.7,45.7,143.3,45.5z M146.7,46.9v-0.4l-2.9,0.4c-0.8,0.1-1.4,0.6-1.4,1.4
							c0,0.7,0.6,1.4,1.6,1.4C145.4,49.7,146.7,49,146.7,46.9z"/>
						<path class="st12" d="M153.4,51h-1.9v-9.6h1.8v1.4c0.7-1.2,1.8-1.7,3-1.7c2.3,0,3.4,1.7,3.4,3.8V51h-1.9v-5.8
							c0-1.3-0.6-2.4-2.2-2.4c-1.5,0-2.2,1.2-2.2,2.6V51z"/>
						<path class="st12" d="M176.2,47h-6.3l-1.5,4h-2.1l5.6-14.2h2.3l5.6,14.2h-2.1L176.2,47z M170.6,45.2h4.9l-2.5-6.4L170.6,45.2z
							"/>
						<path class="st12" d="M181.6,51v-9.6h1.8v1.3c0.6-1.1,1.8-1.6,2.9-1.6c1.2,0,2.4,0.6,2.9,1.8c0.8-1.4,2-1.8,3.2-1.8
							c1.7,0,3.3,1.1,3.3,3.7V51h-1.9v-6c0-1.3-0.6-2.2-2-2.2c-1.3,0-2.2,1-2.2,2.4V51h-1.9v-6c0-1.2-0.6-2.2-2-2.2
							c-1.3,0-2.2,1-2.2,2.4V51H181.6z"/>
						<path class="st12" d="M207.1,48.3c-0.5,1.7-2.1,3-4.3,3c-2.6,0-4.8-1.9-4.8-5.1c0-3,2.2-5.1,4.6-5.1c3,0,4.6,2,4.6,5
							c0,0.2,0,0.5,0,0.6h-7.2c0,1.7,1.3,2.9,2.9,2.9c1.6,0,2.3-0.9,2.7-1.9L207.1,48.3z M205.2,45.2c0-1.4-0.9-2.5-2.6-2.5
							c-1.6,0-2.5,1.2-2.6,2.5H205.2z"/>
						<path class="st12" d="M214.9,43.3c-0.3,0-0.6-0.1-0.8-0.1c-1.6,0-2.6,0.8-2.6,3V51h-1.9v-9.6h1.8v1.7c0.7-1.5,1.9-1.8,2.9-1.8
							c0.3,0,0.5,0,0.6,0.1V43.3z"/>
						<path class="st12" d="M217.8,36.4c0.8,0,1.4,0.6,1.4,1.4c0,0.7-0.6,1.3-1.4,1.3c-0.7,0-1.3-0.6-1.3-1.3
							C216.5,37,217.1,36.4,217.8,36.4z M216.9,51v-9.6h1.9V51H216.9z"/>
						<path class="st12" d="M223.1,46.2c0,2.2,1.4,3.4,2.9,3.4c1.8,0,2.5-1.2,2.7-2l1.7,0.7c-0.5,1.4-1.8,3-4.3,3
							c-2.8,0-4.9-2.2-4.9-5.1c0-3,2.1-5.1,4.8-5.1c2.6,0,3.9,1.6,4.3,3.1l-1.7,0.7c-0.2-0.9-0.9-2-2.6-2
							C224.5,42.8,223.1,43.9,223.1,46.2z"/>
						<path class="st12" d="M234.8,45.5l2.6-0.4c0.6-0.1,0.7-0.4,0.7-0.7c0-0.9-0.6-1.7-2.1-1.7c-1.3,0-2.1,0.8-2.2,1.9l-1.8-0.4
							c0.2-1.8,1.9-3.1,3.9-3.1c2.9,0,4,1.6,4,3.5v4.8c0,0.8,0.1,1.3,0.1,1.6h-1.8c0-0.2-0.1-0.6-0.1-1.3c-0.4,0.7-1.4,1.6-3.1,1.6
							c-2,0-3.2-1.4-3.2-2.9C231.8,46.7,233.1,45.7,234.8,45.5z M238.1,46.9v-0.4l-2.9,0.4c-0.8,0.1-1.4,0.6-1.4,1.4
							c0,0.7,0.6,1.4,1.6,1.4C236.9,49.7,238.1,49,238.1,46.9z"/>
						<path class="st12" d="M244.8,51h-1.9v-9.6h1.8v1.4c0.7-1.2,1.8-1.7,3-1.7c2.3,0,3.4,1.7,3.4,3.8V51h-1.9v-5.8
							c0-1.3-0.6-2.4-2.2-2.4c-1.5,0-2.2,1.2-2.2,2.6V51z"/>
					</g>
					<g class="st1">
						<path class="st12" d="M12.5,77h-1.9V62.5h1.9v6c0.7-1,1.8-1.4,2.9-1.4c2.3,0,3.4,1.7,3.4,3.8V77H17v-5.8
							c0-1.3-0.6-2.4-2.2-2.4c-1.4,0-2.2,1.1-2.2,2.5V77z"/>
						<path class="st12" d="M24.2,71.5l2.6-0.4c0.6-0.1,0.7-0.4,0.7-0.7c0-0.9-0.6-1.7-2.1-1.7c-1.3,0-2.1,0.8-2.2,1.9l-1.8-0.4
							c0.2-1.8,1.9-3.1,3.9-3.1c2.9,0,4,1.6,4,3.5v4.8c0,0.8,0.1,1.3,0.1,1.6h-1.8c0-0.2-0.1-0.6-0.1-1.3c-0.4,0.7-1.4,1.6-3.1,1.6
							c-2,0-3.2-1.4-3.2-2.9C21.2,72.7,22.5,71.7,24.2,71.5z M27.5,72.9v-0.4l-2.9,0.4c-0.8,0.1-1.4,0.6-1.4,1.4
							c0,0.7,0.6,1.4,1.6,1.4C26.3,75.7,27.5,75,27.5,72.9z"/>
						<path class="st12" d="M32.3,77v-9.6h1.8v1.3c0.6-1.1,1.8-1.6,2.9-1.6c1.2,0,2.4,0.6,2.9,1.8c0.8-1.4,2-1.8,3.2-1.8
							c1.7,0,3.3,1.1,3.3,3.7V77h-1.9v-6c0-1.3-0.6-2.2-2-2.2c-1.3,0-2.2,1-2.2,2.4V77h-1.9v-6c0-1.2-0.6-2.2-2-2.2
							c-1.3,0-2.2,1-2.2,2.4V77H32.3z"/>
						<path class="st12" d="M49.4,77V62.5h1.9v6.2c0.5-0.9,1.6-1.6,3.2-1.6c2.9,0,4.4,2.2,4.4,5c0,2.9-1.6,5.1-4.5,5.1
							c-1.4,0-2.5-0.6-3.1-1.7V77H49.4z M54.1,68.8c-1.7,0-2.9,1.3-2.9,3.4c0,2.1,1.2,3.4,2.9,3.4c1.7,0,2.8-1.4,2.8-3.4
							C57,70.1,55.9,68.8,54.1,68.8z"/>
						<path class="st12" d="M64.7,77.3c-2.2,0-3.6-1.7-3.6-3.9v-6.1H63v5.8c0,1.3,0.6,2.5,2.2,2.5c1.5,0,2.3-1,2.3-2.5v-5.8h1.9v7.8
							c0,0.8,0.1,1.4,0.1,1.8h-1.8c0-0.2-0.1-0.8-0.1-1.2C67,76.8,65.8,77.3,64.7,77.3z"/>
						<path class="st12" d="M77.9,69.3c-0.3,0-0.6-0.1-0.8-0.1c-1.6,0-2.6,0.8-2.6,3V77h-1.9v-9.6h1.8v1.7c0.7-1.5,1.9-1.8,2.9-1.8
							c0.3,0,0.5,0,0.6,0.1V69.3z"/>
						<path class="st12" d="M80.9,77.1c0.1,1.3,1.2,2.4,2.6,2.4c2,0,2.9-1,2.9-3.1V75c-0.5,0.9-1.5,1.6-2.9,1.6
							c-2.6,0-4.4-1.9-4.4-4.7c0-2.6,1.8-4.7,4.4-4.7c1.5,0,2.5,0.6,3,1.5v-1.3h1.9v8.9c0,2.4-1.2,4.8-4.8,4.8
							c-2.4,0-4.2-1.5-4.4-3.6L80.9,77.1z M86.5,71.9c0-1.9-1.1-3.1-2.7-3.1c-1.7,0-2.8,1.2-2.8,3.1c0,1.9,1.1,3.1,2.8,3.1
							C85.4,75,86.5,73.7,86.5,71.9z"/>
						<path class="st12" d="M99.7,74.3c-0.5,1.7-2.1,3-4.3,3c-2.6,0-4.8-1.9-4.8-5.1c0-3,2.2-5.1,4.6-5.1c3,0,4.6,2,4.6,5
							c0,0.2,0,0.5,0,0.6h-7.2c0,1.7,1.3,2.9,2.9,2.9c1.6,0,2.3-0.9,2.7-1.9L99.7,74.3z M97.8,71.2c0-1.4-0.9-2.5-2.6-2.5
							c-1.6,0-2.5,1.2-2.6,2.5H97.8z"/>
						<path class="st12" d="M107.5,69.3c-0.3,0-0.6-0.1-0.8-0.1c-1.6,0-2.6,0.8-2.6,3V77h-1.9v-9.6h1.8v1.7c0.7-1.5,1.9-1.8,2.9-1.8
							c0.3,0,0.5,0,0.6,0.1V69.3z"/>
						<path class="st12" d="M116.8,71.5l2.6-0.4c0.6-0.1,0.7-0.4,0.7-0.7c0-0.9-0.6-1.7-2.1-1.7c-1.3,0-2.1,0.8-2.2,1.9l-1.8-0.4
							c0.2-1.8,1.9-3.1,3.9-3.1c2.9,0,4,1.6,4,3.5v4.8c0,0.8,0.1,1.3,0.1,1.6h-1.8c0-0.2-0.1-0.6-0.1-1.3c-0.4,0.7-1.4,1.6-3.1,1.6
							c-2,0-3.2-1.4-3.2-2.9C113.9,72.7,115.2,71.7,116.8,71.5z M120.2,72.9v-0.4l-2.9,0.4c-0.8,0.1-1.4,0.6-1.4,1.4
							c0,0.7,0.6,1.4,1.6,1.4C118.9,75.7,120.2,75,120.2,72.9z"/>
						<path class="st12" d="M126.8,77H125v-9.6h1.8v1.4c0.7-1.2,1.8-1.7,3-1.7c2.3,0,3.4,1.7,3.4,3.8V77h-1.9v-5.8
							c0-1.3-0.6-2.4-2.2-2.4c-1.5,0-2.2,1.2-2.2,2.6V77z"/>
						<path class="st12" d="M142.9,75.5c-0.5,0.9-1.5,1.7-3,1.7c-2.8,0-4.6-2.2-4.6-5.1c0-2.7,1.8-5,4.6-5c1.7,0,2.6,0.8,2.9,1.6
							v-6.2h1.9v12.7c0,0.9,0.1,1.6,0.1,1.8H143c0-0.2-0.1-0.7-0.1-1.3V75.5z M140.1,75.6c1.7,0,2.8-1.5,2.8-3.5s-1-3.3-2.8-3.3
							c-1.7,0-2.8,1.4-2.8,3.4S138.3,75.6,140.1,75.6z"/>
						<path class="st12" d="M155.5,69.1V77h-1.9v-7.9h-1.8v-1.7h1.8v-1.6c0-2.1,1.4-3.3,3.2-3.3c0.6,0,1,0.1,1.1,0.2v1.7
							c-0.1,0-0.3-0.1-0.8-0.1c-0.7,0-1.5,0.3-1.5,1.6v1.5h2.3v1.7H155.5z"/>
						<path class="st12" d="M161.8,71.5l2.6-0.4c0.6-0.1,0.7-0.4,0.7-0.7c0-0.9-0.6-1.7-2.1-1.7c-1.3,0-2.1,0.8-2.2,1.9l-1.8-0.4
							c0.2-1.8,1.9-3.1,3.9-3.1c2.9,0,4,1.6,4,3.5v4.8c0,0.8,0.1,1.3,0.1,1.6h-1.8c0-0.2-0.1-0.6-0.1-1.3c-0.4,0.7-1.4,1.6-3.1,1.6
							c-2,0-3.2-1.4-3.2-2.9C158.9,72.7,160.2,71.7,161.8,71.5z M165.2,72.9v-0.4l-2.9,0.4c-0.8,0.1-1.4,0.6-1.4,1.4
							c0,0.7,0.6,1.4,1.6,1.4C163.9,75.7,165.2,75,165.2,72.9z"/>
						<path class="st12" d="M170.8,73.9c0.1,1,0.9,1.8,2.2,1.8c1.1,0,1.6-0.6,1.6-1.3c0-0.6-0.4-1.1-1.2-1.2l-1.6-0.4
							c-1.5-0.3-2.4-1.3-2.4-2.7c0-1.6,1.5-3,3.4-3c2.6,0,3.5,1.7,3.7,2.6l-1.7,0.6c-0.1-0.5-0.5-1.6-2-1.6c-1,0-1.6,0.6-1.6,1.3
							c0,0.6,0.4,1,1.1,1.2l1.6,0.3c1.7,0.4,2.7,1.4,2.7,2.9c0,1.4-1.1,3-3.5,3c-2.6,0-3.8-1.7-3.9-2.8L170.8,73.9z"/>
						<path class="st12" d="M181.5,67.4h2.1v1.7h-2.1v5c0,0.9,0.4,1.3,1.3,1.3c0.2,0,0.6,0,0.7-0.1v1.6c-0.2,0.1-0.6,0.2-1.3,0.2
							c-1.6,0-2.7-1-2.7-2.7v-5.3h-1.8v-1.7h0.5c1,0,1.5-0.6,1.5-1.5v-1.6h1.7V67.4z"/>
						<path class="st12" d="M193.6,69.1V77h-1.9v-7.9h-1.8v-1.7h1.8v-1.6c0-2.1,1.4-3.3,3.2-3.3c0.6,0,1,0.1,1.1,0.2v1.7
							c-0.1,0-0.3-0.1-0.8-0.1c-0.7,0-1.5,0.3-1.5,1.6v1.5h2.3v1.7H193.6z"/>
						<path class="st12" d="M206.6,72.2c0,2.9-2,5.1-4.9,5.1c-2.9,0-4.9-2.2-4.9-5.1c0-2.9,2-5.1,4.9-5.1
							C204.6,67.1,206.6,69.3,206.6,72.2z M204.7,72.2c0-2.2-1.4-3.4-3-3.4c-1.6,0-3,1.2-3,3.4c0,2.2,1.4,3.4,3,3.4
							C203.3,75.6,204.7,74.4,204.7,72.2z"/>
						<path class="st12" d="M218.1,72.2c0,2.9-2,5.1-4.9,5.1c-2.9,0-4.9-2.2-4.9-5.1c0-2.9,2-5.1,4.9-5.1
							C216,67.1,218.1,69.3,218.1,72.2z M216.1,72.2c0-2.2-1.4-3.4-3-3.4c-1.6,0-3,1.2-3,3.4c0,2.2,1.4,3.4,3,3.4
							C214.7,75.6,216.1,74.4,216.1,72.2z"/>
						<path class="st12" d="M227.2,75.5c-0.5,0.9-1.5,1.7-3,1.7c-2.8,0-4.6-2.2-4.6-5.1c0-2.7,1.8-5,4.6-5c1.7,0,2.6,0.8,2.9,1.6
							v-6.2h1.9v12.7c0,0.9,0.1,1.6,0.1,1.8h-1.8c0-0.2-0.1-0.7-0.1-1.3V75.5z M224.4,75.6c1.7,0,2.8-1.5,2.8-3.5s-1-3.3-2.8-3.3
							c-1.7,0-2.8,1.4-2.8,3.4S222.6,75.6,224.4,75.6z"/>
					</g>
					<g class="st1">
						<path class="st12" d="M15.9,95.3c-0.3,0-0.6-0.1-0.8-0.1c-1.6,0-2.6,0.8-2.6,3v4.8h-1.9v-9.6h1.8v1.7c0.7-1.5,1.9-1.8,2.9-1.8
							c0.3,0,0.5,0,0.6,0.1V95.3z"/>
						<path class="st12" d="M26.2,100.3c-0.5,1.7-2.1,3-4.3,3c-2.6,0-4.8-1.9-4.8-5.1c0-3,2.2-5.1,4.6-5.1c3,0,4.6,2,4.6,5
							c0,0.2,0,0.5,0,0.6H19c0,1.7,1.3,2.9,2.9,2.9c1.6,0,2.3-0.9,2.7-1.9L26.2,100.3z M24.3,97.2c0-1.4-0.9-2.5-2.6-2.5
							c-1.6,0-2.5,1.2-2.6,2.5H24.3z"/>
						<path class="st12" d="M29.5,99.9c0.1,1,0.9,1.8,2.2,1.8c1.1,0,1.6-0.6,1.6-1.3c0-0.6-0.4-1.1-1.2-1.2l-1.6-0.4
							c-1.5-0.3-2.4-1.3-2.4-2.7c0-1.6,1.5-3,3.4-3c2.6,0,3.5,1.7,3.7,2.6l-1.7,0.6c-0.1-0.5-0.5-1.6-2-1.6c-1,0-1.6,0.6-1.6,1.3
							c0,0.6,0.4,1,1.1,1.2l1.6,0.3c1.7,0.4,2.7,1.4,2.7,2.9c0,1.4-1.1,3-3.5,3c-2.6,0-3.8-1.7-3.9-2.8L29.5,99.9z"/>
						<path class="st12" d="M40.2,93.4h2.1v1.7h-2.1v5c0,0.9,0.4,1.3,1.3,1.3c0.2,0,0.6,0,0.7-0.1v1.6c-0.2,0.1-0.6,0.2-1.3,0.2
							c-1.6,0-2.7-1-2.7-2.7v-5.3h-1.8v-1.7H37c1,0,1.5-0.6,1.5-1.5v-1.6h1.7V93.4z"/>
						<path class="st12" d="M47.1,97.5l2.6-0.4c0.6-0.1,0.7-0.4,0.7-0.7c0-0.9-0.6-1.7-2.1-1.7c-1.3,0-2.1,0.8-2.2,1.9l-1.8-0.4
							c0.2-1.8,1.9-3.1,3.9-3.1c2.9,0,4,1.6,4,3.5v4.8c0,0.8,0.1,1.3,0.1,1.6h-1.8c0-0.2-0.1-0.6-0.1-1.3c-0.4,0.7-1.4,1.6-3.1,1.6
							c-2,0-3.2-1.4-3.2-2.9C44.2,98.7,45.5,97.7,47.1,97.5z M50.5,98.9v-0.4l-2.9,0.4c-0.8,0.1-1.4,0.6-1.4,1.4
							c0,0.7,0.6,1.4,1.6,1.4C49.2,101.7,50.5,101,50.5,98.9z"/>
						<path class="st12" d="M58.6,103.3c-2.2,0-3.6-1.7-3.6-3.9v-6.1h1.9v5.8c0,1.3,0.6,2.5,2.2,2.5c1.5,0,2.3-1,2.3-2.5v-5.8h1.9
							v7.8c0,0.8,0.1,1.4,0.1,1.8h-1.8c0-0.2-0.1-0.8-0.1-1.2C60.9,102.8,59.7,103.3,58.6,103.3z"/>
						<path class="st12" d="M71.7,95.3c-0.3,0-0.6-0.1-0.8-0.1c-1.6,0-2.6,0.8-2.6,3v4.8h-1.9v-9.6h1.8v1.7c0.7-1.5,1.9-1.8,2.9-1.8
							c0.3,0,0.5,0,0.6,0.1V95.3z"/>
						<path class="st12" d="M76.1,97.5l2.6-0.4c0.6-0.1,0.7-0.4,0.7-0.7c0-0.9-0.6-1.7-2.1-1.7c-1.3,0-2.1,0.8-2.2,1.9l-1.8-0.4
							c0.2-1.8,1.9-3.1,3.9-3.1c2.9,0,4,1.6,4,3.5v4.8c0,0.8,0.1,1.3,0.1,1.6h-1.8c0-0.2-0.1-0.6-0.1-1.3c-0.4,0.7-1.4,1.6-3.1,1.6
							c-2,0-3.2-1.4-3.2-2.9C73.1,98.7,74.4,97.7,76.1,97.5z M79.4,98.9v-0.4l-2.9,0.4c-0.8,0.1-1.4,0.6-1.4,1.4
							c0,0.7,0.6,1.4,1.6,1.4C78.2,101.7,79.4,101,79.4,98.9z"/>
						<path class="st12" d="M86.1,103h-1.9v-9.6H86v1.4c0.7-1.2,1.8-1.7,3-1.7c2.3,0,3.4,1.7,3.4,3.8v6.1h-1.9v-5.8
							c0-1.3-0.6-2.4-2.2-2.4c-1.5,0-2.2,1.2-2.2,2.6V103z"/>
						<path class="st12" d="M98,93.4h2.1v1.7H98v5c0,0.9,0.4,1.3,1.3,1.3c0.2,0,0.6,0,0.7-0.1v1.6c-0.2,0.1-0.6,0.2-1.3,0.2
							c-1.6,0-2.7-1-2.7-2.7v-5.3h-1.8v-1.7h0.5c1,0,1.5-0.6,1.5-1.5v-1.6H98V93.4z"/>
						<path class="st12" d="M108.7,98.2c0,2.2,1.4,3.4,2.9,3.4c1.8,0,2.5-1.2,2.7-2l1.7,0.7c-0.5,1.4-1.8,3-4.3,3
							c-2.8,0-4.9-2.2-4.9-5.1c0-3,2.1-5.1,4.8-5.1c2.6,0,3.9,1.6,4.3,3.1l-1.7,0.7c-0.2-0.9-0.9-2-2.6-2
							C110.1,94.8,108.7,95.9,108.7,98.2z"/>
						<path class="st12" d="M120,103h-1.9V88.5h1.9v6c0.7-1,1.8-1.4,2.9-1.4c2.3,0,3.4,1.7,3.4,3.8v6.1h-1.9v-5.8
							c0-1.3-0.6-2.4-2.2-2.4c-1.4,0-2.2,1.1-2.2,2.5V103z"/>
						<path class="st12" d="M131.7,97.5l2.6-0.4c0.6-0.1,0.7-0.4,0.7-0.7c0-0.9-0.6-1.7-2.1-1.7c-1.3,0-2.1,0.8-2.2,1.9l-1.8-0.4
							c0.2-1.8,1.9-3.1,3.9-3.1c2.9,0,4,1.6,4,3.5v4.8c0,0.8,0.1,1.3,0.1,1.6h-1.8c0-0.2-0.1-0.6-0.1-1.3c-0.4,0.7-1.4,1.6-3.1,1.6
							c-2,0-3.2-1.4-3.2-2.9C128.8,98.7,130,97.7,131.7,97.5z M135,98.9v-0.4l-2.9,0.4c-0.8,0.1-1.4,0.6-1.4,1.4
							c0,0.7,0.6,1.4,1.6,1.4C133.8,101.7,135,101,135,98.9z"/>
						<path class="st12" d="M140.8,88.4c0.8,0,1.4,0.6,1.4,1.4c0,0.7-0.6,1.3-1.4,1.3c-0.7,0-1.3-0.6-1.3-1.3
							C139.4,89,140,88.4,140.8,88.4z M139.8,103v-9.6h1.9v9.6H139.8z"/>
						<path class="st12" d="M146.8,103h-1.9v-9.6h1.8v1.4c0.7-1.2,1.8-1.7,3-1.7c2.3,0,3.4,1.7,3.4,3.8v6.1h-1.9v-5.8
							c0-1.3-0.6-2.4-2.2-2.4c-1.5,0-2.2,1.2-2.2,2.6V103z"/>
						<path class="st12" d="M157.3,100.3c0.8,0,1.4,0.6,1.4,1.4s-0.6,1.4-1.4,1.4s-1.4-0.6-1.4-1.4S156.5,100.3,157.3,100.3z"/>
						<path class="st12" d="M166.9,103V88.8h2V103H166.9z"/>
						<path class="st12" d="M174.8,93.4h2.1v1.7h-2.1v5c0,0.9,0.4,1.3,1.3,1.3c0.2,0,0.6,0,0.7-0.1v1.6c-0.2,0.1-0.6,0.2-1.3,0.2
							c-1.6,0-2.7-1-2.7-2.7v-5.3h-1.8v-1.7h0.5c1,0,1.5-0.6,1.5-1.5v-1.6h1.7V93.4z"/>
						<path class="st12" d="M191.8,93.4l2.5,7.2l2.1-7.2h2l-3.1,9.6h-1.9l-2.6-7.3l-2.5,7.3h-2l-3.2-9.6h2.1l2.2,7.2l2.5-7.2H191.8z
							"/>
						<path class="st12" d="M202.5,97.5l2.6-0.4c0.6-0.1,0.7-0.4,0.7-0.7c0-0.9-0.6-1.7-2.1-1.7c-1.3,0-2.1,0.8-2.2,1.9l-1.8-0.4
							c0.2-1.8,1.9-3.1,3.9-3.1c2.9,0,4,1.6,4,3.5v4.8c0,0.8,0.1,1.3,0.1,1.6H206c0-0.2-0.1-0.6-0.1-1.3c-0.4,0.7-1.4,1.6-3.1,1.6
							c-2,0-3.2-1.4-3.2-2.9C199.6,98.7,200.8,97.7,202.5,97.5z M205.8,98.9v-0.4l-2.9,0.4c-0.8,0.1-1.4,0.6-1.4,1.4
							c0,0.7,0.6,1.4,1.6,1.4C204.6,101.7,205.8,101,205.8,98.9z"/>
						<path class="st12" d="M211.4,99.9c0.1,1,0.9,1.8,2.2,1.8c1.1,0,1.6-0.6,1.6-1.3c0-0.6-0.4-1.1-1.2-1.2l-1.6-0.4
							c-1.5-0.3-2.4-1.3-2.4-2.7c0-1.6,1.5-3,3.4-3c2.6,0,3.5,1.7,3.7,2.6l-1.7,0.6c-0.1-0.5-0.5-1.6-2-1.6c-1,0-1.6,0.6-1.6,1.3
							c0,0.6,0.4,1,1.1,1.2l1.6,0.3c1.7,0.4,2.7,1.4,2.7,2.9c0,1.4-1.1,3-3.5,3c-2.6,0-3.8-1.7-3.9-2.8L211.4,99.9z"/>
					</g>
					<g class="st1">
						<path class="st12" d="M13.1,121.1v7.9h-1.9v-7.9H9.4v-1.7h1.8v-1.6c0-2.1,1.4-3.3,3.2-3.3c0.6,0,1,0.1,1.1,0.2v1.7
							c-0.1,0-0.3-0.1-0.8-0.1c-0.7,0-1.5,0.3-1.5,1.6v1.5h2.3v1.7H13.1z"/>
						<path class="st12" d="M26.1,124.2c0,2.9-2,5.1-4.9,5.1c-2.9,0-4.9-2.2-4.9-5.1c0-2.9,2-5.1,4.9-5.1
							C24.1,119.1,26.1,121.3,26.1,124.2z M24.2,124.2c0-2.2-1.4-3.4-3-3.4c-1.6,0-3,1.2-3,3.4c0,2.2,1.4,3.4,3,3.4
							C22.8,127.6,24.2,126.4,24.2,124.2z"/>
						<path class="st12" d="M31.9,129.3c-2.2,0-3.6-1.7-3.6-3.9v-6.1h1.9v5.8c0,1.3,0.6,2.5,2.2,2.5c1.5,0,2.3-1,2.3-2.5v-5.8h1.9
							v7.8c0,0.8,0.1,1.4,0.1,1.8h-1.8c0-0.2-0.1-0.8-0.1-1.2C34.2,128.8,33,129.3,31.9,129.3z"/>
						<path class="st12" d="M41.6,129h-1.9v-9.6h1.8v1.4c0.7-1.2,1.8-1.7,3-1.7c2.3,0,3.4,1.7,3.4,3.8v6.1h-1.9v-5.8
							c0-1.3-0.6-2.4-2.2-2.4c-1.5,0-2.2,1.2-2.2,2.6V129z"/>
						<path class="st12" d="M57.7,127.5c-0.5,0.9-1.5,1.7-3,1.7c-2.8,0-4.6-2.2-4.6-5.1c0-2.7,1.8-5,4.6-5c1.7,0,2.6,0.8,2.9,1.6
							v-6.2h1.9v12.7c0,0.9,0.1,1.6,0.1,1.8h-1.8c0-0.2-0.1-0.7-0.1-1.3V127.5z M54.9,127.6c1.7,0,2.8-1.5,2.8-3.5s-1-3.3-2.8-3.3
							c-1.7,0-2.8,1.4-2.8,3.4S53.1,127.6,54.9,127.6z"/>
						<path class="st12" d="M71.1,126.3c-0.5,1.7-2.1,3-4.3,3c-2.6,0-4.8-1.9-4.8-5.1c0-3,2.2-5.1,4.6-5.1c3,0,4.6,2,4.6,5
							c0,0.2,0,0.5,0,0.6h-7.2c0,1.7,1.3,2.9,2.9,2.9c1.6,0,2.3-0.9,2.7-1.9L71.1,126.3z M69.2,123.2c0-1.4-0.9-2.5-2.6-2.5
							c-1.6,0-2.5,1.2-2.6,2.5H69.2z"/>
						<path class="st12" d="M80.3,127.5c-0.5,0.9-1.5,1.7-3,1.7c-2.8,0-4.6-2.2-4.6-5.1c0-2.7,1.8-5,4.6-5c1.7,0,2.6,0.8,2.9,1.6
							v-6.2h1.9v12.7c0,0.9,0.1,1.6,0.1,1.8h-1.8c0-0.2-0.1-0.7-0.1-1.3V127.5z M77.5,127.6c1.7,0,2.8-1.5,2.8-3.5s-1-3.3-2.8-3.3
							c-1.7,0-2.8,1.4-2.8,3.4S75.7,127.6,77.5,127.6z"/>
						<path class="st12" d="M91.2,114.4c0.8,0,1.4,0.6,1.4,1.4c0,0.7-0.6,1.3-1.4,1.3c-0.7,0-1.3-0.6-1.3-1.3
							C89.9,115,90.5,114.4,91.2,114.4z M90.3,129v-9.6h1.9v9.6H90.3z"/>
						<path class="st12" d="M97.3,129h-1.9v-9.6h1.8v1.4c0.7-1.2,1.8-1.7,3-1.7c2.3,0,3.4,1.7,3.4,3.8v6.1h-1.9v-5.8
							c0-1.3-0.6-2.4-2.2-2.4c-1.5,0-2.2,1.2-2.2,2.6V129z"/>
						<path class="st12" d="M113.7,129v-9.1h-3.1v-1.4c1.8,0,3-1,3.3-2.4h1.7v13H113.7z"/>
						<path class="st12" d="M118.9,126.9c0.6,0.3,1.5,0.6,2.4,0.6c3.1,0,4.4-2.1,4.5-4.6c-0.5,0.9-1.6,1.7-3.4,1.7
							c-2.2,0-4.5-1.5-4.5-4.4c0-2.7,2.2-4.5,4.8-4.5c2.5,0,5,1.8,5,6c0,4.8-2.1,7.6-6.5,7.6c-1,0-2.4-0.3-3-0.8L118.9,126.9z
							 M122.7,117.5c-1.4,0-2.8,1-2.8,2.7c0,1.8,1.3,2.7,2.8,2.7c1.4,0,2.8-1,2.8-2.7C125.5,118.5,124.1,117.5,122.7,117.5z"/>
						<path class="st12" d="M129.4,123.8l5.6-7.8h2.7v8.2h2.2v1.8h-2.2v2.9h-1.9v-2.9h-6.4V123.8z M135.8,117.9l-4.6,6.3h4.6V117.9z
							"/>
						<path class="st12" d="M142.3,117.8c0.8-1.3,2.1-2.1,4-2.1c1.8,0,3.1,0.8,4,2.1c0.9,1.3,1.2,2.9,1.2,4.7s-0.3,3.4-1.2,4.7
							c-0.8,1.3-2.1,2.1-4,2.1c-1.8,0-3.1-0.8-4-2.1c-0.9-1.3-1.2-2.9-1.2-4.7S141.5,119.1,142.3,117.8z M144.3,126.7
							c0.5,0.5,1.1,0.8,2.1,0.8c0.9,0,1.6-0.3,2.1-0.8c0.8-0.8,1.1-2.2,1.1-4.2s-0.4-3.4-1.1-4.2c-0.5-0.5-1.1-0.8-2.1-0.8
							c-0.9,0-1.6,0.3-2.1,0.8c-0.8,0.8-1.1,2.2-1.1,4.2S143.5,125.9,144.3,126.7z"/>
						<path class="st12" d="M161.4,123.5l2.6-0.4c0.6-0.1,0.7-0.4,0.7-0.7c0-0.9-0.6-1.7-2.1-1.7c-1.3,0-2.1,0.8-2.2,1.9l-1.8-0.4
							c0.2-1.8,1.9-3.1,3.9-3.1c2.9,0,4,1.6,4,3.5v4.8c0,0.8,0.1,1.3,0.1,1.6h-1.8c0-0.2-0.1-0.6-0.1-1.3c-0.4,0.7-1.4,1.6-3.1,1.6
							c-2,0-3.2-1.4-3.2-2.9C158.5,124.7,159.7,123.7,161.4,123.5z M164.7,124.9v-0.4l-2.9,0.4c-0.8,0.1-1.4,0.6-1.4,1.4
							c0,0.7,0.6,1.4,1.6,1.4C163.5,127.7,164.7,127,164.7,124.9z"/>
						<path class="st12" d="M170.3,125.9c0.1,1,0.9,1.8,2.2,1.8c1.1,0,1.6-0.6,1.6-1.3c0-0.6-0.4-1.1-1.2-1.2l-1.6-0.4
							c-1.5-0.3-2.4-1.3-2.4-2.7c0-1.6,1.5-3,3.4-3c2.6,0,3.5,1.7,3.7,2.6l-1.7,0.6c-0.1-0.5-0.5-1.6-2-1.6c-1,0-1.6,0.6-1.6,1.3
							c0,0.6,0.4,1,1.1,1.2l1.6,0.3c1.7,0.4,2.7,1.4,2.7,2.9c0,1.4-1.1,3-3.5,3c-2.6,0-3.8-1.7-3.9-2.8L170.3,125.9z"/>
						<path class="st12" d="M185.9,123.5l2.6-0.4c0.6-0.1,0.7-0.4,0.7-0.7c0-0.9-0.6-1.7-2.1-1.7c-1.3,0-2.1,0.8-2.2,1.9l-1.8-0.4
							c0.2-1.8,1.9-3.1,3.9-3.1c2.9,0,4,1.6,4,3.5v4.8c0,0.8,0.1,1.3,0.1,1.6h-1.8c0-0.2-0.1-0.6-0.1-1.3c-0.4,0.7-1.4,1.6-3.1,1.6
							c-2,0-3.2-1.4-3.2-2.9C183,124.7,184.2,123.7,185.9,123.5z M189.2,124.9v-0.4l-2.9,0.4c-0.8,0.1-1.4,0.6-1.4,1.4
							c0,0.7,0.6,1.4,1.6,1.4C188,127.7,189.2,127,189.2,124.9z"/>
						<path class="st12" d="M195.9,129H194v-9.6h1.8v1.4c0.7-1.2,1.8-1.7,3-1.7c2.3,0,3.4,1.7,3.4,3.8v6.1h-1.9v-5.8
							c0-1.3-0.6-2.4-2.2-2.4c-1.5,0-2.2,1.2-2.2,2.6V129z"/>
					</g>
					<g class="st1">
						<path class="st12" d="M10.6,155v-14.5h1.9v6.2c0.5-0.9,1.6-1.6,3.2-1.6c2.9,0,4.4,2.2,4.4,5c0,2.9-1.6,5.1-4.5,5.1
							c-1.4,0-2.5-0.6-3.1-1.7v1.4H10.6z M15.3,146.8c-1.7,0-2.9,1.3-2.9,3.4c0,2.1,1.2,3.4,2.9,3.4c1.7,0,2.8-1.4,2.8-3.4
							C18.1,148.1,17,146.8,15.3,146.8z"/>
						<path class="st12" d="M24.8,149.5l2.6-0.4c0.6-0.1,0.7-0.4,0.7-0.7c0-0.9-0.6-1.7-2.1-1.7c-1.3,0-2.1,0.8-2.2,1.9l-1.8-0.4
							c0.2-1.8,1.9-3.1,3.9-3.1c2.9,0,4,1.6,4,3.5v4.8c0,0.8,0.1,1.3,0.1,1.6h-1.8c0-0.2-0.1-0.6-0.1-1.3c-0.4,0.7-1.4,1.6-3.1,1.6
							c-2,0-3.2-1.4-3.2-2.9C21.9,150.7,23.1,149.7,24.8,149.5z M28.1,150.9v-0.4l-2.9,0.4c-0.8,0.1-1.4,0.6-1.4,1.4
							c0,0.7,0.6,1.4,1.6,1.4C26.9,153.7,28.1,153,28.1,150.9z"/>
						<path class="st12" d="M38.3,147.3c-0.3,0-0.6-0.1-0.8-0.1c-1.6,0-2.6,0.8-2.6,3v4.8h-1.9v-9.6h1.8v1.7
							c0.7-1.5,1.9-1.8,2.9-1.8c0.3,0,0.5,0,0.6,0.1V147.3z"/>
						<path class="st12" d="M40.3,155v-14.5h1.9v6.2c0.5-0.9,1.6-1.6,3.2-1.6c2.9,0,4.4,2.2,4.4,5c0,2.9-1.6,5.1-4.5,5.1
							c-1.4,0-2.5-0.6-3.1-1.7v1.4H40.3z M45,146.8c-1.7,0-2.9,1.3-2.9,3.4c0,2.1,1.2,3.4,2.9,3.4c1.7,0,2.8-1.4,2.8-3.4
							C47.8,148.1,46.7,146.8,45,146.8z"/>
						<path class="st12" d="M60.5,152.3c-0.5,1.7-2.1,3-4.3,3c-2.6,0-4.8-1.9-4.8-5.1c0-3,2.2-5.1,4.6-5.1c3,0,4.6,2,4.6,5
							c0,0.2,0,0.5,0,0.6h-7.2c0,1.7,1.3,2.9,2.9,2.9c1.6,0,2.3-0.9,2.7-1.9L60.5,152.3z M58.6,149.2c0-1.4-0.9-2.5-2.6-2.5
							c-1.6,0-2.5,1.2-2.6,2.5H58.6z"/>
						<path class="st12" d="M64.1,150.2c0,2.2,1.4,3.4,2.9,3.4c1.8,0,2.5-1.2,2.7-2l1.7,0.7c-0.5,1.4-1.8,3-4.3,3
							c-2.8,0-4.9-2.2-4.9-5.1c0-3,2.1-5.1,4.8-5.1c2.6,0,3.9,1.6,4.3,3.1l-1.7,0.7c-0.2-0.9-0.9-2-2.6-2
							C65.5,146.8,64.1,147.9,64.1,150.2z"/>
						<path class="st12" d="M77,155.3c-2.2,0-3.6-1.7-3.6-3.9v-6.1h1.9v5.8c0,1.3,0.6,2.5,2.2,2.5c1.5,0,2.3-1,2.3-2.5v-5.8h1.9v7.8
							c0,0.8,0.1,1.4,0.1,1.8h-1.8c0-0.2-0.1-0.8-0.1-1.2C79.3,154.8,78.1,155.3,77,155.3z"/>
						<path class="st12" d="M93.1,152.3c-0.5,1.7-2.1,3-4.3,3c-2.6,0-4.8-1.9-4.8-5.1c0-3,2.2-5.1,4.6-5.1c3,0,4.6,2,4.6,5
							c0,0.2,0,0.5,0,0.6h-7.2c0,1.7,1.3,2.9,2.9,2.9c1.6,0,2.3-0.9,2.7-1.9L93.1,152.3z M91.2,149.2c0-1.4-0.9-2.5-2.6-2.5
							c-1.6,0-2.5,1.2-2.6,2.5H91.2z"/>
						<path class="st12" d="M105.9,147.3c-0.3,0-0.6-0.1-0.8-0.1c-1.6,0-2.6,0.8-2.6,3v4.8h-1.9v-9.6h1.8v1.7
							c0.7-1.5,1.9-1.8,2.9-1.8c0.3,0,0.5,0,0.6,0.1V147.3z"/>
						<path class="st12" d="M116.1,152.3c-0.5,1.7-2.1,3-4.3,3c-2.6,0-4.8-1.9-4.8-5.1c0-3,2.2-5.1,4.6-5.1c3,0,4.6,2,4.6,5
							c0,0.2,0,0.5,0,0.6h-7.2c0,1.7,1.3,2.9,2.9,2.9c1.6,0,2.3-0.9,2.7-1.9L116.1,152.3z M114.2,149.2c0-1.4-0.9-2.5-2.6-2.5
							c-1.6,0-2.5,1.2-2.6,2.5H114.2z"/>
						<path class="st12" d="M119.4,151.9c0.1,1,0.9,1.8,2.2,1.8c1.1,0,1.6-0.6,1.6-1.3c0-0.6-0.4-1.1-1.2-1.2l-1.6-0.4
							c-1.5-0.3-2.4-1.3-2.4-2.7c0-1.6,1.5-3,3.4-3c2.6,0,3.5,1.7,3.7,2.6l-1.7,0.6c-0.1-0.5-0.5-1.6-2-1.6c-1,0-1.6,0.6-1.6,1.3
							c0,0.6,0.4,1,1.1,1.2l1.6,0.3c1.7,0.4,2.7,1.4,2.7,2.9c0,1.4-1.1,3-3.5,3c-2.6,0-3.8-1.7-3.9-2.8L119.4,151.9z"/>
						<path class="st12" d="M130.2,145.4h2.1v1.7h-2.1v5c0,0.9,0.4,1.3,1.3,1.3c0.2,0,0.6,0,0.7-0.1v1.6c-0.2,0.1-0.6,0.2-1.3,0.2
							c-1.6,0-2.7-1-2.7-2.7v-5.3h-1.8v-1.7h0.5c1,0,1.5-0.6,1.5-1.5v-1.6h1.7V145.4z"/>
						<path class="st12" d="M137.1,149.5l2.6-0.4c0.6-0.1,0.7-0.4,0.7-0.7c0-0.9-0.6-1.7-2.1-1.7c-1.3,0-2.1,0.8-2.2,1.9l-1.8-0.4
							c0.2-1.8,1.9-3.1,3.9-3.1c2.9,0,4,1.6,4,3.5v4.8c0,0.8,0.1,1.3,0.1,1.6h-1.8c0-0.2-0.1-0.6-0.1-1.3c-0.4,0.7-1.4,1.6-3.1,1.6
							c-2,0-3.2-1.4-3.2-2.9C134.1,150.7,135.4,149.7,137.1,149.5z M140.4,150.9v-0.4l-2.9,0.4c-0.8,0.1-1.4,0.6-1.4,1.4
							c0,0.7,0.6,1.4,1.6,1.4C139.2,153.7,140.4,153,140.4,150.9z"/>
						<path class="st12" d="M148.5,155.3c-2.2,0-3.6-1.7-3.6-3.9v-6.1h1.9v5.8c0,1.3,0.6,2.5,2.2,2.5c1.5,0,2.3-1,2.3-2.5v-5.8h1.9
							v7.8c0,0.8,0.1,1.4,0.1,1.8h-1.8c0-0.2-0.1-0.8-0.1-1.2C150.8,154.8,149.6,155.3,148.5,155.3z"/>
						<path class="st12" d="M161.7,147.3c-0.3,0-0.6-0.1-0.8-0.1c-1.6,0-2.6,0.8-2.6,3v4.8h-1.9v-9.6h1.8v1.7
							c0.7-1.5,1.9-1.8,2.9-1.8c0.3,0,0.5,0,0.6,0.1V147.3z"/>
						<path class="st12" d="M166,149.5l2.6-0.4c0.6-0.1,0.7-0.4,0.7-0.7c0-0.9-0.6-1.7-2.1-1.7c-1.3,0-2.1,0.8-2.2,1.9l-1.8-0.4
							c0.2-1.8,1.9-3.1,3.9-3.1c2.9,0,4,1.6,4,3.5v4.8c0,0.8,0.1,1.3,0.1,1.6h-1.8c0-0.2-0.1-0.6-0.1-1.3c-0.4,0.7-1.4,1.6-3.1,1.6
							c-2,0-3.2-1.4-3.2-2.9C163.1,150.7,164.3,149.7,166,149.5z M169.3,150.9v-0.4l-2.9,0.4c-0.8,0.1-1.4,0.6-1.4,1.4
							c0,0.7,0.6,1.4,1.6,1.4C168.1,153.7,169.3,153,169.3,150.9z"/>
						<path class="st12" d="M176,155h-1.9v-9.6h1.8v1.4c0.7-1.2,1.8-1.7,3-1.7c2.3,0,3.4,1.7,3.4,3.8v6.1h-1.9v-5.8
							c0-1.3-0.6-2.4-2.2-2.4c-1.5,0-2.2,1.2-2.2,2.6V155z"/>
						<path class="st12" d="M187.9,145.4h2.1v1.7h-2.1v5c0,0.9,0.4,1.3,1.3,1.3c0.2,0,0.6,0,0.7-0.1v1.6c-0.2,0.1-0.6,0.2-1.3,0.2
							c-1.6,0-2.7-1-2.7-2.7v-5.3h-1.8v-1.7h0.5c1,0,1.5-0.6,1.5-1.5v-1.6h1.7V145.4z"/>
						<path class="st12" d="M206.5,150.2c0,2.9-2,5.1-4.9,5.1c-2.9,0-4.9-2.2-4.9-5.1c0-2.9,2-5.1,4.9-5.1
							C204.5,145.1,206.5,147.3,206.5,150.2z M204.6,150.2c0-2.2-1.4-3.4-3-3.4c-1.6,0-3,1.2-3,3.4c0,2.2,1.4,3.4,3,3.4
							C203.2,153.6,204.6,152.4,204.6,150.2z"/>
						<path class="st12" d="M208.9,158.8v-13.4h1.8v1.5c0.5-1,1.7-1.7,3.2-1.7c2.9,0,4.4,2.2,4.4,5c0,2.9-1.7,5.1-4.5,5.1
							c-1.5,0-2.6-0.7-3.1-1.6v5.1H208.9z M213.6,146.8c-1.7,0-2.9,1.4-2.9,3.4c0,2,1.1,3.4,2.9,3.4c1.7,0,2.8-1.4,2.8-3.4
							C216.4,148.3,215.4,146.8,213.6,146.8z"/>
						<path class="st12" d="M229.1,152.3c-0.5,1.7-2.1,3-4.3,3c-2.6,0-4.8-1.9-4.8-5.1c0-3,2.2-5.1,4.6-5.1c3,0,4.6,2,4.6,5
							c0,0.2,0,0.5,0,0.6h-7.2c0,1.7,1.3,2.9,2.9,2.9c1.6,0,2.3-0.9,2.7-1.9L229.1,152.3z M227.2,149.2c0-1.4-0.9-2.5-2.6-2.5
							c-1.6,0-2.5,1.2-2.6,2.5H227.2z"/>
						<path class="st12" d="M236.9,147.3c-0.3,0-0.6-0.1-0.8-0.1c-1.6,0-2.6,0.8-2.6,3v4.8h-1.9v-9.6h1.8v1.7
							c0.7-1.5,1.9-1.8,2.9-1.8c0.3,0,0.5,0,0.6,0.1V147.3z"/>
						<path class="st12" d="M241.3,149.5l2.6-0.4c0.6-0.1,0.7-0.4,0.7-0.7c0-0.9-0.6-1.7-2.1-1.7c-1.3,0-2.1,0.8-2.2,1.9l-1.8-0.4
							c0.2-1.8,1.9-3.1,3.9-3.1c2.9,0,4,1.6,4,3.5v4.8c0,0.8,0.1,1.3,0.1,1.6h-1.8c0-0.2-0.1-0.6-0.1-1.3c-0.4,0.7-1.4,1.6-3.1,1.6
							c-2,0-3.2-1.4-3.2-2.9C238.3,150.7,239.6,149.7,241.3,149.5z M244.6,150.9v-0.4l-2.9,0.4c-0.8,0.1-1.4,0.6-1.4,1.4
							c0,0.7,0.6,1.4,1.6,1.4C243.4,153.7,244.6,153,244.6,150.9z"/>
						<path class="st12" d="M251.9,145.4h2.1v1.7h-2.1v5c0,0.9,0.4,1.3,1.3,1.3c0.2,0,0.6,0,0.7-0.1v1.6c-0.2,0.1-0.6,0.2-1.3,0.2
							c-1.6,0-2.7-1-2.7-2.7v-5.3h-1.8v-1.7h0.5c1,0,1.5-0.6,1.5-1.5v-1.6h1.7V145.4z"/>
						<path class="st12" d="M264.8,152.3c-0.5,1.7-2.1,3-4.3,3c-2.6,0-4.8-1.9-4.8-5.1c0-3,2.2-5.1,4.6-5.1c3,0,4.6,2,4.6,5
							c0,0.2,0,0.5,0,0.6h-7.2c0,1.7,1.3,2.9,2.9,2.9c1.6,0,2.3-0.9,2.7-1.9L264.8,152.3z M262.9,149.2c0-1.4-0.9-2.5-2.6-2.5
							c-1.6,0-2.5,1.2-2.6,2.5H262.9z"/>
						<path class="st12" d="M274,153.5c-0.5,0.9-1.5,1.7-3,1.7c-2.8,0-4.6-2.2-4.6-5.1c0-2.7,1.8-5,4.6-5c1.7,0,2.6,0.8,2.9,1.6
							v-6.2h1.9v12.7c0,0.9,0.1,1.6,0.1,1.8h-1.8c0-0.2-0.1-0.7-0.1-1.3V153.5z M271.2,153.6c1.7,0,2.8-1.5,2.8-3.5s-1-3.3-2.8-3.3
							c-1.7,0-2.8,1.4-2.8,3.4S269.4,153.6,271.2,153.6z"/>
					</g>
					<path id="Rectangle-3_3_" class="st0" d="M4,179h292c2.2,0,4-1.8,4-4v-31c0-2.2-1.8-4-4-4H4c-2.2,0-4,1.8-4,4v31
						C0,177.2,1.8,179,4,179z"/>
				</g>
				<g id="Group-3" transform="translate(400.000000, 440.000000)">
					<g class="st1">
						<path class="st2" d="M12.4,4.1h1.4L11,14H9.6L7,5.9L4.5,14H3.1L0.2,4.1h1.4l2.2,7.8l2.5-7.8h1.4l2.5,7.9L12.4,4.1z"/>
						<path class="st2" d="M20.6,12.1c-0.4,1.2-1.5,2.1-3,2.1c-1.8,0-3.4-1.3-3.4-3.6c0-2.1,1.5-3.6,3.2-3.6c2.1,0,3.2,1.4,3.2,3.5
							c0,0.2,0,0.3,0,0.4h-5.1c0,1.2,0.9,2,2,2c1.1,0,1.6-0.6,1.9-1.4L20.6,12.1z M19.2,9.9c0-1-0.7-1.7-1.8-1.7
							c-1.1,0-1.8,0.9-1.8,1.7H19.2z"/>
						<path class="st2" d="M22.3,14V3.9h1.3v4.4c0.3-0.6,1.1-1.1,2.2-1.1c2,0,3.1,1.6,3.1,3.5c0,2-1.1,3.6-3.1,3.6
							c-1,0-1.8-0.4-2.2-1.2v1H22.3z M25.6,8.2c-1.2,0-2,0.9-2,2.4c0,1.5,0.8,2.4,2,2.4c1.2,0,2-1,2-2.4C27.6,9.1,26.8,8.2,25.6,8.2
							z"/>
						<path class="st2" d="M31.1,11.8c0.1,0.7,0.6,1.3,1.6,1.3c0.7,0,1.1-0.4,1.1-0.9c0-0.4-0.3-0.7-0.9-0.9l-1.1-0.3
							c-1.1-0.2-1.7-0.9-1.7-1.9c0-1.1,1.1-2.1,2.4-2.1c1.8,0,2.4,1.2,2.6,1.8L34,9.3c-0.1-0.3-0.3-1.1-1.4-1.1
							c-0.7,0-1.1,0.4-1.1,0.9c0,0.4,0.3,0.7,0.8,0.8l1.1,0.2c1.2,0.3,1.9,1,1.9,2c0,1-0.8,2.1-2.5,2.1c-1.8,0-2.6-1.2-2.7-2
							L31.1,11.8z"/>
						<path class="st2" d="M37.5,3.8c0.5,0,1,0.4,1,1c0,0.5-0.4,0.9-1,0.9c-0.5,0-0.9-0.4-0.9-0.9C36.6,4.2,37,3.8,37.5,3.8z
							 M36.9,14V7.3h1.3V14H36.9z"/>
						<path class="st2" d="M42.2,7.3h1.5v1.2h-1.5V12c0,0.6,0.3,0.9,0.9,0.9c0.2,0,0.4,0,0.5-0.1v1.1c-0.1,0-0.4,0.1-0.9,0.1
							c-1.1,0-1.9-0.7-1.9-1.9V8.5h-1.3V7.3H40c0.7,0,1-0.4,1-1V5.1h1.2V7.3z"/>
						<path class="st2" d="M51.2,12.1c-0.4,1.2-1.5,2.1-3,2.1c-1.8,0-3.4-1.3-3.4-3.6c0-2.1,1.5-3.6,3.2-3.6c2.1,0,3.2,1.4,3.2,3.5
							c0,0.2,0,0.3,0,0.4h-5.1c0,1.2,0.9,2,2,2c1.1,0,1.6-0.6,1.9-1.4L51.2,12.1z M49.9,9.9c0-1-0.7-1.7-1.8-1.7
							c-1.1,0-1.8,0.9-1.8,1.7H49.9z"/>
					</g>
					<path id="Rectangle-3_4_" class="st10" d="M4,26h292c2.2,0,4,1.8,4,4v28c0,2.2-1.8,4-4,4H4c-2.2,0-4-1.8-4-4V30
						C0,27.8,1.8,26,4,26z"/>
					<g class="st1">
						<path class="st12" d="M11.5,54H9.6V39.5h1.9v6c0.7-1,1.8-1.4,2.9-1.4c2.3,0,3.4,1.7,3.4,3.8V54H16v-5.8c0-1.3-0.6-2.4-2.2-2.4
							c-1.4,0-2.2,1.1-2.2,2.5V54z"/>
						<path class="st12" d="M23.4,44.4h2.1v1.7h-2.1v5c0,0.9,0.4,1.3,1.3,1.3c0.2,0,0.6,0,0.7-0.1v1.6c-0.2,0.1-0.6,0.2-1.3,0.2
							c-1.6,0-2.7-1-2.7-2.7v-5.3h-1.8v-1.7h0.5c1,0,1.5-0.6,1.5-1.5v-1.6h1.7V44.4z"/>
						<path class="st12" d="M30.5,44.4h2.1v1.7h-2.1v5c0,0.9,0.4,1.3,1.3,1.3c0.2,0,0.6,0,0.7-0.1v1.6c-0.2,0.1-0.6,0.2-1.3,0.2
							c-1.6,0-2.7-1-2.7-2.7v-5.3h-1.8v-1.7h0.5c1,0,1.5-0.6,1.5-1.5v-1.6h1.7V44.4z"/>
						<path class="st12" d="M34.8,57.8V44.4h1.8v1.5c0.5-1,1.7-1.7,3.2-1.7c2.9,0,4.4,2.2,4.4,5c0,2.9-1.7,5.1-4.5,5.1
							c-1.5,0-2.6-0.7-3.1-1.6v5.1H34.8z M39.5,45.8c-1.7,0-2.9,1.4-2.9,3.4c0,2,1.1,3.4,2.9,3.4c1.7,0,2.8-1.4,2.8-3.4
							C42.4,47.3,41.3,45.8,39.5,45.8z"/>
						<path class="st12" d="M47.9,44.3c0.8,0,1.4,0.6,1.4,1.4c0,0.8-0.6,1.4-1.4,1.4c-0.8,0-1.4-0.6-1.4-1.4
							C46.5,44.9,47.1,44.3,47.9,44.3z M47.9,51.3c0.8,0,1.4,0.6,1.4,1.4s-0.6,1.4-1.4,1.4c-0.8,0-1.4-0.6-1.4-1.4
							S47.1,51.3,47.9,51.3z"/>
						<path class="st12" d="M52.6,54h-1.8l6.9-14.2h1.8L52.6,54z"/>
						<path class="st12" d="M58.5,54h-1.8l6.9-14.2h1.8L58.5,54z"/>
						<path class="st12" d="M73.9,44.4l2.5,7.2l2.1-7.2h2L77.4,54h-1.9l-2.6-7.3L70.4,54h-2l-3.2-9.6h2.1l2.2,7.2l2.5-7.2H73.9z"/>
						<path class="st12" d="M89.8,44.4l2.5,7.2l2.1-7.2h2L93.3,54h-1.9l-2.6-7.3L86.3,54h-2l-3.2-9.6h2.1l2.2,7.2l2.5-7.2H89.8z"/>
						<path class="st12" d="M105.6,44.4l2.5,7.2l2.1-7.2h2l-3.1,9.6h-1.9l-2.6-7.3l-2.5,7.3h-2L97,44.4H99l2.2,7.2l2.5-7.2H105.6z"
							/>
						<path class="st12" d="M114.5,51.3c0.8,0,1.4,0.6,1.4,1.4s-0.6,1.4-1.4,1.4s-1.4-0.6-1.4-1.4S113.7,51.3,114.5,51.3z"/>
						<path class="st12" d="M118.9,54v-9.6h1.8v1.3c0.6-1.1,1.8-1.6,2.9-1.6c1.2,0,2.4,0.6,2.9,1.8c0.8-1.4,2-1.8,3.2-1.8
							c1.7,0,3.3,1.1,3.3,3.7V54h-1.9v-6c0-1.3-0.6-2.2-2-2.2c-1.3,0-2.2,1-2.2,2.4V54h-1.9v-6c0-1.2-0.6-2.2-2-2.2
							c-1.3,0-2.2,1-2.2,2.4V54H118.9z"/>
						<path class="st12" d="M137.2,49.2c0,2.2,1.4,3.4,2.9,3.4c1.8,0,2.5-1.2,2.7-2l1.7,0.7c-0.5,1.4-1.8,3-4.3,3
							c-2.8,0-4.9-2.2-4.9-5.1c0-3,2.1-5.1,4.8-5.1c2.6,0,3.9,1.6,4.3,3.1l-1.7,0.7c-0.2-0.9-0.9-2-2.6-2
							C138.6,45.8,137.2,46.9,137.2,49.2z"/>
						<path class="st12" d="M153.3,52.5c-0.5,0.9-1.5,1.7-3,1.7c-2.8,0-4.6-2.2-4.6-5.1c0-2.7,1.8-5,4.6-5c1.7,0,2.6,0.8,2.9,1.6
							v-6.2h1.9v12.7c0,0.9,0.1,1.6,0.1,1.8h-1.8c0-0.2-0.1-0.7-0.1-1.3V52.5z M150.5,52.6c1.7,0,2.8-1.5,2.8-3.5s-1-3.3-2.8-3.3
							c-1.7,0-2.8,1.4-2.8,3.4S148.7,52.6,150.5,52.6z"/>
						<path class="st12" d="M167.4,49.2c0,2.9-2,5.1-4.9,5.1c-2.9,0-4.9-2.2-4.9-5.1c0-2.9,2-5.1,4.9-5.1
							C165.3,44.1,167.4,46.3,167.4,49.2z M165.4,49.2c0-2.2-1.4-3.4-3-3.4c-1.6,0-3,1.2-3,3.4c0,2.2,1.4,3.4,3,3.4
							C164,52.6,165.4,51.4,165.4,49.2z"/>
						<path class="st12" d="M171.6,54h-1.9v-9.6h1.8v1.4c0.7-1.2,1.8-1.7,3-1.7c2.3,0,3.4,1.7,3.4,3.8V54h-1.9v-5.8
							c0-1.3-0.6-2.4-2.2-2.4c-1.5,0-2.2,1.2-2.2,2.6V54z"/>
						<path class="st12" d="M183.3,48.5l2.6-0.4c0.6-0.1,0.7-0.4,0.7-0.7c0-0.9-0.6-1.7-2.1-1.7c-1.3,0-2.1,0.8-2.2,1.9l-1.8-0.4
							c0.2-1.8,1.9-3.1,3.9-3.1c2.9,0,4,1.6,4,3.5v4.8c0,0.8,0.1,1.3,0.1,1.6h-1.8c0-0.2-0.1-0.6-0.1-1.3c-0.4,0.7-1.4,1.6-3.1,1.6
							c-2,0-3.2-1.4-3.2-2.9C180.4,49.7,181.7,48.7,183.3,48.5z M186.7,49.9v-0.4l-2.9,0.4c-0.8,0.1-1.4,0.6-1.4,1.4
							c0,0.7,0.6,1.4,1.6,1.4C185.4,52.7,186.7,52,186.7,49.9z"/>
						<path class="st12" d="M191.5,54V39.5h1.9V54H191.5z"/>
						<path class="st12" d="M203.3,52.5c-0.5,0.9-1.5,1.7-3,1.7c-2.8,0-4.6-2.2-4.6-5.1c0-2.7,1.8-5,4.6-5c1.7,0,2.6,0.8,2.9,1.6
							v-6.2h1.9v12.7c0,0.9,0.1,1.6,0.1,1.8h-1.8c0-0.2-0.1-0.7-0.1-1.3V52.5z M200.5,52.6c1.7,0,2.8-1.5,2.8-3.5s-1-3.3-2.8-3.3
							c-1.7,0-2.8,1.4-2.8,3.4S198.7,52.6,200.5,52.6z"/>
						<path class="st12" d="M209.1,50.9c0.1,1,0.9,1.8,2.2,1.8c1.1,0,1.6-0.6,1.6-1.3c0-0.6-0.4-1.1-1.2-1.2l-1.6-0.4
							c-1.5-0.3-2.4-1.3-2.4-2.7c0-1.6,1.5-3,3.4-3c2.6,0,3.5,1.7,3.7,2.6l-1.7,0.6c-0.1-0.5-0.5-1.6-2-1.6c-1,0-1.6,0.6-1.6,1.3
							c0,0.6,0.4,1,1.1,1.2l1.6,0.3c1.7,0.4,2.7,1.4,2.7,2.9c0,1.4-1.1,3-3.5,3c-2.6,0-3.8-1.7-3.9-2.8L209.1,50.9z"/>
						<path class="st12" d="M218.5,51.3c0.8,0,1.4,0.6,1.4,1.4s-0.6,1.4-1.4,1.4s-1.4-0.6-1.4-1.4S217.7,51.3,218.5,51.3z"/>
						<path class="st12" d="M223.7,49.2c0,2.2,1.4,3.4,2.9,3.4c1.8,0,2.5-1.2,2.7-2l1.7,0.7c-0.5,1.4-1.8,3-4.3,3
							c-2.8,0-4.9-2.2-4.9-5.1c0-3,2.1-5.1,4.8-5.1c2.6,0,3.9,1.6,4.3,3.1l-1.7,0.7c-0.2-0.9-0.9-2-2.6-2
							C225.1,45.8,223.7,46.9,223.7,49.2z"/>
						<path class="st12" d="M242.2,49.2c0,2.9-2,5.1-4.9,5.1c-2.9,0-4.9-2.2-4.9-5.1c0-2.9,2-5.1,4.9-5.1
							C240.1,44.1,242.2,46.3,242.2,49.2z M240.2,49.2c0-2.2-1.4-3.4-3-3.4c-1.6,0-3,1.2-3,3.4c0,2.2,1.4,3.4,3,3.4
							C238.8,52.6,240.2,51.4,240.2,49.2z"/>
						<path class="st12" d="M244.6,54v-9.6h1.8v1.3c0.6-1.1,1.8-1.6,2.9-1.6c1.2,0,2.4,0.6,2.9,1.8c0.8-1.4,2-1.8,3.2-1.8
							c1.7,0,3.3,1.1,3.3,3.7V54h-1.9v-6c0-1.3-0.6-2.2-2-2.2c-1.3,0-2.2,1-2.2,2.4V54h-1.9v-6c0-1.2-0.6-2.2-2-2.2
							c-1.3,0-2.2,1-2.2,2.4V54H244.6z"/>
					</g>
				</g>
				<g id="Group-2" transform="translate(400.000000, 362.000000)">
					<g class="st1">
						<path class="st2" d="M8,14L2.6,5.9V14H1.3V4.1h1.8l5,7.6V4.1h1.4V14H8z"/>
						<path class="st2" d="M18.1,10.6c0,2.1-1.4,3.6-3.4,3.6c-2,0-3.4-1.5-3.4-3.6c0-2,1.4-3.6,3.4-3.6C16.7,7.1,18.1,8.6,18.1,10.6
							z M16.8,10.6c0-1.6-1-2.4-2.1-2.4c-1.1,0-2.1,0.8-2.1,2.4c0,1.6,1,2.4,2.1,2.4C15.8,13,16.8,12.2,16.8,10.6z"/>
						<path class="st2" d="M20.4,12.1c0.5,0,1,0.4,1,1s-0.4,1-1,1s-1-0.4-1-1S19.9,12.1,20.4,12.1z"/>
						<path class="st2" d="M33.3,10.6c0,2.1-1.4,3.6-3.4,3.6c-2,0-3.4-1.5-3.4-3.6c0-2,1.4-3.6,3.4-3.6C31.9,7.1,33.3,8.6,33.3,10.6
							z M32,10.6c0-1.6-1-2.4-2.1-2.4c-1.1,0-2.1,0.8-2.1,2.4c0,1.6,1,2.4,2.1,2.4C31,13,32,12.2,32,10.6z"/>
						<path class="st2" d="M36.8,8.5V14h-1.4V8.5h-1.2V7.3h1.2V6.1c0-1.5,1-2.3,2.2-2.3c0.4,0,0.7,0.1,0.8,0.1v1.2
							c-0.1,0-0.2-0.1-0.6-0.1c-0.5,0-1.1,0.2-1.1,1.1v1.1h1.6v1.2H36.8z"/>
						<path class="st2" d="M43.5,14V4.1h6v1.3h-4.7v3.1h4.2v1.3h-4.2v3h4.7V14H43.5z"/>
						<path class="st2" d="M51.2,14V7.3h1.3v0.9c0.4-0.7,1.3-1.1,2-1.1c0.8,0,1.7,0.4,2,1.3c0.5-1,1.4-1.3,2.3-1.3
							c1.2,0,2.3,0.8,2.3,2.6V14h-1.3V9.8c0-0.9-0.4-1.5-1.4-1.5c-0.9,0-1.6,0.7-1.6,1.7V14h-1.3V9.8c0-0.9-0.4-1.5-1.4-1.5
							c-0.9,0-1.6,0.7-1.6,1.7V14H51.2z"/>
						<path class="st2" d="M63.2,16.7V7.3h1.3v1c0.4-0.7,1.2-1.2,2.3-1.2c2,0,3.1,1.6,3.1,3.5c0,2-1.2,3.6-3.1,3.6
							c-1,0-1.8-0.5-2.2-1.1v3.6H63.2z M66.5,8.3c-1.2,0-2,1-2,2.4c0,1.4,0.8,2.4,2,2.4c1.2,0,2-1,2-2.4C68.5,9.3,67.8,8.3,66.5,8.3
							z"/>
						<path class="st2" d="M71.5,14V3.9h1.3V14H71.5z"/>
						<path class="st2" d="M81.4,10.6c0,2.1-1.4,3.6-3.4,3.6c-2,0-3.4-1.5-3.4-3.6c0-2,1.4-3.6,3.4-3.6C80,7.1,81.4,8.6,81.4,10.6z
							 M80.1,10.6c0-1.6-1-2.4-2.1-2.4c-1.1,0-2.1,0.8-2.1,2.4c0,1.6,1,2.4,2.1,2.4C79.1,13,80.1,12.2,80.1,10.6z"/>
						<path class="st2" d="M83.1,16.8l1.7-3.6l-2.9-6h1.5l2.1,4.7l2-4.7h1.4l-4.4,9.6H83.1z"/>
						<path class="st2" d="M95.7,12.1c-0.4,1.2-1.5,2.1-3,2.1c-1.8,0-3.4-1.3-3.4-3.6c0-2.1,1.5-3.6,3.2-3.6c2.1,0,3.2,1.4,3.2,3.5
							c0,0.2,0,0.3,0,0.4h-5.1c0,1.2,0.9,2,2,2c1.1,0,1.6-0.6,1.9-1.4L95.7,12.1z M94.4,9.9c0-1-0.7-1.7-1.8-1.7
							c-1.1,0-1.8,0.9-1.8,1.7H94.4z"/>
						<path class="st2" d="M103.3,12.1c-0.4,1.2-1.5,2.1-3,2.1c-1.8,0-3.4-1.3-3.4-3.6c0-2.1,1.5-3.6,3.2-3.6c2.1,0,3.2,1.4,3.2,3.5
							c0,0.2,0,0.3,0,0.4h-5.1c0,1.2,0.9,2,2,2c1.1,0,1.6-0.6,1.9-1.4L103.3,12.1z M102,9.9c0-1-0.7-1.7-1.8-1.7
							c-1.1,0-1.8,0.9-1.8,1.7H102z"/>
						<path class="st2" d="M105.6,11.8c0.1,0.7,0.6,1.3,1.6,1.3c0.7,0,1.1-0.4,1.1-0.9c0-0.4-0.3-0.7-0.9-0.9l-1.1-0.3
							c-1-0.2-1.7-0.9-1.7-1.9c0-1.1,1.1-2.1,2.4-2.1c1.8,0,2.4,1.2,2.6,1.8l-1.2,0.4c-0.1-0.3-0.3-1.1-1.4-1.1
							c-0.7,0-1.1,0.4-1.1,0.9c0,0.4,0.3,0.7,0.8,0.8l1.1,0.2c1.2,0.3,1.9,1,1.9,2c0,1-0.8,2.1-2.5,2.1c-1.8,0-2.6-1.2-2.7-2
							L105.6,11.8z"/>
					</g>
					<path id="Rectangle-3_5_" class="st10" d="M4,26h292c2.2,0,4,1.8,4,4v28c0,2.2-1.8,4-4,4H4c-2.2,0-4-1.8-4-4V30
						C0,27.8,1.8,26,4,26z"/>
					<g class="st1">
						<path class="st12" d="M11.5,46.4l3.8-3.5H9.2V41H18v1.8l-3.7,3.4c1.9,0,4,1.3,4,3.9c0,2.2-1.7,4.2-4.7,4.2c-3,0-4.7-2-4.8-4.1
							l1.9-0.4c0.1,1.7,1.3,2.8,2.9,2.8c1.8,0,2.7-1.1,2.7-2.4c0-1.7-1.4-2.4-2.6-2.4c-0.4,0-0.8,0.1-1.1,0.2L11.5,46.4z"/>
						<path class="st12" d="M28.8,42.9c-1.2,1-4.9,4.2-5.5,11.1h-2c0.6-7.5,5.3-11.2,5.3-11.2h-7.3V41h9.5V42.9z"/>
						<path class="st12" d="M31.2,49.9c0.1,1.6,1.3,2.7,2.9,2.7c1.5,0,2.8-1,2.8-2.6c0-1.8-1.3-2.7-2.8-2.7c-0.9,0-1.8,0.4-2.4,0.9
							c-0.7-0.3-1.3-0.5-1.9-0.8l1.7-6.4h6.8v1.8h-5.5l-1,3.7c0.6-0.6,1.6-1,2.6-1c2.5,0,4.4,1.6,4.4,4.3c0,2.4-1.9,4.4-4.8,4.4
							c-2.8,0-4.6-1.8-4.8-3.8L31.2,49.9z"/>
						<path class="st12" d="M41.7,42.8c0.8-1.3,2.1-2.1,4-2.1c1.8,0,3.1,0.8,4,2.1c0.9,1.3,1.2,2.9,1.2,4.7s-0.3,3.4-1.2,4.7
							c-0.8,1.3-2.1,2.1-4,2.1c-1.8,0-3.1-0.8-4-2.1c-0.9-1.3-1.2-2.9-1.2-4.7S40.9,44.1,41.7,42.8z M43.7,51.7
							c0.5,0.5,1.1,0.8,2.1,0.8s1.6-0.3,2.1-0.8c0.8-0.8,1.1-2.2,1.1-4.2s-0.4-3.4-1.1-4.2c-0.5-0.5-1.1-0.8-2.1-0.8
							s-1.6,0.3-2.1,0.8c-0.8,0.8-1.1,2.2-1.1,4.2S42.9,50.9,43.7,51.7z"/>
						<path class="st12" d="M53.9,42.8c0.8-1.3,2.1-2.1,4-2.1c1.8,0,3.1,0.8,4,2.1c0.9,1.3,1.2,2.9,1.2,4.7s-0.3,3.4-1.2,4.7
							c-0.8,1.3-2.1,2.1-4,2.1c-1.8,0-3.1-0.8-4-2.1c-0.9-1.3-1.2-2.9-1.2-4.7S53.1,44.1,53.9,42.8z M55.8,51.7
							c0.5,0.5,1.1,0.8,2.1,0.8s1.6-0.3,2.1-0.8c0.8-0.8,1.1-2.2,1.1-4.2s-0.4-3.4-1.1-4.2c-0.5-0.5-1.1-0.8-2.1-0.8
							s-1.6,0.3-2.1,0.8c-0.8,0.8-1.1,2.2-1.1,4.2S55.1,50.9,55.8,51.7z"/>
						<path class="st12" d="M66.1,42.8c0.8-1.3,2.1-2.1,4-2.1c1.8,0,3.1,0.8,4,2.1c0.9,1.3,1.2,2.9,1.2,4.7s-0.3,3.4-1.2,4.7
							c-0.8,1.3-2.1,2.1-4,2.1c-1.8,0-3.1-0.8-4-2.1c-0.9-1.3-1.2-2.9-1.2-4.7S65.2,44.1,66.1,42.8z M68,51.7
							c0.5,0.5,1.1,0.8,2.1,0.8c0.9,0,1.6-0.3,2.1-0.8c0.8-0.8,1.1-2.2,1.1-4.2s-0.4-3.4-1.1-4.2c-0.5-0.5-1.1-0.8-2.1-0.8
							c-0.9,0-1.6,0.3-2.1,0.8c-0.8,0.8-1.1,2.2-1.1,4.2S67.2,50.9,68,51.7z"/>
					</g>
				</g>
			</g>
		</g>
	</g>
</g>
</svg>
