<?xml version="1.0" encoding="utf-8"?>
<!-- Generator: Adobe Illustrator 21.1.0, SVG Export Plug-In . SVG Version: 6.00 Build 0)  -->
<svg version="1.1" id="Ebene_1" xmlns="http://www.w3.org/2000/svg" xmlns:xlink="http://www.w3.org/1999/xlink" x="0px" y="0px"
	 width="1040px" height="758px" viewBox="0 0 1040 758" style="enable-background:new 0 0 1040 758;" xml:space="preserve">
<style type="text/css">
	.st0{fill:#FFFFFF;}
	.st1{enable-background:new    ;}
	.st2{fill:#818F96;}
	.st3{fill:#1F2429;}
	.st4{fill:none;}
	.st5{fill:#0FB9CF;}
	.st6{fill:#D5FBFD;}
	.st7{fill:#464E57;}
	.st8{fill:none;stroke:#CCD3DA;stroke-linecap:square;}
	.st9{fill:none;stroke:#CCD3DA;}
	.st10{fill:#196DEE;}
	.st11{fill:#30D149;}
</style>
<title>Email Sync</title>
<desc>Created with Sketch.</desc>
<g id="Page-1">
	<g id="Email-Sync">
		<g id="Group-2">
			<rect id="Rectangle" class="st0" width="1040" height="758"/>
			<g id="Group" transform="translate(50.000000, 50.000000)">
				<g id="Group-7" transform="translate(100.000000, 0.000000)">
					<g class="st1">
						<path class="st2" d="M22.8,180h-2.5v7h-2.4v-17h6.4c3.2,0,5.2,2.3,5.2,5.1c0,2.4-1.6,4.3-4.1,4.8l4.1,7.1h-2.7L22.8,180z
							 M23.9,177.9c1.9,0,3.2-1.1,3.2-2.9c0-1.8-1.3-3-3.2-3h-3.6v5.8H23.9z"/>
						<path class="st2" d="M42.9,181.2c0,3.5-2.4,6.1-5.9,6.1c-3.5,0-5.9-2.6-5.9-6.1c0-3.5,2.4-6.1,5.9-6.1
							C40.4,175.1,42.9,177.7,42.9,181.2z M40.6,181.2c0-2.7-1.7-4.1-3.6-4.1c-1.9,0-3.6,1.4-3.6,4.1c0,2.7,1.7,4.1,3.6,4.1
							C38.9,185.3,40.6,183.9,40.6,181.2z"/>
						<path class="st2" d="M45.8,187v-17.4H48v7.5c0.6-1,1.9-2,3.8-2c3.5,0,5.3,2.7,5.3,6c0,3.4-1.9,6.1-5.4,6.1c-1.7,0-3-0.7-3.7-2
							v1.7H45.8z M51.4,177.1c-2,0-3.4,1.6-3.4,4.1c0,2.5,1.4,4.1,3.4,4.1c2.1,0,3.4-1.6,3.4-4.1C54.8,178.7,53.5,177.1,51.4,177.1z
							"/>
						<path class="st2" d="M61.1,169.5c0.9,0,1.6,0.7,1.6,1.6c0,0.9-0.7,1.6-1.6,1.6c-0.9,0-1.6-0.7-1.6-1.6
							C59.5,170.2,60.2,169.5,61.1,169.5z M60,187v-11.5h2.2V187H60z"/>
						<path class="st2" d="M68.3,187h-2.3v-11.5h2.2v1.7c0.8-1.4,2.2-2,3.6-2c2.8,0,4.1,2,4.1,4.6v7.3h-2.3v-6.9
							c0-1.6-0.7-2.9-2.7-2.9c-1.8,0-2.7,1.4-2.7,3.2V187z"/>
						<path class="st2" d="M88.6,177.5v9.5h-2.3v-9.5h-2.1v-2h2.1v-1.9c0-2.6,1.7-4,3.8-4c0.8,0,1.2,0.2,1.3,0.2v2
							c-0.1,0-0.4-0.1-1-0.1c-0.8,0-1.8,0.4-1.8,2v1.8h2.8v2H88.6z"/>
						<path class="st2" d="M104.2,181.2c0,3.5-2.4,6.1-5.9,6.1c-3.5,0-5.9-2.6-5.9-6.1c0-3.5,2.4-6.1,5.9-6.1
							C101.7,175.1,104.2,177.7,104.2,181.2z M101.9,181.2c0-2.7-1.7-4.1-3.6-4.1c-1.9,0-3.6,1.4-3.6,4.1c0,2.7,1.7,4.1,3.6,4.1
							C100.2,185.3,101.9,183.9,101.9,181.2z"/>
						<path class="st2" d="M111.1,187.4c-2.7,0-4.3-2-4.3-4.6v-7.3h2.3v6.9c0,1.6,0.7,3,2.6,3c1.8,0,2.7-1.2,2.7-3v-7h2.3v9.4
							c0,0.9,0.1,1.7,0.1,2.1h-2.2c0-0.3-0.1-0.9-0.1-1.4C113.9,186.8,112.5,187.4,111.1,187.4z"/>
						<path class="st2" d="M122.8,187h-2.3v-11.5h2.2v1.7c0.8-1.4,2.2-2,3.6-2c2.8,0,4.1,2,4.1,4.6v7.3h-2.3v-6.9
							c0-1.6-0.7-2.9-2.7-2.9c-1.8,0-2.7,1.4-2.7,3.2V187z"/>
						<path class="st2" d="M142.1,185.2c-0.6,1.1-1.8,2.1-3.6,2.1c-3.4,0-5.5-2.7-5.5-6.1c0-3.3,2.2-6,5.5-6c2,0,3.1,1,3.5,1.9v-7.5
							h2.2v15.2c0,1.1,0.1,1.9,0.1,2.1h-2.2c0-0.3-0.1-0.9-0.1-1.6V185.2z M138.7,185.3c2.1,0,3.3-1.8,3.3-4.2s-1.2-4-3.3-4
							c-2.1,0-3.4,1.7-3.4,4.1S136.6,185.3,138.7,185.3z"/>
						<path class="st2" d="M155.3,182.1c0.1,1.9,1.6,3.2,3.5,3.2c1.8,0,3.3-1.2,3.3-3.1c0-2.1-1.6-3.2-3.4-3.2
							c-1.1,0-2.2,0.4-2.8,1.1c-0.8-0.3-1.5-0.6-2.3-0.9l2-7.7h8.2v2.2h-6.6l-1.2,4.5c0.7-0.8,1.9-1.2,3.2-1.2c3,0,5.3,1.9,5.3,5.2
							c0,2.9-2.3,5.3-5.7,5.3c-3.3,0-5.5-2.2-5.8-4.6L155.3,182.1z"/>
						<path class="st2" d="M183.3,183.7c-0.6,2-2.5,3.6-5.2,3.6c-3.1,0-5.8-2.3-5.8-6.2c0-3.6,2.6-6.1,5.5-6.1c3.6,0,5.5,2.4,5.5,6
							c0,0.3,0,0.6,0,0.7h-8.7c0,2.1,1.5,3.5,3.5,3.5c1.9,0,2.8-1,3.2-2.3L183.3,183.7z M181,180c0-1.7-1.1-3-3.2-3
							c-1.9,0-3,1.5-3.1,3H181z"/>
						<path class="st2" d="M186.3,187v-11.5h2.2v1.5c0.7-1.3,2.2-1.9,3.5-1.9c1.4,0,2.8,0.7,3.5,2.2c0.9-1.7,2.4-2.2,3.9-2.2
							c2,0,4,1.4,4,4.4v7.5H201v-7.2c0-1.5-0.7-2.6-2.4-2.6c-1.6,0-2.7,1.2-2.7,2.9v7h-2.3v-7.2c0-1.5-0.7-2.6-2.4-2.6
							c-1.6,0-2.7,1.2-2.7,2.9v7H186.3z"/>
						<path class="st2" d="M209.6,180.4l3.1-0.5c0.7-0.1,0.9-0.5,0.9-0.9c0-1.1-0.7-2.1-2.5-2.1c-1.6,0-2.5,1-2.6,2.3l-2.2-0.5
							c0.2-2.2,2.2-3.7,4.7-3.7c3.5,0,4.8,2,4.8,4.2v5.8c0,1,0.1,1.6,0.1,1.9h-2.2c0-0.3-0.1-0.7-0.1-1.6c-0.5,0.8-1.7,1.9-3.7,1.9
							c-2.4,0-3.9-1.6-3.9-3.5C206.1,181.8,207.6,180.7,209.6,180.4z M213.6,182.1v-0.5l-3.5,0.5c-1,0.1-1.7,0.7-1.7,1.7
							c0,0.9,0.7,1.7,1.9,1.7C212.1,185.5,213.6,184.6,213.6,182.1z"/>
						<path class="st2" d="M220.5,169.5c0.9,0,1.6,0.7,1.6,1.6c0,0.9-0.7,1.6-1.6,1.6c-0.9,0-1.6-0.7-1.6-1.6
							C218.9,170.2,219.6,169.5,220.5,169.5z M219.4,187v-11.5h2.2V187H219.4z"/>
						<path class="st2" d="M225.5,187v-17.4h2.3V187H225.5z"/>
						<path class="st2" d="M232.5,183.3c0.1,1.2,1.1,2.2,2.7,2.2c1.3,0,2-0.7,2-1.5c0-0.7-0.5-1.3-1.5-1.5l-2-0.4
							c-1.8-0.4-2.9-1.6-2.9-3.2c0-2,1.8-3.6,4.1-3.6c3.2,0,4.2,2.1,4.4,3.1l-2,0.7c-0.1-0.6-0.6-1.9-2.4-1.9
							c-1.2,0-1.9,0.7-1.9,1.5c0,0.7,0.4,1.2,1.3,1.4l1.9,0.4c2.1,0.5,3.2,1.7,3.2,3.4c0,1.6-1.4,3.6-4.2,3.6c-3.2,0-4.5-2-4.7-3.4
							L232.5,183.3z"/>
						<path class="st2" d="M251.4,175.5h2.5v2h-2.5v6c0,1.1,0.4,1.6,1.6,1.6c0.3,0,0.7,0,0.9-0.1v1.9c-0.2,0.1-0.8,0.2-1.5,0.2
							c-2,0-3.2-1.2-3.2-3.3v-6.3H247v-2h0.6c1.2,0,1.8-0.8,1.8-1.8v-1.9h2.1V175.5z"/>
						<path class="st2" d="M267.7,181.2c0,3.5-2.4,6.1-5.9,6.1c-3.5,0-5.9-2.6-5.9-6.1c0-3.5,2.4-6.1,5.9-6.1
							C265.2,175.1,267.7,177.7,267.7,181.2z M265.3,181.2c0-2.7-1.7-4.1-3.6-4.1c-1.9,0-3.6,1.4-3.6,4.1c0,2.7,1.7,4.1,3.6,4.1
							C263.7,185.3,265.3,183.9,265.3,181.2z"/>
						<path class="st2" d="M276.5,187v-17.4h2.3V187H276.5z"/>
						<path class="st2" d="M293.5,181.2c0,3.5-2.4,6.1-5.9,6.1c-3.5,0-5.9-2.6-5.9-6.1c0-3.5,2.4-6.1,5.9-6.1
							C291,175.1,293.5,177.7,293.5,181.2z M291.2,181.2c0-2.7-1.7-4.1-3.6-4.1c-1.9,0-3.6,1.4-3.6,4.1c0,2.7,1.7,4.1,3.6,4.1
							C289.5,185.3,291.2,183.9,291.2,181.2z"/>
						<path class="st2" d="M297.7,187.1c0.2,1.6,1.4,2.8,3.1,2.8c2.4,0,3.5-1.2,3.5-3.7v-1.7c-0.6,1.1-1.8,1.9-3.5,1.9
							c-3.1,0-5.3-2.3-5.3-5.6c0-3.1,2.1-5.6,5.3-5.6c1.8,0,3,0.7,3.6,1.8v-1.6h2.2v10.7c0,2.9-1.4,5.8-5.8,5.8
							c-2.9,0-5-1.8-5.3-4.3L297.7,187.1z M304.5,180.9c0-2.2-1.3-3.7-3.3-3.7c-2,0-3.3,1.5-3.3,3.7c0,2.3,1.3,3.7,3.3,3.7
							C303.1,184.6,304.5,183.1,304.5,180.9z"/>
						<path class="st2" d="M319.2,175.5h2.5v2h-2.5v6c0,1.1,0.4,1.6,1.6,1.6c0.3,0,0.7,0,0.9-0.1v1.9c-0.2,0.1-0.8,0.2-1.5,0.2
							c-2,0-3.2-1.2-3.2-3.3v-6.3h-2.2v-2h0.6c1.2,0,1.8-0.8,1.8-1.8v-1.9h2.1V175.5z"/>
						<path class="st2" d="M335.5,181.2c0,3.5-2.4,6.1-5.9,6.1c-3.5,0-5.9-2.6-5.9-6.1c0-3.5,2.4-6.1,5.9-6.1
							C333,175.1,335.5,177.7,335.5,181.2z M333.2,181.2c0-2.7-1.7-4.1-3.6-4.1c-1.9,0-3.6,1.4-3.6,4.1c0,2.7,1.7,4.1,3.6,4.1
							C331.5,185.3,333.2,183.9,333.2,181.2z"/>
						<path class="st2" d="M347.4,175.5h2.5v2h-2.5v6c0,1.1,0.4,1.6,1.6,1.6c0.3,0,0.7,0,0.9-0.1v1.9c-0.2,0.1-0.8,0.2-1.5,0.2
							c-2,0-3.2-1.2-3.2-3.3v-6.3h-2.2v-2h0.6c1.2,0,1.8-0.8,1.8-1.8v-1.9h2.1V175.5z"/>
						<path class="st2" d="M355.1,187h-2.3v-17.4h2.3v7.2c0.8-1.2,2.2-1.7,3.5-1.7c2.8,0,4.1,2,4.1,4.6v7.3h-2.3v-6.9
							c0-1.6-0.7-2.9-2.7-2.9c-1.7,0-2.6,1.3-2.7,3V187z"/>
						<path class="st2" d="M376.4,183.7c-0.6,2-2.5,3.6-5.2,3.6c-3.1,0-5.8-2.3-5.8-6.2c0-3.6,2.6-6.1,5.5-6.1c3.6,0,5.5,2.4,5.5,6
							c0,0.3,0,0.6,0,0.7h-8.7c0,2.1,1.5,3.5,3.5,3.5c1.9,0,2.8-1,3.2-2.3L376.4,183.7z M374.1,180c0-1.7-1.1-3-3.2-3
							c-1.9,0-3,1.5-3.1,3H374.1z"/>
						<path class="st2" d="M391.8,177.7c-0.3,0-0.7-0.1-1-0.1c-1.9,0-3.2,1-3.2,3.6v5.8h-2.3v-11.5h2.2v2c0.8-1.8,2.3-2.2,3.5-2.2
							c0.3,0,0.6,0,0.7,0.1V177.7z"/>
						<path class="st2" d="M404.1,183.7c-0.6,2-2.5,3.6-5.2,3.6c-3.1,0-5.8-2.3-5.8-6.2c0-3.6,2.6-6.1,5.5-6.1c3.6,0,5.5,2.4,5.5,6
							c0,0.3,0,0.6,0,0.7h-8.7c0,2.1,1.5,3.5,3.5,3.5c1.9,0,2.8-1,3.2-2.3L404.1,183.7z M401.8,180c0-1.7-1.1-3-3.2-3
							c-1.9,0-3,1.5-3.1,3H401.8z"/>
						<path class="st2" d="M408,183.3c0.1,1.2,1.1,2.2,2.7,2.2c1.3,0,2-0.7,2-1.5c0-0.7-0.5-1.3-1.5-1.5l-2-0.4
							c-1.8-0.4-2.9-1.6-2.9-3.2c0-2,1.8-3.6,4.1-3.6c3.2,0,4.2,2.1,4.4,3.1l-2,0.7c-0.1-0.6-0.6-1.9-2.4-1.9
							c-1.2,0-1.9,0.7-1.9,1.5c0,0.7,0.4,1.2,1.3,1.4l1.9,0.4c2.1,0.5,3.2,1.7,3.2,3.4c0,1.6-1.4,3.6-4.2,3.6c-3.2,0-4.5-2-4.7-3.4
							L408,183.3z"/>
						<path class="st2" d="M417.9,191.6v-16.1h2.2v1.8c0.6-1.2,2-2.1,3.9-2.1c3.5,0,5.3,2.7,5.3,6c0,3.4-2,6.1-5.4,6.1
							c-1.8,0-3.1-0.8-3.7-1.9v6.1H417.9z M423.6,177.2c-2.1,0-3.4,1.7-3.4,4c0,2.4,1.4,4.1,3.4,4.1c2.1,0,3.4-1.7,3.4-4.1
							C427,178.9,425.7,177.2,423.6,177.2z"/>
						<path class="st2" d="M442.2,183.7c-0.6,2-2.5,3.6-5.2,3.6c-3.1,0-5.8-2.3-5.8-6.2c0-3.6,2.6-6.1,5.5-6.1c3.6,0,5.5,2.4,5.5,6
							c0,0.3,0,0.6,0,0.7h-8.7c0,2.1,1.5,3.5,3.5,3.5c1.9,0,2.8-1,3.2-2.3L442.2,183.7z M439.9,180c0-1.7-1.1-3-3.2-3
							c-1.9,0-3,1.5-3.1,3H439.9z"/>
						<path class="st2" d="M446.5,181.2c0,2.6,1.7,4.1,3.5,4.1c2.2,0,3-1.5,3.2-2.4l2,0.9c-0.6,1.7-2.2,3.6-5.2,3.6
							c-3.4,0-5.8-2.6-5.8-6.1c0-3.6,2.5-6.1,5.8-6.1c3.1,0,4.7,1.9,5.1,3.7l-2,0.9c-0.3-1.1-1.1-2.4-3.1-2.4
							C448.2,177.2,446.5,178.5,446.5,181.2z"/>
						<path class="st2" d="M460.9,175.5h2.5v2h-2.5v6c0,1.1,0.4,1.6,1.6,1.6c0.3,0,0.7,0,0.9-0.1v1.9c-0.2,0.1-0.8,0.2-1.5,0.2
							c-2,0-3.2-1.2-3.2-3.3v-6.3h-2.2v-2h0.6c1.2,0,1.8-0.8,1.8-1.8v-1.9h2.1V175.5z"/>
						<path class="st2" d="M467.5,169.5c0.9,0,1.6,0.7,1.6,1.6c0,0.9-0.7,1.6-1.6,1.6c-0.9,0-1.6-0.7-1.6-1.6
							C465.9,170.2,466.6,169.5,467.5,169.5z M466.4,187v-11.5h2.2V187H466.4z"/>
						<path class="st2" d="M477.7,187h-2.3l-4.7-11.5h2.5l3.3,8.9l3.3-8.9h2.4L477.7,187z"/>
						<path class="st2" d="M494.2,183.7c-0.6,2-2.5,3.6-5.2,3.6c-3.1,0-5.8-2.3-5.8-6.2c0-3.6,2.6-6.1,5.5-6.1c3.6,0,5.5,2.4,5.5,6
							c0,0.3,0,0.6,0,0.7h-8.7c0,2.1,1.5,3.5,3.5,3.5c1.9,0,2.8-1,3.2-2.3L494.2,183.7z M491.9,180c0-1.7-1.1-3-3.2-3
							c-1.9,0-3,1.5-3.1,3H491.9z"/>
						<path class="st2" d="M512.1,174.6c-0.2-1.2-1.2-2.9-3.6-2.9c-1.9,0-3.3,1.2-3.3,2.8c0,1.2,0.7,2.2,2.2,2.5l2.5,0.6
							c2.8,0.6,4.4,2.4,4.4,4.8c0,2.6-2.3,5-5.9,5c-4.1,0-6-2.6-6.4-5.1l2.3-0.7c0.2,1.9,1.5,3.6,4.1,3.6c2.4,0,3.5-1.2,3.5-2.7
							c0-1.2-0.8-2.3-2.5-2.6l-2.4-0.5c-2.4-0.5-4.2-2.1-4.2-4.7c0-2.7,2.5-5.1,5.6-5.1c3.8,0,5.4,2.4,5.8,4.2L512.1,174.6z"/>
						<path class="st2" d="M520.1,180.4l3.1-0.5c0.7-0.1,0.9-0.5,0.9-0.9c0-1.1-0.7-2.1-2.5-2.1c-1.6,0-2.5,1-2.6,2.3l-2.2-0.5
							c0.2-2.2,2.2-3.7,4.7-3.7c3.5,0,4.8,2,4.8,4.2v5.8c0,1,0.1,1.6,0.1,1.9h-2.2c0-0.3-0.1-0.7-0.1-1.6c-0.5,0.8-1.7,1.9-3.7,1.9
							c-2.4,0-3.9-1.6-3.9-3.5C516.6,181.8,518.1,180.7,520.1,180.4z M524.1,182.1v-0.5l-3.5,0.5c-1,0.1-1.7,0.7-1.7,1.7
							c0,0.9,0.7,1.7,1.9,1.7C522.6,185.5,524.1,184.6,524.1,182.1z"/>
						<path class="st2" d="M529.8,187v-17.4h2.3V187H529.8z"/>
						<path class="st2" d="M546,183.7c-0.6,2-2.5,3.6-5.2,3.6c-3.1,0-5.8-2.3-5.8-6.2c0-3.6,2.6-6.1,5.5-6.1c3.6,0,5.5,2.4,5.5,6
							c0,0.3,0,0.6,0,0.7h-8.7c0,2.1,1.5,3.5,3.5,3.5c1.9,0,2.8-1,3.2-2.3L546,183.7z M543.7,180c0-1.7-1.1-3-3.2-3
							c-1.9,0-3,1.5-3.1,3H543.7z"/>
						<path class="st2" d="M549.9,183.3c0.1,1.2,1.1,2.2,2.7,2.2c1.3,0,2-0.7,2-1.5c0-0.7-0.5-1.3-1.5-1.5l-2-0.4
							c-1.8-0.4-2.9-1.6-2.9-3.2c0-2,1.8-3.6,4.1-3.6c3.2,0,4.2,2.1,4.4,3.1l-2,0.7c-0.1-0.6-0.6-1.9-2.4-1.9
							c-1.2,0-1.9,0.7-1.9,1.5c0,0.7,0.4,1.2,1.3,1.4l1.9,0.4c2.1,0.5,3.2,1.7,3.2,3.4c0,1.6-1.4,3.6-4.2,3.6c-3.2,0-4.5-2-4.7-3.4
							L549.9,183.3z"/>
						<path class="st2" d="M562.8,177.5v9.5h-2.3v-9.5h-2.1v-2h2.1v-1.9c0-2.6,1.7-4,3.8-4c0.8,0,1.2,0.2,1.3,0.2v2
							c-0.1,0-0.4-0.1-1-0.1c-0.8,0-1.8,0.4-1.8,2v1.8h2.8v2H562.8z"/>
						<path class="st2" d="M578.4,181.2c0,3.5-2.4,6.1-5.9,6.1c-3.5,0-5.9-2.6-5.9-6.1c0-3.5,2.4-6.1,5.9-6.1
							C575.9,175.1,578.4,177.7,578.4,181.2z M576.1,181.2c0-2.7-1.7-4.1-3.6-4.1c-1.9,0-3.6,1.4-3.6,4.1c0,2.7,1.7,4.1,3.6,4.1
							C574.4,185.3,576.1,183.9,576.1,181.2z"/>
						<path class="st2" d="M587.7,177.7c-0.3,0-0.7-0.1-1-0.1c-1.9,0-3.2,1-3.2,3.6v5.8h-2.3v-11.5h2.2v2c0.8-1.8,2.3-2.2,3.5-2.2
							c0.3,0,0.6,0,0.7,0.1V177.7z"/>
						<path class="st2" d="M591.3,181.2c0,2.6,1.7,4.1,3.5,4.1c2.2,0,3-1.5,3.2-2.4l2,0.9c-0.6,1.7-2.2,3.6-5.2,3.6
							c-3.4,0-5.8-2.6-5.8-6.1c0-3.6,2.5-6.1,5.8-6.1c3.1,0,4.7,1.9,5.1,3.7l-2,0.9c-0.3-1.1-1.1-2.4-3.1-2.4
							C593,177.2,591.3,178.5,591.3,181.2z"/>
						<path class="st2" d="M612.6,183.7c-0.6,2-2.5,3.6-5.2,3.6c-3.1,0-5.8-2.3-5.8-6.2c0-3.6,2.6-6.1,5.5-6.1c3.6,0,5.5,2.4,5.5,6
							c0,0.3,0,0.6,0,0.7h-8.7c0,2.1,1.5,3.5,3.5,3.5c1.9,0,2.8-1,3.2-2.3L612.6,183.7z M610.3,180c0-1.7-1.1-3-3.2-3
							c-1.9,0-3,1.5-3.1,3H610.3z"/>
						<path class="st2" d="M624.3,180.4l3.1-0.5c0.7-0.1,0.9-0.5,0.9-0.9c0-1.1-0.7-2.1-2.5-2.1c-1.6,0-2.5,1-2.6,2.3l-2.2-0.5
							c0.2-2.2,2.2-3.7,4.7-3.7c3.5,0,4.8,2,4.8,4.2v5.8c0,1,0.1,1.6,0.1,1.9h-2.2c0-0.3-0.1-0.7-0.1-1.6c-0.5,0.8-1.7,1.9-3.7,1.9
							c-2.4,0-3.9-1.6-3.9-3.5C620.8,181.8,622.3,180.7,624.3,180.4z M628.3,182.1v-0.5l-3.5,0.5c-1,0.1-1.7,0.7-1.7,1.7
							c0,0.9,0.7,1.7,1.9,1.7C626.9,185.5,628.3,184.6,628.3,182.1z"/>
						<path class="st2" d="M635.4,181.2c0,2.6,1.7,4.1,3.5,4.1c2.2,0,3-1.5,3.2-2.4l2,0.9c-0.6,1.7-2.2,3.6-5.2,3.6
							c-3.4,0-5.8-2.6-5.8-6.1c0-3.6,2.5-6.1,5.8-6.1c3.1,0,4.7,1.9,5.1,3.7l-2,0.9c-0.3-1.1-1.1-2.4-3.1-2.4
							C637.1,177.2,635.4,178.5,635.4,181.2z"/>
						<path class="st2" d="M648,181.2c0,2.6,1.7,4.1,3.5,4.1c2.2,0,3-1.5,3.2-2.4l2,0.9c-0.6,1.7-2.2,3.6-5.2,3.6
							c-3.4,0-5.8-2.6-5.8-6.1c0-3.6,2.5-6.1,5.8-6.1c3.1,0,4.7,1.9,5.1,3.7l-2,0.9c-0.3-1.1-1.1-2.4-3.1-2.4
							C649.7,177.2,648,178.5,648,181.2z"/>
						<path class="st2" d="M670.2,181.2c0,3.5-2.4,6.1-5.9,6.1c-3.5,0-5.9-2.6-5.9-6.1c0-3.5,2.4-6.1,5.9-6.1
							C667.7,175.1,670.2,177.7,670.2,181.2z M667.8,181.2c0-2.7-1.7-4.1-3.6-4.1c-1.9,0-3.6,1.4-3.6,4.1c0,2.7,1.7,4.1,3.6,4.1
							C666.2,185.3,667.8,183.9,667.8,181.2z"/>
						<path class="st2" d="M677.1,187.4c-2.7,0-4.3-2-4.3-4.6v-7.3h2.3v6.9c0,1.6,0.7,3,2.6,3c1.8,0,2.7-1.2,2.7-3v-7h2.3v9.4
							c0,0.9,0.1,1.7,0.1,2.1h-2.2c0-0.3-0.1-0.9-0.1-1.4C679.9,186.8,678.5,187.4,677.1,187.4z"/>
						<path class="st2" d="M688.8,187h-2.3v-11.5h2.2v1.7c0.8-1.4,2.2-2,3.6-2c2.8,0,4.1,2,4.1,4.6v7.3h-2.3v-6.9
							c0-1.6-0.7-2.9-2.7-2.9c-1.8,0-2.7,1.4-2.7,3.2V187z"/>
						<path class="st2" d="M703,175.5h2.5v2H703v6c0,1.1,0.4,1.6,1.6,1.6c0.3,0,0.7,0,0.9-0.1v1.9c-0.2,0.1-0.8,0.2-1.5,0.2
							c-2,0-3.2-1.2-3.2-3.3v-6.3h-2.2v-2h0.6c1.2,0,1.8-0.8,1.8-1.8v-1.9h2.1V175.5z"/>
						<path class="st2" d="M709.6,183.3c0.1,1.2,1.1,2.2,2.7,2.2c1.3,0,2-0.7,2-1.5c0-0.7-0.5-1.3-1.5-1.5l-2-0.4
							c-1.8-0.4-2.9-1.6-2.9-3.2c0-2,1.8-3.6,4.1-3.6c3.2,0,4.2,2.1,4.4,3.1l-2,0.7c-0.1-0.6-0.6-1.9-2.4-1.9
							c-1.2,0-1.9,0.7-1.9,1.5c0,0.7,0.4,1.2,1.3,1.4l1.9,0.4c2.1,0.5,3.2,1.7,3.2,3.4c0,1.6-1.4,3.6-4.2,3.6c-3.2,0-4.5-2-4.7-3.4
							L709.6,183.3z"/>
						<path class="st2" d="M720.9,183.8c0.9,0,1.7,0.7,1.7,1.7s-0.7,1.7-1.7,1.7c-0.9,0-1.7-0.7-1.7-1.7S720,183.8,720.9,183.8z"/>
					</g>
					<g class="st1">
						<path class="st2" d="M140.8,217v-17h6c4.3,0,8.1,3,8.1,8.5c0,5.6-3.8,8.5-8.1,8.5H140.8z M146.7,214.9c3.1,0,5.8-2.1,5.8-6.4
							c0-4.3-2.6-6.5-5.7-6.5h-3.5v12.8H146.7z"/>
						<path class="st2" d="M167.9,213.7c-0.6,2-2.5,3.6-5.2,3.6c-3.1,0-5.8-2.3-5.8-6.2c0-3.6,2.6-6.1,5.5-6.1c3.6,0,5.5,2.4,5.5,6
							c0,0.3,0,0.6,0,0.7h-8.7c0,2.1,1.5,3.5,3.5,3.5c1.9,0,2.8-1,3.2-2.3L167.9,213.7z M165.6,210c0-1.7-1.1-3-3.2-3
							c-1.9,0-3,1.5-3.1,3H165.6z"/>
						<path class="st2" d="M171.8,213.3c0.1,1.2,1.1,2.2,2.7,2.2c1.3,0,2-0.7,2-1.5c0-0.7-0.5-1.3-1.5-1.5l-2-0.4
							c-1.8-0.4-2.9-1.6-2.9-3.2c0-2,1.8-3.6,4.1-3.6c3.2,0,4.2,2.1,4.4,3.1l-2,0.7c-0.1-0.6-0.6-1.9-2.4-1.9
							c-1.2,0-1.9,0.7-1.9,1.5c0,0.7,0.4,1.2,1.3,1.4l1.9,0.4c2.1,0.5,3.2,1.7,3.2,3.4c0,1.6-1.4,3.6-4.2,3.6c-3.2,0-4.5-2-4.7-3.4
							L171.8,213.3z"/>
						<path class="st2" d="M191.7,213.7c-0.6,2-2.5,3.6-5.2,3.6c-3.1,0-5.8-2.3-5.8-6.2c0-3.6,2.6-6.1,5.5-6.1c3.6,0,5.5,2.4,5.5,6
							c0,0.3,0,0.6,0,0.7H183c0,2.1,1.5,3.5,3.5,3.5c1.9,0,2.8-1,3.2-2.3L191.7,213.7z M189.4,210c0-1.7-1.1-3-3.2-3
							c-1.9,0-3,1.5-3.1,3H189.4z"/>
						<path class="st2" d="M194.6,217v-17.4h2.3V217H194.6z"/>
						<path class="st2" d="M210.8,213.7c-0.6,2-2.5,3.6-5.2,3.6c-3.1,0-5.8-2.3-5.8-6.2c0-3.6,2.6-6.1,5.5-6.1c3.6,0,5.5,2.4,5.5,6
							c0,0.3,0,0.6,0,0.7h-8.7c0,2.1,1.5,3.5,3.5,3.5c1.9,0,2.8-1,3.2-2.3L210.8,213.7z M208.5,210c0-1.7-1.1-3-3.2-3
							c-1.9,0-3,1.5-3.1,3H208.5z"/>
						<path class="st2" d="M215.1,211.2c0,2.6,1.7,4.1,3.5,4.1c2.2,0,3-1.5,3.2-2.4l2,0.9c-0.6,1.7-2.2,3.6-5.2,3.6
							c-3.4,0-5.8-2.6-5.8-6.1c0-3.6,2.5-6.1,5.8-6.1c3.1,0,4.7,1.9,5.1,3.7l-2,0.9c-0.3-1.1-1.1-2.4-3.1-2.4
							C216.7,207.2,215.1,208.5,215.1,211.2z"/>
						<path class="st2" d="M229.5,205.5h2.5v2h-2.5v6c0,1.1,0.4,1.6,1.6,1.6c0.3,0,0.7,0,0.9-0.1v1.9c-0.2,0.1-0.8,0.2-1.5,0.2
							c-2,0-3.2-1.2-3.2-3.3v-6.3H225v-2h0.6c1.2,0,1.8-0.8,1.8-1.8v-1.9h2.1V205.5z"/>
						<path class="st2" d="M244,205.5h2.5v2H244v6c0,1.1,0.4,1.6,1.6,1.6c0.3,0,0.7,0,0.9-0.1v1.9c-0.2,0.1-0.8,0.2-1.5,0.2
							c-2,0-3.2-1.2-3.2-3.3v-6.3h-2.2v-2h0.6c1.2,0,1.8-0.8,1.8-1.8v-1.9h2.1V205.5z"/>
						<path class="st2" d="M251.7,217h-2.3v-17.4h2.3v7.2c0.8-1.2,2.2-1.7,3.5-1.7c2.8,0,4.1,2,4.1,4.6v7.3h-2.3v-6.9
							c0-1.6-0.7-2.9-2.7-2.9c-1.7,0-2.6,1.3-2.7,3V217z"/>
						<path class="st2" d="M273,213.7c-0.6,2-2.5,3.6-5.2,3.6c-3.1,0-5.8-2.3-5.8-6.2c0-3.6,2.6-6.1,5.5-6.1c3.6,0,5.5,2.4,5.5,6
							c0,0.3,0,0.6,0,0.7h-8.7c0,2.1,1.5,3.5,3.5,3.5c1.9,0,2.8-1,3.2-2.3L273,213.7z M270.7,210c0-1.7-1.1-3-3.2-3
							c-1.9,0-3,1.5-3.1,3H270.7z"/>
						<path class="st2" d="M292,213.7c-0.6,2-2.5,3.6-5.2,3.6c-3.1,0-5.8-2.3-5.8-6.2c0-3.6,2.6-6.1,5.5-6.1c3.6,0,5.5,2.4,5.5,6
							c0,0.3,0,0.6,0,0.7h-8.7c0,2.1,1.5,3.5,3.5,3.5c1.9,0,2.8-1,3.2-2.3L292,213.7z M289.7,210c0-1.7-1.1-3-3.2-3
							c-1.9,0-3,1.5-3.1,3H289.7z"/>
						<path class="st2" d="M295,217v-11.5h2.2v1.5c0.7-1.3,2.2-1.9,3.5-1.9c1.4,0,2.8,0.7,3.5,2.2c0.9-1.7,2.4-2.2,3.9-2.2
							c2,0,4,1.4,4,4.4v7.5h-2.2v-7.2c0-1.5-0.7-2.6-2.4-2.6c-1.6,0-2.7,1.2-2.7,2.9v7h-2.3v-7.2c0-1.5-0.7-2.6-2.4-2.6
							c-1.6,0-2.7,1.2-2.7,2.9v7H295z"/>
						<path class="st2" d="M318.3,210.4l3.1-0.5c0.7-0.1,0.9-0.5,0.9-0.9c0-1.1-0.7-2.1-2.5-2.1c-1.6,0-2.5,1-2.6,2.3l-2.2-0.5
							c0.2-2.2,2.2-3.7,4.7-3.7c3.5,0,4.8,2,4.8,4.2v5.8c0,1,0.1,1.6,0.1,1.9h-2.2c0-0.3-0.1-0.7-0.1-1.6c-0.5,0.8-1.7,1.9-3.7,1.9
							c-2.4,0-3.9-1.6-3.9-3.5C314.8,211.8,316.3,210.7,318.3,210.4z M322.3,212.1v-0.5l-3.5,0.5c-1,0.1-1.7,0.7-1.7,1.7
							c0,0.9,0.7,1.7,1.9,1.7C320.8,215.5,322.3,214.6,322.3,212.1z"/>
						<path class="st2" d="M329.2,199.5c0.9,0,1.6,0.7,1.6,1.6c0,0.9-0.7,1.6-1.6,1.6c-0.9,0-1.6-0.7-1.6-1.6
							C327.6,200.2,328.3,199.5,329.2,199.5z M328.1,217v-11.5h2.2V217H328.1z"/>
						<path class="st2" d="M334.2,217v-17.4h2.3V217H334.2z"/>
						<path class="st2" d="M341.2,213.3c0.1,1.2,1.1,2.2,2.7,2.2c1.3,0,2-0.7,2-1.5c0-0.7-0.5-1.3-1.5-1.5l-2-0.4
							c-1.8-0.4-2.9-1.6-2.9-3.2c0-2,1.8-3.6,4.1-3.6c3.2,0,4.2,2.1,4.4,3.1l-2,0.7c-0.1-0.6-0.6-1.9-2.4-1.9
							c-1.2,0-1.9,0.7-1.9,1.5c0,0.7,0.4,1.2,1.3,1.4l1.9,0.4c2.1,0.5,3.2,1.7,3.2,3.4c0,1.6-1.4,3.6-4.2,3.6c-3.2,0-4.5-2-4.7-3.4
							L341.2,213.3z"/>
						<path class="st2" d="M357.5,221.8l2.9-6.1l-5-10.3h2.6l3.6,8l3.5-8h2.4l-7.5,16.4H357.5z"/>
						<path class="st2" d="M380,211.2c0,3.5-2.4,6.1-5.9,6.1c-3.5,0-5.9-2.6-5.9-6.1c0-3.5,2.4-6.1,5.9-6.1
							C377.6,205.1,380,207.7,380,211.2z M377.7,211.2c0-2.7-1.7-4.1-3.6-4.1c-1.9,0-3.6,1.4-3.6,4.1c0,2.7,1.7,4.1,3.6,4.1
							C376,215.3,377.7,213.9,377.7,211.2z"/>
						<path class="st2" d="M387,217.4c-2.7,0-4.3-2-4.3-4.6v-7.3h2.3v6.9c0,1.6,0.7,3,2.6,3c1.8,0,2.7-1.2,2.7-3v-7h2.3v9.4
							c0,0.9,0.1,1.7,0.1,2.1h-2.2c0-0.3-0.1-0.9-0.1-1.4C389.8,216.8,388.3,217.4,387,217.4z"/>
						<path class="st2" d="M410.5,215.2c-0.6,1.1-1.8,2.1-3.6,2.1c-3.4,0-5.5-2.7-5.5-6.1c0-3.3,2.2-6,5.5-6c2,0,3.1,1,3.5,1.9v-7.5
							h2.2v15.2c0,1.1,0.1,1.9,0.1,2.1h-2.2c0-0.3-0.1-0.9-0.1-1.6V215.2z M407.1,215.3c2.1,0,3.3-1.8,3.3-4.2s-1.2-4-3.3-4
							c-2.1,0-3.4,1.7-3.4,4.1S404.9,215.3,407.1,215.3z"/>
						<path class="st2" d="M427.3,211.2c0,3.5-2.4,6.1-5.9,6.1c-3.5,0-5.9-2.6-5.9-6.1c0-3.5,2.4-6.1,5.9-6.1
							C424.9,205.1,427.3,207.7,427.3,211.2z M425,211.2c0-2.7-1.7-4.1-3.6-4.1c-1.9,0-3.6,1.4-3.6,4.1c0,2.7,1.7,4.1,3.6,4.1
							C423.4,215.3,425,213.9,425,211.2z"/>
						<path class="st2" d="M432.5,217h-2.3v-11.5h2.2v1.7c0.8-1.4,2.2-2,3.6-2c2.8,0,4.1,2,4.1,4.6v7.3h-2.3v-6.9
							c0-1.6-0.7-2.9-2.7-2.9c-1.8,0-2.7,1.4-2.7,3.2V217z"/>
						<path class="st2" d="M443.2,199.8c1,0,1.8,0.7,1.8,2.1c0,3-1.9,4.2-3.3,4.4v-1.2c1.1-0.2,1.8-1.3,1.8-2.4
							c-0.1,0-0.2,0.1-0.5,0.1c-0.8,0-1.5-0.6-1.5-1.5C441.5,200.5,442.2,199.8,443.2,199.8z"/>
						<path class="st2" d="M450.9,205.5h2.5v2h-2.5v6c0,1.1,0.4,1.6,1.6,1.6c0.3,0,0.7,0,0.9-0.1v1.9c-0.2,0.1-0.8,0.2-1.5,0.2
							c-2,0-3.2-1.2-3.2-3.3v-6.3h-2.2v-2h0.6c1.2,0,1.8-0.8,1.8-1.8v-1.9h2.1V205.5z"/>
						<path class="st2" d="M471.2,205.5l3,8.7l2.5-8.7h2.4l-3.7,11.5h-2.3l-3.1-8.8l-3,8.8h-2.4l-3.8-11.5h2.5l2.6,8.7l3-8.7H471.2z
							"/>
						<path class="st2" d="M484.1,210.4l3.1-0.5c0.7-0.1,0.9-0.5,0.9-0.9c0-1.1-0.7-2.1-2.5-2.1c-1.6,0-2.5,1-2.6,2.3l-2.2-0.5
							c0.2-2.2,2.2-3.7,4.7-3.7c3.5,0,4.8,2,4.8,4.2v5.8c0,1,0.1,1.6,0.1,1.9h-2.2c0-0.3-0.1-0.7-0.1-1.6c-0.5,0.8-1.7,1.9-3.7,1.9
							c-2.4,0-3.9-1.6-3.9-3.5C480.6,211.8,482.1,210.7,484.1,210.4z M488.1,212.1v-0.5l-3.5,0.5c-1,0.1-1.7,0.7-1.7,1.7
							c0,0.9,0.7,1.7,1.9,1.7C486.6,215.5,488.1,214.6,488.1,212.1z"/>
						<path class="st2" d="M496.1,217h-2.3v-11.5h2.2v1.7c0.8-1.4,2.2-2,3.6-2c2.8,0,4.1,2,4.1,4.6v7.3h-2.3v-6.9
							c0-1.6-0.7-2.9-2.7-2.9c-1.8,0-2.7,1.4-2.7,3.2V217z"/>
						<path class="st2" d="M510.4,205.5h2.5v2h-2.5v6c0,1.1,0.4,1.6,1.6,1.6c0.3,0,0.7,0,0.9-0.1v1.9c-0.2,0.1-0.8,0.2-1.5,0.2
							c-2,0-3.2-1.2-3.2-3.3v-6.3h-2.2v-2h0.6c1.2,0,1.8-0.8,1.8-1.8v-1.9h2.1V205.5z"/>
						<path class="st2" d="M521.9,217v-17.4h2.3V217H521.9z"/>
						<path class="st2" d="M538.8,211.2c0,3.5-2.4,6.1-5.9,6.1c-3.5,0-5.9-2.6-5.9-6.1c0-3.5,2.4-6.1,5.9-6.1
							C536.4,205.1,538.8,207.7,538.8,211.2z M536.5,211.2c0-2.7-1.7-4.1-3.6-4.1c-1.9,0-3.6,1.4-3.6,4.1c0,2.7,1.7,4.1,3.6,4.1
							C534.8,215.3,536.5,213.9,536.5,211.2z"/>
						<path class="st2" d="M543,217.1c0.2,1.6,1.4,2.8,3.1,2.8c2.4,0,3.5-1.2,3.5-3.7v-1.7c-0.6,1.1-1.8,1.9-3.5,1.9
							c-3.1,0-5.3-2.3-5.3-5.6c0-3.1,2.1-5.6,5.3-5.6c1.8,0,3,0.7,3.6,1.8v-1.6h2.2v10.7c0,2.9-1.4,5.8-5.8,5.8
							c-2.9,0-5-1.8-5.3-4.3L543,217.1z M549.8,210.9c0-2.2-1.3-3.7-3.3-3.7c-2,0-3.3,1.5-3.3,3.7c0,2.3,1.3,3.7,3.3,3.7
							C548.5,214.6,549.8,213.1,549.8,210.9z"/>
						<path class="st2" d="M556.9,217.1c0.2,1.6,1.4,2.8,3.1,2.8c2.4,0,3.5-1.2,3.5-3.7v-1.7c-0.6,1.1-1.8,1.9-3.5,1.9
							c-3.1,0-5.3-2.3-5.3-5.6c0-3.1,2.1-5.6,5.3-5.6c1.8,0,3,0.7,3.6,1.8v-1.6h2.2v10.7c0,2.9-1.4,5.8-5.8,5.8
							c-2.9,0-5-1.8-5.3-4.3L556.9,217.1z M563.7,210.9c0-2.2-1.3-3.7-3.3-3.7c-2,0-3.3,1.5-3.3,3.7c0,2.3,1.3,3.7,3.3,3.7
							C562.3,214.6,563.7,213.1,563.7,210.9z"/>
						<path class="st2" d="M579.5,213.7c-0.6,2-2.5,3.6-5.2,3.6c-3.1,0-5.8-2.3-5.8-6.2c0-3.6,2.6-6.1,5.5-6.1c3.6,0,5.5,2.4,5.5,6
							c0,0.3,0,0.6,0,0.7h-8.7c0,2.1,1.5,3.5,3.5,3.5c1.9,0,2.8-1,3.2-2.3L579.5,213.7z M577.2,210c0-1.7-1.1-3-3.2-3
							c-1.9,0-3,1.5-3.1,3H577.2z"/>
						<path class="st2" d="M590.5,215.2c-0.6,1.1-1.8,2.1-3.6,2.1c-3.4,0-5.5-2.7-5.5-6.1c0-3.3,2.2-6,5.5-6c2,0,3.1,1,3.5,1.9v-7.5
							h2.2v15.2c0,1.1,0.1,1.9,0.1,2.1h-2.2c0-0.3-0.1-0.9-0.1-1.6V215.2z M587.2,215.3c2.1,0,3.3-1.8,3.3-4.2s-1.2-4-3.3-4
							c-2.1,0-3.4,1.7-3.4,4.1S585,215.3,587.2,215.3z"/>
						<path class="st2" d="M598,213.8c0.9,0,1.7,0.7,1.7,1.7s-0.7,1.7-1.7,1.7c-0.9,0-1.7-0.7-1.7-1.7S597,213.8,598,213.8z"/>
					</g>
					<g class="st1">
						<path class="st3" d="M219.8,128L207,107.9V128h-5.5V99.6h6.9l11.8,18.8V99.6h5.5V128H219.8z"/>
						<path class="st3" d="M249.2,122.4c-1,3.4-4.1,6.2-9,6.2c-5.4,0-10.2-3.9-10.2-10.5c0-6.3,4.6-10.4,9.7-10.4
							c6.1,0,9.7,3.9,9.7,10.2c0,0.8-0.1,1.6-0.1,1.6h-14.1c0.1,2.6,2.3,4.5,5,4.5c2.5,0,3.8-1.2,4.5-3L249.2,122.4z M244.3,115.9
							c-0.1-2-1.4-3.9-4.4-3.9c-2.8,0-4.3,2.1-4.4,3.9H244.3z"/>
						<path class="st3" d="M270.2,108.3l4.2,12.7l3.6-12.7h5.3l-6.2,19.7h-5.3l-4.6-13.4l-4.5,13.4h-5.4l-6.3-19.7h5.6l3.6,12.6
							l4.3-12.6H270.2z"/>
						<path class="st3" d="M296.9,128V99.6h17.8v5.2h-12.2v6.5h11.1v4.9h-11.1v6.6h12.2v5.2H296.9z"/>
						<path class="st3" d="M319.6,128v-19.7h5.1v2.4c1.1-1.9,3.6-3,5.8-3c2.7,0,4.8,1.2,5.8,3.3c1.6-2.4,3.6-3.3,6.2-3.3
							c3.6,0,7.1,2.2,7.1,7.5V128h-5.2v-11.7c0-2.1-1-3.7-3.5-3.7c-2.3,0-3.6,1.8-3.6,3.9V128H332v-11.7c0-2.1-1.1-3.7-3.5-3.7
							c-2.3,0-3.7,1.7-3.7,3.9V128H319.6z"/>
						<path class="st3" d="M359.7,116.7l4.8-0.7c1.1-0.2,1.5-0.7,1.5-1.4c0-1.4-1.1-2.6-3.3-2.6c-2.3,0-3.6,1.5-3.8,3.2l-4.7-1
							c0.3-3.1,3.2-6.5,8.4-6.5c6.2,0,8.6,3.5,8.6,7.5v9.7c0,1,0.1,2.4,0.2,3.1h-4.9c-0.1-0.5-0.2-1.6-0.2-2.4
							c-1,1.6-2.9,2.9-5.8,2.9c-4.2,0-6.8-2.8-6.8-5.9C353.8,119.1,356.4,117.2,359.7,116.7z M366,120v-0.9l-4.4,0.7
							c-1.4,0.2-2.4,1-2.4,2.5c0,1.2,0.8,2.3,2.6,2.3C363.9,124.6,366,123.5,366,120z"/>
						<path class="st3" d="M379.2,98.6c1.8,0,3.3,1.5,3.3,3.3c0,1.8-1.4,3.2-3.3,3.2c-1.8,0-3.3-1.5-3.3-3.2
							C375.9,100,377.4,98.6,379.2,98.6z M376.6,128v-19.7h5.3V128H376.6z"/>
						<path class="st3" d="M387.6,128V99h5.3v29H387.6z"/>
						<path class="st3" d="M401.4,121.5c0.1,1.6,1.3,3,3.6,3c1.8,0,2.6-0.9,2.6-2c0-0.9-0.6-1.6-2.1-1.9l-2.6-0.6
							c-3.8-0.8-5.5-3.1-5.5-5.9c0-3.5,3.1-6.4,7.4-6.4c5.6,0,7.5,3.6,7.7,5.7l-4.4,1c-0.2-1.2-1-2.6-3.2-2.6c-1.4,0-2.5,0.8-2.5,2
							c0,1,0.7,1.6,1.8,1.8l2.8,0.6c3.9,0.8,5.8,3.2,5.8,6c0,3.2-2.5,6.5-7.6,6.5c-5.9,0-8-3.8-8.2-6.1L401.4,121.5z"/>
						<path class="st3" d="M433.4,108.3h4v4.7h-4v8.2c0,1.7,0.8,2.3,2.3,2.3c0.6,0,1.4-0.1,1.6-0.2v4.4c-0.5,0.2-1.4,0.5-3,0.5
							c-3.8,0-6.2-2.3-6.2-6.1V113h-3.6v-4.7h1c2.1,0,3-1.4,3-3.1v-2.8h4.8V108.3z"/>
						<path class="st3" d="M460.9,118.2c0,6-4.4,10.4-10.3,10.4s-10.3-4.4-10.3-10.4c0-6.1,4.4-10.4,10.3-10.4
							S460.9,112.1,460.9,118.2z M455.6,118.2c0-3.7-2.4-5.6-5-5.6s-5,1.9-5,5.6c0,3.7,2.4,5.6,5,5.6S455.6,121.9,455.6,118.2z"/>
						<path class="st3" d="M475.4,128V99.6h5.5v23.1h12.6v5.3H475.4z"/>
						<path class="st3" d="M516.6,118.2c0,6-4.4,10.4-10.3,10.4s-10.3-4.4-10.3-10.4c0-6.1,4.4-10.4,10.3-10.4
							S516.6,112.1,516.6,118.2z M511.2,118.2c0-3.7-2.4-5.6-5-5.6s-5,1.9-5,5.6c0,3.7,2.4,5.6,5,5.6S511.2,121.9,511.2,118.2z"/>
						<path class="st3" d="M524.2,127.8c0.4,2.2,2.1,3.7,4.6,3.7c3.4,0,5.2-1.7,5.2-5.5v-1.4c-0.8,1.3-2.6,2.5-5.5,2.5
							c-5.2,0-9.2-4-9.2-9.6c0-5.2,3.8-9.6,9.2-9.6c3.1,0,4.9,1.4,5.6,2.7v-2.3h5.1v17.6c0,5.4-2.9,10.3-10.3,10.3
							c-5.4,0-9-3.4-9.6-7.1L524.2,127.8z M534.1,117.6c0-3-2.1-5-4.6-5c-2.6,0-4.7,1.9-4.7,5c0,3.1,2,5,4.7,5
							C532.2,122.6,534.1,120.6,534.1,117.6z"/>
					</g>
					<g id="ic_cached" transform="translate(410.000000, 0.000000)">
						<polygon id="Bounds" class="st4" points="0,0 40,0 40,40 0,40 						"/>
						<path id="Icon" class="st5" d="M31.7,13.3L25,20h5c0,5.5-4.5,10-10,10c-1.7,0-3.3-0.4-4.7-1.2l-2.4,2.4
							c2.1,1.3,4.5,2.1,7.1,2.1c7.4,0,13.3-6,13.3-13.3h5L31.7,13.3L31.7,13.3z M10,20c0-5.5,4.5-10,10-10c1.7,0,3.3,0.4,4.7,1.2
							l2.4-2.4C25,7.4,22.6,6.7,20,6.7c-7.4,0-13.3,6-13.3,13.3h-5l6.7,6.7L15,20H10L10,20z"/>
					</g>
					<g id="ic_mail_outline" transform="translate(346.000000, 0.000000)">
						<polygon id="Bounds_1_" class="st4" points="0,0 64,0 64,64 0,64 						"/>
						<path id="Icon_1_" class="st5" d="M53.3,10.7H10.7c-2.9,0-5.3,2.4-5.3,5.3l0,32c0,2.9,2.4,5.3,5.3,5.3h42.7
							c2.9,0,5.3-2.4,5.3-5.3V16C58.7,13.1,56.3,10.7,53.3,10.7L53.3,10.7z M53.3,48H10.7V21.3L32,34.7l21.3-13.3V48L53.3,48z
							 M32,29.3L10.7,16h42.7L32,29.3L32,29.3z"/>
					</g>
				</g>
				<g id="Group-8" transform="translate(0.000000, 287.000000)">
					<g id="Group-4" transform="translate(0.000000, 3.000000)">
						<rect id="Rectangle-4" class="st0" width="940" height="353"/>
						<rect id="Rectangle-4_1_" x="80" y="251" class="st6" width="780" height="48"/>
						<g class="st1">
							<path class="st2" d="M128.6,37c0-3.3,2.5-5.2,4.9-5.2c2.3,0,3.9,1.2,4.4,3.2l-1.3,0.4c-0.4-1.5-1.5-2.3-3.1-2.3
								c-1.8,0-3.5,1.3-3.5,3.9s1.7,3.9,3.5,3.9c1.7,0,2.8-1,3.2-2.4l1.2,0.4c-0.5,1.9-2.1,3.2-4.4,3.2
								C131,42.2,128.6,40.3,128.6,37z"/>
							<path class="st2" d="M145.7,38.6c0,2.1-1.4,3.6-3.4,3.6s-3.4-1.5-3.4-3.6c0-2,1.4-3.6,3.4-3.6S145.7,36.6,145.7,38.6z
								 M144.3,38.6c0-1.6-1-2.4-2.1-2.4s-2.1,0.8-2.1,2.4c0,1.6,1,2.4,2.1,2.4S144.3,40.2,144.3,38.6z"/>
							<path class="st2" d="M148.7,42h-1.3v-6.7h1.3v1c0.5-0.8,1.3-1.2,2.1-1.2c1.6,0,2.4,1.2,2.4,2.7V42h-1.3v-4
								c0-0.9-0.4-1.7-1.6-1.7c-1,0-1.6,0.8-1.6,1.8V42z"/>
							<path class="st2" d="M157,35.3h1.5v1.2H157V40c0,0.6,0.3,0.9,0.9,0.9c0.2,0,0.4,0,0.5-0.1v1.1c-0.1,0-0.4,0.1-0.9,0.1
								c-1.1,0-1.9-0.7-1.9-1.9v-3.7h-1.3v-1.2h0.4c0.7,0,1-0.4,1-1v-1.1h1.2V35.3z"/>
							<path class="st2" d="M161.8,38.1l1.8-0.3c0.4-0.1,0.5-0.3,0.5-0.5c0-0.7-0.4-1.2-1.5-1.2c-0.9,0-1.4,0.6-1.5,1.4l-1.3-0.3
								c0.1-1.3,1.3-2.2,2.8-2.2c2,0,2.8,1.1,2.8,2.5v3.4c0,0.6,0.1,0.9,0.1,1.1h-1.3c0-0.2-0.1-0.4-0.1-0.9c-0.3,0.5-1,1.1-2.2,1.1
								c-1.4,0-2.3-1-2.3-2C159.8,39,160.6,38.3,161.8,38.1z M164.2,39.1v-0.3l-2.1,0.3c-0.6,0.1-1,0.4-1,1c0,0.5,0.4,1,1.1,1
								C163.3,41.1,164.2,40.6,164.2,39.1z"/>
							<path class="st2" d="M168.3,38.6c0,1.5,1,2.4,2.1,2.4c1.3,0,1.7-0.9,1.9-1.4l1.2,0.5c-0.3,1-1.3,2.1-3,2.1
								c-2,0-3.4-1.5-3.4-3.6c0-2.1,1.5-3.6,3.4-3.6c1.8,0,2.7,1.1,3,2.1l-1.2,0.5c-0.2-0.7-0.7-1.4-1.8-1.4
								C169.3,36.3,168.3,37.1,168.3,38.6z"/>
							<path class="st2" d="M176.7,35.3h1.5v1.2h-1.5V40c0,0.6,0.3,0.9,0.9,0.9c0.2,0,0.4,0,0.5-0.1v1.1c-0.1,0-0.4,0.1-0.9,0.1
								c-1.1,0-1.9-0.7-1.9-1.9v-3.7h-1.3v-1.2h0.4c0.7,0,1-0.4,1-1v-1.1h1.2V35.3z"/>
							<path class="st2" d="M180.3,42h-1.3l4.8-9.9h1.3L180.3,42z"/>
							<path class="st2" d="M186.4,42v-9.9h1.4v8.6h4.7V42H186.4z"/>
							<path class="st2" d="M199.7,40.1c-0.4,1.2-1.5,2.1-3,2.1c-1.8,0-3.4-1.3-3.4-3.6c0-2.1,1.5-3.6,3.2-3.6
								c2.1,0,3.2,1.4,3.2,3.5c0,0.2,0,0.3,0,0.4h-5.1c0,1.2,0.9,2,2,2c1.1,0,1.6-0.6,1.9-1.4L199.7,40.1z M198.4,37.9
								c0-1-0.7-1.7-1.8-1.7c-1.1,0-1.8,0.9-1.8,1.7H198.4z"/>
							<path class="st2" d="M203.1,38.1l1.8-0.3c0.4-0.1,0.5-0.3,0.5-0.5c0-0.7-0.4-1.2-1.5-1.2c-0.9,0-1.4,0.6-1.5,1.4l-1.3-0.3
								c0.1-1.3,1.3-2.2,2.8-2.2c2,0,2.8,1.1,2.8,2.5v3.4c0,0.6,0.1,0.9,0.1,1.1h-1.3c0-0.2-0.1-0.4-0.1-0.9c-0.3,0.5-1,1.1-2.2,1.1
								c-1.4,0-2.3-1-2.3-2C201,39,201.9,38.3,203.1,38.1z M205.4,39.1v-0.3l-2.1,0.3c-0.6,0.1-1,0.4-1,1c0,0.5,0.4,1,1.1,1
								C204.5,41.1,205.4,40.6,205.4,39.1z"/>
							<path class="st2" d="M213.5,41c-0.3,0.6-1,1.2-2.1,1.2c-2,0-3.2-1.6-3.2-3.6c0-1.9,1.3-3.5,3.2-3.5c1.2,0,1.8,0.6,2.1,1.1
								v-4.4h1.3v8.9c0,0.6,0.1,1.1,0.1,1.2h-1.3c0-0.2-0.1-0.5-0.1-0.9V41z M211.5,41c1.2,0,1.9-1.1,1.9-2.4s-0.7-2.3-1.9-2.3
								c-1.2,0-2,1-2,2.4S210.3,41,211.5,41z"/>
						</g>
						<g class="st1">
							<path class="st7" d="M140.1,89v-8.8l-3.9,8.8h-1.4l-3.8-8.8V89h-1.6V77.7h2.1l4,9.2l4-9.2h2.1V89H140.1z"/>
							<path class="st7" d="M146.2,84.6l2.1-0.3c0.5-0.1,0.6-0.3,0.6-0.6c0-0.8-0.5-1.4-1.7-1.4c-1.1,0-1.6,0.7-1.7,1.6l-1.4-0.3
								c0.2-1.5,1.5-2.5,3.2-2.5c2.3,0,3.2,1.3,3.2,2.8v3.9c0,0.7,0.1,1.1,0.1,1.3H149c0-0.2-0.1-0.5-0.1-1
								c-0.3,0.5-1.1,1.3-2.5,1.3c-1.6,0-2.6-1.1-2.6-2.3C143.9,85.6,144.9,84.8,146.2,84.6z M148.9,85.7v-0.4l-2.4,0.4
								c-0.6,0.1-1.1,0.5-1.1,1.2c0,0.6,0.5,1.1,1.2,1.1C147.9,88,148.9,87.4,148.9,85.7z"/>
							<path class="st7" d="M154.4,85.1l-2.8-3.8h1.8l1.9,2.7l1.9-2.7h1.8l-2.7,3.8c0.5,0.6,2.4,3.3,2.8,3.9h-1.8l-2-2.8l-2,2.8
								h-1.8L154.4,85.1z"/>
							<path class="st7" d="M175.4,89v-8.8l-3.9,8.8h-1.4l-3.8-8.8V89h-1.6V77.7h2.1l4,9.2l4-9.2h2.1V89H175.4z"/>
							<path class="st7" d="M180.4,77.3c0.6,0,1.1,0.5,1.1,1.1c0,0.6-0.5,1.1-1.1,1.1c-0.6,0-1.1-0.5-1.1-1.1
								C179.4,77.8,179.8,77.3,180.4,77.3z M179.7,89v-7.7h1.5V89H179.7z"/>
							<path class="st7" d="M184.6,85.1c0,1.8,1.1,2.7,2.4,2.7c1.4,0,2-1,2.1-1.6l1.3,0.6c-0.4,1.1-1.5,2.4-3.5,2.4
								c-2.2,0-3.9-1.8-3.9-4.1c0-2.4,1.7-4.1,3.9-4.1c2,0,3.1,1.3,3.4,2.4l-1.4,0.6c-0.2-0.8-0.8-1.6-2.1-1.6
								C185.8,82.5,184.6,83.3,184.6,85.1z"/>
							<path class="st7" d="M193.7,89h-1.5V77.4h1.5v4.8c0.6-0.8,1.5-1.1,2.3-1.1c1.8,0,2.8,1.3,2.8,3V89h-1.5v-4.6
								c0-1.1-0.4-1.9-1.8-1.9c-1.2,0-1.8,0.9-1.8,2V89z"/>
							<path class="st7" d="M207.9,86.8c-0.4,1.4-1.7,2.4-3.5,2.4c-2.1,0-3.9-1.5-3.9-4.1c0-2.4,1.7-4.1,3.7-4.1
								c2.4,0,3.7,1.6,3.7,4c0,0.2,0,0.4,0,0.5h-5.8c0,1.4,1,2.3,2.3,2.3c1.2,0,1.9-0.7,2.2-1.6L207.9,86.8z M206.4,84.4
								c0-1.1-0.8-2-2.1-2c-1.3,0-2,1-2.1,2H206.4z"/>
							<path class="st7" d="M209.9,89V77.4h1.5V89H209.9z"/>
						</g>
						<g class="st1">
							<path class="st7" d="M135.3,128.7c-0.1-0.8-0.8-1.9-2.4-1.9c-1.3,0-2.2,0.8-2.2,1.9c0,0.8,0.5,1.4,1.5,1.6l1.7,0.4
								c1.9,0.4,2.9,1.6,2.9,3.2c0,1.8-1.5,3.4-3.9,3.4c-2.7,0-4-1.8-4.2-3.4l1.5-0.5c0.1,1.3,1,2.4,2.7,2.4c1.6,0,2.3-0.8,2.3-1.8
								c0-0.8-0.6-1.5-1.7-1.8l-1.6-0.4c-1.6-0.4-2.8-1.4-2.8-3.1c0-1.8,1.6-3.4,3.7-3.4c2.6,0,3.6,1.6,3.8,2.8L135.3,128.7z"/>
							<path class="st7" d="M141.2,137.2c-1.8,0-2.9-1.3-2.9-3.1v-4.8h1.5v4.6c0,1.1,0.5,2,1.7,2c1.2,0,1.8-0.8,1.8-2v-4.6h1.5v6.3
								c0,0.6,0,1.2,0.1,1.4h-1.4c0-0.2-0.1-0.6-0.1-0.9C143,136.9,142.1,137.2,141.2,137.2z"/>
							<path class="st7" d="M147.4,137v-11.6h1.5v5c0.4-0.7,1.3-1.3,2.5-1.3c2.3,0,3.5,1.8,3.5,4c0,2.3-1.3,4.1-3.6,4.1
								c-1.1,0-2-0.5-2.5-1.3v1.1H147.4z M151.2,130.4c-1.3,0-2.3,1-2.3,2.7s1,2.8,2.3,2.8c1.4,0,2.3-1.1,2.3-2.8
								S152.6,130.4,151.2,130.4z"/>
							<path class="st7" d="M161.2,130.8c-0.2,0-0.4,0-0.7,0c-1.3,0-2.1,0.7-2.1,2.4v3.9h-1.5v-7.7h1.5v1.3c0.6-1.2,1.5-1.5,2.3-1.5
								c0.2,0,0.4,0,0.5,0V130.8z"/>
							<path class="st7" d="M169.9,133.1c0,2.4-1.6,4.1-3.9,4.1c-2.3,0-3.9-1.7-3.9-4.1c0-2.3,1.6-4.1,3.9-4.1
								C168.3,129.1,169.9,130.8,169.9,133.1z M168.4,133.1c0-1.8-1.1-2.7-2.4-2.7c-1.3,0-2.4,1-2.4,2.7c0,1.8,1.1,2.8,2.4,2.8
								C167.3,135.9,168.4,134.9,168.4,133.1z"/>
							<path class="st7" d="M173.8,129.3h1.7v1.4h-1.7v4c0,0.7,0.3,1.1,1.1,1.1c0.2,0,0.5,0,0.6-0.1v1.3c-0.1,0-0.5,0.1-1,0.1
								c-1.3,0-2.1-0.8-2.1-2.2v-4.2h-1.5v-1.4h0.4c0.8,0,1.2-0.5,1.2-1.2v-1.2h1.4V129.3z"/>
							<path class="st7" d="M184.6,133.1c0,2.4-1.6,4.1-3.9,4.1c-2.3,0-3.9-1.7-3.9-4.1c0-2.3,1.6-4.1,3.9-4.1
								C183,129.1,184.6,130.8,184.6,133.1z M183.1,133.1c0-1.8-1.1-2.7-2.4-2.7c-1.3,0-2.4,1-2.4,2.7c0,1.8,1.1,2.8,2.4,2.8
								C182,135.9,183.1,134.9,183.1,133.1z"/>
							<path class="st7" d="M196.5,128.7c-0.1-0.8-0.8-1.9-2.4-1.9c-1.3,0-2.2,0.8-2.2,1.9c0,0.8,0.5,1.4,1.5,1.6l1.7,0.4
								c1.9,0.4,2.9,1.6,2.9,3.2c0,1.8-1.5,3.4-3.9,3.4c-2.7,0-4-1.8-4.2-3.4l1.5-0.5c0.1,1.3,1,2.4,2.7,2.4c1.6,0,2.3-0.8,2.3-1.8
								c0-0.8-0.6-1.5-1.7-1.8l-1.6-0.4c-1.6-0.4-2.8-1.4-2.8-3.1c0-1.8,1.6-3.4,3.7-3.4c2.6,0,3.6,1.6,3.8,2.8L196.5,128.7z"/>
							<path class="st7" d="M201.8,132.6l2.1-0.3c0.5-0.1,0.6-0.3,0.6-0.6c0-0.8-0.5-1.4-1.7-1.4c-1.1,0-1.6,0.7-1.7,1.6l-1.4-0.3
								c0.2-1.5,1.5-2.5,3.2-2.5c2.3,0,3.2,1.3,3.2,2.8v3.9c0,0.7,0.1,1.1,0.1,1.3h-1.5c0-0.2-0.1-0.5-0.1-1
								c-0.3,0.5-1.1,1.3-2.5,1.3c-1.6,0-2.6-1.1-2.6-2.3C199.5,133.6,200.5,132.8,201.8,132.6z M204.5,133.7v-0.4l-2.4,0.4
								c-0.6,0.1-1.1,0.5-1.1,1.2c0,0.6,0.5,1.1,1.2,1.1C203.5,136,204.5,135.4,204.5,133.7z"/>
							<path class="st7" d="M209.8,137h-1.5v-7.7h1.5v1.1c0.6-1,1.5-1.3,2.4-1.3c1.8,0,2.8,1.3,2.8,3v4.9h-1.5v-4.6
								c0-1.1-0.4-1.9-1.8-1.9c-1.2,0-1.8,0.9-1.8,2.1V137z"/>
							<path class="st7" d="M217.6,140.2l1.9-4.1l-3.3-6.9h1.7l2.4,5.3l2.3-5.3h1.6l-5,10.9H217.6z"/>
							<path class="st7" d="M227.3,132.6l2.1-0.3c0.5-0.1,0.6-0.3,0.6-0.6c0-0.8-0.5-1.4-1.7-1.4c-1.1,0-1.6,0.7-1.7,1.6l-1.4-0.3
								c0.2-1.5,1.5-2.5,3.2-2.5c2.3,0,3.2,1.3,3.2,2.8v3.9c0,0.7,0.1,1.1,0.1,1.3h-1.5c0-0.2-0.1-0.5-0.1-1
								c-0.3,0.5-1.1,1.3-2.5,1.3c-1.6,0-2.6-1.1-2.6-2.3C224.9,133.6,226,132.8,227.3,132.6z M230,133.7v-0.4l-2.4,0.4
								c-0.6,0.1-1.1,0.5-1.1,1.2c0,0.6,0.5,1.1,1.2,1.1C229,136,230,135.4,230,133.7z"/>
							<path class="st7" d="M233.8,137v-11.6h1.5V137H233.8z"/>
						</g>
						<g class="st1">
							<path class="st7" d="M129.4,185v-11.3h6.9v1.5H131v3.5h4.8v1.5H131v3.5h5.3v1.5H129.4z"/>
							<path class="st7" d="M138.6,185v-11.6h1.5V185H138.6z"/>
							<path class="st7" d="M143.4,173.3c0.6,0,1.1,0.5,1.1,1.1c0,0.6-0.5,1.1-1.1,1.1c-0.6,0-1.1-0.5-1.1-1.1
								C142.3,173.8,142.8,173.3,143.4,173.3z M142.6,185v-7.7h1.5v7.7H142.6z"/>
							<path class="st7" d="M146,185v-1.3l4.2-5h-4.2v-1.4h6v1.3l-4.2,5h4.3v1.4H146z"/>
							<path class="st7" d="M156,180.6l2.1-0.3c0.5-0.1,0.6-0.3,0.6-0.6c0-0.8-0.5-1.4-1.7-1.4c-1.1,0-1.6,0.7-1.7,1.6l-1.4-0.3
								c0.2-1.5,1.5-2.5,3.2-2.5c2.3,0,3.2,1.3,3.2,2.8v3.9c0,0.7,0.1,1.1,0.1,1.3h-1.5c0-0.2-0.1-0.5-0.1-1
								c-0.3,0.5-1.1,1.3-2.5,1.3c-1.6,0-2.6-1.1-2.6-2.3C153.7,181.6,154.7,180.8,156,180.6z M158.7,181.7v-0.4l-2.4,0.4
								c-0.6,0.1-1.1,0.5-1.1,1.2c0,0.6,0.5,1.1,1.2,1.1C157.7,184,158.7,183.4,158.7,181.7z"/>
							<path class="st7" d="M162.5,185v-11.6h1.5v5c0.4-0.7,1.3-1.3,2.5-1.3c2.3,0,3.5,1.8,3.5,4c0,2.3-1.3,4.1-3.6,4.1
								c-1.1,0-2-0.5-2.5-1.3v1.1H162.5z M166.3,178.4c-1.3,0-2.3,1-2.3,2.7s1,2.8,2.3,2.8c1.4,0,2.3-1.1,2.3-2.8
								S167.7,178.4,166.3,178.4z"/>
							<path class="st7" d="M178.7,182.8c-0.4,1.4-1.7,2.4-3.5,2.4c-2.1,0-3.9-1.5-3.9-4.1c0-2.4,1.7-4.1,3.7-4.1
								c2.4,0,3.7,1.6,3.7,4c0,0.2,0,0.4,0,0.5h-5.8c0,1.4,1,2.3,2.3,2.3c1.2,0,1.9-0.7,2.2-1.6L178.7,182.8z M177.2,180.4
								c0-1.1-0.8-2-2.1-2c-1.3,0-2,1-2.1,2H177.2z"/>
							<path class="st7" d="M182.7,177.3h1.7v1.4h-1.7v4c0,0.7,0.3,1.1,1.1,1.1c0.2,0,0.5,0,0.6-0.1v1.3c-0.1,0-0.5,0.1-1,0.1
								c-1.3,0-2.1-0.8-2.1-2.2v-4.2h-1.5v-1.4h0.4c0.8,0,1.2-0.5,1.2-1.2v-1.2h1.4V177.3z"/>
							<path class="st7" d="M187.9,185h-1.5v-11.6h1.5v4.8c0.6-0.8,1.5-1.1,2.3-1.1c1.8,0,2.8,1.3,2.8,3v4.9h-1.5v-4.6
								c0-1.1-0.4-1.9-1.8-1.9c-1.2,0-1.8,0.9-1.8,2V185z"/>
							<path class="st7" d="M206.1,181.8h-5l-1.2,3.2h-1.7l4.5-11.3h1.8l4.5,11.3h-1.7L206.1,181.8z M201.7,180.4h3.9l-2-5.1
								L201.7,180.4z"/>
							<path class="st7" d="M212.2,181.1l-2.8-3.8h1.8l1.9,2.7l1.9-2.7h1.8l-2.7,3.8c0.5,0.6,2.4,3.3,2.8,3.9h-1.8l-2-2.8l-2,2.8
								h-1.8L212.2,181.1z"/>
							<path class="st7" d="M224.9,182.8c-0.4,1.4-1.7,2.4-3.5,2.4c-2.1,0-3.9-1.5-3.9-4.1c0-2.4,1.7-4.1,3.7-4.1
								c2.4,0,3.7,1.6,3.7,4c0,0.2,0,0.4,0,0.5h-5.8c0,1.4,1,2.3,2.3,2.3c1.2,0,1.9-0.7,2.2-1.6L224.9,182.8z M223.4,180.4
								c0-1.1-0.8-2-2.1-2c-1.3,0-2,1-2.1,2H223.4z"/>
							<path class="st7" d="M226.9,185v-11.6h1.5V185H226.9z"/>
							<path class="st7" d="M231.6,182.5c0.1,0.8,0.7,1.4,1.8,1.4c0.8,0,1.3-0.5,1.3-1c0-0.5-0.4-0.8-1-1l-1.3-0.3
								c-1.2-0.3-1.9-1.1-1.9-2.2c0-1.3,1.2-2.4,2.7-2.4c2.1,0,2.8,1.4,2.9,2.1l-1.3,0.5c-0.1-0.4-0.4-1.3-1.6-1.3
								c-0.8,0-1.3,0.5-1.3,1c0,0.5,0.3,0.8,0.9,0.9l1.2,0.3c1.4,0.3,2.1,1.2,2.1,2.3c0,1.1-0.9,2.4-2.8,2.4c-2.1,0-3-1.4-3.1-2.2
								L231.6,182.5z"/>
							<path class="st7" d="M244.8,182.8c-0.4,1.4-1.7,2.4-3.5,2.4c-2.1,0-3.9-1.5-3.9-4.1c0-2.4,1.7-4.1,3.7-4.1
								c2.4,0,3.7,1.6,3.7,4c0,0.2,0,0.4,0,0.5H239c0,1.4,1,2.3,2.3,2.3c1.2,0,1.9-0.7,2.2-1.6L244.8,182.8z M243.3,180.4
								c0-1.1-0.8-2-2.1-2c-1.3,0-2,1-2.1,2H243.3z"/>
							<path class="st7" d="M248.3,185h-1.5v-7.7h1.5v1.1c0.6-1,1.5-1.3,2.4-1.3c1.8,0,2.8,1.3,2.8,3v4.9h-1.5v-4.6
								c0-1.1-0.4-1.9-1.8-1.9c-1.2,0-1.8,0.9-1.8,2.1V185z"/>
						</g>
						<g class="st1">
							<path class="st7" d="M140.1,233v-8.8l-3.9,8.8h-1.4l-3.8-8.8v8.8h-1.6v-11.3h2.1l4,9.2l4-9.2h2.1V233H140.1z"/>
							<path class="st7" d="M146.2,228.6l2.1-0.3c0.5-0.1,0.6-0.3,0.6-0.6c0-0.8-0.5-1.4-1.7-1.4c-1.1,0-1.6,0.7-1.7,1.6l-1.4-0.3
								c0.2-1.5,1.5-2.5,3.2-2.5c2.3,0,3.2,1.3,3.2,2.8v3.9c0,0.7,0.1,1.1,0.1,1.3H149c0-0.2-0.1-0.5-0.1-1
								c-0.3,0.5-1.1,1.3-2.5,1.3c-1.6,0-2.6-1.1-2.6-2.3C143.9,229.6,144.9,228.8,146.2,228.6z M148.9,229.7v-0.4l-2.4,0.4
								c-0.6,0.1-1.1,0.5-1.1,1.2c0,0.6,0.5,1.1,1.2,1.1C147.9,232,148.9,231.4,148.9,229.7z"/>
							<path class="st7" d="M154.4,229.1l-2.8-3.8h1.8l1.9,2.7l1.9-2.7h1.8l-2.7,3.8c0.5,0.6,2.4,3.3,2.8,3.9h-1.8l-2-2.8l-2,2.8
								h-1.8L154.4,229.1z"/>
							<path class="st7" d="M175.4,233v-8.8l-3.9,8.8h-1.4l-3.8-8.8v8.8h-1.6v-11.3h2.1l4,9.2l4-9.2h2.1V233H175.4z"/>
							<path class="st7" d="M180.4,221.3c0.6,0,1.1,0.5,1.1,1.1c0,0.6-0.5,1.1-1.1,1.1c-0.6,0-1.1-0.5-1.1-1.1
								C179.4,221.8,179.8,221.3,180.4,221.3z M179.7,233v-7.7h1.5v7.7H179.7z"/>
							<path class="st7" d="M184.6,229.1c0,1.8,1.1,2.7,2.4,2.7c1.4,0,2-1,2.1-1.6l1.3,0.6c-0.4,1.1-1.5,2.4-3.5,2.4
								c-2.2,0-3.9-1.8-3.9-4.1c0-2.4,1.7-4.1,3.9-4.1c2,0,3.1,1.3,3.4,2.4l-1.4,0.6c-0.2-0.8-0.8-1.6-2.1-1.6
								C185.8,226.5,184.6,227.3,184.6,229.1z"/>
							<path class="st7" d="M193.7,233h-1.5v-11.6h1.5v4.8c0.6-0.8,1.5-1.1,2.3-1.1c1.8,0,2.8,1.3,2.8,3v4.9h-1.5v-4.6
								c0-1.1-0.4-1.9-1.8-1.9c-1.2,0-1.8,0.9-1.8,2V233z"/>
							<path class="st7" d="M207.9,230.8c-0.4,1.4-1.7,2.4-3.5,2.4c-2.1,0-3.9-1.5-3.9-4.1c0-2.4,1.7-4.1,3.7-4.1
								c2.4,0,3.7,1.6,3.7,4c0,0.2,0,0.4,0,0.5h-5.8c0,1.4,1,2.3,2.3,2.3c1.2,0,1.9-0.7,2.2-1.6L207.9,230.8z M206.4,228.4
								c0-1.1-0.8-2-2.1-2c-1.3,0-2,1-2.1,2H206.4z"/>
							<path class="st7" d="M209.9,233v-11.6h1.5V233H209.9z"/>
						</g>
						<g class="st1">
							<path class="st3" d="M140.1,281v-8.8l-3.9,8.8h-1.4l-3.8-8.8v8.8h-1.6v-11.3h2.1l4,9.2l4-9.2h2.1V281H140.1z"/>
							<path class="st3" d="M146.2,276.6l2.1-0.3c0.5-0.1,0.6-0.3,0.6-0.6c0-0.8-0.5-1.4-1.7-1.4c-1.1,0-1.6,0.7-1.7,1.6l-1.4-0.3
								c0.2-1.5,1.5-2.5,3.2-2.5c2.3,0,3.2,1.3,3.2,2.8v3.9c0,0.7,0.1,1.1,0.1,1.3H149c0-0.2-0.1-0.5-0.1-1
								c-0.3,0.5-1.1,1.3-2.5,1.3c-1.6,0-2.6-1.1-2.6-2.3C143.9,277.6,144.9,276.8,146.2,276.6z M148.9,277.7v-0.4l-2.4,0.4
								c-0.6,0.1-1.1,0.5-1.1,1.2c0,0.6,0.5,1.1,1.2,1.1C147.9,280,148.9,279.4,148.9,277.7z"/>
							<path class="st3" d="M154.2,281h-1.5v-7.7h1.5v1.1c0.6-1,1.5-1.3,2.4-1.3c1.8,0,2.8,1.3,2.8,3v4.9h-1.5v-4.6
								c0-1.1-0.4-1.9-1.8-1.9c-1.2,0-1.8,0.9-1.8,2.1V281z"/>
							<path class="st3" d="M167.1,279.8c-0.4,0.7-1.2,1.4-2.4,1.4c-2.3,0-3.6-1.8-3.6-4.1c0-2.2,1.5-4,3.6-4c1.4,0,2.1,0.7,2.4,1.3
								v-5h1.5v10.2c0,0.7,0.1,1.3,0.1,1.4h-1.5c0-0.2-0.1-0.6-0.1-1V279.8z M164.8,279.9c1.4,0,2.2-1.2,2.2-2.8
								c0-1.6-0.8-2.7-2.2-2.7s-2.3,1.1-2.3,2.7C162.6,278.7,163.4,279.9,164.8,279.9z"/>
							<path class="st3" d="M177.8,278.8c-0.4,1.4-1.7,2.4-3.5,2.4c-2.1,0-3.9-1.5-3.9-4.1c0-2.4,1.7-4.1,3.7-4.1
								c2.4,0,3.7,1.6,3.7,4c0,0.2,0,0.4,0,0.5H172c0,1.4,1,2.3,2.3,2.3c1.2,0,1.9-0.7,2.2-1.6L177.8,278.8z M176.3,276.4
								c0-1.1-0.8-2-2.1-2c-1.3,0-2,1-2.1,2H176.3z"/>
							<path class="st3" d="M186.5,278.8c-0.4,1.4-1.7,2.4-3.5,2.4c-2.1,0-3.9-1.5-3.9-4.1c0-2.4,1.7-4.1,3.7-4.1
								c2.4,0,3.7,1.6,3.7,4c0,0.2,0,0.4,0,0.5h-5.8c0,1.4,1,2.3,2.3,2.3c1.2,0,1.9-0.7,2.2-1.6L186.5,278.8z M185,276.4
								c0-1.1-0.8-2-2.1-2c-1.3,0-2,1-2.1,2H185z"/>
							<path class="st3" d="M188.4,284v-10.7h1.5v1.2c0.4-0.8,1.3-1.4,2.6-1.4c2.3,0,3.5,1.8,3.5,4c0,2.3-1.3,4.1-3.6,4.1
								c-1.2,0-2.1-0.6-2.5-1.2v4.1H188.4z M192.2,274.5c-1.4,0-2.3,1.2-2.3,2.7c0,1.6,0.9,2.7,2.3,2.7c1.4,0,2.3-1.1,2.3-2.7
								C194.5,275.6,193.6,274.5,192.2,274.5z"/>
							<path class="st3" d="M202.1,281v-11.3h1.6v9.9h5.4v1.5H202.1z"/>
							<path class="st3" d="M213.2,281.2c-1.8,0-2.9-1.3-2.9-3.1v-4.8h1.5v4.6c0,1.1,0.5,2,1.7,2c1.2,0,1.8-0.8,1.8-2v-4.6h1.5v6.3
								c0,0.6,0,1.2,0.1,1.4h-1.4c0-0.2-0.1-0.6-0.1-0.9C215,280.9,214.1,281.2,213.2,281.2z"/>
							<path class="st3" d="M221.5,273.3h1.7v1.4h-1.7v4c0,0.7,0.3,1.1,1.1,1.1c0.2,0,0.5,0,0.6-0.1v1.3c-0.1,0-0.5,0.1-1,0.1
								c-1.3,0-2.1-0.8-2.1-2.2v-4.2h-1.5v-1.4h0.4c0.8,0,1.2-0.5,1.2-1.2v-1.2h1.4V273.3z"/>
							<path class="st3" d="M226.6,281h-1.5v-11.6h1.5v4.8c0.6-0.8,1.5-1.1,2.3-1.1c1.8,0,2.8,1.3,2.8,3v4.9h-1.5v-4.6
								c0-1.1-0.4-1.9-1.8-1.9c-1.2,0-1.8,0.9-1.8,2V281z"/>
							<path class="st3" d="M238.4,274.8c-0.2,0-0.4,0-0.7,0c-1.3,0-2.1,0.7-2.1,2.4v3.9h-1.5v-7.7h1.5v1.3c0.6-1.2,1.5-1.5,2.3-1.5
								c0.2,0,0.4,0,0.5,0V274.8z"/>
							<path class="st3" d="M241.8,276.6l2.1-0.3c0.5-0.1,0.6-0.3,0.6-0.6c0-0.8-0.5-1.4-1.7-1.4c-1.1,0-1.6,0.7-1.7,1.6l-1.4-0.3
								c0.2-1.5,1.5-2.5,3.2-2.5c2.3,0,3.2,1.3,3.2,2.8v3.9c0,0.7,0.1,1.1,0.1,1.3h-1.5c0-0.2-0.1-0.5-0.1-1
								c-0.3,0.5-1.1,1.3-2.5,1.3c-1.6,0-2.6-1.1-2.6-2.3C239.5,277.6,240.5,276.8,241.8,276.6z M244.5,277.7v-0.4l-2.4,0.4
								c-0.6,0.1-1.1,0.5-1.1,1.2c0,0.6,0.5,1.1,1.2,1.1C243.5,280,244.5,279.4,244.5,277.7z"/>
						</g>
						<g class="st1">
							<path class="st2" d="M338.4,34.8c-0.1-0.7-0.7-1.7-2.1-1.7c-1.1,0-1.9,0.7-1.9,1.7c0,0.7,0.4,1.3,1.3,1.4l1.5,0.3
								c1.7,0.4,2.6,1.4,2.6,2.8c0,1.5-1.3,2.9-3.4,2.9c-2.4,0-3.5-1.5-3.7-3l1.3-0.4c0.1,1.1,0.9,2.1,2.4,2.1c1.4,0,2-0.7,2-1.6
								c0-0.7-0.5-1.3-1.5-1.5l-1.4-0.3c-1.4-0.3-2.4-1.2-2.4-2.7c0-1.6,1.4-3,3.3-3c2.2,0,3.1,1.4,3.4,2.5L338.4,34.8z"/>
							<path class="st2" d="M343.5,42.2c-1.6,0-2.5-1.2-2.5-2.7v-4.2h1.3v4c0,0.9,0.4,1.7,1.5,1.7c1.1,0,1.6-0.7,1.6-1.7v-4.1h1.3
								v5.5c0,0.5,0,1,0.1,1.2h-1.3c0-0.2-0.1-0.5-0.1-0.8C345.1,41.9,344.3,42.2,343.5,42.2z"/>
							<path class="st2" d="M349,42V31.9h1.3v4.4c0.3-0.6,1.1-1.1,2.2-1.1c2,0,3.1,1.6,3.1,3.5c0,2-1.1,3.6-3.1,3.6
								c-1,0-1.8-0.4-2.2-1.2v1H349z M352.3,36.2c-1.2,0-2,0.9-2,2.4c0,1.5,0.8,2.4,2,2.4c1.2,0,2-1,2-2.4
								C354.3,37.1,353.5,36.2,352.3,36.2z"/>
							<path class="st2" d="M357.3,35.3h1.3v7.5c0,1.2-0.7,2.1-1.9,2.1c-0.5,0-0.7-0.1-0.8-0.1v-1.1c0.1,0,0.2,0,0.4,0
								c0.7,0,0.9-0.4,0.9-1V35.3z M357.9,31.7c0.5,0,1,0.4,1,1c0,0.5-0.4,0.9-1,0.9c-0.5,0-0.9-0.4-0.9-0.9
								C357,32.2,357.4,31.7,357.9,31.7z"/>
							<path class="st2" d="M366.7,40.1c-0.4,1.2-1.5,2.1-3,2.1c-1.8,0-3.4-1.3-3.4-3.6c0-2.1,1.5-3.6,3.2-3.6
								c2.1,0,3.2,1.4,3.2,3.5c0,0.2,0,0.3,0,0.4h-5.1c0,1.2,0.9,2,2,2c1.1,0,1.6-0.6,1.9-1.4L366.7,40.1z M365.4,37.9
								c0-1-0.7-1.7-1.8-1.7c-1.1,0-1.8,0.9-1.8,1.7H365.4z"/>
							<path class="st2" d="M369.2,38.6c0,1.5,1,2.4,2.1,2.4c1.3,0,1.7-0.9,1.9-1.4l1.2,0.5c-0.3,1-1.3,2.1-3,2.1
								c-2,0-3.4-1.5-3.4-3.6c0-2.1,1.5-3.6,3.4-3.6c1.8,0,2.7,1.1,3,2.1l-1.2,0.5c-0.2-0.7-0.7-1.4-1.8-1.4
								C370.2,36.3,369.2,37.1,369.2,38.6z"/>
							<path class="st2" d="M377.6,35.3h1.5v1.2h-1.5V40c0,0.6,0.3,0.9,0.9,0.9c0.2,0,0.4,0,0.5-0.1v1.1c-0.1,0-0.4,0.1-0.9,0.1
								c-1.1,0-1.9-0.7-1.9-1.9v-3.7H375v-1.2h0.4c0.7,0,1-0.4,1-1v-1.1h1.2V35.3z"/>
						</g>
						<g class="st1">
							<path class="st7" d="M332.7,83.3c0-3.8,2.8-5.9,5.6-5.9c2.6,0,4.4,1.4,5,3.6l-1.5,0.5c-0.4-1.7-1.7-2.7-3.5-2.7
								c-2.1,0-4,1.5-4,4.5c0,3,2,4.5,4,4.5c1.9,0,3.2-1.2,3.6-2.7l1.4,0.5c-0.6,2.1-2.4,3.6-5,3.6
								C335.4,89.2,332.7,87.1,332.7,83.3z"/>
							<path class="st7" d="M346.8,84.6l2.1-0.3c0.5-0.1,0.6-0.3,0.6-0.6c0-0.8-0.5-1.4-1.7-1.4c-1.1,0-1.6,0.7-1.7,1.6l-1.4-0.3
								c0.2-1.5,1.5-2.5,3.2-2.5c2.3,0,3.2,1.3,3.2,2.8v3.9c0,0.7,0.1,1.1,0.1,1.3h-1.5c0-0.2-0.1-0.5-0.1-1
								c-0.3,0.5-1.1,1.3-2.5,1.3c-1.6,0-2.6-1.1-2.6-2.3C344.5,85.6,345.5,84.8,346.8,84.6z M349.5,85.7v-0.4l-2.4,0.4
								c-0.6,0.1-1.1,0.5-1.1,1.2c0,0.6,0.5,1.1,1.2,1.1C348.5,88,349.5,87.4,349.5,85.7z"/>
							<path class="st7" d="M353.3,89V77.4h1.5V89H353.3z"/>
							<path class="st7" d="M357.4,89V77.4h1.5V89H357.4z"/>
							<path class="st7" d="M372.7,85.1c0,2.4-1.6,4.1-3.9,4.1c-2.3,0-3.9-1.7-3.9-4.1c0-2.3,1.6-4.1,3.9-4.1
								C371.1,81.1,372.7,82.8,372.7,85.1z M371.2,85.1c0-1.8-1.1-2.7-2.4-2.7c-1.3,0-2.4,1-2.4,2.7c0,1.8,1.1,2.8,2.4,2.8
								C370,87.9,371.2,86.9,371.2,85.1z"/>
							<path class="st7" d="M376.1,89h-1.5v-7.7h1.5v1.1c0.6-1,1.5-1.3,2.4-1.3c1.8,0,2.8,1.3,2.8,3V89h-1.5v-4.6
								c0-1.1-0.4-1.9-1.8-1.9c-1.2,0-1.8,0.9-1.8,2.1V89z"/>
							<path class="st7" d="M387.8,89V77.7h6.9v1.5h-5.3v3.6h4.8v1.5h-4.8V89H387.8z"/>
							<path class="st7" d="M400.3,82.8c-0.2,0-0.4,0-0.7,0c-1.3,0-2.1,0.7-2.1,2.4V89H396v-7.7h1.5v1.3c0.6-1.2,1.5-1.5,2.3-1.5
								c0.2,0,0.4,0,0.5,0V82.8z"/>
							<path class="st7" d="M402.6,77.3c0.6,0,1.1,0.5,1.1,1.1c0,0.6-0.5,1.1-1.1,1.1c-0.6,0-1.1-0.5-1.1-1.1
								C401.6,77.8,402,77.3,402.6,77.3z M401.9,89v-7.7h1.5V89H401.9z"/>
							<path class="st7" d="M411.3,87.8c-0.4,0.7-1.2,1.4-2.4,1.4c-2.3,0-3.6-1.8-3.6-4.1c0-2.2,1.5-4,3.6-4c1.4,0,2.1,0.7,2.4,1.3
								v-5h1.5v10.2c0,0.7,0.1,1.3,0.1,1.4h-1.5c0-0.2-0.1-0.6-0.1-1V87.8z M409.1,87.9c1.4,0,2.2-1.2,2.2-2.8
								c0-1.6-0.8-2.7-2.2-2.7c-1.4,0-2.3,1.1-2.3,2.7C406.8,86.7,407.6,87.9,409.1,87.9z"/>
							<path class="st7" d="M417.2,84.6l2.1-0.3c0.5-0.1,0.6-0.3,0.6-0.6c0-0.8-0.5-1.4-1.7-1.4c-1.1,0-1.6,0.7-1.7,1.6l-1.4-0.3
								c0.2-1.5,1.5-2.5,3.2-2.5c2.3,0,3.2,1.3,3.2,2.8v3.9c0,0.7,0.1,1.1,0.1,1.3H420c0-0.2-0.1-0.5-0.1-1
								c-0.3,0.5-1.1,1.3-2.5,1.3c-1.6,0-2.6-1.1-2.6-2.3C414.9,85.6,415.9,84.8,417.2,84.6z M419.9,85.7v-0.4l-2.4,0.4
								c-0.6,0.1-1.1,0.5-1.1,1.2c0,0.6,0.5,1.1,1.2,1.1C418.9,88,419.9,87.4,419.9,85.7z"/>
							<path class="st7" d="M423.8,92.2l1.9-4.1l-3.3-6.9h1.7l2.4,5.3l2.3-5.3h1.6l-5,10.9H423.8z"/>
						</g>
						<g class="st1">
							<path class="st7" d="M333.4,137v-11.3h4c2.9,0,5.4,2,5.4,5.7c0,3.7-2.5,5.7-5.4,5.7H333.4z M337.3,135.6
								c2.1,0,3.9-1.4,3.9-4.3c0-2.9-1.7-4.3-3.8-4.3H335v8.6H337.3z"/>
							<path class="st7" d="M352,133.1c0,2.4-1.6,4.1-3.9,4.1c-2.3,0-3.9-1.7-3.9-4.1c0-2.3,1.6-4.1,3.9-4.1
								C350.4,129.1,352,130.8,352,133.1z M350.5,133.1c0-1.8-1.1-2.7-2.4-2.7c-1.3,0-2.4,1-2.4,2.7c0,1.8,1.1,2.8,2.4,2.8
								C349.4,135.9,350.5,134.9,350.5,133.1z"/>
							<path class="st7" d="M354.8,133.1c0,1.8,1.1,2.7,2.4,2.7c1.4,0,2-1,2.1-1.6l1.3,0.6c-0.4,1.1-1.5,2.4-3.5,2.4
								c-2.2,0-3.9-1.8-3.9-4.1c0-2.4,1.7-4.1,3.9-4.1c2,0,3.1,1.3,3.4,2.4l-1.4,0.6c-0.2-0.8-0.8-1.6-2.1-1.6
								C356,130.5,354.8,131.3,354.8,133.1z"/>
							<path class="st7" d="M365.2,137.2c-1.8,0-2.9-1.3-2.9-3.1v-4.8h1.5v4.6c0,1.1,0.5,2,1.7,2c1.2,0,1.8-0.8,1.8-2v-4.6h1.5v6.3
								c0,0.6,0,1.2,0.1,1.4h-1.4c0-0.2-0.1-0.6-0.1-0.9C367,136.9,366,137.2,365.2,137.2z"/>
							<path class="st7" d="M371.4,137v-7.7h1.4v1c0.5-0.8,1.4-1.2,2.3-1.2c1,0,1.9,0.5,2.3,1.5c0.6-1.1,1.6-1.5,2.6-1.5
								c1.3,0,2.7,0.9,2.7,2.9v5h-1.5v-4.8c0-1-0.5-1.8-1.6-1.8c-1.1,0-1.8,0.8-1.8,1.9v4.7h-1.5v-4.8c0-1-0.5-1.8-1.6-1.8
								c-1.1,0-1.8,0.8-1.8,2v4.6H371.4z"/>
							<path class="st7" d="M391.8,134.8c-0.4,1.4-1.7,2.4-3.5,2.4c-2.1,0-3.9-1.5-3.9-4.1c0-2.4,1.7-4.1,3.7-4.1
								c2.4,0,3.7,1.6,3.7,4c0,0.2,0,0.4,0,0.5H386c0,1.4,1,2.3,2.3,2.3c1.2,0,1.9-0.7,2.2-1.6L391.8,134.8z M390.3,132.4
								c0-1.1-0.8-2-2.1-2c-1.3,0-2,1-2.1,2H390.3z"/>
							<path class="st7" d="M395.3,137h-1.5v-7.7h1.5v1.1c0.6-1,1.5-1.3,2.4-1.3c1.8,0,2.8,1.3,2.8,3v4.9h-1.5v-4.6
								c0-1.1-0.4-1.9-1.8-1.9c-1.2,0-1.8,0.9-1.8,2.1V137z"/>
							<path class="st7" d="M404.8,129.3h1.7v1.4h-1.7v4c0,0.7,0.3,1.1,1.1,1.1c0.2,0,0.5,0,0.6-0.1v1.3c-0.1,0-0.5,0.1-1,0.1
								c-1.3,0-2.1-0.8-2.1-2.2v-4.2h-1.5v-1.4h0.4c0.8,0,1.2-0.5,1.2-1.2v-1.2h1.4V129.3z"/>
							<path class="st7" d="M412.6,137v-11.3h1.6v9.9h5.4v1.5H412.6z"/>
							<path class="st7" d="M422,125.3c0.6,0,1.1,0.5,1.1,1.1c0,0.6-0.5,1.1-1.1,1.1c-0.6,0-1.1-0.5-1.1-1.1
								C420.9,125.8,421.4,125.3,422,125.3z M421.2,137v-7.7h1.5v7.7H421.2z"/>
							<path class="st7" d="M425.9,134.5c0.1,0.8,0.7,1.4,1.8,1.4c0.8,0,1.3-0.5,1.3-1c0-0.5-0.4-0.8-1-1l-1.3-0.3
								c-1.2-0.3-1.9-1.1-1.9-2.2c0-1.3,1.2-2.4,2.7-2.4c2.1,0,2.8,1.4,2.9,2.1l-1.3,0.5c-0.1-0.4-0.4-1.3-1.6-1.3
								c-0.8,0-1.3,0.5-1.3,1c0,0.5,0.3,0.8,0.9,0.9l1.2,0.3c1.4,0.3,2.1,1.2,2.1,2.3c0,1.1-0.9,2.4-2.8,2.4c-2.1,0-3-1.4-3.1-2.2
								L425.9,134.5z"/>
							<path class="st7" d="M434.5,129.3h1.7v1.4h-1.7v4c0,0.7,0.3,1.1,1.1,1.1c0.2,0,0.5,0,0.6-0.1v1.3c-0.1,0-0.5,0.1-1,0.1
								c-1.3,0-2.1-0.8-2.1-2.2v-4.2h-1.5v-1.4h0.4c0.8,0,1.2-0.5,1.2-1.2v-1.2h1.4V129.3z"/>
						</g>
						<g class="st1">
							<path class="st7" d="M333.4,185v-11.3h6.9v1.5H335v3.6h4.8v1.5H335v4.8H333.4z"/>
							<path class="st7" d="M347.7,177.3l2,5.8l1.7-5.8h1.6l-2.5,7.7h-1.6l-2-5.9l-2,5.9h-1.6l-2.5-7.7h1.6l1.7,5.8l2-5.8H347.7z"/>
							<path class="st7" d="M359.7,183.8c-0.4,0.7-1.2,1.4-2.4,1.4c-2.3,0-3.6-1.8-3.6-4.1c0-2.2,1.5-4,3.6-4c1.4,0,2.1,0.7,2.4,1.3
								v-5h1.5v10.2c0,0.7,0.1,1.3,0.1,1.4h-1.5c0-0.2-0.1-0.6-0.1-1V183.8z M357.5,183.9c1.4,0,2.2-1.2,2.2-2.8
								c0-1.6-0.8-2.7-2.2-2.7s-2.3,1.1-2.3,2.7C355.2,182.7,356,183.9,357.5,183.9z"/>
							<path class="st7" d="M364.7,177.2c0.6,0,1.1,0.5,1.1,1.1c0,0.6-0.5,1.1-1.1,1.1c-0.6,0-1.1-0.5-1.1-1.1
								C363.6,177.7,364.1,177.2,364.7,177.2z M364.8,182.9c0.6,0,1.1,0.5,1.1,1.1s-0.5,1.1-1.1,1.1c-0.6,0-1.1-0.5-1.1-1.1
								S364.1,182.9,364.8,182.9z"/>
							<path class="st7" d="M372.5,185v-11.3h6.9v1.5h-5.3v3.5h4.8v1.5h-4.8v3.5h5.3v1.5H372.5z"/>
							<path class="st7" d="M383.4,181.1l-2.8-3.8h1.8l1.9,2.7l1.9-2.7h1.8l-2.7,3.8c0.5,0.6,2.4,3.3,2.8,3.9h-1.8l-2-2.8l-2,2.8
								h-1.8L383.4,181.1z"/>
							<path class="st7" d="M390.2,181.1c0,1.8,1.1,2.7,2.4,2.7c1.4,0,2-1,2.1-1.6l1.3,0.6c-0.4,1.1-1.5,2.4-3.5,2.4
								c-2.2,0-3.9-1.8-3.9-4.1c0-2.4,1.7-4.1,3.9-4.1c2,0,3.1,1.3,3.4,2.4l-1.4,0.6c-0.2-0.8-0.8-1.6-2.1-1.6
								C391.4,178.5,390.2,179.3,390.2,181.1z"/>
							<path class="st7" d="M398.6,173.3c0.6,0,1.1,0.5,1.1,1.1c0,0.6-0.5,1.1-1.1,1.1c-0.6,0-1.1-0.5-1.1-1.1
								C397.5,173.8,398,173.3,398.6,173.3z M397.8,185v-7.7h1.5v7.7H397.8z"/>
							<path class="st7" d="M403.9,177.3h1.7v1.4h-1.7v4c0,0.7,0.3,1.1,1.1,1.1c0.2,0,0.5,0,0.6-0.1v1.3c-0.1,0-0.5,0.1-1,0.1
								c-1.3,0-2.1-0.8-2.1-2.2v-4.2h-1.5v-1.4h0.4c0.8,0,1.2-0.5,1.2-1.2v-1.2h1.4V177.3z"/>
							<path class="st7" d="M408.3,173.3c0.6,0,1.1,0.5,1.1,1.1c0,0.6-0.5,1.1-1.1,1.1c-0.6,0-1.1-0.5-1.1-1.1
								C407.2,173.8,407.7,173.3,408.3,173.3z M407.6,185v-7.7h1.5v7.7H407.6z"/>
							<path class="st7" d="M413.1,185h-1.5v-7.7h1.5v1.1c0.6-1,1.5-1.3,2.4-1.3c1.8,0,2.8,1.3,2.8,3v4.9h-1.5v-4.6
								c0-1.1-0.4-1.9-1.8-1.9c-1.2,0-1.8,0.9-1.8,2.1V185z"/>
							<path class="st7" d="M421.5,185.1c0.1,1.1,0.9,1.9,2.1,1.9c1.6,0,2.4-0.8,2.4-2.5v-1.1c-0.4,0.7-1.2,1.3-2.4,1.3
								c-2,0-3.5-1.6-3.5-3.7c0-2.1,1.4-3.7,3.5-3.7c1.2,0,2,0.4,2.4,1.2v-1.1h1.5v7.1c0,2-1,3.9-3.9,3.9c-1.9,0-3.4-1.2-3.6-2.9
								L421.5,185.1z M426,180.9c0-1.5-0.9-2.5-2.2-2.5c-1.3,0-2.2,1-2.2,2.5c0,1.5,0.9,2.5,2.2,2.5
								C425.1,183.4,426,182.4,426,180.9z"/>
							<path class="st7" d="M441.1,181.1c0,2.4-1.6,4.1-3.9,4.1c-2.3,0-3.9-1.7-3.9-4.1c0-2.3,1.6-4.1,3.9-4.1
								C439.4,177.1,441.1,178.8,441.1,181.1z M439.5,181.1c0-1.8-1.1-2.7-2.4-2.7c-1.3,0-2.4,1-2.4,2.7c0,1.8,1.1,2.8,2.4,2.8
								C438.4,183.9,439.5,182.9,439.5,181.1z"/>
							<path class="st7" d="M443,188v-10.7h1.5v1.2c0.4-0.8,1.3-1.4,2.6-1.4c2.3,0,3.5,1.8,3.5,4c0,2.3-1.3,4.1-3.6,4.1
								c-1.2,0-2.1-0.6-2.5-1.2v4.1H443z M446.8,178.5c-1.4,0-2.3,1.2-2.3,2.7c0,1.6,0.9,2.7,2.3,2.7c1.4,0,2.3-1.1,2.3-2.7
								C449,179.6,448.2,178.5,446.8,178.5z"/>
							<path class="st7" d="M452.5,188v-10.7h1.5v1.2c0.4-0.8,1.3-1.4,2.6-1.4c2.3,0,3.5,1.8,3.5,4c0,2.3-1.3,4.1-3.6,4.1
								c-1.2,0-2.1-0.6-2.5-1.2v4.1H452.5z M456.2,178.5c-1.4,0-2.3,1.2-2.3,2.7c0,1.6,0.9,2.7,2.3,2.7c1.4,0,2.3-1.1,2.3-2.7
								C458.5,179.6,457.6,178.5,456.2,178.5z"/>
							<path class="st7" d="M469.2,181.1c0,2.4-1.6,4.1-3.9,4.1c-2.3,0-3.9-1.7-3.9-4.1c0-2.3,1.6-4.1,3.9-4.1
								C467.6,177.1,469.2,178.8,469.2,181.1z M467.7,181.1c0-1.8-1.1-2.7-2.4-2.7c-1.3,0-2.4,1-2.4,2.7c0,1.8,1.1,2.8,2.4,2.8
								C466.5,183.9,467.7,182.9,467.7,181.1z"/>
							<path class="st7" d="M475.4,178.8c-0.2,0-0.4,0-0.7,0c-1.3,0-2.1,0.7-2.1,2.4v3.9h-1.5v-7.7h1.5v1.3c0.6-1.2,1.5-1.5,2.3-1.5
								c0.2,0,0.4,0,0.5,0V178.8z"/>
							<path class="st7" d="M479.4,177.3h1.7v1.4h-1.7v4c0,0.7,0.3,1.1,1.1,1.1c0.2,0,0.5,0,0.6-0.1v1.3c-0.1,0-0.5,0.1-1,0.1
								c-1.3,0-2.1-0.8-2.1-2.2v-4.2h-1.5v-1.4h0.4c0.8,0,1.2-0.5,1.2-1.2v-1.2h1.4V177.3z"/>
							<path class="st7" d="M485.9,185.2c-1.8,0-2.9-1.3-2.9-3.1v-4.8h1.5v4.6c0,1.1,0.5,2,1.7,2c1.2,0,1.8-0.8,1.8-2v-4.6h1.5v6.3
								c0,0.6,0,1.2,0.1,1.4h-1.4c0-0.2-0.1-0.6-0.1-0.9C487.7,184.9,486.8,185.2,485.9,185.2z"/>
							<path class="st7" d="M493.6,185h-1.5v-7.7h1.5v1.1c0.6-1,1.5-1.3,2.4-1.3c1.8,0,2.8,1.3,2.8,3v4.9h-1.5v-4.6
								c0-1.1-0.4-1.9-1.8-1.9c-1.2,0-1.8,0.9-1.8,2.1V185z"/>
							<path class="st7" d="M501.9,173.3c0.6,0,1.1,0.5,1.1,1.1c0,0.6-0.5,1.1-1.1,1.1c-0.6,0-1.1-0.5-1.1-1.1
								C500.8,173.8,501.3,173.3,501.9,173.3z M501.1,185v-7.7h1.5v7.7H501.1z"/>
							<path class="st7" d="M507.2,177.3h1.7v1.4h-1.7v4c0,0.7,0.3,1.1,1.1,1.1c0.2,0,0.5,0,0.6-0.1v1.3c-0.1,0-0.5,0.1-1,0.1
								c-1.3,0-2.1-0.8-2.1-2.2v-4.2h-1.5v-1.4h0.4c0.8,0,1.2-0.5,1.2-1.2v-1.2h1.4V177.3z"/>
							<path class="st7" d="M511.2,188.2l1.9-4.1l-3.3-6.9h1.7l2.4,5.3l2.3-5.3h1.6l-5,10.9H511.2z"/>
						</g>
						<g class="st1">
							<path class="st7" d="M341.1,233l-6.1-9.3v9.3h-1.6v-11.3h2.1l5.7,8.7v-8.7h1.6V233H341.1z"/>
							<path class="st7" d="M352.2,230.8c-0.4,1.4-1.7,2.4-3.5,2.4c-2.1,0-3.9-1.5-3.9-4.1c0-2.4,1.7-4.1,3.7-4.1
								c2.4,0,3.7,1.6,3.7,4c0,0.2,0,0.4,0,0.5h-5.8c0,1.4,1,2.3,2.3,2.3c1.2,0,1.9-0.7,2.2-1.6L352.2,230.8z M350.7,228.4
								c0-1.1-0.8-2-2.1-2c-1.3,0-2,1-2.1,2H350.7z"/>
							<path class="st7" d="M360,225.3l2,5.8l1.7-5.8h1.6l-2.5,7.7h-1.6l-2-5.9l-2,5.9h-1.6l-2.5-7.7h1.6l1.7,5.8l2-5.8H360z"/>
							<path class="st7" d="M378,229.1c0,2.4-1.6,4.1-3.9,4.1c-2.3,0-3.9-1.7-3.9-4.1c0-2.3,1.6-4.1,3.9-4.1
								C376.4,225.1,378,226.8,378,229.1z M376.5,229.1c0-1.8-1.1-2.7-2.4-2.7c-1.3,0-2.4,1-2.4,2.7c0,1.8,1.1,2.8,2.4,2.8
								C375.3,231.9,376.5,230.9,376.5,229.1z"/>
							<path class="st7" d="M387,224.1v1.2h1.9v1.4H387v6.3h-1.6v-6.3h-3.5v6.3h-1.6v-6.3H379v-1.4h1.4V224c0-1.7,1.1-2.6,2.5-2.6
								c0.5,0,0.8,0.1,0.9,0.2v1.3c-0.1,0-0.3-0.1-0.7-0.1c-0.5,0-1.2,0.3-1.2,1.3v1.2h3.5V224c0-1.7,1.1-2.6,2.5-2.6
								c0.5,0,0.8,0.1,0.9,0.2v1.3c-0.1,0-0.3-0.1-0.7-0.1C387.7,222.8,387,223,387,224.1z"/>
							<path class="st7" d="M397.2,230.8c-0.4,1.4-1.7,2.4-3.5,2.4c-2.1,0-3.9-1.5-3.9-4.1c0-2.4,1.7-4.1,3.7-4.1
								c2.4,0,3.7,1.6,3.7,4c0,0.2,0,0.4,0,0.5h-5.8c0,1.4,1,2.3,2.3,2.3c1.2,0,1.9-0.7,2.2-1.6L397.2,230.8z M395.7,228.4
								c0-1.1-0.8-2-2.1-2c-1.3,0-2,1-2.1,2H395.7z"/>
							<path class="st7" d="M403.4,226.8c-0.2,0-0.4,0-0.7,0c-1.3,0-2.1,0.7-2.1,2.4v3.9h-1.5v-7.7h1.5v1.3c0.6-1.2,1.5-1.5,2.3-1.5
								c0.2,0,0.4,0,0.5,0V226.8z"/>
							<path class="st7" d="M411,226.7v6.3h-1.6v-6.3H408v-1.4h1.4V224c0-1.7,1.1-2.6,2.5-2.6c0.5,0,0.8,0.1,0.9,0.2v1.3
								c-0.1,0-0.3-0.1-0.7-0.1c-0.5,0-1.2,0.3-1.2,1.3v1.2h1.9v1.4H411z"/>
							<path class="st7" d="M418.8,226.8c-0.2,0-0.4,0-0.7,0c-1.3,0-2.1,0.7-2.1,2.4v3.9h-1.5v-7.7h1.5v1.3c0.6-1.2,1.5-1.5,2.3-1.5
								c0.2,0,0.4,0,0.5,0V226.8z"/>
							<path class="st7" d="M427.5,229.1c0,2.4-1.6,4.1-3.9,4.1c-2.3,0-3.9-1.7-3.9-4.1c0-2.3,1.6-4.1,3.9-4.1
								C425.9,225.1,427.5,226.8,427.5,229.1z M426,229.1c0-1.8-1.1-2.7-2.4-2.7c-1.3,0-2.4,1-2.4,2.7c0,1.8,1.1,2.8,2.4,2.8
								C424.9,231.9,426,230.9,426,229.1z"/>
							<path class="st7" d="M429.4,233v-7.7h1.4v1c0.5-0.8,1.4-1.2,2.3-1.2c1,0,1.9,0.5,2.3,1.5c0.6-1.1,1.6-1.5,2.6-1.5
								c1.3,0,2.7,0.9,2.7,2.9v5h-1.5v-4.8c0-1-0.5-1.8-1.6-1.8c-1.1,0-1.8,0.8-1.8,1.9v4.7h-1.5v-4.8c0-1-0.5-1.8-1.6-1.8
								c-1.1,0-1.8,0.8-1.8,2v4.6H429.4z"/>
							<path class="st7" d="M453.1,224.7c-0.1-0.8-0.8-1.9-2.4-1.9c-1.3,0-2.2,0.8-2.2,1.9c0,0.8,0.5,1.4,1.5,1.6l1.7,0.4
								c1.9,0.4,2.9,1.6,2.9,3.2c0,1.8-1.5,3.4-3.9,3.4c-2.7,0-4-1.8-4.2-3.4l1.5-0.5c0.1,1.3,1,2.4,2.7,2.4c1.6,0,2.3-0.8,2.3-1.8
								c0-0.8-0.6-1.5-1.7-1.8l-1.6-0.4c-1.6-0.4-2.8-1.4-2.8-3.1c0-1.8,1.6-3.4,3.7-3.4c2.6,0,3.6,1.6,3.8,2.8L453.1,224.7z"/>
							<path class="st7" d="M458.4,228.6l2.1-0.3c0.5-0.1,0.6-0.3,0.6-0.6c0-0.8-0.5-1.4-1.7-1.4c-1.1,0-1.6,0.7-1.7,1.6l-1.4-0.3
								c0.2-1.5,1.5-2.5,3.2-2.5c2.3,0,3.2,1.3,3.2,2.8v3.9c0,0.7,0.1,1.1,0.1,1.3h-1.5c0-0.2-0.1-0.5-0.1-1
								c-0.3,0.5-1.1,1.3-2.5,1.3c-1.6,0-2.6-1.1-2.6-2.3C456.1,229.6,457.1,228.8,458.4,228.6z M461.1,229.7v-0.4l-2.4,0.4
								c-0.6,0.1-1.1,0.5-1.1,1.2c0,0.6,0.5,1.1,1.2,1.1C460.1,232,461.1,231.4,461.1,229.7z"/>
							<path class="st7" d="M464.9,233v-11.6h1.5V233H464.9z"/>
							<path class="st7" d="M475.7,230.8c-0.4,1.4-1.7,2.4-3.5,2.4c-2.1,0-3.9-1.5-3.9-4.1c0-2.4,1.7-4.1,3.7-4.1
								c2.4,0,3.7,1.6,3.7,4c0,0.2,0,0.4,0,0.5h-5.8c0,1.4,1,2.3,2.3,2.3c1.2,0,1.9-0.7,2.2-1.6L475.7,230.8z M474.2,228.4
								c0-1.1-0.8-2-2.1-2c-1.3,0-2,1-2.1,2H474.2z"/>
							<path class="st7" d="M478.3,230.5c0.1,0.8,0.7,1.4,1.8,1.4c0.8,0,1.3-0.5,1.3-1c0-0.5-0.4-0.8-1-1l-1.3-0.3
								c-1.2-0.3-1.9-1.1-1.9-2.2c0-1.3,1.2-2.4,2.7-2.4c2.1,0,2.8,1.4,2.9,2.1l-1.3,0.5c-0.1-0.4-0.4-1.3-1.6-1.3
								c-0.8,0-1.3,0.5-1.3,1c0,0.5,0.3,0.8,0.9,0.9l1.2,0.3c1.4,0.3,2.1,1.2,2.1,2.3c0,1.1-0.9,2.4-2.8,2.4c-2.1,0-3-1.4-3.1-2.2
								L478.3,230.5z"/>
							<path class="st7" d="M492.4,233v-5h-5.8v5h-1.6v-11.3h1.6v4.8h5.8v-4.8h1.6V233H492.4z"/>
							<path class="st7" d="M503.4,230.8c-0.4,1.4-1.7,2.4-3.5,2.4c-2.1,0-3.9-1.5-3.9-4.1c0-2.4,1.7-4.1,3.7-4.1
								c2.4,0,3.7,1.6,3.7,4c0,0.2,0,0.4,0,0.5h-5.8c0,1.4,1,2.3,2.3,2.3c1.2,0,1.9-0.7,2.2-1.6L503.4,230.8z M501.9,228.4
								c0-1.1-0.8-2-2.1-2c-1.3,0-2,1-2.1,2H501.9z"/>
							<path class="st7" d="M509.6,226.8c-0.2,0-0.4,0-0.7,0c-1.3,0-2.1,0.7-2.1,2.4v3.9h-1.5v-7.7h1.5v1.3c0.6-1.2,1.5-1.5,2.3-1.5
								c0.2,0,0.4,0,0.5,0V226.8z"/>
							<path class="st7" d="M518.4,229.1c0,2.4-1.6,4.1-3.9,4.1c-2.3,0-3.9-1.7-3.9-4.1c0-2.3,1.6-4.1,3.9-4.1
								C516.8,225.1,518.4,226.8,518.4,229.1z M516.9,229.1c0-1.8-1.1-2.7-2.4-2.7c-1.3,0-2.4,1-2.4,2.7c0,1.8,1.1,2.8,2.4,2.8
								C515.7,231.9,516.9,230.9,516.9,229.1z"/>
						</g>
						<g class="st1">
							<path class="st3" d="M337.5,271.1v9.9H336v-9.9h-3.8v-1.5h9.2v1.5H337.5z"/>
							<path class="st3" d="M347.9,278.8c-0.4,1.4-1.7,2.4-3.5,2.4c-2.1,0-3.9-1.5-3.9-4.1c0-2.4,1.7-4.1,3.7-4.1
								c2.4,0,3.7,1.6,3.7,4c0,0.2,0,0.4,0,0.5h-5.8c0,1.4,1,2.3,2.3,2.3c1.2,0,1.9-0.7,2.2-1.6L347.9,278.8z M346.4,276.4
								c0-1.1-0.8-2-2.1-2c-1.3,0-2,1-2.1,2H346.4z"/>
							<path class="st3" d="M350.8,277.1c0,1.8,1.1,2.7,2.4,2.7c1.4,0,2-1,2.1-1.6l1.3,0.6c-0.4,1.1-1.5,2.4-3.5,2.4
								c-2.2,0-3.9-1.8-3.9-4.1c0-2.4,1.7-4.1,3.9-4.1c2,0,3.1,1.3,3.4,2.4l-1.4,0.6c-0.2-0.8-0.8-1.6-2.1-1.6
								C351.9,274.5,350.8,275.3,350.8,277.1z"/>
							<path class="st3" d="M359.9,281h-1.5v-11.6h1.5v4.8c0.6-0.8,1.5-1.1,2.3-1.1c1.8,0,2.8,1.3,2.8,3v4.9h-1.5v-4.6
								c0-1.1-0.4-1.9-1.8-1.9c-1.2,0-1.8,0.9-1.8,2V281z"/>
							<path class="st3" d="M368.9,281h-1.5v-7.7h1.5v1.1c0.6-1,1.5-1.3,2.4-1.3c1.8,0,2.8,1.3,2.8,3v4.9h-1.5v-4.6
								c0-1.1-0.4-1.9-1.8-1.9c-1.2,0-1.8,0.9-1.8,2.1V281z"/>
							<path class="st3" d="M377.1,269.3c0.6,0,1.1,0.5,1.1,1.1c0,0.6-0.5,1.1-1.1,1.1c-0.6,0-1.1-0.5-1.1-1.1
								C376,269.8,376.5,269.3,377.1,269.3z M376.4,281v-7.7h1.5v7.7H376.4z"/>
							<path class="st3" d="M381.3,277.1c0,1.8,1.1,2.7,2.4,2.7c1.4,0,2-1,2.1-1.6l1.3,0.6c-0.4,1.1-1.5,2.4-3.5,2.4
								c-2.2,0-3.9-1.8-3.9-4.1c0-2.4,1.7-4.1,3.9-4.1c2,0,3.1,1.3,3.4,2.4l-1.4,0.6c-0.2-0.8-0.8-1.6-2.1-1.6
								C382.4,274.5,381.3,275.3,381.3,277.1z"/>
							<path class="st3" d="M390.7,276.6l2.1-0.3c0.5-0.1,0.6-0.3,0.6-0.6c0-0.8-0.5-1.4-1.7-1.4c-1.1,0-1.6,0.7-1.7,1.6l-1.4-0.3
								c0.2-1.5,1.5-2.5,3.2-2.5c2.3,0,3.2,1.3,3.2,2.8v3.9c0,0.7,0.1,1.1,0.1,1.3h-1.5c0-0.2-0.1-0.5-0.1-1
								c-0.3,0.5-1.1,1.3-2.5,1.3c-1.6,0-2.6-1.1-2.6-2.3C388.3,277.6,389.3,276.8,390.7,276.6z M393.3,277.7v-0.4l-2.4,0.4
								c-0.6,0.1-1.1,0.5-1.1,1.2c0,0.6,0.5,1.1,1.2,1.1C392.4,280,393.3,279.4,393.3,277.7z"/>
							<path class="st3" d="M397.2,281v-11.6h1.5V281H397.2z"/>
							<path class="st3" d="M410.4,269.4c2.8,0,5.7,2.1,5.7,5.9c0,1.8-0.6,3.2-1.6,4.2l1.3,1.5l-1.1,0.9l-1.4-1.5
								c-0.9,0.5-1.9,0.8-3,0.8c-2.8,0-5.7-2.1-5.7-5.9C404.7,271.5,407.5,269.4,410.4,269.4z M410.4,279.8c0.7,0,1.4-0.2,2-0.5
								l-2-2.2l1.1-0.9l2,2.2c0.6-0.7,1-1.8,1-3.1c0-3-2-4.5-4.1-4.5c-2.1,0-4.1,1.5-4.1,4.5C406.3,278.3,408.3,279.8,410.4,279.8z"
								/>
							<path class="st3" d="M420.9,281.2c-1.8,0-2.9-1.3-2.9-3.1v-4.8h1.5v4.6c0,1.1,0.5,2,1.7,2c1.2,0,1.8-0.8,1.8-2v-4.6h1.5v6.3
								c0,0.6,0,1.2,0.1,1.4h-1.4c0-0.2-0.1-0.6-0.1-0.9C422.7,280.9,421.8,281.2,420.9,281.2z"/>
							<path class="st3" d="M433.8,278.8c-0.4,1.4-1.7,2.4-3.5,2.4c-2.1,0-3.9-1.5-3.9-4.1c0-2.4,1.7-4.1,3.7-4.1
								c2.4,0,3.7,1.6,3.7,4c0,0.2,0,0.4,0,0.5H428c0,1.4,1,2.3,2.3,2.3c1.2,0,1.9-0.7,2.2-1.6L433.8,278.8z M432.2,276.4
								c0-1.1-0.8-2-2.1-2c-1.3,0-2,1-2.1,2H432.2z"/>
							<path class="st3" d="M436.4,278.5c0.1,0.8,0.7,1.4,1.8,1.4c0.8,0,1.3-0.5,1.3-1c0-0.5-0.4-0.8-1-1l-1.3-0.3
								c-1.2-0.3-1.9-1.1-1.9-2.2c0-1.3,1.2-2.4,2.7-2.4c2.1,0,2.8,1.4,2.9,2.1l-1.3,0.5c-0.1-0.4-0.4-1.3-1.6-1.3
								c-0.8,0-1.3,0.5-1.3,1c0,0.5,0.3,0.8,0.9,0.9l1.2,0.3c1.4,0.3,2.1,1.2,2.1,2.3c0,1.1-0.9,2.4-2.8,2.4c-2.1,0-3-1.4-3.1-2.2
								L436.4,278.5z"/>
							<path class="st3" d="M445,273.3h1.7v1.4H445v4c0,0.7,0.3,1.1,1.1,1.1c0.2,0,0.5,0,0.6-0.1v1.3c-0.1,0-0.5,0.1-1,0.1
								c-1.3,0-2.1-0.8-2.1-2.2v-4.2H442v-1.4h0.4c0.8,0,1.2-0.5,1.2-1.2v-1.2h1.4V273.3z"/>
							<path class="st3" d="M449.4,269.3c0.6,0,1.1,0.5,1.1,1.1c0,0.6-0.5,1.1-1.1,1.1c-0.6,0-1.1-0.5-1.1-1.1
								C448.3,269.8,448.8,269.3,449.4,269.3z M448.6,281v-7.7h1.5v7.7H448.6z"/>
							<path class="st3" d="M459.9,277.1c0,2.4-1.6,4.1-3.9,4.1c-2.3,0-3.9-1.7-3.9-4.1c0-2.3,1.6-4.1,3.9-4.1
								C458.3,273.1,459.9,274.8,459.9,277.1z M458.4,277.1c0-1.8-1.1-2.7-2.4-2.7c-1.3,0-2.4,1-2.4,2.7c0,1.8,1.1,2.8,2.4,2.8
								C457.3,279.9,458.4,278.9,458.4,277.1z"/>
							<path class="st3" d="M463.3,281h-1.5v-7.7h1.5v1.1c0.6-1,1.5-1.3,2.4-1.3c1.8,0,2.8,1.3,2.8,3v4.9h-1.5v-4.6
								c0-1.1-0.4-1.9-1.8-1.9c-1.2,0-1.8,0.9-1.8,2.1V281z"/>
							<path class="st3" d="M471.5,278.5c0.1,0.8,0.7,1.4,1.8,1.4c0.8,0,1.3-0.5,1.3-1c0-0.5-0.4-0.8-1-1l-1.3-0.3
								c-1.2-0.3-1.9-1.1-1.9-2.2c0-1.3,1.2-2.4,2.7-2.4c2.1,0,2.8,1.4,2.9,2.1l-1.3,0.5c-0.1-0.4-0.4-1.3-1.6-1.3
								c-0.8,0-1.3,0.5-1.3,1c0,0.5,0.3,0.8,0.9,0.9l1.2,0.3c1.4,0.3,2.1,1.2,2.1,2.3c0,1.1-0.9,2.4-2.8,2.4c-2.1,0-3-1.4-3.1-2.2
								L471.5,278.5z"/>
						</g>
						<g class="st1">
							<path class="st2" d="M789.3,42v-9.9h3.5c2.5,0,4.7,1.7,4.7,5c0,3.2-2.2,4.9-4.7,4.9H789.3z M792.7,40.8
								c1.8,0,3.4-1.2,3.4-3.7c0-2.5-1.5-3.8-3.3-3.8h-2.1v7.5H792.7z"/>
							<path class="st2" d="M800.8,38.1l1.8-0.3c0.4-0.1,0.5-0.3,0.5-0.5c0-0.7-0.4-1.2-1.5-1.2c-0.9,0-1.4,0.6-1.5,1.4l-1.3-0.3
								c0.1-1.3,1.3-2.2,2.8-2.2c2,0,2.8,1.1,2.8,2.5v3.4c0,0.6,0.1,0.9,0.1,1.1h-1.3c0-0.2-0.1-0.4-0.1-0.9c-0.3,0.5-1,1.1-2.2,1.1
								c-1.4,0-2.3-1-2.3-2C798.8,39,799.7,38.3,800.8,38.1z M803.2,39.1v-0.3l-2.1,0.3c-0.6,0.1-1,0.4-1,1c0,0.5,0.4,1,1.1,1
								C802.3,41.1,803.2,40.6,803.2,39.1z"/>
							<path class="st2" d="M808.3,35.3h1.5v1.2h-1.5V40c0,0.6,0.3,0.9,0.9,0.9c0.2,0,0.4,0,0.5-0.1v1.1c-0.1,0-0.4,0.1-0.9,0.1
								c-1.1,0-1.9-0.7-1.9-1.9v-3.7h-1.3v-1.2h0.4c0.7,0,1-0.4,1-1v-1.1h1.2V35.3z"/>
							<path class="st2" d="M817.3,40.1c-0.4,1.2-1.5,2.1-3,2.1c-1.8,0-3.4-1.3-3.4-3.6c0-2.1,1.5-3.6,3.2-3.6
								c2.1,0,3.2,1.4,3.2,3.5c0,0.2,0,0.3,0,0.4h-5.1c0,1.2,0.9,2,2,2c1.1,0,1.6-0.6,1.9-1.4L817.3,40.1z M816,37.9
								c0-1-0.7-1.7-1.8-1.7c-1.1,0-1.8,0.9-1.8,1.7H816z"/>
						</g>
						<g class="st1">
							<path class="st7" d="M789.7,80.1c0.7-1,1.7-1.7,3.2-1.7s2.5,0.7,3.2,1.7c0.7,1,0.9,2.3,0.9,3.8c0,1.4-0.2,2.7-0.9,3.8
								c-0.7,1-1.7,1.7-3.2,1.7s-2.5-0.7-3.2-1.7c-0.7-1-0.9-2.3-0.9-3.8C788.8,82.4,789,81.1,789.7,80.1z M791.3,87.2
								c0.4,0.4,0.9,0.7,1.6,0.7s1.2-0.3,1.6-0.7c0.6-0.7,0.9-1.8,0.9-3.4c0-1.6-0.3-2.7-0.9-3.4c-0.4-0.4-0.9-0.7-1.6-0.7
								s-1.2,0.3-1.6,0.7c-0.6,0.7-0.9,1.8-0.9,3.4C790.4,85.4,790.6,86.5,791.3,87.2z"/>
							<path class="st7" d="M798.5,86.3c0-1.3,0.9-2.2,2-2.6c-0.9-0.4-1.7-1.3-1.7-2.4c0-1.7,1.5-2.9,3.5-2.9c2,0,3.5,1.2,3.5,2.9
								c0,1.1-0.7,2.1-1.7,2.4c1.1,0.4,2,1.3,2,2.6c0,1.7-1.4,3-3.8,3C799.8,89.2,798.5,87.9,798.5,86.3z M804.4,86.1
								c0-1-0.8-1.8-2.2-1.8c-1.4,0-2.2,0.8-2.2,1.8c0,1,0.8,1.7,2.2,1.7S804.4,87.1,804.4,86.1z M804.1,81.3c0-0.9-0.8-1.7-1.9-1.7
								c-1.2,0-1.9,0.7-1.9,1.7c0,1,0.8,1.7,1.9,1.7C803.3,83,804.1,82.4,804.1,81.3z"/>
							<path class="st7" d="M808.2,89h-1.5l5.5-11.3h1.5L808.2,89z"/>
							<path class="st7" d="M814.7,80.1c0.7-1,1.7-1.7,3.2-1.7s2.5,0.7,3.2,1.7c0.7,1,0.9,2.3,0.9,3.8c0,1.4-0.2,2.7-0.9,3.8
								c-0.7,1-1.7,1.7-3.2,1.7s-2.5-0.7-3.2-1.7c-0.7-1-0.9-2.3-0.9-3.8C813.8,82.4,814,81.1,814.7,80.1z M816.3,87.2
								c0.4,0.4,0.9,0.7,1.6,0.7s1.2-0.3,1.6-0.7c0.6-0.7,0.9-1.8,0.9-3.4c0-1.6-0.3-2.7-0.9-3.4c-0.4-0.4-0.9-0.7-1.6-0.7
								s-1.2,0.3-1.6,0.7c-0.6,0.7-0.9,1.8-0.9,3.4C815.4,85.4,815.6,86.5,816.3,87.2z"/>
							<path class="st7" d="M823.5,82.2c0-0.1,0-0.3,0-0.4c0-1.8,1.3-3.4,3.6-3.4c2.2,0,3.5,1.5,3.5,3.2c0,1.4-0.8,2.4-2,3.2l-2,1.3
								c-0.6,0.4-1.1,0.8-1.3,1.5h5.3V89h-7.3c0-1.7,0.7-3,2.5-4.1l1.7-1.1c1-0.6,1.4-1.4,1.4-2.2c0-0.9-0.6-1.8-2-1.8
								c-1.4,0-2,0.9-2,2.1c0,0.1,0,0.3,0,0.5L823.5,82.2z"/>
							<path class="st7" d="M832.8,89h-1.5l5.5-11.3h1.5L832.8,89z"/>
							<path class="st7" d="M841.2,89v-7.3h-2.5v-1.1c1.4,0,2.4-0.8,2.7-2h1.4V89H841.2z"/>
							<path class="st7" d="M851.6,80.1c-1,0.8-3.9,3.4-4.4,8.9h-1.6c0.5-6,4.3-8.9,4.3-8.9H844v-1.4h7.6V80.1z"/>
						</g>
						<g class="st1">
							<path class="st7" d="M789.7,128.1c0.7-1,1.7-1.7,3.2-1.7s2.5,0.7,3.2,1.7c0.7,1,0.9,2.3,0.9,3.8c0,1.4-0.2,2.7-0.9,3.8
								c-0.7,1-1.7,1.7-3.2,1.7s-2.5-0.7-3.2-1.7c-0.7-1-0.9-2.3-0.9-3.8C788.8,130.4,789,129.1,789.7,128.1z M791.3,135.2
								c0.4,0.4,0.9,0.7,1.6,0.7s1.2-0.3,1.6-0.7c0.6-0.7,0.9-1.8,0.9-3.4c0-1.6-0.3-2.7-0.9-3.4c-0.4-0.4-0.9-0.7-1.6-0.7
								s-1.2,0.3-1.6,0.7c-0.6,0.7-0.9,1.8-0.9,3.4C790.4,133.4,790.6,134.5,791.3,135.2z"/>
							<path class="st7" d="M798.5,134.3c0-1.3,0.9-2.2,2-2.6c-0.9-0.4-1.7-1.3-1.7-2.4c0-1.7,1.5-2.9,3.5-2.9c2,0,3.5,1.2,3.5,2.9
								c0,1.1-0.7,2.1-1.7,2.4c1.1,0.4,2,1.3,2,2.6c0,1.7-1.4,3-3.8,3C799.8,137.2,798.5,135.9,798.5,134.3z M804.4,134.1
								c0-1-0.8-1.8-2.2-1.8c-1.4,0-2.2,0.8-2.2,1.8c0,1,0.8,1.7,2.2,1.7S804.4,135.1,804.4,134.1z M804.1,129.3
								c0-0.9-0.8-1.7-1.9-1.7c-1.2,0-1.9,0.7-1.9,1.7c0,1,0.8,1.7,1.9,1.7C803.3,131,804.1,130.4,804.1,129.3z"/>
							<path class="st7" d="M808.2,137h-1.5l5.5-11.3h1.5L808.2,137z"/>
							<path class="st7" d="M816.6,137v-7.3H814v-1.1c1.4,0,2.4-0.8,2.7-2h1.4V137H816.6z"/>
							<path class="st7" d="M821.4,133.7c0.1,1.3,1,2.1,2.3,2.1c1.2,0,2.2-0.8,2.2-2.1c0-1.4-1-2.1-2.2-2.1c-0.7,0-1.4,0.3-1.9,0.8
								c-0.5-0.2-1-0.4-1.5-0.6l1.3-5.2h5.5v1.4h-4.4l-0.8,3c0.5-0.5,1.3-0.8,2.1-0.8c2,0,3.5,1.3,3.5,3.4c0,2-1.5,3.5-3.8,3.5
								c-2.2,0-3.7-1.4-3.8-3.1L821.4,133.7z"/>
							<path class="st7" d="M829.2,137h-1.5l5.5-11.3h1.5L829.2,137z"/>
							<path class="st7" d="M837.6,137v-7.3h-2.5v-1.1c1.4,0,2.4-0.8,2.7-2h1.4V137H837.6z"/>
							<path class="st7" d="M848.1,128.1c-1,0.8-3.9,3.4-4.4,8.9h-1.6c0.5-6,4.3-8.9,4.3-8.9h-5.8v-1.4h7.6V128.1z"/>
						</g>
						<g class="st1">
							<path class="st7" d="M789.7,176.1c0.7-1,1.7-1.7,3.2-1.7s2.5,0.7,3.2,1.7c0.7,1,0.9,2.3,0.9,3.8c0,1.4-0.2,2.7-0.9,3.8
								c-0.7,1-1.7,1.7-3.2,1.7s-2.5-0.7-3.2-1.7c-0.7-1-0.9-2.3-0.9-3.8C788.8,178.4,789,177.1,789.7,176.1z M791.3,183.2
								c0.4,0.4,0.9,0.7,1.6,0.7s1.2-0.3,1.6-0.7c0.6-0.7,0.9-1.8,0.9-3.4c0-1.6-0.3-2.7-0.9-3.4c-0.4-0.4-0.9-0.7-1.6-0.7
								s-1.2,0.3-1.6,0.7c-0.6,0.7-0.9,1.8-0.9,3.4C790.4,181.4,790.6,182.5,791.3,183.2z"/>
							<path class="st7" d="M798.5,182.3c0-1.3,0.9-2.2,2-2.6c-0.9-0.4-1.7-1.3-1.7-2.4c0-1.7,1.5-2.9,3.5-2.9c2,0,3.5,1.2,3.5,2.9
								c0,1.1-0.7,2.1-1.7,2.4c1.1,0.4,2,1.3,2,2.6c0,1.7-1.4,3-3.8,3C799.8,185.2,798.5,183.9,798.5,182.3z M804.4,182.1
								c0-1-0.8-1.8-2.2-1.8c-1.4,0-2.2,0.8-2.2,1.8c0,1,0.8,1.7,2.2,1.7S804.4,183.1,804.4,182.1z M804.1,177.3
								c0-0.9-0.8-1.7-1.9-1.7c-1.2,0-1.9,0.7-1.9,1.7c0,1,0.8,1.7,1.9,1.7C803.3,179,804.1,178.4,804.1,177.3z"/>
							<path class="st7" d="M808.2,185h-1.5l5.5-11.3h1.5L808.2,185z"/>
							<path class="st7" d="M816.6,185v-7.3H814v-1.1c1.4,0,2.4-0.8,2.7-2h1.4V185H816.6z"/>
							<path class="st7" d="M821.1,176.1c0.7-1,1.7-1.7,3.2-1.7s2.5,0.7,3.2,1.7c0.7,1,0.9,2.3,0.9,3.8c0,1.4-0.2,2.7-0.9,3.8
								c-0.7,1-1.7,1.7-3.2,1.7s-2.5-0.7-3.2-1.7c-0.7-1-0.9-2.3-0.9-3.8C820.2,178.4,820.4,177.1,821.1,176.1z M822.6,183.2
								c0.4,0.4,0.9,0.7,1.6,0.7s1.2-0.3,1.6-0.7c0.6-0.7,0.9-1.8,0.9-3.4c0-1.6-0.3-2.7-0.9-3.4c-0.4-0.4-0.9-0.7-1.6-0.7
								s-1.2,0.3-1.6,0.7c-0.6,0.7-0.9,1.8-0.9,3.4C821.7,181.4,822,182.5,822.6,183.2z"/>
							<path class="st7" d="M830,185h-1.5l5.5-11.3h1.5L830,185z"/>
							<path class="st7" d="M838.4,185v-7.3h-2.5v-1.1c1.4,0,2.4-0.8,2.7-2h1.4V185H838.4z"/>
							<path class="st7" d="M848.9,176.1c-1,0.8-3.9,3.4-4.4,8.9h-1.6c0.5-6,4.3-8.9,4.3-8.9h-5.8v-1.4h7.6V176.1z"/>
						</g>
						<g class="st1">
							<path class="st7" d="M789.7,224.1c0.7-1,1.7-1.7,3.2-1.7s2.5,0.7,3.2,1.7c0.7,1,0.9,2.3,0.9,3.8c0,1.4-0.2,2.7-0.9,3.8
								c-0.7,1-1.7,1.7-3.2,1.7s-2.5-0.7-3.2-1.7c-0.7-1-0.9-2.3-0.9-3.8C788.8,226.4,789,225.1,789.7,224.1z M791.3,231.2
								c0.4,0.4,0.9,0.7,1.6,0.7s1.2-0.3,1.6-0.7c0.6-0.7,0.9-1.8,0.9-3.4c0-1.6-0.3-2.7-0.9-3.4c-0.4-0.4-0.9-0.7-1.6-0.7
								s-1.2,0.3-1.6,0.7c-0.6,0.7-0.9,1.8-0.9,3.4C790.4,229.4,790.6,230.5,791.3,231.2z"/>
							<path class="st7" d="M798.5,230.3c0-1.3,0.9-2.2,2-2.6c-0.9-0.4-1.7-1.3-1.7-2.4c0-1.7,1.5-2.9,3.5-2.9c2,0,3.5,1.2,3.5,2.9
								c0,1.1-0.7,2.1-1.7,2.4c1.1,0.4,2,1.3,2,2.6c0,1.7-1.4,3-3.8,3C799.8,233.2,798.5,231.9,798.5,230.3z M804.4,230.1
								c0-1-0.8-1.8-2.2-1.8c-1.4,0-2.2,0.8-2.2,1.8c0,1,0.8,1.7,2.2,1.7S804.4,231.1,804.4,230.1z M804.1,225.3
								c0-0.9-0.8-1.7-1.9-1.7c-1.2,0-1.9,0.7-1.9,1.7c0,1,0.8,1.7,1.9,1.7C803.3,227,804.1,226.4,804.1,225.3z"/>
							<path class="st7" d="M808.2,233h-1.5l5.5-11.3h1.5L808.2,233z"/>
							<path class="st7" d="M816.6,233v-7.3H814v-1.1c1.4,0,2.4-0.8,2.7-2h1.4V233H816.6z"/>
							<path class="st7" d="M821.1,224.1c0.7-1,1.7-1.7,3.2-1.7s2.5,0.7,3.2,1.7c0.7,1,0.9,2.3,0.9,3.8c0,1.4-0.2,2.7-0.9,3.8
								c-0.7,1-1.7,1.7-3.2,1.7s-2.5-0.7-3.2-1.7c-0.7-1-0.9-2.3-0.9-3.8C820.2,226.4,820.4,225.1,821.1,224.1z M822.6,231.2
								c0.4,0.4,0.9,0.7,1.6,0.7s1.2-0.3,1.6-0.7c0.6-0.7,0.9-1.8,0.9-3.4c0-1.6-0.3-2.7-0.9-3.4c-0.4-0.4-0.9-0.7-1.6-0.7
								s-1.2,0.3-1.6,0.7c-0.6,0.7-0.9,1.8-0.9,3.4C821.7,229.4,822,230.5,822.6,231.2z"/>
							<path class="st7" d="M830,233h-1.5l5.5-11.3h1.5L830,233z"/>
							<path class="st7" d="M838.4,233v-7.3h-2.5v-1.1c1.4,0,2.4-0.8,2.7-2h1.4V233H838.4z"/>
							<path class="st7" d="M848.9,224.1c-1,0.8-3.9,3.4-4.4,8.9h-1.6c0.5-6,4.3-8.9,4.3-8.9h-5.8v-1.4h7.6V224.1z"/>
						</g>
						<g class="st1">
							<path class="st3" d="M789.7,272.1c0.7-1,1.7-1.7,3.2-1.7s2.5,0.7,3.2,1.7c0.7,1,0.9,2.3,0.9,3.8c0,1.4-0.2,2.7-0.9,3.8
								c-0.7,1-1.7,1.7-3.2,1.7s-2.5-0.7-3.2-1.7c-0.7-1-0.9-2.3-0.9-3.8C788.8,274.4,789,273.1,789.7,272.1z M791.3,279.2
								c0.4,0.4,0.9,0.7,1.6,0.7s1.2-0.3,1.6-0.7c0.6-0.7,0.9-1.8,0.9-3.4c0-1.6-0.3-2.7-0.9-3.4c-0.4-0.4-0.9-0.7-1.6-0.7
								s-1.2,0.3-1.6,0.7c-0.6,0.7-0.9,1.8-0.9,3.4C790.4,277.4,790.6,278.5,791.3,279.2z"/>
							<path class="st3" d="M798.5,278.3c0-1.3,0.9-2.2,2-2.6c-0.9-0.4-1.7-1.3-1.7-2.4c0-1.7,1.5-2.9,3.5-2.9c2,0,3.5,1.2,3.5,2.9
								c0,1.1-0.7,2.1-1.7,2.4c1.1,0.4,2,1.3,2,2.6c0,1.7-1.4,3-3.8,3C799.8,281.2,798.5,279.9,798.5,278.3z M804.4,278.1
								c0-1-0.8-1.8-2.2-1.8c-1.4,0-2.2,0.8-2.2,1.8c0,1,0.8,1.7,2.2,1.7S804.4,279.1,804.4,278.1z M804.1,273.3
								c0-0.9-0.8-1.7-1.9-1.7c-1.2,0-1.9,0.7-1.9,1.7c0,1,0.8,1.7,1.9,1.7C803.3,275,804.1,274.4,804.1,273.3z"/>
							<path class="st3" d="M808.2,281h-1.5l5.5-11.3h1.5L808.2,281z"/>
							<path class="st3" d="M816.6,281v-7.3H814v-1.1c1.4,0,2.4-0.8,2.7-2h1.4V281H816.6z"/>
							<path class="st3" d="M821.1,272.1c0.7-1,1.7-1.7,3.2-1.7s2.5,0.7,3.2,1.7c0.7,1,0.9,2.3,0.9,3.8c0,1.4-0.2,2.7-0.9,3.8
								c-0.7,1-1.7,1.7-3.2,1.7s-2.5-0.7-3.2-1.7c-0.7-1-0.9-2.3-0.9-3.8C820.2,274.4,820.4,273.1,821.1,272.1z M822.6,279.2
								c0.4,0.4,0.9,0.7,1.6,0.7s1.2-0.3,1.6-0.7c0.6-0.7,0.9-1.8,0.9-3.4c0-1.6-0.3-2.7-0.9-3.4c-0.4-0.4-0.9-0.7-1.6-0.7
								s-1.2,0.3-1.6,0.7c-0.6,0.7-0.9,1.8-0.9,3.4C821.7,277.4,822,278.5,822.6,279.2z"/>
							<path class="st3" d="M830,281h-1.5l5.5-11.3h1.5L830,281z"/>
							<path class="st3" d="M838.4,281v-7.3h-2.5v-1.1c1.4,0,2.4-0.8,2.7-2h1.4V281H838.4z"/>
							<path class="st3" d="M848.9,272.1c-1,0.8-3.9,3.4-4.4,8.9h-1.6c0.5-6,4.3-8.9,4.3-8.9h-5.8v-1.4h7.6V272.1z"/>
						</g>
						<path id="Line" class="st8" d="M80,59h780"/>
						<path id="Line_1_" class="st8" d="M80,107h780"/>
						<path id="Line_2_" class="st8" d="M80,155h780"/>
						<path id="Line_3_" class="st8" d="M80,203h780"/>
						<path id="Line_4_" class="st8" d="M80,251h780"/>
						<path id="Line_5_" class="st8" d="M80,299h780"/>
						<g id="Rectangle-11">
							<g>
								<path id="path-1" class="st0" d="M89,263h20c1.1,0,2,0.9,2,2v20c0,1.1-0.9,2-2,2H89c-1.1,0-2-0.9-2-2v-20
									C87,263.9,87.9,263,89,263z"/>
							</g>
							<path class="st9" d="M89.5,263.5h19c1.1,0,2,0.9,2,2v19c0,1.1-0.9,2-2,2h-19c-1.1,0-2-0.9-2-2v-19
								C87.5,264.4,88.4,263.5,89.5,263.5z"/>
						</g>
						<g id="Group-5" transform="translate(379.000000, 332.000000)">
							<path id="Rectangle-2" class="st10" d="M8,0h167c4.4,0,8,3.6,8,8v20c0,4.4-3.6,8-8,8H8c-4.4,0-8-3.6-8-8V8C0,3.6,3.6,0,8,0z"
								/>
							<g class="st1">
								<path class="st0" d="M71.1,15.9c-0.1-0.7-0.7-1.7-2.2-1.7c-1.2,0-2,0.8-2,1.6c0,0.7,0.4,1.3,1.3,1.5l1.6,0.3
									c2,0.4,3.1,1.7,3.1,3.3c0,1.8-1.4,3.4-4,3.4c-2.9,0-4.2-1.9-4.4-3.5l1.8-0.5c0.1,1.2,1,2.3,2.6,2.3c1.4,0,2.1-0.7,2.1-1.6
									c0-0.7-0.5-1.3-1.5-1.5l-1.6-0.3c-1.7-0.4-2.9-1.5-2.9-3.2c0-1.9,1.7-3.5,3.9-3.5c2.7,0,3.7,1.6,4,2.9L71.1,15.9z"/>
								<path class="st0" d="M74.8,27.2l1.9-4.1l-3.3-6.9h2.1l2.2,4.9l2.1-4.9h2l-5,10.9H74.8z"/>
								<path class="st0" d="M85,24h-1.9v-7.8h1.8v1c0.5-0.9,1.4-1.3,2.3-1.3c1.9,0,2.8,1.4,2.8,3.1V24h-1.9v-4.6
									c0-1-0.4-1.7-1.6-1.7c-1.1,0-1.6,0.8-1.6,1.8V24z"/>
								<path class="st0" d="M93.5,20.1c0,1.6,1,2.4,2.2,2.4c1.2,0,1.8-0.8,2-1.4l1.6,0.6c-0.4,1.2-1.5,2.5-3.6,2.5
									c-2.3,0-4-1.8-4-4.1c0-2.4,1.7-4.1,4-4.1c2.1,0,3.2,1.3,3.6,2.6l-1.7,0.6c-0.2-0.7-0.7-1.5-1.9-1.5
									C94.6,17.7,93.5,18.5,93.5,20.1z"/>
								<path class="st0" d="M105.8,12.3c0.7,0,1.2,0.5,1.2,1.2s-0.5,1.2-1.2,1.2c-0.7,0-1.2-0.5-1.2-1.2S105.2,12.3,105.8,12.3z
									 M104.9,24v-7.8h1.8V24H104.9z"/>
								<path class="st0" d="M111.5,16.2h1.6v1.6h-1.6v3.6c0,0.7,0.3,1,1,1c0.3,0,0.6,0,0.6-0.1v1.5c-0.1,0-0.5,0.2-1.1,0.2
									c-1.4,0-2.3-0.9-2.3-2.3v-3.9h-1.4v-1.6h0.4c0.8,0,1.2-0.5,1.2-1.2v-1.2h1.7V16.2z"/>
								<path class="st0" d="M116.4,21.8c0.7,0,1.2,0.5,1.2,1.2c0,0.6-0.5,1.2-1.2,1.2c-0.6,0-1.2-0.5-1.2-1.2
									C115.2,22.3,115.7,21.8,116.4,21.8z M117.1,20.6h-1.3l-0.5-8h2.3L117.1,20.6z"/>
							</g>
						</g>
						<g id="ic_done" transform="translate(87.000000, 70.000000)">
							<polygon id="Bounds_2_" class="st4" points="0,0 24,0 24,24 0,24 							"/>
							<polygon id="Icon_2_" class="st11" points="9,16.2 4.8,12 3.4,13.4 9,19 21,7 19.6,5.6 							"/>
						</g>
						<g id="ic_done_1_" transform="translate(88.000000, 23.000000)">
							<polygon id="Bounds_3_" class="st4" points="0,0 24,0 24,24 0,24 							"/>
							<polygon id="Icon_3_" class="st11" points="8,15.2 3.8,11 2.4,12.4 8,18 20,6 18.6,4.6 							"/>
						</g>
						<g id="ic_done_2_" transform="translate(87.000000, 118.000000)">
							<polygon id="Bounds_4_" class="st4" points="0,0 24,0 24,24 0,24 							"/>
							<polygon id="Icon_4_" class="st11" points="9,16.2 4.8,12 3.4,13.4 9,19 21,7 19.6,5.6 							"/>
						</g>
						<g id="ic_done_3_" transform="translate(87.000000, 166.000000)">
							<polygon id="Bounds_5_" class="st4" points="0,0 24,0 24,24 0,24 							"/>
							<polygon id="Icon_5_" class="st11" points="9,16.2 4.8,12 3.4,13.4 9,19 21,7 19.6,5.6 							"/>
						</g>
						<g id="ic_done_4_" transform="translate(87.000000, 214.000000)">
							<polygon id="Bounds_6_" class="st4" points="0,0 24,0 24,24 0,24 							"/>
							<polygon id="Icon_6_" class="st11" points="9,16.2 4.8,12 3.4,13.4 9,19 21,7 19.6,5.6 							"/>
						</g>
						<g id="ic_done_5_" transform="translate(87.000000, 262.000000)">
							<polygon id="Bounds_7_" class="st4" points="0,0 24,0 24,24 0,24 							"/>
							<polygon id="Icon_7_" class="st11" points="9,16.2 4.8,12 3.4,13.4 9,19 21,7 19.6,5.6 							"/>
						</g>
					</g>
					<path id="Line_6_" class="st8" d="M80,1.5h784"/>
				</g>
				<path id="Rectangle-11_1_" class="st9" d="M89.5,313.5h19c1.1,0,2,0.9,2,2v19c0,1.1-0.9,2-2,2h-19c-1.1,0-2-0.9-2-2v-19
					C87.5,314.4,88.4,313.5,89.5,313.5z"/>
				<path id="Rectangle-11_2_" class="st9" d="M89.5,361.5h19c1.1,0,2,0.9,2,2v19c0,1.1-0.9,2-2,2h-19c-1.1,0-2-0.9-2-2v-19
					C87.5,362.4,88.4,361.5,89.5,361.5z"/>
				<path id="Rectangle-11_3_" class="st9" d="M89.5,409.5h19c1.1,0,2,0.9,2,2v19c0,1.1-0.9,2-2,2h-19c-1.1,0-2-0.9-2-2v-19
					C87.5,410.4,88.4,409.5,89.5,409.5z"/>
				<path id="Rectangle-11_4_" class="st9" d="M89.5,457.5h19c1.1,0,2,0.9,2,2v19c0,1.1-0.9,2-2,2h-19c-1.1,0-2-0.9-2-2v-19
					C87.5,458.4,88.4,457.5,89.5,457.5z"/>
				<path id="Rectangle-11_5_" class="st9" d="M89.5,505.5h19c1.1,0,2,0.9,2,2v19c0,1.1-0.9,2-2,2h-19c-1.1,0-2-0.9-2-2v-19
					C87.5,506.4,88.4,505.5,89.5,505.5z"/>
			</g>
		</g>
	</g>
</g>
</svg>
